<?xml version="1.0" encoding="utf-8"?>
<svg version="1.1" id="Layer_1" xmlns="http://www.w3.org/2000/svg" xmlns:xlink="http://www.w3.org/1999/xlink" x="0px" y="0px"
	 width="15px" height="15px" viewBox="0 0 15 15" enable-background="new 0 0 15 15" xml:space="preserve">
	<path fill="#55231A" d="M10.392,12.956c-0.203,0.073-0.369,0.205-0.563,0.278c-0.24,0.088-0.49,0.176-0.738,0.206
		c-0.293,0.033-0.52-0.126-0.591-0.424c-0.055-0.215-0.091-0.455-0.069-0.678c0.05-0.467,0.146-0.939,0.234-1.403
		c0.26-1.421,0.523-2.828,0.775-4.241C9.509,6.308,9.573,5.925,9.56,5.54C9.548,5.075,9.278,4.858,8.812,4.858
		c-0.647,0-1.289,0-1.933,0c-0.608,0-1.212,0-1.821,0c-0.153,0-0.304,0-0.448,0.031C4.329,4.946,4.194,5.084,4.17,5.298
		C4.145,5.509,4.258,5.707,4.514,5.795c0.2,0.073,0.434,0.089,0.65,0.12c0.512,0.072,0.67,0.248,0.67,0.771
		c0,0.078,0,0.161-0.015,0.237C5.604,8.163,5.38,9.403,5.171,10.64c-0.12,0.709-0.232,1.424-0.33,2.141
		c-0.142,1.047,0.86,2.023,1.652,2.14c0.472,0.073,0.96,0.088,1.441,0.077c1.04-0.017,1.894-0.444,2.618-1.177
		c0.121-0.132,0.23-0.308,0.268-0.471C10.894,13.047,10.657,12.854,10.392,12.956z"/>
	<path fill="#55231A" d="M9.968,2.005C9.972,0.899,9.103,0.008,8.006,0C6.911-0.008,6.023,0.874,6.015,1.973
		C6.005,3.07,6.895,3.976,8.004,3.984C9.067,3.992,9.954,3.103,9.968,2.005z"/>
</svg>
