<?xml version="1.0" encoding="utf-8"?>
<svg version="1.1" id="Layer_1" xmlns="http://www.w3.org/2000/svg" xmlns:xlink="http://www.w3.org/1999/xlink" x="0px" y="0px"
	 width="15px" height="15px" viewBox="0 0 15 15" enable-background="new 0 0 15 15" xml:space="preserve">
	<path fill="#55231A" d="M5.738,6.485C5.733,6.407,5.727,6.33,5.727,6.251c0-1.458,0.958-2.696,2.277-3.121
		C7.648,2.497,6.971,2.068,6.195,2.068c-0.718,0-1.375,0.366-1.758,0.978l-0.04,0.063L4.325,3.11
		C2.701,3.144,1.379,4.492,1.379,6.117c0,0.125,0.011,0.246,0.025,0.368H5.738L5.738,6.485z"/>
	<path fill="#55231A" d="M5.995,6.251c0,0.079,0.007,0.155,0.013,0.234h1.367h0.132h0.14h4.357c0.007-0.078,0.015-0.155,0.015-0.234
		c0-1.661-1.35-3.01-3.013-3.01c-0.212,0-0.423,0.022-0.624,0.065C8.337,3.315,8.296,3.329,8.253,3.34
		C8.209,3.352,8.165,3.36,8.121,3.374C6.891,3.752,5.995,4.897,5.995,6.251z"/>
	<path fill="#55231A" d="M5.123,12.346v0.138v0.141v1.295H4.062c-0.337,0-0.609,0.272-0.609,0.609s0.272,0.61,0.609,0.61h5.334
		c0.337,0,0.615-0.273,0.615-0.61s-0.278-0.609-0.615-0.609H8.337v-1.295v-0.141v-0.138c2.434-0.697,4.213-2.938,4.213-5.596h-0.313
		h-0.132h-0.134H7.606H7.47H7.33H6.039H5.905H5.768H1.449H1.31H1.175H0.912C0.912,9.409,2.693,11.648,5.123,12.346z"/>
	<path fill="#55231A" d="M11.193,6.086l-0.582-0.682l2.651-5.173c0,0,1.129-0.409,0.748,0.497
		C13.883,1.04,11.193,6.086,11.193,6.086z"/>
</svg>