<?xml version="1.0" encoding="utf-8"?>
<svg version="1.1" id="Layer_1" xmlns="http://www.w3.org/2000/svg" xmlns:xlink="http://www.w3.org/1999/xlink" x="0px" y="0px"
	 width="15px" height="15px" viewBox="0 0 15 15" enable-background="new 0 0 15 15" xml:space="preserve">
	<path fill="#55231A" d="M7.761,14.297c-1.615,0.075-6.821-0.493-6.81-2.858c-0.213,0-0.824,0.527-0.899,0.778
		c-0.762,2.582,6.978,2.786,7.754,2.786c2.012,0,7.298-0.427,7.191-2.543c-0.015-0.269-0.412-0.78-0.64-0.867
		C14.494,13.053,11.938,14.105,7.761,14.297z"/>
	<path fill="#55231A" d="M13.76,10.807c0-0.468-0.261-0.848-0.582-0.848c-0.037,0-0.073,0.007-0.108,0.016
		c0-0.005,0.001-0.009,0.001-0.016c0-0.467-0.261-0.846-0.583-0.846c-0.053,0-0.104,0.012-0.153,0.03
		c-0.037-0.034-0.072-0.072-0.109-0.105c0.005-0.042,0.008-0.085,0.008-0.13c0-0.469-0.26-0.846-0.582-0.846
		c-0.075,0-0.147,0.021-0.214,0.06c0.012-0.068,0.019-0.139,0.019-0.212c0-0.466-0.26-0.847-0.581-0.847
		c-0.053,0-0.104,0.011-0.152,0.031c-0.063-0.371-0.291-0.645-0.564-0.645c-0.196,0-0.371,0.143-0.476,0.36
		C9.565,6.34,9.268,6.007,8.92,6.007c-0.321,0-0.597,0.283-0.73,0.691c-0.13-0.364-0.376-0.611-0.66-0.611
		c-0.364,0-0.667,0.405-0.74,0.946C6.667,6.802,6.456,6.648,6.215,6.648c-0.378,0-0.686,0.379-0.686,0.847
		c0,0.007,0.001,0.013,0.001,0.018C5.424,7.421,5.294,7.366,5.154,7.366c-0.347,0-0.631,0.335-0.665,0.762
		C4.433,8.116,4.375,8.11,4.316,8.11c-0.465,0-0.842,0.379-0.842,0.847c0,0.135,0.032,0.261,0.087,0.373
		C3.515,9.324,3.468,9.322,3.419,9.322c-0.45,0-0.814,0.256-0.814,0.568c0,0.112,0.046,0.218,0.126,0.306
		c-0.422,0.048-0.743,0.28-0.743,0.559c0,0.091,0.034,0.177,0.092,0.252c-0.263,0.341-0.413,0.632-0.413,0.817
		c0,0.921,3.055,1.835,6.334,1.835c3.281,0,5.758-1.157,5.758-2.079c0-0.099-0.024-0.229-0.069-0.373
		C13.735,11.088,13.76,10.951,13.76,10.807z"/>
			<path fill="#55231A" d="M8.984,0.112c-0.104-0.139-0.28-0.149-0.394-0.027C8.479,0.21,8.468,0.424,8.571,0.563
				C8.572,0.565,8.79,0.872,8.765,1.27C8.749,1.556,8.608,1.835,8.355,2.101c-0.385,0.4-0.588,0.845-0.603,1.316
				C7.732,4.068,8.091,4.513,8.107,4.531c0.076,0.094,0.188,0.12,0.285,0.08C8.433,4.594,8.47,4.568,8.497,4.53
				c0.109-0.133,0.109-0.347,0.001-0.478C8.494,4.051,8.297,3.79,8.308,3.441c0.005-0.273,0.146-0.552,0.408-0.827
				c0.373-0.389,0.578-0.831,0.605-1.309C9.354,0.621,9.001,0.13,8.984,0.112z"/>
			<path fill="#55231A" d="M6.762,5.075C6.799,5.061,6.834,5.035,6.862,5c0.1-0.125,0.099-0.324-0.003-0.444
				C6.857,4.554,6.665,4.313,6.675,3.983C6.683,3.73,6.81,3.471,7.05,3.217C7.396,2.85,7.582,2.439,7.604,1.994
				c0.027-0.636-0.307-1.088-0.322-1.107C7.185,0.76,7.021,0.75,6.917,0.868C6.812,0.985,6.805,1.184,6.9,1.312
				c0.003,0.002,0.206,0.286,0.187,0.655C7.074,2.23,6.947,2.493,6.712,2.744C6.356,3.119,6.17,3.532,6.16,3.971
				C6.146,4.578,6.482,4.986,6.498,5.002C6.568,5.089,6.673,5.113,6.762,5.075z"/>
			<path fill="#55231A" d="M9.985,4.854c0.034-0.014,0.069-0.04,0.096-0.074c0.096-0.12,0.095-0.311-0.004-0.427
				C10.076,4.349,9.892,4.117,9.9,3.798c0.008-0.244,0.13-0.495,0.361-0.738c0.335-0.354,0.513-0.752,0.535-1.181
				c0.026-0.614-0.297-1.051-0.312-1.069c-0.092-0.123-0.251-0.132-0.35-0.019c-0.103,0.114-0.11,0.304-0.018,0.428
				c0.003,0.003,0.199,0.277,0.181,0.633c-0.013,0.256-0.137,0.509-0.363,0.751C9.593,2.963,9.414,3.363,9.403,3.787
				C9.39,4.373,9.716,4.767,9.729,4.783C9.797,4.866,9.899,4.89,9.985,4.854z"/>
</svg>