<?xml version="1.0" encoding="utf-8"?>
<svg version="1.1" id="Layer_1" xmlns="http://www.w3.org/2000/svg" xmlns:xlink="http://www.w3.org/1999/xlink" x="0px" y="0px"
	 width="15px" height="15px" viewBox="0 0 15 15" enable-background="new 0 0 15 15" xml:space="preserve">
	<path fill="#55231A" d="M11.592,0c0.196,0,0.327,0.119,0.327,0.185c0,0.056-0.018,0.181-0.01,0.312h0.02
		c0.156,0.097,0.127,0.382,0.014,0.456h-0.015c-0.005,0.308,0.016,1.354,0.078,1.701c0.099,0.548-0.09,0.756,0.577,1.251
		c1.623,1.202,1.428,1.602,1.455,1.905c0.028,0.303-0.085,6.8-0.134,7.2c-0.047,0.399-0.082,0.665,0.118,1.274
		c0.2,0.61-0.465,0.688-0.726,0.716H7.851c-0.26-0.027-0.925-0.104-0.725-0.716c0.199-0.611,0.166-0.875,0.117-1.274
		c-0.05-0.4-0.161-6.897-0.135-7.2c0.028-0.303-0.167-0.703,1.456-1.905C9.229,3.41,9.042,3.202,9.141,2.654
		C9.204,2.307,9.225,1.26,9.219,0.953H9.204C9.092,0.879,9.063,0.593,9.218,0.497h0.02C9.248,0.365,9.229,0.24,9.229,0.185
		C9.227,0.119,9.357,0,9.553,0"/>
	<path fill="#55231A" d="M2.727,14.926c0.206,0.032,0.439,0.024,0.736,0.024c0.344,0,0.611,0.008,0.994,0.008
		c1.083-0.842,1.869-3.479,1.869-8.76H0.941C0.941,11.346,1.687,14.016,2.727,14.926z"/>
</svg>