<?xml version="1.0" encoding="utf-8"?>
<svg version="1.1" id="Layer_1" xmlns="http://www.w3.org/2000/svg" xmlns:xlink="http://www.w3.org/1999/xlink" x="0px" y="0px"
	 width="15px" height="15px" viewBox="0 0 15 15" enable-background="new 0 0 15 15" xml:space="preserve">
	<path fill="#55231A" d="M7.773,1.75c-2.993,0-5.42,2.593-5.42,5.789c0,3.198,2.427,5.788,5.42,5.788c2.99,0,5.418-2.59,5.418-5.788
		C13.191,4.343,10.764,1.75,7.773,1.75z M7.773,11.931c-2.268,0-4.111-1.973-4.111-4.392c0-2.421,1.844-4.391,4.111-4.391
		c2.266,0,4.11,1.969,4.11,4.391C11.884,9.958,10.039,11.931,7.773,11.931z"/>
	<path fill="#55231A" d="M7.773,4.324c-1.66,0-3.01,1.443-3.01,3.215c0,1.771,1.349,3.215,3.01,3.215s3.009-1.443,3.009-3.215
		C10.782,5.766,9.435,4.324,7.773,4.324z"/>
	<path fill="#55231A" d="M14.803,7.673V0.168c0-0.072-0.024-0.137-0.063-0.159c-0.039-0.024-0.082,0-0.106,0.059
		c-0.529,1.233-0.814,2.739-0.814,4.288v2.746c0,0.315,0.144,0.571,0.323,0.571h0.133c-0.132,2.417-0.22,5.799-0.22,6.194
		c0,0.627,0.218,1.132,0.484,1.132c0.269,0,0.485-0.505,0.485-1.132C15.024,13.472,14.936,10.089,14.803,7.673z"/>
	<path fill="#55231A" d="M1.678,6.182c0.321-0.288,0.533-0.808,0.533-1.403L2.053,0.934C2.047,0.788,1.965,0.671,1.867,0.671
		c-0.108,0-0.193,0.133-0.188,0.293l0.103,3.083c0,0.173-0.094,0.314-0.212,0.314c-0.116,0-0.212-0.141-0.212-0.314l-0.05-3.083
		C1.305,0.803,1.215,0.671,1.106,0.671c-0.109,0-0.2,0.131-0.203,0.293L0.852,4.048c0,0.173-0.095,0.314-0.211,0.314
		c-0.117,0-0.211-0.141-0.211-0.314l0.104-3.083c0.004-0.159-0.08-0.293-0.187-0.293c-0.099,0-0.182,0.116-0.188,0.262L0,4.779
		c0,0.596,0.213,1.116,0.534,1.403C0.741,6.37,0.857,6.721,0.831,7.08c-0.18,2.415-0.303,6.359-0.303,6.788
		C0.528,14.494,0.787,15,1.106,15s0.577-0.506,0.577-1.132c0-0.429-0.123-4.373-0.302-6.788C1.353,6.721,1.47,6.37,1.678,6.182z"/>
</svg>