<?xml version="1.0" encoding="utf-8"?>
<svg version="1.1" id="Layer_1" xmlns="http://www.w3.org/2000/svg" xmlns:xlink="http://www.w3.org/1999/xlink" x="0px" y="0px"
	 width="15px" height="15px" viewBox="0 0 15 15" enable-background="new 0 0 15 15" xml:space="preserve">
		<path fill="#55231A" d="M14.743,4.679c-0.096-0.11-0.375-0.255-0.486-0.16c-0.001,0.001-0.002,0.002-0.003,0.003l0,0l-3.132,2.686
			c0,0-0.283,0.407-0.826,0.927C9.278,8,8.08,7.924,6.815,7.915V7.912c-0.04,0-0.078,0.002-0.119,0.002
			c-0.04,0-0.078-0.002-0.118-0.002v0.002C4.964,7.926,3.451,8.046,2.296,8.259c-1.52,0.279-2.17,0.645-2.17,1.222
			c0,0.039,0.003,0.075,0.01,0.113C0.039,11.495,1.687,15,4.262,15c0.927,0,1.682,0,2.317,0c0.077,0,0.156,0,0.237,0
			c0.635,0,1.391,0,2.316,0c2.575,0,4.223-3.505,4.127-5.406c0.006-0.038,0.009-0.074,0.009-0.113c0-0.576-0.65-0.942-2.173-1.221
			c-0.022-0.006-0.048-0.01-0.074-0.013c0.401-0.262,0.665-0.372,0.665-0.372l3.137-2.689l0,0c0.001-0.002,0.002-0.002,0.004-0.003
			C14.938,5.088,14.836,4.789,14.743,4.679z M0.995,9.48c0.513-0.295,2.446-0.738,5.703-0.751c1.053,0.004,1.965,0.054,2.738,0.129
			C9.209,9.025,8.961,9.194,8.688,9.352C8.689,9.355,8.69,9.356,8.692,9.358C7.969,8.82,6.878,8.883,6.087,9.563
			C5.866,9.752,5.69,9.974,5.559,10.208C2.988,10.112,1.444,9.739,0.995,9.48z M12.403,9.48c-0.36,0.207-1.418,0.486-3.137,0.64
			c-0.021-0.055-0.04-0.112-0.066-0.165c0.313-0.407,0.633-0.743,0.936-1.019C11.347,9.094,12.108,9.312,12.403,9.48z"/>
		<path fill="#55231A" d="M3.691,4.481c0.065,0.121,0.109,0.155,0.165,0.237l0.146,0.176C4.031,4.953,4.074,5,4.093,5.064
			C4.14,5.187,4.192,5.316,4.208,5.458c0.047,0.279,0.043,0.57,0.032,0.825C4.206,6.794,4.156,7.166,4.156,7.166
			s0.273-0.264,0.49-0.786C4.7,6.25,4.753,6.104,4.786,5.941c0.036-0.162,0.07-0.339,0.062-0.53c0-0.189-0.022-0.399-0.099-0.602
			c-0.03-0.103-0.093-0.2-0.142-0.299C4.578,4.461,4.541,4.417,4.507,4.372L4.456,4.305L4.43,4.271L4.423,4.263
			c0.003,0.004,0.008,0.009,0.018,0.02L4.438,4.28L4.429,4.267C4.383,4.205,4.293,4.115,4.283,4.076
			C4.262,4.032,4.231,3.993,4.21,3.923c-0.049-0.122-0.088-0.26-0.108-0.4C4.061,3.241,4.065,2.947,4.078,2.691
			c0.034-0.51,0.078-0.884,0.078-0.884s-0.27,0.267-0.486,0.788C3.562,2.854,3.465,3.178,3.46,3.56
			c0.005,0.188,0.008,0.395,0.086,0.599C3.572,4.258,3.63,4.371,3.691,4.481z"/>
		<path fill="#55231A" d="M5.296,2.673C5.362,2.795,5.405,2.828,5.462,2.91l0.146,0.175c0.028,0.059,0.072,0.107,0.09,0.171
			c0.048,0.122,0.101,0.251,0.116,0.393C5.861,3.928,5.857,4.22,5.846,4.475c-0.034,0.51-0.083,0.882-0.083,0.882
			s0.271-0.264,0.488-0.786c0.055-0.13,0.107-0.276,0.142-0.439c0.035-0.162,0.07-0.339,0.062-0.53c0-0.189-0.022-0.399-0.099-0.601
			C6.326,2.896,6.262,2.8,6.213,2.7C6.185,2.652,6.147,2.608,6.114,2.562L6.063,2.494L6.036,2.461L6.029,2.453
			c0.002,0.004,0.009,0.01,0.015,0.017L6.035,2.458C5.99,2.396,5.899,2.308,5.889,2.269C5.868,2.224,5.837,2.185,5.816,2.114
			c-0.05-0.122-0.089-0.259-0.108-0.399C5.667,1.431,5.672,1.14,5.685,0.883C5.718,0.373,5.762,0,5.762,0s-0.27,0.266-0.487,0.786
			C5.167,1.047,5.071,1.371,5.066,1.751C5.071,1.94,5.074,2.147,5.152,2.351C5.177,2.449,5.235,2.563,5.296,2.673z"/>
		<polygon fill="#55231A" points="6.046,2.474 6.044,2.47 6.044,2.471 		"/>
		<path fill="#55231A" d="M7.28,4.313c0.063,0.121,0.108,0.156,0.164,0.237l0.146,0.176c0.027,0.058,0.071,0.106,0.09,0.171
			c0.048,0.122,0.101,0.251,0.116,0.393c0.046,0.278,0.044,0.572,0.031,0.826C7.794,6.624,7.745,6.997,7.745,6.997
			s0.271-0.264,0.49-0.786c0.053-0.129,0.104-0.276,0.141-0.44C8.41,5.609,8.443,5.433,8.437,5.24c0-0.188-0.022-0.397-0.1-0.601
			C8.309,4.536,8.245,4.44,8.195,4.341C8.166,4.292,8.131,4.249,8.097,4.203L8.045,4.135L8.018,4.102L8.012,4.093
			C8.016,4.097,8.02,4.103,8.03,4.114L8.028,4.11L8.018,4.097c-0.045-0.062-0.137-0.15-0.146-0.19
			C7.85,3.862,7.819,3.825,7.798,3.753c-0.049-0.12-0.087-0.259-0.106-0.399C7.649,3.071,7.653,2.778,7.666,2.522
			C7.7,2.012,7.744,1.639,7.744,1.639s-0.27,0.267-0.486,0.788C7.149,2.687,7.052,3.01,7.048,3.391
			c0.004,0.188,0.008,0.396,0.085,0.598C7.161,4.088,7.219,4.203,7.28,4.313z"/>
</svg>