<?xml version="1.0" encoding="utf-8"?>
<svg version="1.1" id="Layer_1" xmlns="http://www.w3.org/2000/svg" xmlns:xlink="http://www.w3.org/1999/xlink" x="0px" y="0px"
	 width="15px" height="15px" viewBox="0 0 15 15" enable-background="new 0 0 15 15" xml:space="preserve">
	<path fill="#55231A" d="M12.278,6.416h-0.554l-0.001-0.003c0.729-0.019,1.311-0.309,1.311-0.665c0-0.357-0.584-0.647-1.317-0.664
		v-0.01c0.527-0.034,0.947-0.468,0.947-1.003V3.017c0-0.542-0.429-0.979-0.965-1.005V2.004c0.741-0.013,1.335-0.305,1.335-0.666
		s-0.598-0.655-1.343-0.666L11.688,0c-0.012,0.001-0.022,0.002-0.036,0.002C11.639,0.002,11.626,0,11.612,0l-0.005,0.672
		c-0.744,0.011-1.342,0.304-1.342,0.666s0.594,0.654,1.336,0.666v0.007c-0.536,0.027-0.961,0.465-0.961,1.004v1.055
		c0,0.534,0.417,0.966,0.943,1.002v0.011c-0.733,0.017-1.318,0.307-1.318,0.664c0,0.356,0.581,0.646,1.311,0.665v0.003h-0.4
		c-0.79,0-1.429,0.639-1.429,1.427V8.63c0,0.786,0.639,1.425,1.429,1.425h0.38v0.005c-0.721,0.023-1.29,0.31-1.29,0.664
		c0,0.353,0.565,0.638,1.282,0.664L11.527,15h0.245l-0.021-3.612c0.716-0.026,1.283-0.312,1.283-0.664c0-0.354-0.57-0.64-1.29-0.664
		v-0.005h0.533c0.787,0,1.428-0.638,1.428-1.425V7.843C13.707,7.056,13.066,6.416,12.278,6.416z"/>
	<path fill="#55231A" d="M8.064,6.416H7.511V6.413c0.729-0.019,1.311-0.309,1.311-0.665c0-0.357-0.585-0.647-1.318-0.664v-0.01
		C8.031,5.04,8.45,4.606,8.45,4.071V3.017c0-0.542-0.429-0.979-0.965-1.005V2.004C8.227,1.991,8.821,1.7,8.821,1.338
		S8.223,0.683,7.478,0.673L7.474,0C7.463,0.001,7.451,0.002,7.438,0.002C7.424,0.002,7.412,0,7.399,0L7.394,0.673
		C6.649,0.684,6.052,0.977,6.052,1.338s0.594,0.654,1.335,0.666v0.007C6.852,2.039,6.426,2.477,6.426,3.016v1.055
		c0,0.534,0.417,0.966,0.943,1.002v0.011C6.637,5.101,6.052,5.391,6.052,5.748c0,0.356,0.582,0.646,1.311,0.665L7.362,6.416h-0.4
		c-0.788,0-1.428,0.639-1.428,1.427V8.63c0,0.786,0.639,1.425,1.428,1.425h0.38v0.005c-0.719,0.023-1.29,0.31-1.29,0.664
		c0,0.353,0.566,0.638,1.283,0.664L7.314,15h0.245l-0.021-3.612c0.716-0.026,1.283-0.312,1.283-0.664c0-0.354-0.571-0.64-1.29-0.664
		v-0.005h0.532c0.788,0,1.428-0.638,1.428-1.425V7.843C9.493,7.056,8.854,6.416,8.064,6.416z"/>
	<path fill="#55231A" d="M3.851,6.416H3.298l0-0.003c0.729-0.019,1.311-0.309,1.311-0.665c0-0.357-0.584-0.647-1.318-0.664v-0.01
		C3.818,5.04,4.238,4.606,4.238,4.071V3.017c0-0.542-0.429-0.979-0.965-1.005V2.004C4.014,1.991,4.608,1.7,4.608,1.338
		S4.01,0.683,3.265,0.673L3.261,0C3.25,0,3.239,0.002,3.226,0.002C3.212,0.002,3.2,0,3.186,0L3.182,0.672
		C2.437,0.683,1.839,0.977,1.839,1.337c0,0.361,0.595,0.655,1.336,0.667v0.007c-0.535,0.027-0.96,0.465-0.96,1.004v1.055
		c0,0.534,0.417,0.966,0.943,1.002v0.011C2.426,5.101,1.84,5.391,1.84,5.748c0,0.356,0.582,0.646,1.311,0.665l0,0.003h-0.4
		c-0.789,0-1.428,0.639-1.428,1.427V8.63c0,0.786,0.639,1.425,1.428,1.425h0.38v0.005c-0.719,0.023-1.29,0.31-1.29,0.664
		c0,0.353,0.567,0.638,1.283,0.664L3.102,15h0.245l-0.02-3.612c0.715-0.026,1.282-0.312,1.282-0.664c0-0.354-0.571-0.64-1.29-0.664
		v-0.005h0.532c0.789,0,1.429-0.638,1.429-1.425V7.843C5.28,7.056,4.64,6.416,3.851,6.416z"/>
</svg>