<?xml version="1.0" encoding="utf-8"?>
<svg version="1.1" id="Layer_1" xmlns="http://www.w3.org/2000/svg" xmlns:xlink="http://www.w3.org/1999/xlink" x="0px" y="0px"
	 width="128px" height="128px" viewBox="0 0 128 128" enable-background="new 0 0 128 128" xml:space="preserve">
<path fill="#5B8731" stroke="#5B8731" stroke-width="0.9863" stroke-miterlimit="10" d="M63.875,0.875
	C29.009,0.875,0.75,29.134,0.75,64c0,34.867,28.259,63.125,63.125,63.125C98.741,127.125,127,98.867,127,64
	C127,29.134,98.741,0.875,63.875,0.875z M63.875,124.383C30.527,124.383,3.498,97.346,3.498,64
	c0-33.348,27.029-60.377,60.377-60.377c33.343,0,60.384,27.029,60.384,60.377C124.259,97.346,97.218,124.383,63.875,124.383z"/>
<path fill="none" stroke="#5B8731" stroke-width="2" stroke-miterlimit="10" d="M42.25,97.084h45.227
	c-0.441-2.457-2.304-4.299-4.541-4.299c0-2.997-2.078-5.432-4.643-5.432c-2.434,0-4.429,2.179-4.631,4.955
	c-0.682-0.459-1.467-0.723-2.316-0.723c-1.679,0-3.141,1.04-3.959,2.598c-0.186-2.795-2.183-4.994-4.627-4.994
	c-1.343,0-2.552,0.676-3.4,1.737c-0.649-2.079-2.353-3.573-4.36-3.573c-2.497,0-4.526,2.299-4.637,5.188
	c-0.838-1.433-2.245-2.371-3.836-2.371c-2.567,0-4.646,2.435-4.646,5.433v1.198C42.017,96.883,42.139,96.98,42.25,97.084z"/>
<path fill="none" stroke="#5B8731" stroke-width="2" stroke-miterlimit="10" d="M90.915,90.943c0-3.158-2.625-5.729-5.877-5.729
	c-0.261,0-0.509,0.03-0.765,0.057c-0.198-2.979-2.739-5.34-5.857-5.34c-1.873,0-3.534,0.846-4.611,2.176
	c-0.123-3.055-2.699-5.491-5.861-5.491c-2.959,0-5.398,2.122-5.813,4.895c-0.739-0.321-1.553-0.516-2.419-0.516
	c-1.62,0-3.089,0.64-4.15,1.676c-1.048-0.938-2.438-1.517-3.975-1.517c-2.411,0-4.48,1.419-5.389,3.439
	c-0.79-0.383-1.68-0.604-2.627-0.604c-3.247,0-5.877,2.56-5.877,5.718c0,2.136,1.203,3.993,2.985,4.976
	c0.612,1.444,1.619,2.399,2.752,2.399h43.245c1.117,0,2.101-0.915,2.718-2.315C90.335,93.762,90.915,92.411,90.915,90.943z"/>
<path fill="none" stroke="#5B8731" stroke-width="2" stroke-miterlimit="10" d="M78.088,27.476
	c-4.479,3.768-13.523,3.991-14.108,10.831c-0.456,1.873,1.225,5.553,3.749,4.868c0.183-0.097,0.357-0.199,0.529-0.306
	c-2.609,4.001-4.468,8.292-5.499,13.138c-0.208,0.924-0.356,1.529-0.356,1.529c0.043,0.023,0.087,0.056,0.13,0.08h-0.101v5.563
	c-2.96-2.344-6.123-4.146-9.541-5.535c0.053-0.546-0.008-1.148-0.207-1.797c-0.833-2.69-3.669-5.045-6.334-5.28
	c-0.577-0.054-1.088,0.003-1.546,0.14v-0.001l-5.217,1.711l-5.217,1.71l0.032,0.017l0.383,0.073
	c-0.428-0.021-0.673-0.032-0.673-0.032c5.217,2.72,9.583,12.081,15.567,9.11c1.4-0.398,3.122-2.775,2.938-4.883
	c3.675,2.107,6.994,4.743,9.815,7.967c0,0-0.093,13.398,0,14.09c0.744-2.316,2.917-3.268,2.917-3.268V73.05
	c1.594-5.139,4.239-9.617,7.682-13.471c0.191,0.205,0.41,0.404,0.66,0.593c2.25,1.694,5.928,1.942,8.226,0.573
	c0.5-0.294,0.882-0.639,1.173-1.018l0,0l3.229-4.44l3.229-4.439l-0.035,0.004l-0.867,0.404c0.371-0.21,0.582-0.332,0.582-0.332
	c-5.617,0.65-13.479-4.346-17.211,1.162c-1.242,1.305-1.553,5.237,0.734,6.235c-2.838,2.239-5.305,4.792-7.398,7.763v-8.468
	c0.226-5.042,1.5-9.839,3.592-14.333c0.392,0.141,0.828,0.235,1.314,0.27c2.811,0.19,6.026-1.608,7.204-4.01
	c0.259-0.521,0.39-1.017,0.427-1.493v-0.001l0.281-5.482l0.281-5.482"/>
</svg>