<?xml version="1.0" encoding="utf-8"?>
<svg version="1.1" id="Layer_1" xmlns="http://www.w3.org/2000/svg" xmlns:xlink="http://www.w3.org/1999/xlink" x="0px" y="0px"
	 width="128px" height="128px" viewBox="0 0 128 128" enable-background="new 0 0 128 128" xml:space="preserve">
<path fill="#C40AC4" stroke="#C40AC4" stroke-width="0.984" stroke-miterlimit="10" d="M63.875,1C29.147,1,1,29.241,1,64.083
	c0,34.843,28.147,63.083,62.875,63.083c34.729,0,62.875-28.24,62.875-63.083C126.75,29.241,98.604,1,63.875,1z M63.875,124.428
	c-33.216,0-60.138-27.02-60.138-60.344c0-33.326,26.922-60.337,60.138-60.337c33.211,0,60.145,27.012,60.145,60.337
	C124.02,97.408,97.086,124.428,63.875,124.428z"/>
<path fill="none" stroke="#C40AC4" stroke-width="2" stroke-miterlimit="10" d="M51.606,37.352c7.581,3.242,9.354,4,12.55,5.367
	c0.31-0.172-0.439,0,0,0c0.438,0-0.309-0.171,0,0c5.746-2.834,10.886-5.367,10.886-5.367C63.2,22.515,51.606,37.352,51.606,37.352z"
	/>
<path fill="none" stroke="#C40AC4" stroke-width="2" stroke-miterlimit="10" d="M58.262,91.807l1.955-7.371l-4.971-1.381
	l-0.755,7.896h0.002c-1.75,0.435-5.855,1.927-5.107,6.282c0,0,6.818,4.168,11.741,0C61.127,97.232,61.892,93.771,58.262,91.807z"/>
<path fill="none" stroke="#C40AC4" stroke-width="2" stroke-miterlimit="10" d="M73.436,90.793l-0.01-7.914l-4.912,1.475
	l2.612,7.107l0.006-0.002c-1.88,0.791-4.138,2.447-3.565,5.773c0,0,6.816,4.166,11.742,0C79.309,97.232,80.441,92.117,73.436,90.793
	z"/>
<path fill="none" stroke="#C40AC4" stroke-width="2" stroke-miterlimit="10" d="M96.54,49.783V33.818L64.156,43.854L31.774,33.818
	v15.686c-1.278,1.088-8.36,7.676,0,13.534v13.2l32.201,9.279l32.564-9.093V62.812C103.889,57.394,98.332,51.421,96.54,49.783z"/>
<polygon fill="none" stroke="#C40AC4" stroke-width="2" stroke-miterlimit="10" points="31.774,33.818 35.373,30.409 64.156,42.719 
	91.807,29.084 96.54,33.818 64.156,43.854 "/>
<text transform="matrix(1 0 0 1 41 66.0098)" fill="none" stroke="#C40AC4" stroke-miterlimit="10" font-family="'ArialMT'" font-size="14.1298">NEWS</text>
</svg>