<?xml version="1.0" encoding="utf-8"?>
<svg version="1.1" id="Layer_1" xmlns="http://www.w3.org/2000/svg" xmlns:xlink="http://www.w3.org/1999/xlink" x="0px" y="0px"
	 width="128px" height="128px" viewBox="0 0 128 128" enable-background="new 0 0 128 128" xml:space="preserve">
<path fill="#8C6239" stroke="#8C6239" stroke-width="0.9893" stroke-miterlimit="10" d="M64.125,0.667
	C29.167,0.667,0.833,29.02,0.833,64c0,34.982,28.334,63.333,63.292,63.333c34.958,0,63.292-28.352,63.292-63.333
	C127.417,29.02,99.084,0.667,64.125,0.667z M64.125,124.584C30.689,124.584,3.589,97.457,3.589,64
	c0-33.458,27.1-60.577,60.536-60.577c33.43,0,60.543,27.119,60.543,60.577C124.669,97.457,97.556,124.584,64.125,124.584z"/>
<path fill="none" stroke="#8C6239" stroke-width="2" stroke-miterlimit="10" d="M99.934,47.707
	c-0.127-0.188-0.285-0.369-0.477-0.543c-0.782-1.384-2.428-2.38-4.066-2.701l-1.053,1.021l0.398-1.112
	c-0.159-0.013-0.317-0.021-0.473-0.021c-0.377-0.002-0.744,0.025-1.093,0.083c-0.457,0.035-0.907,0.096-1.342,0.176
	s-0.849,0.18-1.231,0.293c-0.453,0.187-0.896,0.396-1.33,0.624c-0.457,0.241-0.902,0.504-1.34,0.786l-0.471,1.373l-0.123-0.977
	c-0.964,0.671-1.877,1.43-2.75,2.24c-0.049-1.289-0.253-2.54-0.573-3.76c-0.062,0.294,0.041,0.685,0.109,0.944
	c-0.677-2.045-1.742-3.987-3.13-5.567c0.068,0.26-0.027,0.424-0.09,0.718c-0.93-1.423-2.248-2.743-3.793-3.436
	c-0.262-0.107-0.529-0.196-0.808-0.265c-0.276-0.069-0.562-0.118-0.854-0.146c-0.129,0.034-0.027,0.424,0.007,0.554
	c-1.688-1.622-3.699-0.505-5.539,0.167c-0.63,0.1-1.261,0.246-1.886,0.447c1.092-0.086,2.17-0.02,3.201,0.193l0.024-0.002
	l1.82-0.127l-0.845,0.387c0.707,0.219,1.388,0.509,2.024,0.872l1.215-0.085l-0.772,0.354c1.055,0.678,1.98,1.562,2.72,2.646
	c0.481,0.71,0.856,1.466,1.128,2.251l1.518,0.33l-1.354,0.196c0.314,1.11,0.432,2.271,0.359,3.436
	c-0.959-0.896-2.002-1.648-3.107-2.294c0.164,0.252,0.514,0.455,0.744,0.59c-1.924-0.967-4.053-1.586-6.15-1.722
	c0.232,0.136,0.281,0.319,0.445,0.57c-1.663-0.349-3.529-0.349-5.112,0.255c-0.26,0.108-0.513,0.236-0.757,0.383
	s-0.48,0.313-0.707,0.502c-0.067,0.116,0.28,0.319,0.396,0.388c-2.188,0.044-2.882,1.978-3.637,3.681
	c-0.439,0.578-0.834,1.202-1.178,1.869c0.157-0.186,0.319-0.364,0.486-0.539c-0.011,0.022-0.023,0.043-0.034,0.065
	c0.02-0.029,0.038-0.061,0.058-0.09c0.573-0.597,1.199-1.123,1.865-1.571l0.016-0.018l1.188-1.379l-0.326,0.866
	c0.646-0.35,1.321-0.63,2.02-0.829l0.793-0.92l-0.299,0.793c1.203-0.276,2.461-0.319,3.725-0.088c0.824,0.15,1.605,0.41,2.336,0.763
	l1.29-0.846l-0.813,1.096c1.025,0.571,1.938,1.332,2.709,2.238l2.334,0.428c-1,0.765-2.01,1.435-3.099,2.162
	c0.11,0.153,0.258,0.354,0.388,0.496c-1.052,1.218-2.125,2.234-3.306,3.356c0.09,0.087,0.198,0.192,0.308,0.288
	c-0.826,1.171-1.691,2.205-2.635,3.335c0.119,0.092,0.268,0.206,0.406,0.299c-0.646,1.598-1.389,2.964-2.206,4.482
	c0.165,0.081,0.38,0.186,0.56,0.25c-0.617,1.475-1.318,2.766-2.086,4.189c0.178,0.086,0.412,0.201,0.598,0.265
	c0,0,0.006-0.011,0.017-0.031l0.019,0.009c-0.397,1.594-0.912,3.004-1.476,4.563c0.067,0.021,0.146,0.046,0.224,0.068
	c-0.406,1.685-0.941,3.148-1.53,4.777c0.125,0.04,0.277,0.088,0.423,0.126c-0.399,1.595-0.913,3.007-1.477,4.566
	c0.177,0.057,0.409,0.13,0.597,0.167c-0.144,0.566-0.302,1.111-0.472,1.648c-0.854-0.021-1.718-0.031-2.593-0.031
	c-0.041,0-0.081,0-0.121,0l-0.394-1.334l0.487-0.071l-1.324-4.484l0.514-0.075l-1.335-4.522l0.519-0.076l-1.335-4.522l0.385-0.058
	l-1.349-4.569l0.486-0.072l-1.325-4.659l0.255-0.038l-1.146-4.551l0.196-0.028l-1.135-4.409l0.343-0.05l-1.163-4.685l-0.222,0.033
	l1.179-0.857c0.183-0.51,0.396-1.011,0.64-1.502c0.147-0.26,0.306-0.54,0.473-0.832l-0.921-0.248l1.201-0.234
	c0.613-1.036,1.362-2.208,2.265-3.153l-1.332-0.358l2.194-0.43c1.085-0.844,2.357-1.289,3.838-0.864
	c0.359,0.207,0.596,0.494,0.766,0.827c0.509,0.999,0.417,2.413,1.198,3.286c0.018-0.059,0.039-0.117,0.063-0.175
	c-0.029-0.186,0.032-0.375,0.147-0.523c-0.361-2.077,0.903-4.406-0.818-6.05c-0.189-0.124-0.405-0.23-0.649-0.317
	c-1.254-0.975-3.157-1.259-4.794-0.924l-0.577,1.348l-0.061-1.18c-0.152,0.049-0.301,0.103-0.444,0.163
	c-0.349,0.142-0.677,0.31-0.976,0.497c-0.408,0.209-0.802,0.438-1.17,0.68c-0.369,0.24-0.714,0.492-1.024,0.746
	c-0.346,0.346-0.674,0.709-0.985,1.087c-0.329,0.399-0.64,0.814-0.934,1.242l0.096,1.448l-0.49-0.853
	c-0.396,0.621-0.758,1.269-1.097,1.931l0.152-0.856c-0.371-1.097-0.604-2.253-0.68-3.425l-0.963,0.227l0.938-0.763
	c-0.019-0.81,0.04-1.622,0.184-2.425c0.22-1.229,0.618-2.327,1.154-3.272l-0.611-0.095l0.841-0.287
	c0.337-0.529,0.721-1.004,1.142-1.42l-0.668-0.103l1.26-0.432l0.017-0.006c0.642-0.508,1.352-0.895,2.108-1.145
	c-0.475,0.003-0.939,0.057-1.392,0.156c-1.415-0.072-3.058-0.511-3.777,1.548c-0.011-0.134-0.042-0.536-0.139-0.528
	c-0.191,0.116-0.371,0.25-0.54,0.401c-0.169,0.15-0.327,0.317-0.476,0.499c-0.864,1.134-1.413,2.794-1.673,4.432
	c-0.117-0.26-0.225-0.387-0.246-0.654c-0.502,1.832-0.72,3.886-0.679,5.931c-0.009-0.008-0.018-0.014-0.026-0.021
	c-0.025-0.207-0.064-0.425-0.139-0.588c0.014,0.172,0.029,0.344,0.046,0.516c-0.756-0.586-1.552-1.1-2.38-1.554
	c0.172,0.247,0.525,0.44,0.76,0.57c-1.949-0.915-4.093-1.477-6.193-1.556c0.235,0.129,0.289,0.312,0.459,0.559
	c-1.672-0.304-3.537-0.253-5.103,0.393c-0.257,0.116-0.507,0.25-0.747,0.403c-0.24,0.154-0.471,0.327-0.692,0.521
	c-0.065,0.118,0.288,0.312,0.407,0.376c-2.337,0.111-2.91,2.335-3.686,4.132c-0.361,0.527-0.688,1.088-0.975,1.681
	c0.683-0.851,1.464-1.59,2.317-2.198l0.015-0.019l1.15-1.41l-0.303,0.876c0.637-0.367,1.305-0.666,1.996-0.884l0.768-0.941
	l-0.277,0.801c1.196-0.309,2.451-0.386,3.721-0.189c0.829,0.129,1.617,0.367,2.355,0.7l1.268-0.881l-0.784,1.117
	c1.04,0.544,1.973,1.279,2.769,2.165l1.59,0.246c-1.054,0.182-2.072,0.463-3.063,0.823c0.299,0.034,0.678-0.104,0.93-0.195
	c-1.973,0.862-3.809,2.103-5.254,3.63c0.252-0.092,0.424-0.012,0.723,0.022c-1.33,1.057-2.523,2.492-3.07,4.095
	c-0.083,0.271-0.146,0.546-0.189,0.827c-0.043,0.282-0.065,0.57-0.065,0.865c0.046,0.126,0.425-0.012,0.551-0.058
	c-1.362,1.71-0.32,3.479,0.507,5.147c0.159,0.742,0.392,1.479,0.701,2.201c-0.043-0.258-0.075-0.515-0.1-0.771
	c0.004,0.007,0.006,0.014,0.009,0.021c-0.003-0.01-0.007-0.021-0.01-0.03c-0.077-0.819-0.063-1.636,0.04-2.435l-0.004-0.024
	l-0.281-1.802l0.469,0.801c0.169-0.729,0.414-1.438,0.738-2.114l-0.188-1.203l0.429,0.733c0.614-1.124,1.454-2.144,2.517-2.995
	c0.694-0.558,1.445-1.012,2.234-1.366l0.218-1.549l0.313,1.329c1.17-0.451,2.413-0.694,3.677-0.734l1.467-1.176
	c0.265,0.181,0.527,0.364,0.79,0.549c0.165,1.228,0.161,2.421,0.165,3.71c0.115-0.01,0.241-0.02,0.372-0.03
	c0.262,1.608,0.179,3.09,0.101,4.726c0.139-0.004,0.295-0.009,0.454-0.015c0.155,1.376,0.084,2.684,0.016,4.107
	c0.141-0.004,0.298-0.009,0.46-0.015c0.273,1.632,0.19,3.13,0.11,4.787c0.104-0.004,0.218-0.008,0.335-0.012l0.001,0.078
	l0.254-0.037c0.081,0.557,0.122,1.102,0.138,1.644v1.173c-0.014,0.553-0.042,1.111-0.069,1.691c0.021-0.002,0.046-0.002,0.068-0.002
	v0.244l0.461-0.068c0.236,1.558,0.157,3.002,0.08,4.592c0.126-0.004,0.266-0.008,0.408-0.014v0.069l0.063-0.01
	c0.235,1.558,0.156,3.001,0.079,4.591c0.142-0.004,0.299-0.009,0.461-0.015c0.266,1.616,0.183,3.104,0.104,4.748
	c0.18-0.007,0.386-0.013,0.595-0.021c0.021,0.175,0.04,0.349,0.055,0.521c-4.468,0.288-8.481,0.852-11.718,1.614
	c-0.322,0.074-0.637,0.151-0.952,0.231c-0.312,0.095-0.622,0.185-0.933,0.269c-0.312,0.088-0.627,0.172-0.939,0.265
	c-2.079,0.635-4.4,1.575-5.455,4.263c-0.528,1.209-0.211,2.821,0.422,3.896c1.898,2.955,4.854,1.074,7.302,1.281
	c0.343,0.035,0.686,0.069,1.028,0.099c1.371,0.112,2.756,0.142,4.17,0.082c0.366,0.055,0.741,0.106,1.122,0.157
	c0.274,0.037,0.556,0.072,0.838,0.106c0.28,0.035,0.565,0.067,0.854,0.101c3.576-0.215,7.167-0.752,10.737-0.166
	c0.39-0.016,0.761-0.027,1.136-0.033c0.291-0.004,0.585-0.002,0.882,0.006c0.301-0.001,0.601,0.005,0.9,0.008
	c3.433-0.027,6.808-0.162,10.279-0.043c0.339-0.037,0.688-0.086,1.017-0.137c0.371-0.049,0.74-0.1,1.108-0.139
	c3.489,0.559,6.972,0.424,10.271-1.416c0.309-0.121,0.594-0.271,0.838-0.481c0.504-0.423,0.85-1.091,0.97-2.14
	c-0.015-0.359-0.103-0.697-0.271-1.024c-1.461-2.037-3.466-3.649-5.598-4.446c-0.346-0.115-0.711-0.226-1.088-0.332
	c-3.165-0.884-7.28-1.556-11.949-1.923l0.059-0.964l0.629,0.133l0.297-4.916l0.672,0.145l0.301-4.948l0.672,0.14l0.233-3.844
	l0.396,0.163l0.857-4.195l0.387,0.224l1.186-3.766l0.406,0.289l1.471-3.664l0.252,0.247l1.818-3.207l0.311,0.444l3.011-3.694
	L81.1,57.09l1.664,1.524c1.125,0.019,2.219,0.237,3.236,0.661l0.363-1.314l0.097,1.521c0.683,0.336,1.325,0.771,1.91,1.307
	c0.896,0.821,1.579,1.811,2.057,2.906l0.431-0.729l-0.244,1.188c0.246,0.658,0.421,1.354,0.523,2.068l0.471-0.797l-0.364,1.779
	l-0.005,0.023c0.031,0.601,0.014,1.211-0.051,1.828c-0.088,0.201-0.168,0.401-0.232,0.6c0.082-0.176,0.156-0.354,0.229-0.535
	c-0.047,0.423-0.113,0.848-0.203,1.271c0.397-0.885,0.692-1.791,0.889-2.699c0.775-1.497,1.512-3.062,0.464-4.568
	c0.114,0.045,0.457,0.18,0.507,0.055c0.016-0.292,0.01-0.577-0.016-0.855c-0.026-0.278-0.069-0.551-0.133-0.817
	c-0.422-1.582-1.449-2.996-2.625-4.035c0.276-0.035,0.44-0.115,0.67-0.025c-1.258-1.504-2.891-2.723-4.67-3.566
	c0.229,0.09,0.57,0.225,0.85,0.189c-0.35-0.137-0.702-0.261-1.061-0.373l1.164-0.275c0.363-0.4,0.754-0.78,1.168-1.14
	c0.236-0.183,0.49-0.38,0.758-0.585l-0.754-0.584l1.197,0.247c0.967-0.72,2.109-1.512,3.307-2.037l-1.092-0.844l2.19,0.45
	c1.327-0.36,2.672-0.28,3.874,0.683c0.252,0.329,0.359,0.686,0.389,1.059c0.084,1.118-0.546,2.387-0.162,3.494
	c0.039-0.048,0.082-0.093,0.125-0.138c0.045-0.183,0.174-0.334,0.338-0.426C98.822,51.548,100.889,49.887,99.934,47.707z
	 M71.193,38.027c0.5-0.031,1.004-0.022,1.505,0.023C72.202,38.01,71.699,38.002,71.193,38.027z M36.433,55.27
	c0.607-1.214,1.488-2.243,2.537-3.049C37.894,53.087,37.048,54.125,36.433,55.27z M72.631,91.639c0,1.299-5.449,2.351-12.173,2.351
	c-6.723,0-12.173-1.052-12.173-2.351c0-0.779,1.956-1.469,4.97-1.896c0.005,0.805-0.035,1.611-0.075,2.459
	c0.319-0.01,0.723-0.021,1.074-0.045v0.019l0.262-0.038l0,0l6.251-0.926l-0.568-1.924c0.087,0,0.173-0.001,0.26-0.001
	c0.611,0,1.212,0.009,1.799,0.026c-0.204,0.592-0.419,1.188-0.643,1.808c0.168,0.054,0.384,0.122,0.565,0.159l-0.01,0.033
	l5.762,1.199l0.164-2.705C70.861,90.236,72.631,90.896,72.631,91.639z M64.573,81.846l0.024,0.004l-0.054,0.164
	C64.557,81.957,64.564,81.9,64.573,81.846z M79.113,54.256l-0.02-0.027c0.008,0.008,0.016,0.017,0.021,0.024
	C79.115,54.254,79.113,54.255,79.113,54.256z"/>
</svg>