<?xml version="1.0" encoding="utf-8"?>
<svg version="1.1" id="Layer_1" xmlns="http://www.w3.org/2000/svg" xmlns:xlink="http://www.w3.org/1999/xlink" x="0px" y="0px"
	 width="128px" height="128px" viewBox="0 0 128 128" enable-background="new 0 0 128 128" xml:space="preserve">
<path fill="#18D1BF" stroke="#18D1BF" stroke-width="0.9863" stroke-miterlimit="10" d="M64.083,0.833C29.241,0.833,1,29.111,1,64
	c0,34.89,28.241,63.167,63.083,63.167c34.843,0,63.083-28.277,63.083-63.167C127.167,29.111,98.927,0.833,64.083,0.833z
	 M64.083,124.425C30.758,124.425,3.746,97.368,3.746,64c0-33.37,27.012-60.417,60.337-60.417c33.321,0,60.344,27.047,60.344,60.417
	C124.428,97.368,97.404,124.425,64.083,124.425z"/>
<path fill="none" stroke="#18D1BF" stroke-width="2" stroke-miterlimit="10" d="M87.195,53.878c0-0.328,0.128-0.635,0.359-0.866
	c1.03-1.03,1.03-2.707,0-3.737L74.546,36.266c0.828-1.358,1.927-4.25,0.118-8.52c-0.155-0.364-0.494-0.617-0.889-0.661
	c-0.041-0.005-0.08,0.003-0.121,0.003l0,0c-0.002,0-0.002,0-0.004,0c-0.086,0-0.168,0.009-0.25,0.029
	c-0.004,0.001-0.008,0.002-0.01,0.003c-0.078,0.02-0.152,0.044-0.225,0.081c-0.025,0.012-0.047,0.03-0.072,0.044
	c-0.048,0.03-0.098,0.057-0.142,0.094c-0.069,0.057-0.134,0.123-0.187,0.198c-1.578,2.208-4.744,4.221-8.41,6.552
	c-1.027,0.652-2.083,1.325-3.149,2.027c-0.185,0.123-0.371,0.247-0.558,0.372c-0.428,0.286-0.856,0.577-1.284,0.874
	c-4.559,3.171-9.027,7.031-11.687,12.478c-0.124,0.254-0.245,0.511-0.36,0.771c-0.202,0.453-0.39,0.918-0.566,1.395
	c-0.443,1.2-0.807,2.468-1.065,3.819c-0.011,0.059-0.019,0.119-0.03,0.179c-0.286,1.554-0.443,3.209-0.443,4.983c0,0,0,0,0,0.001
	l0,0c0,12.398,6.612,17.784,8.639,19.139c0.539,0.359,1.167,0.55,1.82,0.55h0.479c0.604,0,1.094,0.491,1.094,1.095
	c0,0.603-0.49,1.094-1.094,1.094h-5.469c-0.256,0-0.504,0.09-0.701,0.254l-5.774,4.813c-0.751,0.625-1.182,1.545-1.182,2.521v5.538
	c0,0.604,0.489,1.094,1.094,1.094h20.782h20.783c0.604,0,1.094-0.489,1.094-1.094v-5.539c0-0.978-0.432-1.896-1.18-2.521
	l-5.776-4.813c-0.196-0.164-0.444-0.254-0.7-0.254h-5.471c-0.604,0-1.094-0.491-1.094-1.095c0-0.603,0.49-1.094,1.094-1.094h0.977
	c1.137,0,2.178-0.576,2.782-1.543l2.146-3.43c1.842-2.948,1.465-6.773-0.918-9.307l-10.58-11.244l-0.963-1.023
	c1.186,0.169,2.646,0.295,4.373,0.295c4.141,0,6.075,2.136,7.782,4.02c0.576,0.637,1.121,1.237,1.713,1.702
	c0.873,0.685,2.123,0.612,2.904-0.168l3.687-3.688c0.428-0.428,0.428-1.12,0-1.548C87.323,54.512,87.195,54.205,87.195,53.878z"/>
</svg>