<?xml version="1.0" encoding="utf-8"?>
<svg version="1.1" id="Layer_1" xmlns="http://www.w3.org/2000/svg" xmlns:xlink="http://www.w3.org/1999/xlink" x="0px" y="0px"
	 width="128px" height="128px" viewBox="0 0 128 128" enable-background="new 0 0 128 128" xml:space="preserve">
<path fill="#A58D17" stroke="#A58D17" stroke-width="0.9863" stroke-miterlimit="10" d="M64,1C29.111,1,0.833,29.241,0.833,64.083
	c0,34.843,28.278,63.083,63.167,63.083s63.167-28.24,63.167-63.083C127.167,29.241,98.89,1,64,1z M64,124.428
	c-33.37,0-60.417-27.02-60.417-60.344C3.583,30.758,30.63,3.746,64,3.746c33.364,0,60.424,27.012,60.424,60.337
	C124.425,97.408,97.364,124.428,64,124.428z"/>
<path fill="none" stroke="#A58D17" stroke-width="2" stroke-miterlimit="10" d="M100.184,89.275v-2.114h-3.229v-1.226l-2.673-3.006
	l-2.781,3.006v1.226h-2.126V64.303h9.451L63.339,28.815L27.852,64.303h8.672v22.858h-2.05v-1.226l-2.783-3.006l-2.673,3.006v1.226
	h-3.227v2.114h3.227v3.563h-3.227v2.115h3.227v3.861h5.456v-3.861h2.05v3.861h2.292h5.454h13.506V79.348h10.492v19.469h13.437h5.453
	h2.218v-3.862h2.126v3.862h5.454v-3.862h3.229v-2.115h-3.229v-3.562h3.229V89.275z M36.524,92.838h-2.05v-3.563h2.05V92.838z
	 M52.603,81.838H41.965V71.2h10.637L52.603,81.838L52.603,81.838z M83.936,81.838h-10.64V71.2h10.64V81.838z M91.501,92.838h-2.126
	v-3.563h2.126V92.838z"/>
</svg>