<?xml version="1.0" encoding="utf-8"?>
<svg version="1.1" id="Layer_1" xmlns="http://www.w3.org/2000/svg" xmlns:xlink="http://www.w3.org/1999/xlink" x="0px" y="0px"
	 width="128px" height="128px" viewBox="0 0 128 128" enable-background="new 0 0 128 128" xml:space="preserve">
<path fill="#3330B7" stroke="#3330B7" stroke-width="0.9857" stroke-miterlimit="10" d="M64.083,1C29.241,1,1,29.241,1,64.083
	c0,34.843,28.241,63.083,63.083,63.083c34.843,0,63.083-28.24,63.083-63.083C127.167,29.241,98.927,1,64.083,1z M64.083,124.428
	c-33.326,0-60.337-27.02-60.337-60.344c0-33.326,27.012-60.337,60.337-60.337c33.321,0,60.344,27.012,60.344,60.337
	C124.428,97.408,97.404,124.428,64.083,124.428z"/>
<path fill="none" stroke="#3330B7" stroke-width="2" stroke-miterlimit="10" d="M83.675,60.457
	c4.229-0.188,8.386-1.961,11.498-5.298c6.312-6.756,5.945-17.346-0.812-23.655c-6.756-6.309-17.346-5.944-23.659,0.812
	c-3.108,3.336-4.595,7.605-4.495,11.832L83.675,60.457z"/>
<path fill="none" stroke="#3330B7" stroke-width="2" stroke-miterlimit="10" d="M63.03,48.673c-0.395,0.658-0.542,1.371-0.454,1.981
	l-9.063,17.437h16.105l7.228-4.846l0.041,0.018c0.024-0.026,0.055-0.053,0.073-0.079c0.571-0.033,1.176-0.27,1.716-0.688
	L63.03,48.673z"/>
<path fill="none" stroke="#3330B7" stroke-width="2" stroke-miterlimit="10" d="M64.5,65.727c-0.495,0.559-1.346,0.611-1.908,0.119
	l0,0c-0.56-0.494-0.611-1.347-0.115-1.907l3.087-3.498c0.492-0.557,1.347-0.61,1.906-0.116l0,0c0.553,0.491,0.604,1.347,0.117,1.903
	L64.5,65.727z"/>
<path fill="none" stroke="#3330B7" stroke-width="2" stroke-miterlimit="10" d="M42.369,90.387
	c-0.481,0.071-0.992,0.047-1.488-0.111c-1.337-0.42-2.226-1.586-2.352-2.898l-0.797,1.119c-1.075,1.52-0.716,3.621,0.801,4.699
	c0.1,0.068,0.201,0.134,0.306,0.19c-0.509,1.558-1.882,2.765-3.619,2.968c-2.382,0.277-4.537-1.427-4.815-3.81
	c-0.068-0.577-0.014-1.151,0.134-1.681l-0.017,0.003l2.85-7.96l-0.315-0.569l-3.039,8.479l0.023-0.004
	c-0.171,0.593-0.229,1.234-0.151,1.889c0.312,2.664,2.732,4.58,5.402,4.267c1.955-0.228,3.498-1.586,4.063-3.354
	c1.39,0.495,2.983,0.038,3.877-1.222l1.874-2.641C44.348,90.334,43.358,90.589,42.369,90.387z"/>
<path fill="none" stroke="#3330B7" stroke-miterlimit="10" d="M40.74,86.771V72.105h2.089l4.678,7.42
	c1.066,1.719,1.937,3.264,2.611,4.766l0.065-0.021c-0.174-1.959-0.218-3.742-0.218-6.026v-6.136h1.784v14.664h-1.914l-4.657-7.44
	c-1.022-1.632-2.001-3.308-2.72-4.896l-0.065,0.021c0.109,1.85,0.131,3.611,0.131,6.049v6.268H40.74V86.771z"/>
<path fill="none" stroke="#3330B7" stroke-miterlimit="10" d="M62.63,79.896h-5.68v5.287h6.354v1.588h-8.269V72.105h7.942v1.588
	H56.95v4.636h5.68V79.896z"/>
<path fill="none" stroke="#3330B7" stroke-miterlimit="10" d="M68.352,86.771l-3.721-14.666h2.002l1.74,7.42
	c0.436,1.828,0.827,3.656,1.088,5.07h0.044c0.239-1.459,0.696-3.199,1.196-5.093l1.959-7.397h1.979l1.784,7.441
	c0.414,1.74,0.806,3.48,1.022,5.026h0.043c0.306-1.61,0.72-3.242,1.176-5.07l1.938-7.397h1.937l-4.155,14.666h-1.98l-1.85-7.639
	c-0.457-1.871-0.762-3.308-0.957-4.787h-0.044c-0.239,1.459-0.588,2.896-1.132,4.787l-2.089,7.639H68.352z"/>
<path fill="none" stroke="#3330B7" stroke-miterlimit="10" d="M84.126,84.465c0.851,0.544,2.067,0.957,3.373,0.957
	c1.937,0,3.067-1.021,3.067-2.502c0-1.35-0.783-2.154-2.764-2.895c-2.394-0.871-3.873-2.133-3.873-4.178
	c0-2.285,1.895-3.981,4.743-3.981c1.479,0,2.591,0.349,3.22,0.719l-0.521,1.545c-0.457-0.282-1.437-0.696-2.763-0.696
	c-2.004,0-2.764,1.196-2.764,2.197c0,1.371,0.891,2.046,2.914,2.828c2.481,0.958,3.723,2.154,3.723,4.309
	c0,2.265-1.654,4.243-5.114,4.243c-1.414,0-2.959-0.435-3.742-0.956L84.126,84.465z"/>
</svg>