<?xml version="1.0" encoding="utf-8"?>
<svg version="1.1" id="Layer_1" xmlns="http://www.w3.org/2000/svg" xmlns:xlink="http://www.w3.org/1999/xlink" x="0px" y="0px"
	 width="128px" height="128px" viewBox="0 0 128 128" enable-background="new 0 0 128 128" xml:space="preserve">

		<path fill="#1E9BC9" d="M93.707,57.425l-1.155,8.227c-2.023,0.411-3.338,1.304-4.378,2.002c-1.143,0.767-1.828,1.235-3.521,1.235
			c-1.679,0-2.367-0.469-3.51-1.235c-1.381-0.944-3.285-2.226-6.748-2.226c-3.44,0-5.35,1.281-6.736,2.226
			c-1.143,0.767-1.828,1.235-3.521,1.235c-1.687,0-2.378-0.469-3.52-1.235c-1.384-0.944-3.287-2.226-6.737-2.226
			c-3.457,0-5.367,1.281-6.745,2.226c-1.143,0.767-1.826,1.235-3.512,1.235c-1.685,0-2.378-0.469-3.52-1.235
			c-1.033-0.696-2.353-1.591-4.377-2.002l-1.149-8.227L28.266,58.3l5.107,36.91c0.601,4.744,4.633,8.302,9.401,8.302h42.732
			c4.767,0,8.799-3.558,9.401-8.302l5.105-36.91L93.707,57.425L93.707,57.425z"/>
		<path fill="#1E9BC9" d="M38.81,46.05h3.652v15.539c0.435,0.276,0.824,0.529,1.162,0.745c1.724-1.157,4.9-3.274,10.256-3.274
			c5.353,0,8.541,2.118,10.257,3.275c1.724-1.158,4.907-3.275,10.257-3.275c5.36,0,8.55,2.119,10.258,3.275
			c0.345-0.216,0.729-0.47,1.17-0.747V46.05h3.652c2.778,0,5.057-2.264,5.057-5.054V30.644c0-2.779-2.278-5.042-5.057-5.042H76.967
			l-0.312,0.526c-2.573,4.462-7.382,7.235-12.516,7.235c-5.135,0-9.938-2.772-12.517-7.235l-0.306-0.526H38.81
			c-2.785,0-5.062,2.262-5.062,5.042v10.352C33.748,43.786,36.025,46.05,38.81,46.05z"/>
	<path fill="#1E9BC9" d="M64,0C28.651,0,0,28.651,0,64c0,35.349,28.651,64,64,64c35.349,0,64-28.651,64-64C128,28.651,99.349,0,64,0
		z M64,125.221C30.19,125.221,2.786,97.803,2.786,64C2.786,30.19,30.19,2.786,64,2.786c33.804,0,61.221,27.404,61.221,61.214
		C125.221,97.803,97.804,125.221,64,125.221z"/>
</svg>