<?xml version="1.0" encoding="utf-8"?>
<svg version="1.1" id="Layer_1" xmlns="http://www.w3.org/2000/svg" xmlns:xlink="http://www.w3.org/1999/xlink" x="0px" y="0px"
	 width="128px" height="128px" viewBox="0 0 128 128" enable-background="new 0 0 128 128" xml:space="preserve">
<path fill="#3091F2" d="M64,0C28.651,0,0,28.651,0,64c0,35.349,28.651,64,64,64c35.349,0,64-28.651,64-64C128,28.651,99.349,0,64,0z
	 M64,125.221C30.19,125.221,2.786,97.809,2.786,64C2.786,30.19,30.19,2.786,64,2.786c33.804,0,61.221,27.404,61.221,61.214
	C125.221,97.809,97.804,125.221,64,125.221z"/>
<path fill="#3091F2" d="M97.897,70.107V47.681C96.262,28.57,78.694,27.463,78.712,27.463h-5.288
	c-15.668,3.603-17.549,14.285-18.288,17.519v6.708c-1.144,3.234-6.383,4.052-9.125,0.897V30.003h3.277v-4.421H26.371v4.421h2.945
	v22.585c0,6.389,6.917,18.375,18.208,18.786l5.774-0.044c6.789,0.044,18.244-8.632,18.244-16.491l0.139-5.814
	c0.034-5.888,9.528-5.52,9.528-1.344v22.426h-3.604v4.415h22.911v-4.415H97.897z"/>
<path fill="#3091F2" d="M90.653,78.126c0,0-7.829,13.253-7.829,17.563c0,4.313,3.508,7.808,7.829,7.808
	c4.335,0,7.843-3.495,7.843-7.808C98.496,91.379,90.653,78.126,90.653,78.126z M85.098,96.474c0-0.792,0.652-1.433,1.455-1.433
	c0.815,0,1.467,0.641,1.467,1.433c0,0.787-0.651,1.426-1.467,1.426C85.75,97.899,85.098,97.261,85.098,96.474z M87.92,99.92
	c-0.435,0-0.794-0.352-0.794-0.783s0.359-0.777,0.794-0.777c0.447,0,0.806,0.346,0.806,0.777S88.367,99.92,87.92,99.92z"/>
</svg>