<?xml version="1.0" encoding="utf-8"?>
<svg version="1.1" id="Layer_1" xmlns="http://www.w3.org/2000/svg" xmlns:xlink="http://www.w3.org/1999/xlink" x="0px" y="0px"
	 width="128px" height="128px" viewBox="0 0 128 128" enable-background="new 0 0 128 128" xml:space="preserve">
<path fill="#FFAB00" d="M64,0C28.651,0,0,28.651,0,64c0,35.349,28.651,64,64,64c35.349,0,64-28.651,64-64C128,28.651,99.349,0,64,0z
	 M64,125.221C30.19,125.221,2.786,97.809,2.786,64C2.786,30.19,30.19,2.786,64,2.786c33.804,0,61.221,27.404,61.221,61.214
	C125.221,97.809,97.804,125.221,64,125.221z"/>

		<path fill="#FFAB00" d="M79.903,36.964c0,0-14.121,0.366-19.459,7.674c-5.335,7.308-8.609,6.627-8.609,6.627l3.538,4.593
			L79.903,36.964z"/>
		<path fill="#FFAB00" d="M96.523,58.556c2.692-9.03,3.845-19.093-3.614-25.433c-6.422-5.475-8.713,1.589-9.731,8.104l-1.944-2.541
			L56.699,57.575l7.812,10.154l-21.944-2.982c-0.77-2.537-2.781-4.553-5.393-5.252c-0.293-0.145-0.601-0.249-0.926-0.285
			c-0.176-0.015-0.353,0.029-0.517,0.047c-0.034-0.002-0.055-0.015-0.086-0.015v0.017c-2.142,0.321-4.073,3.403-4.473,7.329
			c-0.197,1.959-0.025,3.855,0.505,5.338c0.622,1.754,1.679,2.787,2.965,2.924c0.38,0.035,0.758-0.016,1.131-0.139
			c2.997-0.235,5.534-2.183,6.595-4.92l26.503,3.598l9.7,12.594L103.1,67.086L96.523,58.556z M34.793,72.65
			c-0.373-0.098-0.785-0.647-1.066-1.453c-0.418-1.172-0.559-2.766-0.397-4.389c0.278-2.689,1.255-4.551,2.1-5.198
			c0.022-0.023,0.05-0.028,0.067-0.044L34.793,72.65z M94.993,56.559l-9.949-12.917c0.152-1.335,0.302-2.67,0.507-4.008
			c0.316-1.88,0.786-3.793,1.79-5.431c2.136-3.471,6.275,3.01,7.123,4.521C97.46,44.077,96.737,50.452,94.993,56.559z"/>
		<path fill="#FFAB00" d="M25.184,89.82c0,0.784,0.631,1.417,1.415,1.417c0.777,0,1.407-0.633,1.407-1.417
			c0-0.777-1.407-2.391-1.407-2.391S25.184,89.043,25.184,89.82z"/>
		<path fill="#FFAB00" d="M34.765,92.743c0,1.396,1.131,2.529,2.536,2.529c1.395,0,2.529-1.133,2.529-2.529
			c0-1.405-2.529-4.292-2.529-4.292S34.765,91.338,34.765,92.743z"/>
		<path fill="#FFAB00" d="M32.731,77.612c0,0-2.393,2.724-2.393,4.041c0,1.322,1.073,2.394,2.393,2.394
			c1.321,0,2.388-1.068,2.388-2.394C35.119,80.332,32.731,77.612,32.731,77.612z"/>
</svg>