<?xml version="1.0" encoding="utf-8"?>
<svg version="1.1" id="Layer_1" xmlns="http://www.w3.org/2000/svg" xmlns:xlink="http://www.w3.org/1999/xlink" x="0px" y="0px"
	 width="128px" height="128px" viewBox="0 0 128 128" enable-background="new 0 0 128 128" xml:space="preserve">
<path fill="#00B8D4" d="M64,0C28.654,0,0,28.654,0,64c0,35.346,28.654,64,64,64s64-28.654,64-64C128,28.654,99.346,0,64,0z
	 M64,125.217C30.192,125.217,2.787,97.806,2.787,64C2.787,30.19,30.192,2.784,64,2.784c33.808,0,61.215,27.406,61.215,61.216
	C125.215,97.806,97.808,125.217,64,125.217z"/>
	<polygon fill="#00B8D4" points="67.729,58.576 60.404,58.576 62.724,75.633 65.411,75.633 	"/>
	<rect x="50.837" y="80.607" fill="#00B8D4" width="26.606" height="6.559"/>
	<path fill="#00B8D4" d="M64.14,25.042c-14.935,0-27.041,12.109-27.041,27.046c0,10.098,5.533,18.902,13.739,23.545h6.867
		l-2.991-22.03h18.706l-2.987,22.03h7.012c8.202-4.644,13.738-13.448,13.738-23.545C91.182,37.15,79.075,25.042,64.14,25.042z"/>
	<path fill="#00B8D4" d="M64.14,102.959c6.499,0,11.902-4.66,13.068-10.819H51.073C52.238,98.299,57.646,102.959,64.14,102.959z"/>
</svg>