<?xml version="1.0" encoding="utf-8"?>
<svg version="1.1" id="Layer_1" xmlns="http://www.w3.org/2000/svg" xmlns:xlink="http://www.w3.org/1999/xlink" x="0px" y="0px"
	 width="128px" height="128px" viewBox="0 0 128 128" enable-background="new 0 0 128 128" xml:space="preserve">
<path fill="#6200EA" d="M64,0C28.651,0,0,28.651,0,64c0,35.349,28.651,64,64,64c35.349,0,64-28.651,64-64C128,28.651,99.349,0,64,0z
	 M64,125.221C30.19,125.221,2.786,97.809,2.786,64C2.786,30.19,30.19,2.786,64,2.786c33.804,0,61.221,27.404,61.221,61.214
	C125.221,97.809,97.804,125.221,64,125.221z"/>
<path fill="#6200EA" d="M95.161,68.738v4.412c0,1.436-1.159,2.602-2.589,2.602H79.736c-1.442,0-2.602-1.166-2.602-2.602v-4.412
	c0-1.259,0.893-2.309,2.087-2.549v-4.975c0-0.886-0.725-1.604-1.61-1.604h-0.525c-2.39,4.304-6.91,6.998-11.937,6.998
	c-5.027,0-9.535-2.694-11.924-6.998H33.489c-1.436,0-2.602-1.167-2.602-2.603v-8.58c0-1.436,1.166-2.603,2.602-2.603h20.002
	c1.643-2.692,4.162-4.706,7.085-5.749v-3.224c0-0.179,0.022-0.354,0.053-0.524H53.65c-1.436,0-2.595-1.159-2.595-2.595v-3.725
	c0-1.436,1.16-2.596,2.595-2.596h6.926v-0.329c0-1.436,1.166-2.596,2.603-2.596h3.948c1.43,0,2.603,1.16,2.603,2.596v0.329h6.92
	c1.442,0,2.602,1.16,2.602,2.596v3.725c0,1.436-1.159,2.595-2.602,2.595h-6.979c0.043,0.17,0.06,0.345,0.06,0.524v3.224
	c2.917,1.043,5.436,3.056,7.092,5.749h5.003c6.107,0,11.088,4.981,11.088,11.102v9.239C94.18,66.332,95.161,67.422,95.161,68.738z
	 M92.466,93.693c-0.041-0.152-0.081-0.308-0.133-0.451l-3.866-12.309c-0.343-1.082-1.347-1.82-2.48-1.82
	c-1.135,0-2.14,0.738-2.482,1.82l-3.917,12.494c-0.018,0.062-0.045,0.125-0.058,0.188c-0.2,0.655-0.307,1.334-0.307,2.018
	c0,3.732,3.031,6.765,6.764,6.765c3.731,0,6.764-3.032,6.764-6.765C92.749,94.981,92.649,94.326,92.466,93.693z"/>
</svg>