<?xml version="1.0" encoding="utf-8"?>
<svg version="1.1" id="Layer_1" xmlns="http://www.w3.org/2000/svg" xmlns:xlink="http://www.w3.org/1999/xlink" x="0px" y="0px"
	 width="128px" height="128px" viewBox="0 0 128 128" enable-background="new 0 0 128 128" xml:space="preserve">
	<path fill="#E51067" d="M98.652,71.078V62.68c0-6.125-4.956-11.109-10.928-11.109c-5.971,0-10.939,4.968-10.939,11.109v21.057
		c0,7.124-5.63,12.763-12.422,12.763c-6.798,0-12.445-5.812-12.445-12.786v-8.768C57.96,73.514,62.358,64,62.358,64
		c5.635-9.275,8.964-20.052,9.612-30.986c0.171-2.879-1.822-7.954-7.297-7.954h-1.159c-1.828,0-3.31,1.496-3.31,3.31
		c0,1.827,1.496,3.31,3.31,3.31h1.159c0.945,0,0.833,0.67,0.833,0.988c-0.664,9.945-3.644,19.713-8.782,28.162
		c0,0-3.31,8.115-8.293,8.115c-5.075,0-8.293-8.285-8.293-8.285c-4.962-8.454-7.954-18.236-8.624-28.169
		c0.034-0.508,0.254-0.845,0.826-0.826h1.163c1.829,0,3.312-1.496,3.312-3.31c0-1.835-1.498-3.31-3.312-3.31H32.34
		c-4.61,0-7.489,3.867-7.284,7.779C25.662,43.948,29.049,54.725,34.683,64c0,0,4.727,9.961,10.615,11.045v8.691
		c0,10.615,8.449,19.219,18.881,19.219c10.446,0,18.901-8.627,18.901-19.219V62.68c0-2.484,1.989-4.645,4.461-4.645
		c2.483,0,4.473,2.146,4.473,4.645v8.398c-2.526,1.26-4.303,3.885-4.303,6.848c0,4.135,3.483,7.623,7.619,7.623
		s7.628-3.488,7.628-7.623C102.972,74.963,101.179,72.338,98.652,71.078z M95.349,79.082c-0.675,0-1.17-0.496-1.17-1.156
		c0-0.668,0.495-1.164,1.17-1.164c0.661,0,1.156,0.496,1.156,1.164C96.505,78.578,95.997,79.082,95.349,79.082z"/>
<path fill="#E51067" d="M64,0C28.651,0,0,28.651,0,64c0,35.349,28.651,64,64,64c35.349,0,64-28.651,64-64C128,28.651,99.349,0,64,0z
	 M64,125.221C30.19,125.221,2.786,97.809,2.786,64C2.786,30.19,30.19,2.786,64,2.786c33.804,0,61.221,27.404,61.221,61.214
	C125.221,97.809,97.804,125.221,64,125.221z"/>
</svg>