<?xml version="1.0" encoding="utf-8"?>
<svg version="1.1" id="Layer_1" xmlns="http://www.w3.org/2000/svg" xmlns:xlink="http://www.w3.org/1999/xlink" x="0px" y="0px"
	 width="128px" height="128px" viewBox="0 0 128 128" enable-background="new 0 0 128 128" xml:space="preserve">
<path fill="#EF5120" d="M64,0C28.651,0,0,28.651,0,64c0,35.349,28.651,64,64,64c35.349,0,64-28.651,64-64C128,28.651,99.349,0,64,0z
	 M64,125.221C30.19,125.221,2.786,97.809,2.786,64C2.786,30.19,30.19,2.786,64,2.786c33.804,0,61.221,27.404,61.221,61.214
	C125.221,97.809,97.804,125.221,64,125.221z"/>
		<path fill="#EF5120" d="M86.343,45.666c-0.086-0.245-0.2-0.474-0.332-0.679l-2.123,4.773l0.494-0.162
			C86.008,49.05,86.884,47.292,86.343,45.666z"/>

			<path fill="#EF5120" d="M52.554,48.244c0.006-0.032,0.012-0.058,0.018-0.091C52.566,48.186,52.56,48.212,52.554,48.244z"/>
			<path fill="#EF5120" d="M53.759,42.932c0.002-0.01,0.005-0.021,0.007-0.036C53.764,42.912,53.761,42.922,53.759,42.932z"/>
			<path fill="#EF5120" d="M52.633,47.887c0.683-3.004,1.013-4.464,1.125-4.955C53.6,43.645,53.02,46.178,52.633,47.887z"/>
			<path fill="#EF5120" d="M53.766,42.896c0.005-0.021,0.009-0.039,0.02-0.061C53.774,42.857,53.77,42.876,53.766,42.896z"/>
			<path fill="#EF5120" d="M52.572,48.153c0.018-0.084,0.042-0.17,0.061-0.266C52.615,47.979,52.591,48.066,52.572,48.153z"/>
			<path fill="#EF5120" d="M53.798,42.767c0.002-0.008,0.003-0.014,0.004-0.019C53.802,42.753,53.8,42.759,53.798,42.767z"/>
			<path fill="#EF5120" d="M53.785,42.835c0.001-0.006,0.002-0.013,0.003-0.019C53.787,42.823,53.786,42.83,53.785,42.835z"/>
			<path fill="#EF5120" d="M78.965,56.353L68.28,55.17l-5.411-10.497c2.929,3.269,6.664,7.43,6.874,7.655l2.609,0.291l2.892-6.508
				l-4.595,1.535l0.233-1.016c0.572-2.495-0.995-4.978-3.49-5.543c0,0-5.151-1.064-7.472-1.698c-2.06-0.563-5.417,0.263-6.118,3.36
				c-1.799,7.914-1.732,7.615-1.249,5.494c-0.811,3.569-2.088,9.178-4.014,17.674l0.01,0.002l-1.801,13.143l-10.396,17.9
				c-1.003,1.73-0.418,3.939,1.312,4.951c1.723,1.002,3.941,0.412,4.944-1.313l3.14-5.41c-0.061-0.289-0.097-0.577-0.097-0.877
				c0-1.896,1.247-3.51,2.967-4.064l4.747-8.174c0.238-0.404,0.39-0.854,0.454-1.324l1.812-13.228l2.553,0.585l3.623,8.23
				c2.865-6.456,3.836-8.637,5.353-12.045c-0.392-0.045-0.2-0.027-1.54-0.173c-2.854-0.315-4.633-2.512-4.984-3.897l-3.085-12.322
				c6.42,12.446,5.996,11.639,6.106,11.824c0.519,0.828,1.373,1.333,2.296,1.435c0.001,0.001,12.323,1.36,12.324,1.36
				c1.717,0.19,3.24-1.047,3.435-2.745C81.892,58.074,80.662,56.542,78.965,56.353z"/>
			<path fill="#EF5120" d="M53.803,42.748C53.806,42.735,53.806,42.736,53.803,42.748L53.803,42.748z"/>
			<path fill="#EF5120" d="M53.789,42.817c0.004-0.019,0.007-0.039,0.01-0.05C53.796,42.778,53.792,42.799,53.789,42.817z"/>

		<path fill="#EF5120" d="M70.877,79.037l-4.893,11.01h1.865c1.54,0,2.896,0.823,3.647,2.056
			C71.053,79.121,70.877,79.037,70.877,79.037z"/>
		<path fill="#EF5120" d="M66.597,24.488c3.782,0,6.856,3.068,6.856,6.85c0,3.788-3.074,6.856-6.856,6.856
			c-3.788,0-6.856-3.068-6.856-6.856C59.74,27.557,62.809,24.488,66.597,24.488z"/>
		<path fill="#EF5120" d="M83.979,92.491c-1.072-0.327-2.202,0.267-2.522,1.333c-0.038,0.096-0.057,0.187-0.069,0.283
			c-0.007-0.002-0.013-0.004-0.02-0.007c-0.911-0.284-1.885,0.228-2.164,1.144c-0.233,0.752,0.065,1.543,0.688,1.953
			c-0.628,1.04-1.648,1.926-2.474,2.529c-0.158,0.113-0.216,0.328-0.154,0.517c0.074,0.188,0.252,0.312,0.457,0.3
			c2.956-0.174,4.873-1.037,4.873-1.037h-0.001c0.885-0.016,1.69-0.59,1.962-1.486c0.203-0.633,0.082-1.286-0.266-1.795
			c0.475-0.24,0.853-0.662,1.016-1.21C85.64,93.949,85.039,92.818,83.979,92.491z"/>
		<path fill="#EF5120" d="M84.269,37.354c-0.907-0.409-1.979,0.004-2.382,0.912l-6.523,14.685l3.763,0.419l6.068-13.635
			C85.595,38.822,85.176,37.755,84.269,37.354z"/>
		<path fill="#EF5120" d="M68.968,96.099c0.582-0.372,0.988-1.032,0.988-1.784c0-1.165-0.948-2.105-2.106-2.105h-5.987
			c0.204-0.46,11.626-26.152,12.082-27.164l-3.776-0.42c-0.394,0.887-11.771,26.487-12.254,27.584h-7.989
			c-1.165,0-2.106,0.94-2.106,2.105c0,0.799,0.443,1.492,1.1,1.85l-1.591,5.002c-0.185,0.578,0.25,1.168,0.861,1.168h16.134v-4.099
			l1.252,4.099h4.143c0.61,0,1.039-0.591,0.86-1.168L68.968,96.099z"/>
		<path fill="#EF5120" d="M94.642,93.897c0.024-0.506-0.178-0.968-0.53-1.28c0.3-0.264,0.506-0.652,0.527-1.08
			c0.041-0.855-0.609-1.584-1.463-1.625c-0.842-0.047-1.57,0.603-1.624,1.457c-0.004,0.072-0.001,0.145,0.004,0.217
			c-0.005,0-0.01-0.002-0.014-0.002c-0.722-0.035-1.346,0.525-1.394,1.252c-0.028,0.602,0.344,1.127,0.879,1.324
			c-0.271,0.885-0.867,1.729-1.363,2.329c-0.088,0.119-0.108,0.283-0.019,0.41s0.245,0.183,0.39,0.142
			c2.175-0.679,3.428-1.673,3.428-1.673l-0.001-0.001C94.111,95.189,94.607,94.613,94.642,93.897z"/>
</svg>