<?xml version="1.0" encoding="utf-8"?>
<svg version="1.1" id="Layer_1" xmlns="http://www.w3.org/2000/svg" xmlns:xlink="http://www.w3.org/1999/xlink" x="0px" y="0px"
	 width="128px" height="128px" viewBox="0 0 128 128" enable-background="new 0 0 128 128" xml:space="preserve">
<path fill="#64DD17" d="M64,0C28.651,0,0,28.651,0,64c0,35.349,28.651,64,64,64c35.349,0,64-28.651,64-64C128,28.651,99.349,0,64,0z
	 M64,125.221C30.19,125.221,2.786,97.809,2.786,64C2.786,30.19,30.19,2.786,64,2.786c33.804,0,61.221,27.404,61.221,61.214
	C125.221,97.809,97.804,125.221,64,125.221z"/>
		<path fill="#64DD17" d="M94.796,25.372L76.58,60.708c0.094,0.033,0.2,0.061,0.307,0.098c0.768,0.248,1.492,0.551,2.16,0.9
			c0.82,0.429,1.561,0.934,2.218,1.51L99.525,27.81c0.682-1.306,0.17-2.913-1.143-3.581C97.083,23.554,95.478,24.066,94.796,25.372z
			"/>
		<path fill="#64DD17" d="M34.582,90.914c2.901,2.607,6.46,4.889,10.58,6.766c6.955,3.172,13.077,4.109,13.333,4.143
			c0.006,0.002,0.013,0.002,0.02,0.004c0.085,0.01,0.165,0.014,0.245,0.014c0.018,0,0.042,0,0.06,0
			c7.318-0.234,13.026-2.672,16.951-7.239c5.178-6.013,7.034-15.042,6.683-22.808c-0.106-2.225-0.906-4.492-2.455-6.113
			c-0.117-0.121-0.236-0.238-0.361-0.354c-0.54-0.497-1.152-0.908-1.799-1.254c-0.568-0.299-1.164-0.544-1.759-0.739
			c-0.252-0.079-0.504-0.141-0.755-0.187c-0.352-0.063-0.702-0.09-1.052-0.09c-2.56,0-5.023,1.614-6.902,3.259
			c-1.946,1.699-3.912,3.556-6.104,5.006c-2.399,1.596-5.036,2.393-7.783,3.178c-3.549,1.009-7.194,1.652-10.86,2.066
			c-3.256,0.365-6.558,0.576-9.852,0.576c-1.307,0-2.606-0.03-3.907-0.1c-0.074-0.004-0.155-0.014-0.229-0.019
			c-0.038-0.003-0.082-0.004-0.125-0.004c-0.56,0-1.087,0.259-1.434,0.711c-0.369,0.478-0.468,1.108-0.272,1.687
			C28.288,83.727,30.9,87.588,34.582,90.914z M32.053,80.743c0.001,0,0.002,0,0.003,0c0.184,0.001,0.373,0.001,0.565,0.001
			c2.664,0,6.369-0.118,10.524-0.594c8.801-1.002,15.976-3.142,21.4-6.379c0.164-0.09,0.333-0.137,0.501-0.137
			c0.173,0,0.333,0.043,0.479,0.122c3.153,1.736,8.067,4.306,11.565,5.556c0.427,0.15,0.692,0.585,0.646,1.046
			c-0.413,3.646-1.604,8.29-4.719,11.899c-3.183,3.693-7.895,5.699-14,5.965c-0.017,0.001-0.034,0.001-0.058,0.001
			c-0.077,0-0.154-0.013-0.231-0.024c-0.616-0.111-2.131-0.398-4.17-0.959c0.579-0.256,1.182-0.564,1.79-0.91
			c0.539-0.307,1.088-0.639,1.632-0.992c1.679-1.08,3.303-2.311,4.566-3.32c0.288-0.229,0.016-0.689-0.326-0.541
			c-2.768,1.156-6.295,1.936-9.457,2.443c-0.993,0.156-1.947,0.289-2.83,0.402c-1.037,0.131-1.972,0.232-2.749,0.306
			c-0.202-0.087-0.41-0.183-0.613-0.272c-1.757-0.807-3.396-1.688-4.911-2.643c0.658-0.062,1.353-0.166,2.063-0.314
			c0.639-0.13,1.285-0.285,1.921-0.459c1.878-0.51,3.667-1.152,4.892-1.629c0.228-0.087,0.147-0.438-0.101-0.416
			c-2.227,0.218-5.31,0.235-7.943,0.195c-0.864-0.012-1.678-0.029-2.395-0.047c-0.952-0.031-1.732-0.058-2.246-0.082
			c-0.303-0.254-0.601-0.508-0.891-0.768c-0.366-0.334-0.726-0.681-1.075-1.025c0.538-0.056,1.093-0.145,1.657-0.248
			c0.524-0.104,1.061-0.225,1.589-0.357c2.101-0.525,4.143-1.262,5.499-1.791c0.234-0.088,0.154-0.438-0.095-0.41
			c-2.091,0.199-4.935,0.227-7.459,0.201c-0.622-0.008-1.22-0.018-1.785-0.034c-0.629-0.013-1.218-0.027-1.733-0.042
			c-0.734-0.977-1.379-1.985-1.938-3.033C31.448,81.132,31.687,80.743,32.053,80.743z"/>
		<path fill="#64DD17" d="M90.392,85.582c2.359,0,4.267,1.914,4.267,4.273c0,2.354-1.907,4.268-4.267,4.268
			s-4.268-1.914-4.268-4.268C86.124,87.496,88.032,85.582,90.392,85.582z"/>
		<path fill="#64DD17" d="M81.18,97.477c1.197,0,2.166,0.963,2.166,2.153s-0.969,2.159-2.166,2.159
			c-1.185,0-2.153-0.969-2.153-2.159S79.995,97.477,81.18,97.477z"/>
		<path fill="#64DD17" d="M92.881,96.979c1.197,0,2.153,0.963,2.153,2.153s-0.956,2.159-2.153,2.159
			c-1.185,0-2.154-0.969-2.154-2.159S91.696,96.979,92.881,96.979z"/>
</svg>