<?xml version="1.0" encoding="utf-8"?>
<svg version="1.1" id="Layer_1" xmlns="http://www.w3.org/2000/svg" xmlns:xlink="http://www.w3.org/1999/xlink" x="0px" y="0px"
	 width="128px" height="128px" viewBox="0 0 128 128" enable-background="new 0 0 128 128" xml:space="preserve">
<path fill="#D50000" d="M64,0C28.651,0,0,28.651,0,64c0,35.349,28.651,64,64,64c35.349,0,64-28.651,64-64C128,28.651,99.349,0,64,0z
	 M64,125.221C30.19,125.221,2.786,97.803,2.786,64C2.786,30.19,30.19,2.786,64,2.786c33.804,0,61.221,27.404,61.221,61.214
	C125.221,97.803,97.804,125.221,64,125.221z"/>
	<path fill="#D50000" d="M86.876,55.88v-1.416c0-7.333-3.465-10.91-8.837-12.627V29.917h0.092c1.501,0,2.647-1.152,2.647-2.654
		c0-1.409-1.146-2.647-2.647-2.647H49.869c-1.416,0-2.647,1.146-2.647,2.647c0,1.416,1.146,2.654,2.647,2.654h0.086v11.921
		c-5.373,1.717-8.831,5.293-8.831,12.627v1.416H86.876z M68.504,29.917h7.507v11.38c-2.269-0.503-4.797-0.757-7.507-0.874V29.917z
		 M51.989,29.917h7.507v10.506c-2.704,0.117-5.239,0.371-7.507,0.874V29.917z"/>
	<path fill="#D50000" d="M41.125,81.495v5.387c0,5.213,1.747,7.983,4.682,9.45v4.772c0,1.317,1.06,2.384,2.383,2.384h31.614
		c1.329,0,2.396-1.066,2.396-2.384v-4.772c2.929-1.467,4.676-4.237,4.676-9.45v-5.387H41.125z"/>
		<polygon fill="#D50000" points="63.553,69.57 65.949,69.57 64.79,66.83 		"/>
		<path fill="#D50000" d="M41.125,58.527v20.32h45.751v-20.32H41.125z M59.055,72.041c-0.974,1.064-2.298,1.592-3.885,1.592
			c-1.416,0-2.562-0.435-3.536-1.409c-0.968-0.974-1.409-2.12-1.409-3.536c0-1.415,0.441-2.561,1.409-3.535
			c0.975-0.969,2.12-1.41,3.536-1.41c1.323,0,2.561,0.441,3.529,1.322l-1.146,1.596c-0.441-0.355-0.796-0.621-1.152-0.798
			c-0.349-0.092-0.704-0.092-1.145-0.092c-0.797,0-1.502,0.269-2.029,0.796c-0.533,0.534-0.797,1.238-0.797,2.207
			c0,0.975,0.264,1.593,0.797,2.12c0.527,0.534,1.146,0.798,1.943,0.798c0.705,0,1.323-0.179,1.851-0.441v-2.563h2.034V72.041z
			 M67.622,73.54l-0.883-2.027h-3.977L61.88,73.54h-2.298l4.154-9.534h2.028l4.148,9.534H67.622z M76.894,72.842
			c-0.62,0.527-1.501,0.791-2.556,0.791c-1.502,0-2.831-0.527-4.068-1.676l1.237-1.591c1.066,0.884,1.949,1.325,2.831,1.325
			c0.343,0,0.698-0.087,0.883-0.264c0.263-0.178,0.355-0.355,0.355-0.706c0-0.269-0.093-0.534-0.355-0.711
			c-0.264-0.177-0.712-0.349-1.423-0.526c-1.146-0.271-1.937-0.619-2.463-1.061c-0.539-0.441-0.803-1.06-0.803-2.034
			c0-0.883,0.355-1.587,0.975-2.12c0.618-0.527,1.501-0.705,2.476-0.705c0.619,0,1.238,0.085,1.937,0.354
			c0.619,0.178,1.158,0.528,1.686,0.968l-1.066,1.594c-0.791-0.619-1.673-0.975-2.556-0.975c-0.355,0.179-0.619,0.179-0.803,0.355
			c-0.172,0.177-0.264,0.349-0.264,0.704c0,0.264,0.092,0.534,0.355,0.619c0.264,0.179,0.803,0.355,1.765,0.619
			c0.883,0.264,1.594,0.527,2.12,0.969c0.54,0.439,0.712,1.061,0.712,1.948C77.868,71.604,77.512,72.303,76.894,72.842z"/>
</svg>