<?xml version="1.0" encoding="utf-8"?>
<svg version="1.1" id="Layer_1" xmlns="http://www.w3.org/2000/svg" xmlns:xlink="http://www.w3.org/1999/xlink" x="0px" y="0px"
	 width="128px" height="128px" viewBox="0 0 128 128" enable-background="new 0 0 128 128" xml:space="preserve">
<path fill="#B1B72C" d="M64,0C28.651,0,0,28.651,0,64c0,35.349,28.651,64,64,64c35.349,0,64-28.651,64-64C128,28.651,99.349,0,64,0z
	 M64,125.221C30.19,125.221,2.786,97.809,2.786,64C2.786,30.19,30.19,2.786,64,2.786c33.804,0,61.221,27.404,61.221,61.214
	C125.221,97.809,97.804,125.221,64,125.221z"/>
<path fill="#B1B72C" d="M25.185,47.086c0,0,10.961,8.609,19.926,6.368l20.632-0.587c2.016-0.058,4.22-0.787,6.135-1.33
	c2.889-0.831,7.096-2.143,8.771-4.838c1.317-2.099,2.347-4.228,4.245-5.938c1.439-1.281,3.089-2.18,4.944-2.662
	c1.606-0.423,3.682-0.371,4.797,0.726c1.044,1.044,2.201,1.851,3.509,2.544c1.149,0.608,2.35,1.134,3.571,1.592
	c0.51,0.199,1.105,0.264,1.302,0.741c0.478,1.115-1.361,2.289-2.021,2.914c-0.207,0.191-1.507,0.173-1.774,0.201
	c-1.134,0.128-2.271,0.259-3.419,0.386c-2.144,0.244-4.259,0.142-5.697,2.064c-1.678,2.228-1.034,4.867-1.141,7.414
	c-0.105,2.492-0.581,4.839-1.737,7.069c-0.761,1.459-1.893,2.74-3.211,3.736l-1.057,2.828l-0.235,3.422v6.248
	c0,1.695,0.315,2.928,0.454,4.616c-0.024-0.317,1.891,1.171,2.025,1.277l1.326,0.907l-1.411,1.062
	c-1.07-0.083-1.911-0.119-2.724-0.074c0.368-0.021-0.605-2.255-0.856-2.502c-0.559-0.56-0.664-1.069-0.664-1.983
	c0-0.355-0.985-3.061-0.985-3.064c0.151,1.838-0.23,3.661,0.077,5.499c0.244,1.485,0.643,1.546,1.928,2.042l0.947,1.416
	c-0.752,0.45-1.713,0.885-2.613,0.708c-0.961-0.188-0.659-1.133-1.325-1.752c-1.409-1.335,0.048-2.861-1.732-3.617
	c0.045-4.756-0.514-9.45-0.47-14.204c0.005-0.469,0.008-0.942,0.012-1.417c0,0-6.13,0.236-7.199,0
	c-1.055-0.231-2.834-0.942-2.834-0.942s-3.884-1.887-5.182-2.123c-1.299-0.231-5.661-3.295-9.908,2.834c0,0-0.705,4.595-8.132,7.896
	c0,0-7.662,5.308-3.535,10.021l0.468,1.653l-1.528,0.119h-1.654c0,0-0.588-0.237-0.588-0.593c0-0.35-0.235-7.541-0.235-7.541
	s-6.014,4.357-1.886,8.134l0.119,0.706l-0.705,0.823h-1.419l-1.417-0.587c0,0-0.469-1.18-0.469-1.773c0-0.586,0-6.955,0-6.955
	s10.376-4.594,9.197-15.325c0,0-0.942-6.012,2.946-8.016l0.119-0.943C42.87,56.289,34.024,56.52,25.185,47.086z"/>
</svg>