<?xml version="1.0" encoding="utf-8"?>
<svg version="1.1" id="Layer_1" xmlns="http://www.w3.org/2000/svg" xmlns:xlink="http://www.w3.org/1999/xlink" x="0px" y="0px"
	 width="128px" height="128px" viewBox="0 0 128 128" enable-background="new 0 0 128 128" xml:space="preserve">
<path fill="#2962FF" d="M64,0C28.651,0,0,28.651,0,64c0,35.349,28.651,64,64,64c35.349,0,64-28.651,64-64C128,28.651,99.349,0,64,0z
	 M64,125.221C30.19,125.221,2.786,97.809,2.786,64C2.786,30.19,30.19,2.786,64,2.786c33.804,0,61.221,27.404,61.221,61.214
	C125.221,97.809,97.804,125.221,64,125.221z"/>

		<path fill="#2962FF" d="M57.745,78.84c-2.235,0-16.765,0-18.942,0V62.549c0-1.916-1.552-3.468-3.468-3.468h-2.036
			c-1.916,0-3.468,1.552-3.468,3.468c0,2.846,0,21.638,0,23.894c0,1.915,1.552,3.467,3.468,3.467h6.614v3.816
			c0,1.346-1.098,2.443-2.451,2.443h-7.631v6.51h10.844c3.56,0,6.444-2.885,6.444-6.444c0-2.181,0-4.55,0-6.528
			c6.192-0.904,10.988-4.807,11.685-9.643C58.895,79.424,58.396,78.84,57.745,78.84z"/>
		<path fill="#2962FF" d="M96.826,61.863c-2.437-5.925-7.861-19.164-8.335-20.311c-1.018-2.484-3.859-3.672-6.344-2.655
			l-8.016,3.291c-1.954,0.8-3.102,2.723-3.011,4.707l-4.527,5.033l-8.652,0.737l0.57-3.005c0.16-0.829-0.383-1.619-1.207-1.779
			c-0.823-0.153-1.62,0.384-1.78,1.207L54.8,52.93l-1,0.083c-1.795,0.156-3.124,1.731-2.974,3.527
			c0.129,1.52,1.288,2.705,2.729,2.939l-1.475,7.744c-1.998,0.157-3.773,1.365-4.656,3.165l-0.201-0.034
			c-0.829-0.16-1.62,0.383-1.779,1.207c-0.153,0.822,0.383,1.619,1.206,1.771c12.157,2.312,11.298,2.163,11.51,2.163
			c0.712,0,1.348-0.507,1.485-1.237c0.16-0.822-0.383-1.619-1.206-1.773l-0.201-0.041c-0.165-1.996-1.373-3.771-3.172-4.654
			l1.612-8.478l3.53-0.302c0.892-1.207,2.16-2.06,3.636-2.421c1.125-0.271,8.783-2.141,9.788-2.387
			c0.083-0.115,0.871-1.263,6.121-8.896l-4.223,11.652L64.587,59.63c-1.756,0.427-2.826,2.19-2.398,3.938
			c0.428,1.75,2.191,2.819,3.938,2.391l12.647-3.082c1.061-0.256,1.927-1.021,2.301-2.057l4.655-12.871l-1.559,13.236
			c-0.163,1.436-1.677,4.006-4.655,4.735l-0.815,0.198l0.594,1.468l-6.45,11.334c-0.394,0.694-0.568,1.496-0.478,2.287l1.97,18.088
			c0.216,2.081,2.09,3.586,4.178,3.357c2.089-0.223,3.594-2.096,3.365-4.179l-1.837-16.861l6.824-12.459l0.905-0.358L82.107,79.92
			c-0.47,0.908-0.537,1.971-0.216,2.944l5.859,17.24c0.669,1.981,2.835,3.043,4.821,2.373c1.975-0.675,3.043-2.835,2.373-4.815
			l-5.345-15.725c3.511-7.025,5.804-11.839,7.08-14.576C97.5,65.626,97.543,63.632,96.826,61.863z"/>
		<path fill="#2962FF" d="M73.269,24.764c3.977,0,7.2,3.224,7.2,7.193c0,3.976-3.224,7.193-7.2,7.193
			c-3.975,0-7.186-3.217-7.186-7.193C66.083,27.987,69.294,24.764,73.269,24.764z"/>

</svg>