<?xml version="1.0" encoding="utf-8"?>
<svg version="1.1" id="Layer_1" xmlns="http://www.w3.org/2000/svg" xmlns:xlink="http://www.w3.org/1999/xlink" x="0px" y="0px"
	 width="128px" height="128px" viewBox="0 0 128 128" enable-background="new 0 0 128 128" xml:space="preserve">
<path fill="#F78131" d="M64,0C28.646,0,0,28.657,0,64c0,35.345,28.646,64,64,64s64-28.655,64-64C128,28.657,99.354,0,64,0z
	 M64,125.22C30.188,125.22,2.792,97.801,2.792,64C2.792,30.188,30.188,2.782,64,2.782c33.811,0,61.21,27.405,61.21,61.218
	C125.21,97.801,97.811,125.22,64,125.22z"/>
<path fill="#F78131" d="M88.271,36.595l-12.686-9.147l-0.024-0.103L75.5,27.385l-0.085-0.041l-0.061,0.103L63.188,33.23
	l-8.271-8.188l-0.25,0.25v-0.011L40.896,36.595H30.667v10.26h1.688l9.687,50.615c0.313,2.895,4.25,5.489,6.271,5.489h28.999
	c2.25,0,5.96-3.5,5.96-5.385L93,46.855h1.71v-10.26H88.271z M75.125,31.458l7.104,5.137H66.605l-0.751-0.73L75.125,31.458z
	 M54.708,29.813l6.875,6.782H46.458L54.708,29.813z M37.812,49.01l3.583,3.563l-2.5,2.5L37.812,49.01z M79.585,52.5l-7.125,7.146
	l-7.064-7.041l5.75-5.75h2.75L79.585,52.5z M78.854,46.855h6.396l-3.21,3.197L78.854,46.855z M60.521,71.625l-7.083,7.095
	l-7.083-7.044l7.083-7.092L60.521,71.625z M55.896,62.125l7.042-7.052L70,62.114l-7.042,7.041L55.896,62.125z M62.958,74.074
	l7.062,7.021l-7.083,7.095l-7.042-7.014L62.958,74.074z M65.438,71.614l7.021-7.054l7.04,7.023l-7.04,7.052L65.438,71.614z
	 M62.917,50.167l-3.312-3.313h6.605L62.917,50.167z M60.458,52.615l-7.021,7.052l-7.146-7.104l5.729-5.708h2.646L60.458,52.615z
	 M43.854,50.125l-3.292-3.27h6.542L43.854,50.125z M40.896,66.23l-1.25-6.971l4.209-4.217l7.125,7.083l-7.063,7.105L40.896,66.23z
	 M44.688,87.209L42.562,75.49l1.354-1.354l7.063,7.04l-6.146,6.169L44.688,87.209z M45.812,93.699l-0.062-0.523l5.438,5.429
	C49.333,98.459,46.083,96.176,45.812,93.699z M47.271,89.811l6.167-6.175l7.042,7.01l-6.146,6.165L47.271,89.811z M57.438,98.625
	l5.5-5.521l5.562,5.521H57.438z M65.396,90.646l7.084-7.104l6.331,6.304l-7.081,7.114L65.396,90.646z M74.96,98.551l4.436-4.456
	C79.021,96.155,77,98.155,74.96,98.551z M80.665,86.801l-5.727-5.706l7.041-7.063l0.855,0.874L80.665,86.801z M84.335,66.76
	l-2.355,2.365l-7.064-7.011l7.125-7.145l3.73,3.718L84.335,66.76z M86.54,54.532l-2.061-2.042l2.959-2.947L86.54,54.532z
	 M90.438,43.448h-55.5V39.97h55.5V43.448z"/>
</svg>