<?xml version="1.0" encoding="utf-8"?>
<svg version="1.1" id="Layer_1" xmlns="http://www.w3.org/2000/svg" xmlns:xlink="http://www.w3.org/1999/xlink" x="0px" y="0px"
	 width="128px" height="128px" viewBox="0 0 128 128" enable-background="new 0 0 128 128" xml:space="preserve">
<path fill="#D3BA2A" d="M103.77,91.016l-4.693-18.779c-0.136-0.545-0.625-0.926-1.188-0.926H84.016v-1.789
	c0-2.14-1.962-5.44-4.566-5.44h-9.348c-0.678,0-1.223,0.547-1.223,1.223v3.771c0,0.676,0.545,1.223,1.223,1.223h5.58
	c0.487,0,0.813,0.27,0.813,0.449v0.563h-8.513v-4.434c0-1.541-1.254-2.795-2.797-2.795h-0.322c-1.542,0-2.796,1.254-2.796,2.795
	v4.433h-8.511v-0.563c0-0.179,0.323-0.448,0.81-0.448h5.582c0.676,0,1.224-0.547,1.224-1.223v-3.771
	c0-0.676-0.548-1.223-1.224-1.223h-9.346c-2.606,0-4.567,3.3-4.567,5.44v1.789H32.16c-0.561,0-1.05,0.381-1.186,0.926l-4.696,18.779
	c-0.09,0.365-0.009,0.753,0.223,1.049c0.232,0.297,0.586,0.471,0.963,0.471h2.952v2.396c0,0.676,0.546,1.222,1.222,1.222h5.698
	c0.675,0,1.223-0.546,1.223-1.222v-2.396h52.931v2.396c0,0.676,0.547,1.222,1.224,1.222h5.697c0.677,0,1.223-0.546,1.223-1.222
	v-2.396h2.952c0.377,0,0.732-0.174,0.961-0.471C103.778,91.769,103.861,91.381,103.77,91.016z M75.683,67.854h-4.357v-1.327h8.124
	c0.975,0,2.123,1.979,2.123,2.995v1.789H78.94v-0.563C78.94,69.151,77.479,67.854,75.683,67.854z M64.511,66.877
	c0-0.193,0.156-0.351,0.352-0.351h0.322c0.195,0,0.351,0.158,0.351,0.351v4.433h-1.024V66.877z M48.478,69.521
	c0-1.016,1.146-2.995,2.123-2.995h8.125v1.327h-4.36c-1.795,0-3.255,1.298-3.255,2.895v0.563h-2.631V69.521z M36.114,93.709H32.86
	v-1.174h3.253V93.709z M97.189,93.709h-3.256v-1.174h3.256V93.709z M98.41,90.09h-5.697H37.335h-5.698h-2.608l4.085-16.335H63.29
	h3.469h30.174l4.085,16.335H98.41z M65.023,74.848c-3.901,0-7.075,3.173-7.075,7.076c0,3.898,3.174,7.074,7.075,7.074
	c3.9,0,7.076-3.176,7.076-7.074C72.1,78.021,68.924,74.848,65.023,74.848z M65.023,86.553c-2.552,0-4.63-2.076-4.63-4.629
	c0-2.554,2.078-4.631,4.63-4.631c2.555,0,4.63,2.077,4.63,4.631C69.653,84.477,67.578,86.553,65.023,86.553z M67.747,82.916
	c0.478,0.478,0.478,1.252,0,1.729c-0.238,0.238-0.551,0.357-0.864,0.357c-0.313,0-0.626-0.119-0.865-0.357l-3.945-3.946
	c-0.477-0.476-0.477-1.25,0-1.728c0.478-0.478,1.251-0.478,1.728,0L67.747,82.916z M55.979,84.761
	c-0.077,0.014-0.153,0.022-0.228,0.022c-0.576,0-1.089-0.411-1.2-0.998c-0.116-0.619-0.175-1.257-0.175-1.896
	c0-2.446,0.869-4.775,2.384-6.391c0.463-0.493,1.236-0.517,1.729-0.056c0.493,0.462,0.517,1.236,0.055,1.729
	c-1.095,1.166-1.723,2.887-1.723,4.718c0,0.489,0.045,0.975,0.133,1.444C57.08,83.998,56.643,84.637,55.979,84.761z M58.814,86.875
	c0.498,0.455,0.532,1.229,0.074,1.728c-0.241,0.263-0.57,0.396-0.9,0.396c-0.296,0-0.592-0.106-0.826-0.322
	c-0.43-0.393-0.823-0.85-1.166-1.35c-0.382-0.558-0.24-1.318,0.317-1.7s1.317-0.24,1.699,0.317
	C58.251,86.293,58.521,86.605,58.814,86.875z"/>
			<path fill="#D3BA2A" d="M93.006,41.302h-4.918v-2.195H40.827v2.195H35.55c-2.122,0-3.85,1.262-3.85,2.813s1.728,2.813,3.85,2.813
				h5.277v7.144c0,4.344,4.837,7.879,10.78,7.879h25.698c5.944,0,10.782-3.535,10.782-7.879v-7.144h4.918
				c2.122,0,3.849-1.262,3.849-2.813C96.855,42.564,95.128,41.302,93.006,41.302z M40.827,45.424H35.55
				c-0.987,0-1.789-0.588-1.789-1.309c0-0.722,0.802-1.309,1.789-1.309h5.277V45.424z M86.027,54.072
				c0,3.514-3.911,6.374-8.721,6.374H51.608c-4.808,0-8.72-2.86-8.72-6.374v-13.46h43.139V54.072z M93.006,45.424h-4.918v-2.616
				h4.918c0.987,0,1.788,0.586,1.788,1.309C94.794,44.836,93.992,45.424,93.006,45.424z M90.276,36.027
				c0-4.413-4.911-8.005-10.95-8.005h-8.393v-3.547H57.442v3.547h-8.39c-6.04,0-10.952,3.592-10.952,8.005v1.401h52.175V36.027
				L90.276,36.027z M59.502,25.981h9.373v2.041h-9.373V25.981z M40.162,35.923c0.077-3.536,4.036-6.395,8.891-6.395h30.274
				c4.853,0,8.812,2.859,8.892,6.395H40.162z"/>
<path fill="#D3BA2A" d="M64,0C28.654,0,0,28.654,0,64c0,35.347,28.654,64,64,64s64-28.653,64-64C128,28.654,99.346,0,64,0z
	 M64,125.217c-33.808,0-61.213-27.41-61.213-61.217C2.787,30.19,30.192,2.784,64,2.784c33.808,0,61.215,27.406,61.215,61.216
	C125.215,97.807,97.808,125.217,64,125.217z"/>
</svg>