<?xml version="1.0" encoding="utf-8"?>
<svg version="1.1" id="Layer_1" xmlns="http://www.w3.org/2000/svg" xmlns:xlink="http://www.w3.org/1999/xlink" x="0px" y="0px"
	 width="128px" height="128px" viewBox="0 0 128 128" enable-background="new 0 0 128 128" xml:space="preserve">
<path fill="#8C8C8C" d="M64,0C28.651,0,0,28.651,0,64c0,35.349,28.651,64,64,64c35.349,0,64-28.651,64-64C128,28.651,99.349,0,64,0z
	 M64,125.221C30.19,125.221,2.786,97.809,2.786,64C2.786,30.19,30.19,2.786,64,2.786c33.804,0,61.221,27.404,61.221,61.214
	C125.221,97.809,97.804,125.221,64,125.221z"/>
	<polygon fill="#8C8C8C" points="79.355,35.962 48.67,35.962 40.647,47.443 87.492,47.443 	"/>
	<rect x="49.693" y="24.488" fill="#8C8C8C" width="28.526" height="6.61"/>
	<path fill="#8C8C8C" d="M40.303,52.313v50.084h47.305V52.313H40.303z M58.043,79.443H55.62l0.062-7.65h-0.048l-2.83,7.65h-1.85
		l-2.754-7.65h-0.048l0.062,7.65h-2.695V68.664h3.963l2.474,6.954h0.062l2.371-6.954h3.657V79.443z M62.914,79.443h-2.435V68.664
		h2.435V79.443z M71.959,79.443h-6.61V68.664h2.429v8.694h4.182V79.443z M80.096,79.443l-4.056-4.871h-0.263v4.871h-2.429V68.664
		h2.429v4.52h0.277l3.905-4.52h3.289l-4.7,4.958l4.975,5.821H80.096z"/>
</svg>