<?xml version="1.0" encoding="utf-8"?>
<svg version="1.1" id="Layer_1" xmlns="http://www.w3.org/2000/svg" xmlns:xlink="http://www.w3.org/1999/xlink" x="0px" y="0px"
	 width="128px" height="128px" viewBox="0 0 128 128" enable-background="new 0 0 128 128" xml:space="preserve">
<path fill="#D19D34" d="M64,0C28.651,0,0,28.651,0,64c0,35.349,28.651,64,64,64c35.349,0,64-28.651,64-64C128,28.651,99.349,0,64,0z
	 M64,125.221C30.19,125.221,2.786,97.803,2.786,64C2.786,30.19,30.19,2.786,64,2.786c33.804,0,61.221,27.404,61.221,61.214
	C125.221,97.803,97.804,125.221,64,125.221z"/>
	<path fill="#D19D34" d="M31.864,47.911v48.375c0,3.392,2.284,6.165,5.098,6.165h54.36c2.807,0,5.092-2.773,5.092-6.165V47.911
		H31.864z M49.076,59.598c0,0.715-0.477,1.294-1.074,1.294c-0.591,0-1.075-0.579-1.075-1.294c0-2.865,1.931-5.2,4.305-5.2
		s4.304,2.335,4.304,5.2c0,0.715-0.483,1.294-1.081,1.294c-0.591,0-1.074-0.579-1.074-1.294c0-1.433-0.962-2.6-2.149-2.6
		S49.076,58.165,49.076,59.598z M78.126,69.984c0,9.302-6.271,16.88-13.987,16.88c-7.71,0-13.988-7.578-13.988-16.88v-7.793
		c0-0.714,0.483-1.299,1.081-1.299c0.591,0,1.074,0.585,1.074,1.299v7.793c0,7.876,5.31,14.281,11.833,14.281
		c6.522,0,11.839-6.405,11.839-14.281v-7.793c0-0.714,0.484-1.299,1.068-1.299c0.598,0,1.08,0.585,1.08,1.299V69.984z
		 M80.276,60.892c-0.598,0-1.068-0.579-1.068-1.294c0-1.433-0.969-2.6-2.162-2.6c-1.181,0-2.149,1.167-2.149,2.6
		c0,0.715-0.483,1.294-1.068,1.294c-0.598,0-1.08-0.579-1.08-1.294c0-2.865,1.925-5.2,4.298-5.2c2.374,0,4.311,2.335,4.311,5.2
		C81.356,60.313,80.873,60.892,80.276,60.892z"/>
	<polygon fill="#D19D34" points="41.548,46.611 41.548,38.625 36.253,46.611 	"/>
	<polygon fill="#D19D34" points="86.735,46.611 92.023,46.611 86.735,38.625 	"/>
	<path fill="#D19D34" d="M43.478,34.171c0.034,0.065,0.079,0.124,0.104,0.194c0.008,0.02,0.027,0.035,0.035,0.063
		c0.019,0.059,0.017,0.123,0.029,0.184c0.022,0.08,0.038,0.156,0.042,0.244c0,0.021,0.01,0.041,0.01,0.069v11.687h40.889V34.924
		c0-0.029,0.01-0.048,0.011-0.069c0.005-0.087,0.021-0.164,0.036-0.244c0.011-0.061,0.01-0.124,0.029-0.184
		c0.006-0.027,0.032-0.042,0.039-0.063c0.026-0.069,0.063-0.129,0.099-0.194c0.043-0.056,0.062-0.12,0.097-0.168l6.769-8.172H36.613
		l6.768,8.172C43.423,34.052,43.441,34.116,43.478,34.171z"/>
	<polygon fill="#D19D34" points="94.779,46.611 95.346,46.611 95.346,25.831 94.715,25.831 87.104,35.017 	"/>
	<polygon fill="#D19D34" points="41.181,35.017 33.569,25.831 32.939,25.831 32.939,46.611 33.498,46.611 	"/>
</svg>