<?xml version="1.0" encoding="utf-8"?>
<svg version="1.1" id="Layer_1" xmlns="http://www.w3.org/2000/svg" xmlns:xlink="http://www.w3.org/1999/xlink" x="0px" y="0px"
	 width="128px" height="128px" viewBox="0 0 128 128" enable-background="new 0 0 128 128" xml:space="preserve">
<path fill="#662D91" d="M62.395,21.857c-21.515,0-38.957,17.441-38.957,38.957c0,21.515,17.442,38.957,38.957,38.957
	c21.514,0,38.955-17.441,38.955-38.957C101.35,39.298,83.908,21.857,62.395,21.857z M35,69.022c0,2.477-1.849,4.484-4,4.484
	c-2.152,0-4-2.008-4-4.484V52.372c0-2.476,1.848-4.483,4-4.483c2.151,0,4,2.007,4,4.483V69.022z M47,79.625
	c0,2.151-1.348,3.898-3.5,3.898c-2.151,0-3.5-1.747-3.5-3.898V41.743c0-2.153,1.349-3.9,3.5-3.9c2.152,0,3.5,1.747,3.5,3.9V79.625z
	 M60,86.336C60,88.359,58.465,90,56.571,90h-1.143C53.535,90,52,88.359,52,86.336V34.664C52,32.641,53.535,31,55.429,31h1.143
	C58.465,31,60,32.641,60,34.664V86.336z M72,86.336C72,88.359,70.486,90,68.618,90h-1.236C65.514,90,64,88.359,64,86.336V34.664
	C64,32.641,65.514,31,67.382,31h1.236C70.486,31,72,32.641,72,34.664V86.336z M84,79.625c0,2.151-1.847,3.898-4,3.898
	c-2.15,0-4-1.747-4-3.898V41.743c0-2.153,1.85-3.9,4-3.9c2.153,0,4,1.747,4,3.9V79.625z M92.5,73.507c-2.152,0-3.5-2.008-3.5-4.484
	V52.372c0-2.476,1.348-4.483,3.5-4.483c2.15,0,3.5,2.007,3.5,4.483v16.651C96,71.499,94.65,73.507,92.5,73.507z"/>
<path fill="#662D91" d="M64,0C28.655,0,0,28.654,0,64s28.655,64,64,64c35.345,0,64-28.654,64-64S99.345,0,64,0z M64,125.216
	C30.192,125.216,2.786,97.807,2.786,64C2.786,30.19,30.192,2.784,64,2.784c33.809,0,61.214,27.407,61.214,61.216
	C125.214,97.807,97.809,125.216,64,125.216z"/>
</svg>