<?xml version="1.0" encoding="utf-8"?>
<svg x="0px" y="0px" width="19px" height="19px" viewBox="0 0 19 19" enable-background="new 0 0 19 19" xml:space="preserve">
<path fill="#4C75A3" d="M9.5,5.063c-3.091,0-5.751,1.73-6.923,4.206c1.171,2.476,3.832,4.207,6.923,4.207
	c3.094,0,5.749-1.731,6.923-4.207C15.249,6.792,12.594,5.063,9.5,5.063z M9.5,12.072c-1.699,0-3.077-1.256-3.077-2.804
	c0-1.549,1.377-2.805,3.077-2.805c1.698,0,3.077,1.255,3.077,2.805C12.577,10.816,11.198,12.072,9.5,12.072z"/>
<circle fill="#00AFF0" cx="9.5" cy="9.269" r="1.752"/>
<path fill="#B92B27" d="M9.5,0.5c-4.972,0-9,4.028-9,9s4.028,9,9,9c4.973,0,9-4.028,9-9S14.473,0.5,9.5,0.5z M2.115,9.5
	c0-2.348,1.1-4.437,2.809-5.789l8.342,12.133c-1.104,0.657-2.39,1.041-3.767,1.041C5.421,16.885,2.115,13.578,2.115,9.5z
	 M14.557,14.871L6.296,2.854C7.266,2.386,8.35,2.115,9.5,2.115c4.079,0,7.385,3.307,7.385,7.385
	C16.885,11.619,15.986,13.524,14.557,14.871z"/>
</svg>