<?xml version="1.0" encoding="utf-8"?>
<!-- Generator: Adobe Illustrator 15.1.0, SVG Export Plug-In . SVG Version: 6.00 Build 0)  -->
<!DOCTYPE svg PUBLIC "-//W3C//DTD SVG 1.1//EN" "http://www.w3.org/Graphics/SVG/1.1/DTD/svg11.dtd">
<svg version="1.1" id="Layer_1" xmlns="http://www.w3.org/2000/svg" xmlns:xlink="http://www.w3.org/1999/xlink" x="0px" y="0px"
	 width="18px" height="18px" viewBox="0 0 18 18" enable-background="new 0 0 18 18" xml:space="preserve">
<path fill="#00A085" d="M17.25,7.5h-6.375C10.65,7.5,10.5,7.35,10.5,7.125V0.75C10.5,0.3,10.2,0,9.75,0h-1.5C7.8,0,7.5,0.3,7.5,0.75
	v6.375C7.5,7.35,7.35,7.5,7.125,7.5H0.75C0.3,7.5,0,7.8,0,8.25v1.5c0,0.45,0.3,0.75,0.75,0.75h6.375c0.225,0,0.375,0.15,0.375,0.375
	v6.375C7.5,17.7,7.8,18,8.25,18h1.5c0.45,0,0.75-0.3,0.75-0.75v-6.375c0-0.225,0.15-0.375,0.375-0.375h6.375
	c0.45,0,0.75-0.3,0.75-0.75v-1.5C18,7.8,17.7,7.5,17.25,7.5z"/>
</svg>
