<?xml version="1.0" encoding="utf-8"?>
<svg version="1.1" id="Layer_1" xmlns="http://www.w3.org/2000/svg" xmlns:xlink="http://www.w3.org/1999/xlink" x="0px" y="0px"
	 width="18px" height="18px" viewBox="0 0 18 18" enable-background="new 0 0 18 18" xml:space="preserve">
<path fill="#F15A24" d="M9,0.25C4.167,0.25,0.25,4.167,0.25,9S4.167,17.75,9,17.75c4.832,0,8.75-3.918,8.75-8.75S13.832,0.25,9,0.25
	z M9,16.902c-4.365,0-7.904-3.537-7.904-7.903c0-4.365,3.539-7.903,7.904-7.903S16.903,4.635,16.903,9
	C16.903,13.365,13.365,16.902,9,16.902z"/>
<path fill="#F15A24" d="M13.623,7.749H10.25V4.377c0-0.566-0.56-1.023-1.25-1.023S7.75,3.811,7.75,4.377v3.371H4.377
	c-0.564,0-1.023,0.561-1.023,1.25c0,0.691,0.459,1.251,1.023,1.251H7.75v3.371c0,0.564,0.56,1.023,1.25,1.023s1.25-0.459,1.25-1.023
	V10.25h3.373c0.564,0,1.023-0.56,1.023-1.251C14.646,8.309,14.188,7.749,13.623,7.749z"/>
</svg>