<?xml version="1.0" encoding="utf-8"?>
<svg version="1.1" id="Layer_1" xmlns="http://www.w3.org/2000/svg" xmlns:xlink="http://www.w3.org/1999/xlink" x="0px" y="0px"
	 width="23px" height="30px" viewBox="0 0 23 30" enable-background="new 0 0 23 30" xml:space="preserve">
	<path fill="#1A77FF" d="M2.62,16.15h17.526c0,0-0.527-3.424-3.414-3.925c-0.056-0.012-1.71-0.053-2.062-0.169
		c0.065,1.26-5.444,2.137-6.559,0.004c-0.034-0.062-1.666,0.081-2.232,0.197C3.219,12.804,2.62,16.15,2.62,16.15z"/>
	<path fill="#1A77FF" d="M15.571,4.662c0.624-6.384-8.978-6.047-8.408,0C6.312,4.84,6.953,7.113,7.552,7.333
		c0.212,2.22,4.924,7.734,7.614-0.062C15.957,6.924,16.146,4.852,15.571,4.662z M14.517,6.924c-1.503,4.936-5.124,4.379-6.356,0
		C7.685,7.431,7.143,4.823,7.949,5.192c0.504-2.405,1.863-1.505,3.462-1.301c0.548-0.12,1.472-0.622,2.598,0.193
		c-0.561-1.202,0.789,0.353,0.716,1.167C15.415,4.949,15.156,7.13,14.517,6.924z"/>
	<path fill="#1A77FF" d="M20.897,29.488c0,0.289-0.17,0.512-0.374,0.512H2.286c-0.206,0-0.376-0.223-0.376-0.512l0,0
		c0-0.279,0.17-0.504,0.376-0.504h18.238C20.728,28.984,20.897,29.209,20.897,29.488L20.897,29.488z"/>
	<path fill="#1A77FF" d="M21.586,17.154c-1.468-0.076-20.562,0.008-20.562,0.008s-1.11,0.273-0.899,1.047
		c0.212,0.77,2.028,8.406,2.146,8.906c0.087,0.365,0.363,0.84,0.994,0.84h16.261c0,0,0.769,0.021,0.994-0.865
		c0.344-1.381,2.14-8.678,2.14-8.678S23.063,17.225,21.586,17.154z M11.403,22.955c-0.349,0-0.63-0.252-0.63-0.557
		c0-0.301,0.281-0.549,0.63-0.549c0.35,0,0.632,0.248,0.632,0.549C12.035,22.703,11.753,22.955,11.403,22.955z"/>
</svg>