<?xml version="1.0" encoding="utf-8"?>
<!DOCTYPE svg PUBLIC "-//W3C//DTD SVG 1.1//EN" "http://www.w3.org/Graphics/SVG/1.1/DTD/svg11.dtd">
<svg id="Layer_1" x="0px" y="0px" width="18px" height="18px" viewBox="0 0 18 18" enable-background="new 0 0 18 18" xml:space="preserve">
<g>
	<g id="Clip">
		<g>
			<path fill="#ffffff" d="M16.419,2.383l-0.081-0.082c-1.813-1.755-4.716-1.736-6.506,0.054l-8.286,8.289
				C0.921,11.27,0.25,12.406,0.25,13.423c0,0.953,0.372,1.853,1.047,2.527C1.973,16.626,2.872,17,3.829,17h0
				c0.957,0,1.855-0.374,2.531-1.05l7.153-7.154c0.49-0.492,0.76-1.173,0.736-1.87c-0.022-0.64-0.284-1.24-0.736-1.692
				c-0.477-0.475-1.108-0.737-1.781-0.737s-1.305,0.261-1.78,0.737l-5.478,5.48C4.336,10.85,4.25,11.041,4.25,11.248
				c0,0.416,0.335,0.75,0.75,0.75c0.207,0,0.394-0.083,0.529-0.22h0l5.484-5.484c0.196-0.196,0.467-0.291,0.735-0.287
				c0.259,0.003,0.517,0.1,0.704,0.289c0.183,0.182,0.288,0.426,0.298,0.682c0.01,0.285-0.096,0.555-0.298,0.757L5.3,14.889
				C4.907,15.283,4.385,15.5,3.829,15.5h0c-0.555,0-1.078-0.217-1.471-0.611c-0.392-0.392-0.608-0.912-0.608-1.466
				c0-0.466,0.393-1.252,0.857-1.717l8.285-8.29c1.215-1.215,3.186-1.224,4.41-0.03l0.08,0.08c1.174,1.228,1.158,3.183-0.05,4.391
				l-6.858,6.859c-0.137,0.137-0.223,0.324-0.223,0.533c0,0.414,0.335,0.75,0.75,0.75c0.207,0,0.393-0.085,0.529-0.218h0
				l6.862-6.864C18.193,7.117,18.201,4.194,16.419,2.383z"/>
		</g>
	</g>
</g>
</svg>
