<?xml version="1.0" encoding="utf-8"?>
<svg version="1.1" id="Layer_1" xmlns="http://www.w3.org/2000/svg" xmlns:xlink="http://www.w3.org/1999/xlink" x="0px" y="0px"
	 width="50px" height="50px" viewBox="0 0 50 50" enable-background="new 0 0 50 50" xml:space="preserve">
<circle fill="#00897B" cx="25" cy="25" r="24.75"/>
<g>
	<path fill="#FFFFFF" d="M30.652,35.478c-0.374,0.138-0.693,0.393-1.057,0.529c-0.456,0.168-0.922,0.333-1.394,0.396
		c-0.559,0.058-0.981-0.244-1.117-0.802c-0.106-0.409-0.169-0.864-0.123-1.289c0.091-0.878,0.273-1.771,0.438-2.646
		c0.487-2.679,0.984-5.34,1.456-8.003c0.134-0.727,0.257-1.453,0.238-2.18c-0.027-0.877-0.542-1.285-1.42-1.285
		c-1.224,0-2.435,0-3.646,0c-1.148,0-2.286,0-3.435,0c-0.288,0-0.575,0-0.848,0.06c-0.529,0.107-0.785,0.364-0.83,0.772
		c-0.046,0.394,0.165,0.772,0.648,0.938c0.38,0.137,0.818,0.167,1.228,0.226c0.967,0.137,1.268,0.469,1.268,1.453
		c0,0.151,0,0.303-0.028,0.453c-0.41,2.332-0.833,4.677-1.226,7.006c-0.227,1.345-0.44,2.692-0.623,4.04
		c-0.27,1.981,1.621,3.828,3.117,4.038c0.893,0.136,1.816,0.167,2.725,0.153c1.953-0.031,3.571-0.847,4.933-2.224
		c0.228-0.244,0.438-0.574,0.515-0.893C31.607,35.657,31.154,35.282,30.652,35.478z"/>
	<path fill="#FFFFFF" d="M29.852,14.81c0.016-2.087-1.633-3.766-3.691-3.782c-2.07-0.016-3.751,1.649-3.765,3.722
		c-0.017,2.073,1.66,3.782,3.751,3.798C28.157,18.563,29.837,16.883,29.852,14.81z"/>
</g>
</svg>
