<?xml version="1.0" encoding="utf-8"?>
<svg x="0px" y="0px" width="18px" height="18px" viewBox="0 0 18 18" enable-background="new 0 0 18 18" xml:space="preserve">
<path fill="#000000" d="M11.226,16.458c-0.457,0.742-1.244,1.229-2.155,1.229c-0.9,0-1.698-0.487-2.154-1.229H11.226z"/>
<path stroke="#000000" stroke-miterlimit="10" d="M14.022,12.891v1.85H3.993v-1.836c-0.391,0.897-1.184,1.645-2.243,2.093v0.071
	h14.5v-0.014C15.182,14.588,14.392,13.817,14.022,12.891z"/>
<path fill="none" stroke="#000000" stroke-width="1.5" stroke-miterlimit="10" d="M14.014,14.547V7.608
	c0-2.476-2.248-4.478-5.018-4.478c-2.769,0-5.01,2.002-5.01,4.478v6.939H14.014z"/>
<path fill="#000000" stroke="#000000" stroke-width="0.5" stroke-miterlimit="10" d="M7.515,2.454l2.968,0.01C10.414,1.366,9.792,0.5,9.002,0.5
	C8.223,0.492,7.588,1.357,7.515,2.454z"/>
</svg>
