<?xml version="1.0" encoding="utf-8"?>
<svg version="1.1" id="Layer_1" xmlns="http://www.w3.org/2000/svg" xmlns:xlink="http://www.w3.org/1999/xlink" x="0px" y="0px"
	 width="80px" height="80px" viewBox="0 0 80 80" enable-background="new 0 0 80 80" xml:space="preserve">
<circle fill="#ACCE61" cx="40" cy="40" r="39.5"/>
	<polygon fill="#E3744E" points="39.722,34.969 37.586,30.676 35.447,34.969 32.736,33.611 37.586,23.879 42.438,33.611 	"/>
	<polygon fill="#E05323" points="39.722,34.969 37.586,30.676 37.586,23.879 42.438,33.611 	"/>
	<rect x="36.072" y="38.341" fill="#AB7315" width="3.028" height="15.664"/>
	<g>
		<rect x="17.511" y="45.955" fill="#744E12" width="9.238" height="3.024"/>
		<rect x="15.996" y="43.467" fill="#744E12" width="3.029" height="12.013"/>
		<rect x="25.237" y="43.467" fill="#744E12" width="3.024" height="12.013"/>
	</g>
	<polygon fill="#AB7315" points="29.847,44.883 14.387,44.883 14.387,27.554 17.411,27.554 17.411,41.859 29.847,41.859 	"/>
	<g>
		<rect x="48.425" y="45.955" fill="#744E12" width="9.235" height="3.024"/>
		<rect x="56.147" y="43.467" fill="#744E12" width="3.024" height="12.013"/>
		<rect x="46.912" y="43.467" fill="#744E12" width="3.024" height="12.013"/>
	</g>
	<polygon fill="#AB7315" points="45.326,44.883 60.787,44.883 60.787,27.554 57.763,27.554 57.763,41.859 45.326,41.859 	"/>
	<path fill="#744E12" d="M50.708,39.845H24.465V34.29h26.243V39.845L50.708,39.845z"/>
	<rect x="22.027" y="32.786" fill="#AB7315" width="31.119" height="3.024"/>
	<rect x="32.294" y="52.448" fill="#744E12" width="10.584" height="3.031"/>
</svg>