<?xml version="1.0" encoding="utf-8"?>
<svg version="1.1" id="Layer_1" xmlns="http://www.w3.org/2000/svg" xmlns:xlink="http://www.w3.org/1999/xlink" x="0px" y="0px"
	 width="25px" height="25px" viewBox="0 0 25 25" enable-background="new 0 0 25 25" xml:space="preserve">
	<polygon fill="#E3744E" points="13.65,9.908 12.497,7.594 11.345,9.908 9.883,9.175 12.497,3.933 15.113,9.175 	"/>
	<polygon fill="#E05323" points="13.65,9.908 12.497,7.594 12.497,3.933 15.113,9.175 	"/>
	<rect x="11.685" y="9.908" fill="#AB7315" width="1.63" height="11.751"/>
		<rect x="1.682" y="17.317" fill="#744E12" width="4.977" height="1.631"/>
		<rect x="0.866" y="15.093" fill="#744E12" width="1.629" height="7.867"/>
		<rect x="5.844" y="15.093" fill="#744E12" width="1.631" height="7.867"/>
		<rect x="18.343" y="17.317" fill="#744E12" width="4.973" height="1.631"/>
		<rect x="22.498" y="15.208" fill="#744E12" width="1.635" height="7.744"/>
		<rect x="17.521" y="15.208" fill="#744E12" width="1.631" height="7.744"/>
	<path fill="#744E12" d="M19.568,11.403H5.429V8.412h14.139V11.403L19.568,11.403z"/>
	<rect x="4.119" y="7.603" fill="#AB7315" width="16.768" height="1.626"/>
	<rect x="9.649" y="20.821" fill="#744E12" width="5.697" height="1.631"/>
<polygon fill="#AB7315" points="1.63,14.116 1.63,6.759 1.63,6.407 1.63,2.04 0,2.04 0,6.407 0,6.759 0,15.745 8.331,15.745 
	8.331,14.116 "/>
<polygon fill="#AB7315" points="23.371,2.04 23.371,6.759 23.375,6.759 23.375,14.116 16.667,14.116 16.667,15.745 25,15.745 
	25,6.759 25,6.407 25,2.04 "/>
</svg>