<?xml version="1.0" encoding="utf-8"?>
<svg version="1.1" id="Layer_1" xmlns="http://www.w3.org/2000/svg" xmlns:xlink="http://www.w3.org/1999/xlink" x="0px" y="0px"
	 width="22px" height="25px" viewBox="0 0 22 25" enable-background="new 0 0 22 25" xml:space="preserve">
<path fill="#555655" d="M8,11.5H6v2h2V11.5z M12,11.5h-2v2h2V11.5z M16,11.5h-2v2h2V11.5z M18,4.5h-1v-2h-2v2H7v-2H5v2H4
	c-1.109,0-1.99,0.9-1.99,2L2,20.5c0,1.1,0.891,2,2,2h14c1.1,0,2-0.9,2-2v-14C20,5.4,19.1,4.5,18,4.5z M18,20.5H4v-11h14V20.5z"/>
</svg>