<?xml version="1.0" encoding="utf-8"?>
<!-- Generator: Adobe Illustrator 15.1.0, SVG Export Plug-In . SVG Version: 6.00 Build 0)  -->
<!DOCTYPE svg PUBLIC "-//W3C//DTD SVG 1.1//EN" "http://www.w3.org/Graphics/SVG/1.1/DTD/svg11.dtd">
<svg version="1.1" id="Layer_1" xmlns="http://www.w3.org/2000/svg" xmlns:xlink="http://www.w3.org/1999/xlink" x="0px" y="0px"
	 width="55px" height="55px" viewBox="0 0 55 55" enable-background="new 0 0 55 55" xml:space="preserve">
<circle fill="#EA5D59" cx="27.5" cy="27.334" r="25.5"/>
<g>
	<g id="call">
		<path fill="#FFFFFF" d="M32.127,24.849c-3.123-1.014-6.608-0.915-9.79,0.073l0.023,3.262c0.002,0.446-0.218,0.822-0.589,0.896
			c-1.107,0.532-2.143,1.277-3.1,2.251c-0.442,0.446-1.038,0.454-1.486,0.012l-2.539-2.505c-0.448-0.438-0.454-1.037-0.009-1.484
			c6.921-7.025,18.197-7.11,25.226-0.188c0.448,0.441,0.454,1.04,0.012,1.488l-2.579,2.613c-0.439,0.448-1.036,0.452-1.483,0.013
			c-0.896-0.883-1.939-1.624-3.131-2.205c-0.299-0.148-0.524-0.514-0.601-0.887L32.127,24.849z"/>
	</g>
</g>
</svg>
