<?xml version="1.0" encoding="utf-8"?>
<svg version="1.1" id="Layer_1" xmlns="http://www.w3.org/2000/svg" xmlns:xlink="http://www.w3.org/1999/xlink" x="0px" y="0px"
	 width="40px" height="40px" viewBox="0 0 40 40" enable-background="new 0 0 40 40" xml:space="preserve">
<circle fill="#53BC31" cx="20" cy="19.879" r="18.545"/>
<g id="call">
	<path fill="#FFFFFF" d="M16.47,17.67c0.845,2.234,2.486,4.167,4.493,5.523l1.841-1.494c0.253-0.205,0.566-0.252,0.776-0.073
		c0.806,0.385,1.7,0.634,2.687,0.735c0.455,0.048,0.73,0.383,0.684,0.839l-0.269,2.579c-0.043,0.453-0.381,0.729-0.838,0.68
		c-7.134-0.734-12.309-7.096-11.576-14.233c0.047-0.455,0.384-0.73,0.839-0.684l2.656,0.275c0.454,0.046,0.728,0.383,0.682,0.837
		c-0.093,0.91-0.04,1.838,0.172,2.779c0.051,0.239-0.054,0.532-0.231,0.745L16.47,17.67z"/>
</g>
</svg>