<?xml version="1.0" encoding="utf-8"?>
<svg id="camerasvg" version="1.1" xmlns="http://www.w3.org/2000/svg" xmlns:xlink="http://www.w3.org/1999/xlink" x="0px" y="0px"
	 width="24px" height="24px" viewBox="0 0 24 24" enable-background="new 0 0 24 24" xml:space="preserve">
<path d="M9.281,2.563l-1.83,2h-3.17c-1.1,0-2,0.9-2,2v12c0,1.1,0.9,2,2,2h16c1.1,0,2-0.9,2-2v-12c0-1.1-0.9-2-2-2h-3.17l-1.83-2
	H9.281z M12.281,17.563c-2.76,0-5-2.24-5-5s2.24-5,5-5s5,2.24,5,5S15.041,17.563,12.281,17.563z"/>
<path fill="none" d="M0,0h24v24H0V0z"/>
<path d="M12.281,16.547l1.25-2.75l2.75-1.25l-2.75-1.25l-1.25-2.75l-1.25,2.75l-2.75,1.25l2.75,1.25L12.281,16.547z"/>
</svg>