<?xml version="1.0" encoding="utf-8"?>
<svg x="0px" y="0px" width="18px" height="18px" viewBox="0 0 18 18" enable-background="new 0 0 18 18" xml:space="preserve">
<g>
	<path style="opacity:0.5" fill="#000000"; d="M0.513,15.49l1.866,1.903c0.69,0.703,1.813,0.703,2.514,0.018l4.075-4.03l4.024,4.089
		c0.695,0.697,1.813,0.709,2.505,0.018l1.898-1.874c0.703-0.686,0.703-1.811,0.018-2.504l-4.024-4.081l4.083-4.019
		c0.697-0.691,0.708-1.813,0.016-2.511L15.619,0.6c-0.686-0.694-1.81-0.703-2.509-0.018L9.029,4.607L5.009,0.53
		C4.321-0.171,3.198-0.178,2.501,0.511L0.605,2.375c-0.698,0.69-0.707,1.811-0.02,2.513l4.025,4.078l-4.08,4.027
		C-0.169,13.68-0.178,14.805,0.513,15.49z"/>
</g>
</svg>
