<?xml version="1.0" encoding="utf-8"?>
<!-- Generator: Adobe Illustrator 15.1.0, SVG Export Plug-In . SVG Version: 6.00 Build 0)  -->
<!DOCTYPE svg PUBLIC "-//W3C//DTD SVG 1.1//EN" "http://www.w3.org/Graphics/SVG/1.1/DTD/svg11.dtd">
<svg version="1.1" id="Layer_1" xmlns="http://www.w3.org/2000/svg" xmlns:xlink="http://www.w3.org/1999/xlink" x="0px" y="0px"
	 width="23px" height="18px" viewBox="0 0 23 18" enable-background="new 0 0 23 18" xml:space="preserve">
<circle fill="#30AA61" cx="-33" cy="-0.583" r="1.5"/>
<path fill="#FFFFFF" d="M16.37,2.446c1.458,6.424-0.162,11.446-5.314,11.532c-0.101,0.002-0.728,0.039-1.539,0.129
	c-0.016,0.15,0.582,0.298,1.037,0.44c1.209,0.398,1.401,0.482,3.013,0.531h1.879c0.609,0.055,0.429-0.04,0.866,0.14l0.203,0.141
	c3.281,2.969,2.751,3.929,3.393-1.192c2.369-0.564,2.573-3.709,2.665-5.663C22.788,4.063,21.452,2.446,16.37,2.446z M18.918,9.936
	c-0.829,0-1.5-0.672-1.5-1.5s0.671-1.5,1.5-1.5c0.828,0,1.5,0.672,1.5,1.5S19.746,9.936,18.918,9.936z"/>
<path fill="#FFFFFF" d="M9.619,0.211H7.183C2.104,0.208,0.4,2.354,0.612,6.786c0.093,1.955,0,4.135,2.666,5.667
	c0.644,5.123,0.24,3.846,3.233,1.15c0.43-0.1,0.84-0.242,1.227-0.242h1.881c5.295,0.383,6.422-2.947,6.573-6.575
	C16.37,2.354,15.12,0.105,9.619,0.211z M3.906,8.083c-0.829,0-1.5-0.672-1.5-1.5s0.671-1.5,1.5-1.5c0.828,0,1.5,0.672,1.5,1.5
	S4.734,8.083,3.906,8.083z M8.402,8.083c-0.829,0-1.5-0.672-1.5-1.5s0.671-1.5,1.5-1.5c0.828,0,1.5,0.672,1.5,1.5
	S9.23,8.083,8.402,8.083z M13,8.083c-0.828,0-1.5-0.672-1.5-1.5s0.672-1.5,1.5-1.5s1.5,0.672,1.5,1.5S13.828,8.083,13,8.083z"/>
</svg>
