<svg>
<defs>
	<g id="minimize"><path fill="#B3B3B3" d="M17.75,8.271c0-0.438-0.292-0.729-0.729-0.729H0.979c-0.438,0-0.729,0.292-0.729,0.729v1.458
	c0,0.437,0.292,0.73,0.729,0.73h16.042c0.438,0,0.729-0.293,0.729-0.73V8.271z"/></g>
	<g id="add"><path fill="#B3B3B3" d="M17.02,7.541h-6.195c-0.22,0-0.367-0.146-0.367-0.363V0.979c0-0.437-0.292-0.729-0.729-0.729H8.271
		c-0.439,0-0.73,0.292-0.73,0.729v6.199c0,0.218-0.146,0.363-0.363,0.363H0.978c-0.437,0-0.729,0.294-0.729,0.73v1.457
		c0,0.437,0.292,0.73,0.729,0.73h6.199c0.217,0,0.363,0.146,0.363,0.363v6.197c0,0.438,0.292,0.73,0.73,0.73h1.457
		c0.437,0,0.729-0.292,0.729-0.73v-6.197c0-0.218,0.147-0.363,0.367-0.363h6.195c0.438,0,0.73-0.294,0.73-0.73V8.271
		C17.75,7.835,17.457,7.541,17.02,7.541z"/></g>
	<g id="menu">
		<path fill="#B3B3B3" d="M8.834,13.021c-1.304,0-2.365,1.061-2.365,2.364c0,1.305,1.061,2.365,2.365,2.365
			c1.304,0,2.365-1.061,2.365-2.365C11.199,14.081,10.138,13.021,8.834,13.021z"/>
		<path fill="#B3B3B3" d="M8.834,6.596c-1.304,0-2.365,1.061-2.365,2.364c0,1.304,1.061,2.365,2.365,2.365
			c1.303,0,2.365-1.061,2.365-2.365C11.199,7.657,10.138,6.596,8.834,6.596z"/>
		<path fill="#B3B3B3" d="M8.834,0.25c-1.304,0-2.365,1.061-2.365,2.365c0,1.304,1.061,2.364,2.365,2.364
			c1.304,0,2.365-1.061,2.365-2.364C11.199,1.311,10.138,0.25,8.834,0.25z"/>
	</g>
	<g id="search">
		<path fill="#B3B3B3" d="M11.93,2.252c-2.665-2.668-7.009-2.668-9.678,0c-2.669,2.671-2.669,7.015,0,9.681
		c2.378,2.375,6.076,2.632,8.746,0.779c0.061,0.263,0.18,0.52,0.389,0.725l3.891,3.888c0.564,0.568,1.483,0.568,2.048,0
		c0.566-0.568,0.566-1.48,0-2.043l-3.893-3.896c-0.205-0.205-0.46-0.325-0.72-0.388C14.563,8.328,14.311,4.632,11.93,2.252z
		 M10.706,10.705c-1.993,1.996-5.235,1.996-7.229,0c-1.991-1.986-1.991-5.232,0-7.227c1.994-1.99,5.236-1.99,7.229,0
		C12.699,5.473,12.699,8.719,10.706,10.705z"/>
	</g>

	<g id="addFriend">
		<path fill="#B3B3B3" d="M6.804,7.361c-1.996,0-3.618-1.625-3.618-3.62c0-1.999,1.621-3.623,3.618-3.623
	c1.996,0,3.62,1.624,3.62,3.623C10.426,5.738,8.8,7.361,6.804,7.361z M6.804,0.989c-1.515,0-2.748,1.234-2.748,2.753
	c0,1.515,1.232,2.748,2.748,2.748c1.522,0,2.751-1.232,2.751-2.748C9.557,2.223,8.326,0.989,6.804,0.989z"/>
<path fill="#B3B3B3" d="M6.804,9.645c3.759,0,6.81,3.051,6.81,6.801c0,0.246-0.197,0.436-0.439,0.436
	c-0.239,0-0.432-0.189-0.432-0.436c0-3.273-2.662-5.934-5.939-5.934c-3.27,0-5.935,2.66-5.935,5.934
	c0,0.246-0.197,0.436-0.434,0.436C0.197,16.881,0,16.691,0,16.445C0,12.695,3.055,9.645,6.804,9.645z"/>
<path fill="#B3B3B3" d="M24.511,6.413h-4.158c-0.146,0-0.245-0.095-0.245-0.242V2.013c0-0.292-0.193-0.489-0.493-0.489h-0.973
	c-0.3,0-0.495,0.195-0.495,0.489v4.16c0,0.145-0.094,0.242-0.242,0.242h-4.159c-0.292,0-0.489,0.196-0.489,0.491v0.975
	c0,0.298,0.197,0.492,0.489,0.492h4.159c0.148,0,0.242,0.095,0.242,0.242v4.161c0,0.293,0.195,0.49,0.495,0.49h0.973
	c0.299,0,0.493-0.197,0.493-0.49V8.613c0-0.147,0.097-0.242,0.244-0.242h4.159C24.803,8.371,25,8.175,25,7.879V6.904
	C25.002,6.61,24.803,6.413,24.511,6.413z"/>
	</g>
	

	<g id="addFriendlist">
	<path fill="#B3B3B3" stroke="#000000" stroke-width="1.3" stroke-miterlimit="10" d="M7.563,7.029
		c-1.729,0-3.135-1.407-3.135-3.136c0-1.731,1.405-3.138,3.135-3.138c1.729,0,3.136,1.407,3.136,3.138
		C10.7,5.623,9.292,7.029,7.563,7.029z M7.563,1.509c-1.313,0-2.381,1.069-2.381,2.384c0,1.313,1.067,2.381,2.381,2.381
		c1.319,0,2.384-1.068,2.384-2.381C9.948,2.578,8.882,1.509,7.563,1.509z"/>
	<path fill="#B3B3B3" stroke="#000000" stroke-width="1.3" stroke-miterlimit="10" d="M7.563,9.007c3.256,0,5.899,2.644,5.899,5.894
		c0,0.213-0.171,0.377-0.381,0.377c-0.208,0-0.374-0.164-0.374-0.377c0-2.836-2.304-5.142-5.145-5.142
		c-2.833,0-5.141,2.306-5.141,5.142c0,0.213-0.171,0.377-0.376,0.377c-0.207,0-0.378-0.164-0.378-0.377
		C1.668,11.65,4.314,9.007,7.563,9.007z"/>
	<path stroke="#000000" stroke-width="0.75" stroke-miterlimit="10" d="M22.902,6.208H19.3c-0.128,0-0.213-0.083-0.213-0.21V2.396
		c0-0.254-0.167-0.425-0.427-0.425h-0.842c-0.26,0-0.43,0.17-0.43,0.425v3.603c0,0.126-0.08,0.21-0.209,0.21h-3.604
		c-0.253,0-0.424,0.17-0.424,0.425v0.845c0,0.257,0.171,0.426,0.424,0.426h3.604c0.129,0,0.209,0.082,0.209,0.208v3.606
		c0,0.252,0.17,0.424,0.43,0.424h0.842c0.259,0,0.427-0.172,0.427-0.424V8.113c0-0.126,0.083-0.208,0.211-0.208h3.604
		c0.252,0,0.423-0.17,0.423-0.426V6.633C23.327,6.379,23.154,6.208,22.902,6.208z"/>
</g>

	<g id="groupChat">
		<path fill="#B3B3B3" d="M13.09,10.121c-0.729-0.75-0.962-1.308-0.708-1.729c0.234-0.389,0.335-0.502,1.063-1.167
	c0.708-1.5,0.038-1.617,0.063-1.719c0.521-2.198-1.23-3.885-2.979-3.885c-1.749,0-3.479,1.542-2.958,3.771
	c0.038,0.162-0.708,0.333,0.045,1.8c0.051-0.006,2.101,1.763,0.268,2.866c-4.75,0.896-3.205,4.803-3.167,4.855
	c0.417,0.563,3.417,0.813,5.646,0.832c2.037,0.016,6.094-0.148,6.167-0.854C16.944,10.893,15.194,10.621,13.09,10.121z"/>
<path fill="#B3B3B3" d="M5.756,5.19c-0.167-3.146,1.438-3.375,1.438-4C6.756,0.378,5.458,0.253,5.236,0.253
	c-2.438,0-2.75,1.833-2.435,3.101c0.022,0.089-0.69-0.039-0.065,1.295C2.955,4.791,3.902,5.44,3.654,6.19
	C2.902,7.461,1.986,6.44,0.84,7.919c-0.75,1.231-0.423,1.956-0.5,2.188c-0.229,1.293,2.932,1.184,3.021,1.188
	c1.5-2.896,3.479-1.375,3.563-3.063C5.319,6.732,5.319,5.878,5.756,5.19z"/>
<path fill="#B3B3B3" d="M15.286,5.19c0.166-3.146-1.438-3.375-1.438-4c0.438-0.813,1.736-0.938,1.957-0.938
	c2.438,0,2.75,1.833,2.436,3.101c-0.023,0.089,0.689-0.039,0.064,1.295C18.087,4.791,17.14,5.44,17.388,6.19
	c0.752,1.271,1.668,0.25,2.814,1.729c0.75,1.229,0.423,1.954,0.5,2.186c0.229,1.293-2.932,1.184-3.021,1.188
	c-1.501-2.894-3.479-1.375-3.563-3.061C15.724,6.732,15.724,5.878,15.286,5.19z"/>
	</g>

	<g id="bell">
		<path fill="#B3B3B3" d="M5.858,17.662C6.25,18.449,7.093,19,8.082,19c0.983,0,1.831-0.551,2.224-1.338H5.858z"/>
<path fill="#B3B3B3" d="M13.94,14.199v-6.44c0,0,0.041-3.733-4.137-5.149C9.817,2.084,9.529,0.002,7.999,0
	C6.75-0.001,6.139,1.75,6.223,2.637c-1.75,0.374-3.901,2.234-4.147,4.872c0,0,0,2.36,0.01,3.526c0.014,1.219,0,3.123,0,3.123
	c-0.79,1.207-2.081,1.582-2.081,1.582v0.957h15.991v-0.901C15.993,15.797,14.731,15.408,13.94,14.199z M12.345,14.795H3.653V7.773
	c0,0,0.277-3.825,4.346-3.832c4.219-0.003,4.346,3.901,4.346,3.901V14.795z"/> 
	</g>
	<g id="notification1">
		<path fill="#C4C4C4" d="M0,0v14h14V0H0z M7,12.445c-3.007,0-5.444-2.438-5.444-5.445c0-3.007,2.438-5.444,5.444-5.444
		c3.006,0,5.445,2.438,5.445,5.444C12.445,10.008,10.006,12.445,7,12.445z"/>
	</g>
	<g id="circleactive1">
		<circle fill="#C4C4C4" cx="7" cy="7" r="5"/>
	</g>
	<g id="downarrow">
		<polygon fill="#C4C4C4" points="0,2.119 7,8.768 14,2.119 12.014,0.233 7,4.996 1.986,0.233 	"/>
	</g>


<g id="earphone">
	<path fill="#E82E2E" d="M15.93,10.485h-0.006V6.722H15.91C15.612,3.244,12.47,0.5,8.651,0.5H7.347c-3.826,0-6.96,2.744-7.258,6.222
	H0.085v3.764H0.07c-0.001,0.067-0.002,0.126-0.002,0.193v2.339v0.984v1.934c0,1.417,1.146,2.563,2.555,2.563h1.373
	c0.489,0,0.89-0.4,0.89-0.891v-6.265c0-0.418-0.292-0.767-0.679-0.858H2.271c-0.14,0.02-0.27,0.051-0.406,0.089V6.722l0,0
	C2.15,4.152,4.499,2.136,7.347,2.136h1.307c2.847,0,5.197,2.008,5.48,4.586l0,0v3.853c-0.136-0.037-0.267-0.069-0.406-0.089h-1.935
	c-0.387,0.092-0.678,0.44-0.678,0.858v6.265c0,0.491,0.398,0.892,0.889,0.892h1.372c1.41,0,2.556-1.146,2.556-2.563v-1.935v-0.984
	v-2.339C15.932,10.611,15.931,10.553,15.93,10.485z"/>
    <path fill="#EF6565" d="M13.376,10.378h-1.372c-0.49,0-0.889,0.4-0.889,0.884v2.971v0.413v2.963c0,0.491,0.398,0.892,0.889,0.892
	h1.372c1.41,0,2.556-1.146,2.556-2.563v-1.291v-0.413v-1.291C15.932,11.524,14.786,10.378,13.376,10.378z"/>
    <path fill="#EF6565" d="M2.625,10.378h1.372c0.49,0,0.889,0.4,0.889,0.884v2.971v0.413v2.963c0,0.491-0.398,0.892-0.889,0.892H2.625
	c-1.411,0-2.557-1.146-2.557-2.563v-1.291v-0.413v-1.291C0.068,11.524,1.214,10.378,2.625,10.378z"/>
</g>

<g id="webcam">
	<path fill="#5843D1" d="M21.19,2.065h-0.967l-0.186-0.743C19.967,1,19.691,0.25,19.361,0.25h-4.636c-0.332,0-0.746,0.157-0.818,0.48
	l-0.274,1.363L0.807,2.065c-0.392,0-0.71,0.32-0.71,0.711v14.261c0,0.394,0.318,0.713,0.71,0.713h20.388
	c0.392,0,0.709-0.319,0.709-0.713V2.776C21.903,2.384,21.584,2.065,21.19,2.065z M9.908,14.361c-2.509,0-4.542-2.034-4.542-4.542
	c0-2.51,2.033-4.545,4.542-4.545c2.512,0,4.544,2.035,4.544,4.545C14.452,12.327,12.42,14.361,9.908,14.361z"/>
    <circle fill="#5E56F4" cx="9.985" cy="9.876" r="2.573"/>
</g>


	<g id="camera">
		<circle fill="#5843D1" cx="9" cy="9" r="8.75"/>
		<circle fill="#5E56F4" cx="9" cy="9" r="8.035"/>
		<path fill="#333333" d="M14.075,5.091h-0.471l-0.089-0.361c-0.035-0.156-0.169-0.521-0.33-0.521h-2.251
			c-0.161,0-0.362,0.076-0.397,0.233l-0.133,0.662l-6.23-0.014c-0.19,0-0.345,0.155-0.345,0.345v6.928c0,0.19,0.154,0.346,0.345,0.346
			h9.903c0.189,0,0.344-0.155,0.344-0.346V5.436C14.421,5.245,14.266,5.091,14.075,5.091z M8.595,11.063
			c-1.218,0-2.206-0.987-2.206-2.206s0.988-2.207,2.206-2.207c1.219,0,2.207,0.988,2.207,2.207S9.814,11.063,8.595,11.063z"/>
		<circle fill="#333333" cx="8.531" cy="8.884" r="1.25"/>
	</g>
	<g id="arrowback">
	<path fill="#70529E" d="M4.325,21.938L0.093,13.55c-0.104-0.209-0.121-0.416-0.049-0.629c0.07-0.212,0.209-0.371,0.417-0.474
		c0.208-0.104,0.421-0.12,0.635-0.049l3.161,1.052l0.916-2.75C7.112,4.863,9.962,1.833,13.72,1.61
		c1.247-0.065,2.69,0.173,4.329,0.718c1.365,0.455,3.05,1.591,5.052,3.414c0.046,0.042,0.132,0.119,0.25,0.226
		c0.118,0.108,0.223,0.203,0.316,0.288c0.093,0.085,0.16,0.169,0.217,0.251c0.108,0.143,0.142,0.283,0.097,0.414
		c-0.039,0.123-0.115,0.204-0.218,0.248c-0.107,0.041-0.221,0.042-0.342,0.001c-0.075-0.025-0.183-0.07-0.319-0.14
		c-0.139-0.069-0.23-0.111-0.279-0.128c-0.545-0.226-1.047-0.417-1.498-0.566c-0.833-0.277-1.604-0.454-2.308-0.53
		c-0.704-0.076-1.344-0.066-1.908,0.028c-0.567,0.093-1.091,0.282-1.572,0.567c-0.486,0.285-0.916,0.622-1.289,1.011
		c-0.378,0.388-0.733,0.874-1.068,1.457c-0.337,0.584-0.634,1.183-0.894,1.802c-0.26,0.618-0.525,1.328-0.792,2.131l-0.915,2.75
		l3.16,1.051c0.214,0.072,0.376,0.212,0.48,0.417c0.102,0.208,0.118,0.418,0.048,0.63c-0.07,0.213-0.208,0.37-0.416,0.477
		L5.437,22.31c-0.208,0.104-0.42,0.117-0.633,0.046C4.59,22.284,4.43,22.146,4.325,21.938z"/>
	</g>
	<g id="reddownarrow">
	<path fill="#F53300" d="M5.949,9.25c0.206,0.005,0.376-0.163,0.373-0.371C6.323,8.676,6.154,8.506,5.955,8.51L2.16,8.491
	l6.279-6.232C8.586,2.11,8.59,1.886,8.442,1.737S8.063,1.584,7.916,1.731L1.637,7.965l0.015-3.791
	C1.655,3.97,1.483,3.799,1.28,3.799c-0.207-0.004-0.377,0.164-0.375,0.37l-0.018,4.69C0.883,9.066,1.052,9.236,1.259,9.232
	L5.949,9.25z"/>
	</g>
	<g id="greendownarrow">
	<path fill="#09B900" d="M5.949,9.25c0.206,0.005,0.376-0.163,0.373-0.371C6.323,8.676,6.154,8.506,5.955,8.51L2.16,8.491
	l6.279-6.232C8.586,2.11,8.59,1.886,8.442,1.737S8.063,1.584,7.916,1.731L1.637,7.965l0.015-3.791
	C1.655,3.97,1.483,3.799,1.28,3.799c-0.207-0.004-0.377,0.164-0.375,0.37l-0.018,4.69C0.883,9.066,1.052,9.236,1.259,9.232
	L5.949,9.25z"/>
	</g>
	
	<g id="greenuparrow">
	<path fill="#09B900" d="M4.205,0.744C3.999,0.739,3.83,0.907,3.833,1.115C3.832,1.318,4,1.488,4.199,1.484L7.995,1.5L1.72,7.736
	C1.573,7.885,1.569,8.109,1.716,8.258C1.863,8.407,2.095,8.41,2.242,8.264l6.275-6.238L8.505,5.816
	C8.502,6.021,8.674,6.191,8.877,6.191c0.207,0.004,0.377-0.164,0.375-0.371l0.015-4.69c0.005-0.208-0.165-0.376-0.372-0.373
	L4.205,0.744z"/>
	</g>
</defs>
</svg>
