<?xml version="1.0" encoding="utf-8"?>
<!-- Generator: Adobe Illustrator 15.1.0, SVG Export Plug-In . SVG Version: 6.00 Build 0)  -->
<!DOCTYPE svg PUBLIC "-//W3C//DTD SVG 1.1//EN" "http://www.w3.org/Graphics/SVG/1.1/DTD/svg11.dtd">
<svg version="1.1" id="Layer_1" xmlns="http://www.w3.org/2000/svg" xmlns:xlink="http://www.w3.org/1999/xlink" x="0px" y="0px"
	 width="18px" height="18px" viewBox="0 0 18 18" enable-background="new 0 0 18 18" xml:space="preserve">
<rect x="8.569" y="4.411" fill="#E91E63" width="1.236" height="9.178"/>
<rect x="4.598" y="8.382" fill="#E91E63" width="9.177" height="1.236"/>
<path fill="#E91E63" d="M9.187,1.5c-4.144,0-7.5,3.356-7.5,7.5c0,4.135,3.356,7.5,7.5,7.5c4.134,0,7.5-3.365,7.5-7.5
	C16.687,4.856,13.321,1.5,9.187,1.5z M9.187,15.244c-3.456,0-6.253-2.791-6.253-6.244c0-3.455,2.798-6.253,6.253-6.253
	c3.446,0,6.244,2.798,6.244,6.253C15.431,12.453,12.633,15.244,9.187,15.244z"/>
</svg>
