<?xml version="1.0" encoding="utf-8"?>
<!-- Generator: Adobe Illustrator 15.1.0, SVG Export Plug-In . SVG Version: 6.00 Build 0)  -->
<!DOCTYPE svg PUBLIC "-//W3C//DTD SVG 1.1//EN" "http://www.w3.org/Graphics/SVG/1.1/DTD/svg11.dtd">
<svg version="1.1" id="Layer_1" xmlns="http://www.w3.org/2000/svg" xmlns:xlink="http://www.w3.org/1999/xlink" x="0px" y="0px"
	 width="30px" height="30px" viewBox="0 0 30 30" enable-background="new 0 0 30 30" xml:space="preserve">
<g>
	<path fill="#27AE60" d="M29.998,28.168V30H30v-1.869C30,28.14,29.998,28.157,29.998,28.168z"/>
	<path fill="#27AE60" d="M0,30h1.824c-0.009,0-0.026-0.002-0.036-0.002H0V30z"/>
	<path fill="#27AE60" d="M30,0h-0.002v1.788c0,0.01,0.002,0.027,0.002,0.036V0z"/>
	<path fill="#27AE60" d="M30,28.124V1.83c0,0.037-0.002,0.061-0.002,0.061V1.788C29.991,1.457,29.86,0.354,28.402,0H1.578
		C0.135,0.331,0.006,1.361,0,1.67v0.096v26.637c0.354,1.458,1.457,1.589,1.788,1.596h0.103c0,0-0.023,0.002-0.061,0.002h26.553
		c1.477-0.363,1.608-1.493,1.615-1.832v-0.105C29.998,28.063,30,28.087,30,28.124z"/>
</g>
<ellipse fill="#FFFFFF" cx="15.242" cy="15.207" rx="8.344" ry="8.25"/>
<path fill="#2C3E50" d="M15.148,4.047c-6.075,0-11,4.924-11,11s4.925,11,11,11s11-4.924,11-11S21.224,4.047,15.148,4.047z
	 M15.2,23.476c-4.556,0-8.25-3.692-8.25-8.25c0-4.557,3.695-8.25,8.25-8.25c4.558,0,8.25,3.693,8.25,8.25
	C23.449,19.783,19.758,23.476,15.2,23.476z"/>
<path fill="#D9D9D9" d="M15.699,7.889c4.461,0.597,7.554,5.012,6.904,9.856c-0.09,0.676-0.255,1.32-0.473,1.935
	c0.827-1.285,1.313-2.813,1.313-4.455c0-4.556-3.692-8.25-8.247-8.25c-3.585,0-6.628,2.293-7.764,5.49
	C9.046,9.357,12.275,7.43,15.699,7.889z"/>
<g>
	<path fill="#2C3E50" d="M21.502,14.683h-4.471c-0.282-0.735-0.983-1.259-1.813-1.28l-1.765-2.695
		c-0.202-0.308-0.681-0.351-1.069-0.097c-0.389,0.254-0.541,0.711-0.339,1.019l1.617,2.467c-0.303,0.351-0.492,0.801-0.492,1.3
		c0,1.104,0.896,2,2,2c0.904,0,1.659-0.604,1.906-1.428h4.427c0.305,0,0.55-0.288,0.55-0.644
		C22.052,14.971,21.807,14.683,21.502,14.683z"/>
	<path fill="#F95346" d="M14.952,15.133c0.136-0.137,0.367-0.124,0.519,0.028l0,0c0.15,0.15,0.164,0.383,0.027,0.518l-4.262,4.262
		c-0.135,0.136-0.368,0.124-0.519-0.026l0,0c-0.151-0.151-0.163-0.385-0.027-0.52L14.952,15.133z"/>
</g>
</svg>
