<?xml version="1.0" encoding="utf-8"?>
<svg version="1.1" id="Layer_1" xmlns="http://www.w3.org/2000/svg" xmlns:xlink="http://www.w3.org/1999/xlink" x="0px" y="0px"
	 width="17px" height="17px" viewBox="0 0 17 17" enable-background="new 0 0 17 17" xml:space="preserve">
<path fill="#4D4D4F" d="M10.64,8.564l5.275-5.203c0.619-0.61,0.649-1.584,0.068-2.173c-0.583-0.589-1.555-0.573-2.175,0.038
	L8.518,6.444L3.261,1.191C2.646,0.576,1.672,0.553,1.087,1.139C0.501,1.726,0.525,2.698,1.141,3.313l5.241,5.238l-5.276,5.203
	c-0.617,0.611-0.649,1.583-0.066,2.174c0.582,0.59,1.555,0.572,2.174-0.038l5.291-5.219l5.257,5.254
	c0.615,0.612,1.587,0.638,2.174,0.051c0.586-0.586,0.562-1.56-0.054-2.174L10.64,8.564z"/>
</svg>