<?xml version="1.0" encoding="utf-8"?>
<svg version="1.1" id="Layer_1" xmlns="http://www.w3.org/2000/svg" xmlns:xlink="http://www.w3.org/1999/xlink" x="0px" y="0px"
	 width="13px" height="13px" viewBox="0 0 13 13" enable-background="new 0 0 13 13" xml:space="preserve">
<path fill="#B3B3B3" d="M8.131,6.505l4.012-3.98c0.47-0.466,0.493-1.212,0.051-1.662s-1.182-0.438-1.653,0.029L6.516,4.883
	l-3.999-4.02C2.05,0.395,1.31,0.377,0.864,0.825C0.419,1.274,0.437,2.018,0.905,2.487l3.986,4.007l-4.013,3.981
	c-0.469,0.468-0.494,1.21-0.05,1.663c0.443,0.45,1.183,0.438,1.653-0.029l4.024-3.992l3.998,4.019
	c0.468,0.469,1.209,0.487,1.653,0.041c0.446-0.449,0.43-1.194-0.04-1.664L8.131,6.505z"/>
</svg>
