<svg>
<defs>
<g id="chat"><path d="M20 2H4c-1.1 0-1.99.9-1.99 2L2 22l4-4h14c1.1 0 2-.9 2-2V4c0-1.1-.9-2-2-2zM6 9h12v2H6V9zm8 5H6v-2h8v2zm4-6H6V6h12v2z"/></g>
<g id="chat"><path d="M40 4H8C5.79 4 4.02 5.79 4.02 8L4 44l8-8h28c2.21 0 4-1.79 4-4V8c0-2.21-1.79-4-4-4zM12 18h24v4H12v-4zm16 10H12v-4h16v4zm8-12H12v-4h24v4z"/></g>
<g id="comment"><path d="M21.99 4c0-1.1-.89-2-1.99-2H4c-1.1 0-2 .9-2 2v12c0 1.1.9 2 2 2h14l4 4-.01-18zM18 14H6v-2h12v2zm0-3H6V9h12v2zm0-3H6V6h12v2z"/></g>
<g id="comment"><path d="M43.98 8c0-2.21-1.77-4-3.98-4H8C5.79 4 4 5.79 4 8v24c0 2.21 1.79 4 4 4h28l8 8-.02-36zM36 28H12v-4h24v4zm0-6H12v-4h24v4zm0-6H12v-4h24v4z"/></g>
</defs>
</svg>