<?xml version="1.0" encoding="utf-8"?>
<svg version="1.1" xmlns="http://www.w3.org/2000/svg" xmlns:xlink="http://www.w3.org/1999/xlink" x="0px" y="0px" width="32px"
	 height="32px" viewBox="0 0 32 32" enable-background="new 0 0 32 32" xml:space="preserve">
<g id="Layer_1">
	<circle fill="#00897B" cx="15.979" cy="16" r="16"/>
</g>
		<g>
			<path fill="#FFFFFF" d="M13.539,14.307c-0.008-0.113-0.018-0.227-0.018-0.343c0-2.139,1.404-3.955,3.338-4.577
				c-0.521-0.928-1.514-1.556-2.651-1.556c-1.053,0-2.017,0.535-2.578,1.433l-0.056,0.09l-0.106,0.003
				c-2.385,0.049-4.325,2.027-4.325,4.411c0,0.183,0.015,0.362,0.037,0.539H13.539L13.539,14.307z"/>
			<path fill="#FFFFFF" d="M13.914,13.964c0,0.116,0.008,0.229,0.017,0.343h2.007h0.198h0.199h6.393
				c0.009-0.113,0.018-0.227,0.018-0.343c0-2.435-1.981-4.416-4.416-4.416c-0.314,0-0.621,0.034-0.918,0.098
				c-0.064,0.014-0.126,0.032-0.189,0.049c-0.064,0.017-0.129,0.03-0.191,0.049C15.229,10.299,13.914,11.98,13.914,13.964z"/>
			<path fill="#FFFFFF" d="M12.638,22.905v0.202v0.203v1.903h-1.56c-0.494,0-0.894,0.399-0.894,0.893S10.584,27,11.078,27h7.83
				c0.493,0,0.894-0.4,0.894-0.894s-0.4-0.893-0.894-0.893h-1.56v-1.903v-0.203v-0.202c3.568-1.022,6.182-4.309,6.182-8.206h-0.455
				h-0.198h-0.199h-6.403h-0.198h-0.203H13.98h-0.199h-0.198H7.244H7.041H6.843H6.456C6.456,18.597,9.069,21.883,12.638,22.905z"/>
	<path fill="#FFFFFF" d="M21.537,13.722l-0.854-0.999l3.895-7.588c0,0,1.646-0.599,1.098,0.728
		C25.485,6.322,21.537,13.722,21.537,13.722z"/>
</g>
</svg>
