<?xml version="1.0" encoding="utf-8"?>
<svg version="1.1" id="Layer_1" xmlns="http://www.w3.org/2000/svg" xmlns:xlink="http://www.w3.org/1999/xlink" x="0px" y="0px"
	 width="23px" height="23px" viewBox="0 0 23 23" enable-background="new 0 0 23 23" xml:space="preserve">
<path fill="#51B7C8" d="M22.5,20.055c0,1.35-0.757,2.445-1.693,2.445H2.193c-0.937,0-1.693-1.096-1.693-2.445V2.945
	C0.5,1.594,1.257,0.5,2.193,0.5h18.613c0.937,0,1.693,1.095,1.693,2.445V20.055z"/>
<path fill="#F5F5F5" d="M19.363,18.398c0,0.945-0.54,1.709-1.208,1.709H4.854c-0.671,0-1.212-0.764-1.212-1.709V6.432
	c0-0.944,0.541-1.709,1.212-1.709h13.302c0.668,0,1.208,0.765,1.208,1.709V18.398z"/>
<path fill="#FFB200" d="M19.361,9.535v-3.19c0-0.944-0.541-1.709-1.209-1.709H4.848c-0.668,0-1.209,0.765-1.209,1.709v3.19H19.361z"
	/>
<path fill="#506C82" d="M10.433,6.281c0,0.3-0.33,0.543-0.739,0.543l0,0c-0.41,0-0.744-0.244-0.744-0.543V3.612
	c0-0.299,0.334-0.543,0.744-0.543l0,0c0.409,0,0.739,0.244,0.739,0.543V6.281z"/>
<path fill="#506C82" d="M17.639,6.281c0,0.3-0.335,0.543-0.744,0.543l0,0c-0.409,0-0.74-0.244-0.74-0.543V3.612
	c0-0.299,0.331-0.543,0.74-0.543l0,0c0.409,0,0.744,0.244,0.744,0.543V6.281z"/>
<path fill="#506C82" d="M13.998,6.281c0,0.3-0.33,0.543-0.74,0.543l0,0c-0.409,0-0.743-0.244-0.743-0.543V3.612
	c0-0.299,0.334-0.543,0.743-0.543l0,0c0.41,0,0.74,0.244,0.74,0.543V6.281z"/>
<path fill="#506C82" d="M6.824,6.32c0,0.3-0.33,0.542-0.74,0.542l0,0c-0.409,0-0.743-0.242-0.743-0.542V3.65
	c0-0.3,0.334-0.542,0.743-0.542l0,0c0.41,0,0.74,0.242,0.74,0.542V6.32z"/>
<path fill="#506C83" d="M6.092,15.473c-0.01,0.574-0.324,0.26-0.324,0.543c0,0.158,0.171,0.225,0.304,0.225
	c0.117,0,0.228-0.002,0.338-0.012c0.109-0.002,0.223-0.006,0.337-0.006c0.11,0,0.217,0.004,0.338,0.006
	c0.123,0.01,0.267,0.012,0.437,0.012c0.998,0,1.429-0.689,1.429-1.424c0-0.713-0.357-1.393-1.459-1.393H6.202
	c-0.137,0-0.368,0.029-0.368,0.211c0,0.254,0.298,0.059,0.291,0.465L6.092,15.473z M7.073,14.072c0-0.15,0.011-0.217,0.177-0.217
	c0.304,0,0.654,0.146,0.654,1.07c0,0.396-0.09,0.904-0.588,0.904c-0.214,0-0.243-0.082-0.243-0.283V14.072z"/>
<path fill="#506C83" d="M11.526,16.273c0.809,0,1.56-0.563,1.56-1.41c0-0.51-0.421-1.471-1.513-1.471
	c-0.861,0-1.528,0.592-1.528,1.43C10.045,15.666,10.693,16.273,11.526,16.273z M12.068,15.262c0,0.213-0.101,0.424-0.344,0.424
	c-0.425,0-0.661-0.945-0.661-1.281c0-0.195,0.11-0.424,0.33-0.424C11.857,13.98,12.068,14.902,12.068,15.262z"/>
<path fill="#506C83" d="M16.631,14.068c0-0.305-0.187-0.648-0.91-0.648c-0.091,0-0.185,0.008-0.274,0.012
	c-0.094,0.01-0.184,0.016-0.276,0.016c-0.147,0-0.294-0.006-0.441-0.016c-0.143-0.004-0.29-0.012-0.437-0.012
	c-0.124,0-0.284,0.07-0.284,0.221c0,0.273,0.338,0,0.313,0.598l-0.043,1.139c-0.023,0.656-0.28,0.406-0.28,0.652
	c0,0.137,0.14,0.209,0.26,0.209c0.141,0,0.273-0.004,0.407-0.012c0.138-0.004,0.273-0.01,0.407-0.01c0.123,0,0.244,0.006,0.36,0.01
	c0.121,0.008,0.24,0.012,0.378,0.012c0.795,0,1.058-0.486,1.058-0.883c0-0.332-0.28-0.539-0.444-0.604
	c-0.04-0.02-0.083-0.037-0.083-0.086c0-0.053,0.036-0.076,0.073-0.107C16.555,14.443,16.631,14.25,16.631,14.068z M15.263,14.064
	c0-0.115-0.017-0.234,0.13-0.234c0.217,0,0.277,0.223,0.277,0.4c0,0.217-0.053,0.383-0.293,0.383c-0.12,0-0.114-0.074-0.114-0.23
	V14.064z M15.263,15.15c0.003-0.082,0.034-0.146,0.153-0.146c0.277,0,0.352,0.215,0.352,0.457c0,0.205-0.081,0.357-0.308,0.357
	c-0.12,0-0.197-0.012-0.197-0.471V15.15z"/>
</svg>
