<?xml version="1.0" encoding="utf-8"?>
<svg version="1.1" id="Layer_1" xmlns="http://www.w3.org/2000/svg" xmlns:xlink="http://www.w3.org/1999/xlink" x="0px" y="0px"
	 width="60px" height="60px" viewBox="0 0 60 60" enable-background="new 0 0 60 60" xml:space="preserve">
	<path fill="#FFF288" d="M49.723,10.273c-1.496-1.574-2.972-3.453-3.604-5.572C41.31,9.778,7.926,45.488,7.926,45.488L2.997,58.686
		l1.905-0.805l10.289-4.463l37.974-40.055C51.94,12.415,50.779,11.386,49.723,10.273z"/>
	<path fill="#FFFFCC" d="M50.269,10.468L12.472,51.535L4.539,57.32l0.217,0.525l8.883-4.844c0,0,34.459-36.701,38.361-40.702
		c0.074-0.068,0.144-0.135,0.214-0.202C51.435,11.712,50.744,11.191,50.269,10.468z"/>
	<path fill="#FFBF0C" d="M9.592,49.74l38.99-42.28l2.924,3.008L12.688,52.24C12.688,52.24,8.595,53.537,9.592,49.74z"/>
	<path fill="#FF820A" d="M7.671,45.811l38.48-41.144l2.761,2.794L9.592,49.74C9.592,49.74,6.841,49.637,7.671,45.811z"/>
	<path fill="#FF8A0A" d="M12.453,52.473c0,0,0.309,1.779,2.738,0.945c5.428-5.625,38.589-40.611,38.589-40.611l-2.274-2.339
		L12.453,52.473z"/>
	<path d="M4.315,54.992c0,0,1.653,2.047,2.782,2.047l-4.245,1.83L4.315,54.992z"/>
	<path fill="#1976D2" d="M53.786,12.859l3.087-3.416c0.33-0.397,0.372-0.96,0.074-1.257l-6.719-6.911
		c-0.287-0.305-0.799-0.226-1.134,0.162L45.865,5.05L53.786,12.859z"/>
</svg>
