<?xml version="1.0" encoding="utf-8"?>
<svg version="1.1" id="Layer_1" xmlns="http://www.w3.org/2000/svg" xmlns:xlink="http://www.w3.org/1999/xlink" x="0px" y="0px"
	 width="40px" height="40px" viewBox="0 0 40 40" enable-background="new 0 0 40 40" xml:space="preserve">
<path fill="#599443" d="M35.789,0H4.21C1.885,0,0,1.836,0,4.102v31.794C0,38.162,1.885,40,4.21,40h31.579
	C38.114,40,40,38.162,40,35.896V4.102C40,1.836,38.114,0,35.789,0z M23.183,14.982l-1.112,0.346l0.031-10.973
	c0.373,0.062,0.671,0.155,1.031,0.25L23.183,14.982z M20.508,4.23l0.016,11.123l-1.086-0.018l0.023-11.09
	C19.65,4.237,19.809,4.23,20,4.23C20.177,4.23,20.333,4.223,20.508,4.23z M17.867,4.527l-0.002,10.666l-1.076-0.235V4.746
	C17.15,4.649,17.494,4.592,17.867,4.527z M7.5,20.076c0-5.192,3.166-9.643,7.672-11.531l-0.141,1.279c0,0-0.491,5.288-0.165,6.911
	c0.447,2.215,1.069,3.188,1.069,3.188c1.534,2.68,2.067,4.358,2.275,5.135c0.289,1.094,0.552,3.705,0.552,3.705l-0.076,3.387
	l-0.002,0.355C12.4,31.848,7.5,26.535,7.5,20.076z M21.286,32.51l-0.037-0.82c0,0-0.051-2.354-0.051-2.936
	c0-0.283,0.254-2.955,0.962-4.883c0.813-2.201,1.653-3.134,2.565-5.549c0.312-0.828,0.467-1.817,0.467-1.817
	c0.192-1.19-0.203-6.707-0.203-6.707l-0.124-1.24c4.486,1.898,7.635,6.34,7.635,11.518C32.5,26.545,27.585,31.865,21.286,32.51z"/>
</svg>