<?xml version="1.0" encoding="utf-8"?>
<svg version="1.1" xmlns="http://www.w3.org/2000/svg" xmlns:xlink="http://www.w3.org/1999/xlink" x="0px" y="0px" width="40px"
	 height="40px" viewBox="0 0 40 40" enable-background="new 0 0 40 40" xml:space="preserve">
	<path fill="#A7CF35" d="M35.789,0H4.21C1.885,0,0,1.836,0,4.102v31.794C0,38.162,1.885,40,4.21,40h31.579
		C38.113,40,40,38.162,40,35.896V4.102C40,1.836,38.113,0,35.789,0z"/>
		<path fill="#F5F5F5" d="M30.856,8.145c-0.181-0.179-0.466-0.194-0.664-0.036c-0.069,0.056-0.995,0.971-9.151,9.133
			c-0.208,0.143-0.187,0.372,0.006,0.61l2.817,2.773c0.178,0.187,0.417,0.228,0.781,0.089c3.132-3.163,7.04-7.521,7.033-10.53
			C31.678,9.371,31.4,8.685,30.856,8.145z"/>
		<path fill="#F5F5F5" d="M17.894,20.984c-0.102-0.12-0.175-0.12-0.321-0.12c-0.098,0-0.167,0-0.272,0.122
			c-2.341,2.344-5.093,5.099-8.36,8.37c-0.586,0.588-0.587,1.541-0.002,2.125c0.284,0.284,0.661,0.44,1.063,0.44
			c0.399,0,0.775-0.156,1.058-0.438l6.366-6.366c0.935-0.935,1.656-1.547,2.237-1.968c0.068-0.107,0.08-0.285-0.002-0.427
			L17.894,20.984z"/>
		<path fill="#F5F5F5" d="M31.562,29.439l-4.057-4.057l0.014-0.013l-8.15-8.155c-0.012-0.086-0.038-0.17-0.095-0.242
			c-1.046-1.325-1.162-1.999-1.157-2.392c0.01-0.89-0.363-1.778-1.052-2.464l-0.129-0.109c0,0-0.001,0-0.001-0.001l-4.5-3.813
			c-0.211-0.179-0.527-0.152-0.705,0.058c-0.179,0.21-0.152,0.526,0.058,0.705l4.086,3.462L14.5,13.793l-4.146-4.146
			c-0.195-0.195-0.512-0.195-0.707,0c-0.195,0.195-0.195,0.512,0,0.707l4.146,4.146l-1.404,1.404l-3.525-3.747
			c-0.189-0.201-0.506-0.21-0.707-0.021c-0.201,0.189-0.21,0.506-0.021,0.707l3.877,4.116c0.003,0.003,0.007,0.004,0.01,0.007
			c0.003,0.003,0.004,0.008,0.007,0.011c0.68,0.669,1.616,1.063,2.705,1.144c0.579,0.042,1.311,0.419,2.239,1.153
			c0.089,0.07,0.196,0.104,0.303,0.106l4.591,4.596c0.015,0.02,0.027,0.041,0.045,0.059l7.525,7.526C29.722,31.844,30.1,32,30.5,32
			c0.401,0,0.777-0.156,1.062-0.439S32,30.901,32,30.501S31.844,29.724,31.562,29.439z"/>
</svg>