<?xml version="1.0" encoding="utf-8"?>
<svg version="1.1" xmlns="http://www.w3.org/2000/svg" xmlns:xlink="http://www.w3.org/1999/xlink" x="0px" y="0px" width="40px"
	 height="40px" viewBox="0 0 40 40" enable-background="new 0 0 40 40" xml:space="preserve">
	<path fill="#6C4BF7" d="M35.789,0H4.21C1.885,0,0,1.836,0,4.102v31.794C0,38.162,1.885,40,4.21,40h31.579
		C38.114,40,40,38.162,40,35.896V4.102C40,1.836,38.114,0,35.789,0z"/>
	<path fill="#FFFFFF" d="M20,7C12.82,7,7,12.82,7,20s5.82,13,13,13c7.179,0,13-5.82,13-13S27.179,7,20,7z M14.968,10.045
		c-0.233,0.322-0.456,0.668-0.667,1.04c-0.323,0.567-0.611,1.177-0.863,1.822c-0.537-0.148-1.072-0.314-1.604-0.499
		C12.728,11.448,13.788,10.645,14.968,10.045z M10.486,14.18c0.763,0.286,1.532,0.537,2.307,0.753
		c-0.319,1.262-0.517,2.612-0.583,4.006H8.895C9.059,17.207,9.62,15.59,10.486,14.18z M10.486,25.82
		c-0.866-1.41-1.427-3.027-1.592-4.759h3.315c0.067,1.394,0.265,2.744,0.583,4.007C12.019,25.284,11.249,25.534,10.486,25.82z
		 M11.834,27.592c0.532-0.185,1.067-0.351,1.604-0.499c0.252,0.646,0.541,1.256,0.863,1.822c0.211,0.371,0.434,0.717,0.667,1.04
		C13.788,29.355,12.728,28.552,11.834,27.592z M18.938,30.604c-1.359-0.51-2.564-1.973-3.403-3.993
		c1.128-0.208,2.265-0.337,3.403-0.386V30.604z M18.938,24.097c-1.363,0.055-2.724,0.215-4.075,0.479
		c-0.276-1.09-0.46-2.275-0.527-3.515h4.603V24.097z M18.938,18.938h-4.603c0.067-1.239,0.251-2.425,0.527-3.515
		c1.351,0.265,2.712,0.425,4.075,0.479V18.938z M18.938,13.775c-1.139-0.049-2.275-0.178-3.403-0.387
		c0.839-2.02,2.044-3.483,3.403-3.993V13.775z M29.514,14.18c0.866,1.41,1.427,3.027,1.591,4.759H27.79
		c-0.066-1.394-0.265-2.743-0.583-4.006C27.981,14.717,28.751,14.466,29.514,14.18z M28.166,12.409
		c-0.531,0.185-1.066,0.351-1.604,0.499c-0.253-0.645-0.541-1.255-0.863-1.822c-0.212-0.371-0.435-0.717-0.667-1.04
		C26.213,10.645,27.273,11.448,28.166,12.409z M21.062,9.396c1.359,0.51,2.564,1.973,3.403,3.993
		c-1.129,0.208-2.265,0.337-3.403,0.386V9.396z M21.062,15.903c1.363-0.055,2.725-0.215,4.075-0.479
		c0.276,1.091,0.46,2.275,0.527,3.515h-4.603V15.903z M21.062,21.062h4.603c-0.067,1.239-0.251,2.425-0.527,3.515
		c-1.351-0.265-2.712-0.425-4.075-0.479V21.062z M21.062,30.604v-4.379c1.139,0.049,2.274,0.178,3.403,0.386
		C23.626,28.632,22.421,30.095,21.062,30.604z M25.032,29.954c0.232-0.322,0.455-0.668,0.667-1.039
		c0.322-0.567,0.61-1.177,0.863-1.822c0.537,0.147,1.072,0.313,1.604,0.499C27.273,28.552,26.213,29.355,25.032,29.954z
		 M29.514,25.82c-0.763-0.286-1.532-0.537-2.307-0.753c0.318-1.263,0.517-2.612,0.583-4.006h3.315
		C30.94,22.793,30.38,24.41,29.514,25.82z"/></svg>