<?xml version="1.0" encoding="utf-8"?>
<svg version="1.1" id="Layer_1" xmlns="http://www.w3.org/2000/svg" xmlns:xlink="http://www.w3.org/1999/xlink" x="0px" y="0px"
	 width="26px" height="25px" viewBox="0 0 26 25" enable-background="new 0 0 26 25" xml:space="preserve">
		<path fill="#7256ED" d="M12.539,0.757H11.13c-0.354-0.404-0.862-0.652-1.427-0.652c-1.04,0-1.886,0.845-1.886,1.887
			c0,1.042,0.846,1.887,1.886,1.887c1.042,0,1.887-0.845,1.887-1.887c0-0.215-0.04-0.416-0.109-0.608h1.057
			c0.171,0,0.313-0.142,0.313-0.314C12.852,0.898,12.709,0.757,12.539,0.757"/>
		<path fill="#7256ED" d="M24.456,17.223c-0.967-2.32-3.977-2.102-3.977-2.102l-2.708-6.324h0.87c0,0,0.636-0.07,0.626-1.379
			c-0.02-1.31-0.724-1.29-0.724-1.29s-0.216,0-0.869-0.02c-0.656-0.019-0.782,0.292-1.214,0.751
			c-0.162,0.171-0.367,0.291-0.576,0.368c0.072,0.067,0.122,0.162,0.122,0.285C16.008,7.9,16.026,8.287,16,8.671
			c0.202,0.756,0.702,2.563,0.807,2.963c0.097,0.356-0.516,0.646-0.533,1.257c-0.004,0.386,0.402,1.328,0.449,1.648
			c0.047,0.33,0.03,0.77,0.061,1.564c0.04,0.783-0.634,1.357-0.996,1.357c-0.12,0-0.34,0.006-0.635,0.023
			c-0.114,0.053-0.237,0.082-0.363,0.082h-1.905c-0.077,0-0.153-0.004-0.228-0.025c0.992,0,1.894-0.031,2.496-0.057
			c0.07-0.041,0.126-0.088,0.177-0.141c0.142-0.141,0.233-0.334,0.233-0.539c0-0.43-0.354-0.773-0.773-0.773h-0.801v-4.546
			c0-1.549-1.329-1.598-1.329-1.598v0.001c-0.025-0.001-0.05-0.001-0.077-0.001H10.43l0.25-2.802l1.229,1.402
			c0,0,2.473,0.358,2.732,0.361c0.394,0.017,0.482-0.269,0.613-0.39c0.019-0.314,0-0.63-0.001-0.945c0-0.046,0.003-0.078,0.02-0.119
			c-0.041,0.003-0.054,0.004-0.054,0.004s-0.047-0.323-0.479-0.391c-0.43-0.069-1.906-0.245-1.906-0.245s-0.918-1.037-1.485-1.701
			c-0.136-0.16-0.285-0.262-0.454-0.337c-0.563-0.261-1.328-0.142-2.078-0.142c-0.958,0-1.167,1.311-1.167,1.311l-0.439,4.842
			L7.187,11.03c0.025,0.581,0.507,1.055,1.094,1.055h3.51v4.388c0,0.309,0.121,0.58,0.318,0.775
			c0.146,0.146,0.334,0.248,0.547,0.293c-2.057,0-2.978-0.396-2.978-1.404c0-0.996,0.705-1.318,0.705-1.318
			c0.518,0,0.537-0.459,0.537-0.459s0.024-0.549,0.024-0.963c0-0.416-0.464-0.465-0.464-0.465H6.413l-0.752,0.05
			c-0.313,0.273-2.903,1.476-2.903,1.476c-1.231,0.557-1.544,2.16-1.602,2.932c-0.069,0.773,0.567,0.803,0.567,0.803h5.619
			c0.451,0,0.568,0.557,0.568,0.557v0.586c0,0.381,0.371,0.352,0.371,0.352h9.785c1.516-1.975,4.448-1.494,5.006-1.494
			C23.538,18.191,24.916,18.318,24.456,17.223z"/>
	<path fill="#231F20" d="M26,20.545c0,2.408-1.941,4.352-4.35,4.352c-2.399,0-4.342-1.943-4.342-4.352
		c0-2.398,1.942-4.34,4.342-4.34C24.059,16.205,26,18.146,26,20.545z"/>
	<path fill="#231F20" d="M8.692,20.396c0,2.398-1.943,4.352-4.342,4.352c-2.409,0-4.35-1.953-4.35-4.352s1.941-4.342,4.35-4.342
		C6.749,16.055,8.692,17.998,8.692,20.396z"/>
	<path fill="#897A7E" d="M24.493,20.396c0,1.568-1.274,2.834-2.843,2.834c-1.559,0-2.834-1.266-2.834-2.834
		c0-1.559,1.275-2.834,2.834-2.834C23.219,17.563,24.493,18.838,24.493,20.396z"/>
	<path fill="#897A7E" d="M6.968,20.545c0,1.568-1.275,2.842-2.833,2.842c-1.568,0-2.834-1.273-2.834-2.842
		c0-1.559,1.266-2.834,2.834-2.834C5.692,17.711,6.968,18.986,6.968,20.545z"/>
	<path fill="#936B65" d="M24.456,17.223c-0.967-2.32-3.977-2.102-3.977-2.102l-2.708-6.324h0.87c0,0,0.636-0.07,0.626-1.379
		c-0.02-1.31-0.724-1.29-0.724-1.29s-0.216,0-0.869-0.02c-0.656-0.019-0.782,0.292-1.214,0.751c-0.43,0.46-1.241,0.539-1.241,0.539
		s0-0.001-0.011-0.004c-0.007,0.002-0.025,0.003-0.031,0.015c0,0.03-0.001,0.061-0.018,0.103c-0.074,0.344-0.027,0.625-0.001,0.962
		c0.04-0.017,0.071-0.022,0.116-0.034c0.023-0.01,0.047-0.028,0.072-0.032c0.213-0.047,0.558-0.078,0.558-0.078
		s0.771,2.788,0.901,3.304c0.097,0.356-0.516,0.646-0.533,1.257c-0.004,0.386,0.402,1.328,0.449,1.648
		c0.047,0.33,0.03,0.77,0.061,1.564c0.04,0.783-0.634,1.357-0.996,1.357c-0.119,0-0.335,0.006-0.612,0.023
		c-0.024,0.006-0.049,0.021-0.075,0.025c-0.095,0.033-0.206,0.057-0.311,0.057h-1.69c-0.008,0.01-0.027,0.012-0.046,0.012
		c-0.008,0-0.027-0.002-0.035-0.012h-0.134c-0.058,0-0.126-0.004-0.192-0.012c-0.011,0-0.031,0-0.049-0.014
		c-2.044,0-2.966-0.396-2.966-1.404c0-0.996,0.705-1.318,0.705-1.318c0.518,0,0.537-0.459,0.537-0.459s0.024-0.549,0.024-0.963
		c0-0.416-0.464-0.465-0.464-0.465H6.413l-0.752,0.05c-0.313,0.273-2.903,1.476-2.903,1.476c-1.231,0.557-1.544,2.16-1.602,2.932
		c-0.069,0.773,0.567,0.803,0.567,0.803h5.619c0.451,0,0.568,0.557,0.568,0.557v0.586c0,0.381,0.371,0.352,0.371,0.352h9.785
		c1.516-1.975,4.448-1.494,5.006-1.494C23.538,18.191,24.916,18.318,24.456,17.223z"/>
	<path fill="#916F53" d="M4.816,8.765H1.307c-0.68,0-1.233,0.543-1.233,1.224v3.355c0,0.68,0.553,1.234,1.233,1.234h3.509
		c0.68,0,1.233-0.555,1.233-1.234V9.988C6.049,9.308,5.496,8.765,4.816,8.765 M5.136,13.521H0.987v-3.71h1.53v1.771l0.55-0.559
		l0.539,0.559V9.811h1.53V13.521z"/>
</svg>