<?xml version="1.0" encoding="utf-8"?>
<svg x="0px" y="0px" width="34px" height="34px" viewBox="0 0 34 34" enable-background="new 0 0 34 34" xml:space="preserve">
<path fill="#000000" d="M33.502,17c0,9.113-7.386,16.5-16.5,16.5c-9.11,0-16.5-7.388-16.5-16.5c0-9.114,7.391-16.5,16.5-16.5
	C26.116,0.5,33.502,7.886,33.502,17z"/>
<path fill="#FFFFFF" d="M25.464,15.189c0-0.463-0.358-0.834-0.802-0.834h-5.295L17.73,9.089C17.625,8.75,17.324,8.5,16.964,8.5
	c-0.358,0-0.662,0.25-0.761,0.59l-1.644,5.265H9.257c-0.437,0-0.793,0.372-0.793,0.834c0,0.276,0.129,0.526,0.331,0.676v0.002
	l4.278,3.246l-1.649,5.293c-0.027,0.08-0.041,0.164-0.041,0.256c0,0.465,0.358,0.838,0.799,0.838c0.175,0,0.336-0.062,0.468-0.153
	l4.313-3.276l4.317,3.276c0.127,0.092,0.289,0.153,0.462,0.153c0.439,0,0.8-0.374,0.8-0.838c0-0.09-0.018-0.176-0.043-0.256
	l-1.649-5.293l4.282-3.248C25.331,15.715,25.465,15.465,25.464,15.189z"/>
</svg>
