<?xml version="1.0" encoding="utf-8"?>
<svg x="0px" y="0px" width="18px" height="18px" viewBox="0 0 18 18" enable-background="new 0 0 18 18" xml:space="preserve">
<g>
	<path fill="#3AAF85" d="M1.256,7.867c0,0.566,0.094,1.123,0.274,1.619c0.232-0.069,0.478-0.107,0.733-0.107h2.518
		c0.255,0,0.5,0.038,0.732,0.107c0.18-0.497,0.275-1.053,0.276-1.619l0,0c0-1.878-1.015-3.4-2.267-3.4l0,0
		C2.27,4.467,1.255,5.989,1.256,7.867z"/>
	<path fill="#3AAF85" d="M2.515,16.178H4.53c0.941,0,1.726-0.641,1.949-1.511H3.145v-0.378h3.394
		c0.006-0.042,0.006-0.084,0.006-0.126v-0.817h-3.4v-0.38h3.4v-0.817c0-0.043-0.006-0.084-0.006-0.125H3.145v-0.379h3.334
		c-0.223-0.869-1.008-1.512-1.949-1.512H2.515c-1.116,0-2.015,0.899-2.015,2.016v2.016C0.5,15.279,1.399,16.178,2.515,16.178z"/>
	<path fill="#3AAF85" d="M7.101,15.4c0.999,0.508,2.102,0.771,3.222,0.776c3.964,0,7.178-3.214,7.178-7.178
		s-3.214-7.178-7.178-7.178C8.279,1.826,6.334,2.699,4.975,4.224c0.967,0.729,1.569,2.125,1.569,3.643
		C6.543,8.543,6.422,9.209,6.192,9.809c0.669,0.45,1.108,1.215,1.108,2.088v2.518C7.3,14.766,7.229,15.098,7.101,15.4z M12.777,7.3
		c0.521,0,0.943,0.422,0.943,0.944s-0.422,0.945-0.943,0.945s-0.944-0.422-0.944-0.945C11.833,7.723,12.256,7.3,12.777,7.3z
		 M10.7,12.577c1.356,0,2.188-1.289,2.188-1.289l0.479,0.303c0,0-0.961,1.554-2.669,1.554S8.03,11.591,8.03,11.591l0.479-0.303
		C8.51,11.288,9.341,12.577,10.7,12.577z M7.689,7.629l0.23-0.518L9.775,7.94c0.061,0.026,0.108,0.073,0.139,0.131
		c0.068,0.14,0.014,0.311-0.127,0.38L7.93,9.378L7.678,8.871l1.319-0.658L7.689,7.629z"/>
</g>
</svg>