<?xml version="1.0" encoding="utf-8"?>
<svg version="1.1" xmlns="http://www.w3.org/2000/svg" xmlns:xlink="http://www.w3.org/1999/xlink" x="0px" y="0px" width="32px"
	 height="32px" viewBox="0 0 32 32" enable-background="new 0 0 32 32" xml:space="preserve">
<g id="Layer_1">
	<circle fill="#00897B" cx="15.979" cy="16" r="16"/>
</g>
<g id="Layer_2">
	<path fill="#FFFFFF" d="M21.981,5c0.287,0,0.479,0.174,0.479,0.271c0,0.081-0.027,0.265-0.015,0.457h0.03
		c0.228,0.142,0.185,0.561,0.019,0.669h-0.021c-0.007,0.451,0.023,1.987,0.115,2.495c0.144,0.805-0.133,1.11,0.846,1.835
		c2.381,1.763,2.094,2.35,2.135,2.794c0.04,0.445-0.125,9.973-0.197,10.561c-0.069,0.586-0.121,0.974,0.173,1.869
		s-0.682,1.01-1.065,1.05h-7.987c-0.382-0.04-1.357-0.153-1.063-1.05c0.292-0.896,0.243-1.283,0.172-1.869
		c-0.072-0.588-0.237-10.116-0.197-10.561c0.041-0.444-0.247-1.031,2.134-2.794c0.976-0.725,0.701-1.03,0.846-1.835
		c0.093-0.508,0.123-2.044,0.115-2.495h-0.022c-0.165-0.107-0.207-0.527,0.02-0.669h0.03c0.015-0.193-0.015-0.376-0.015-0.457
		C18.511,5.174,18.703,5,18.989,5"/>
	<path fill="#FFFFFF" d="M8.978,26.893c0.302,0.047,0.644,0.035,1.079,0.035c0.504,0,0.896,0.012,1.458,0.012
		c1.588-1.236,2.741-5.104,2.741-12.849H6.358C6.358,21.64,7.452,25.556,8.978,26.893z"/>
</g>
</svg>
