<?xml version="1.0" encoding="utf-8"?>
<svg version="1.1" xmlns="http://www.w3.org/2000/svg" xmlns:xlink="http://www.w3.org/1999/xlink" x="0px" y="0px" width="40px"
	 height="40px" viewBox="0 0 40 40" enable-background="new 0 0 40 40" xml:space="preserve">
	<path fill="#BEBEBF" d="M35.789,0H4.21C1.885,0,0,1.836,0,4.102v31.794C0,38.162,1.885,40,4.21,40h31.579
		C38.114,40,40,38.162,40,35.896V4.102C40,1.836,38.114,0,35.789,0z"/>
		<radialGradient id="SVGID_1_" cx="5145.7461" cy="-2533.23" r="32.5257" gradientTransform="matrix(0.1335 0 0 0.0942 -667.4016 269.955)" gradientUnits="userSpaceOnUse">
			<stop  offset="0" style="stop-color:#858585"/>
			<stop  offset="1" style="stop-color:#D6D6D6"/>
		</radialGradient>
		<path fill="url(#SVGID_1_)" d="M25.725,31.202c0,0.306-2.713,0.858-6.061,0.858c-3.349,0-6.05-0.553-6.05-0.858
			c0-0.303,2.701-0.592,6.05-0.592C23.011,30.61,25.725,30.899,25.725,31.202z"/>
		<path fill="#2BB232" d="M25.462,10.46L25.462,10.46c-3.198-3.199-8.387-3.199-11.586,0l0,0c-2.883,2.883-3.207,8.312-0.761,11.573
			l6.555,9.466l6.554-9.466C28.67,18.771,28.346,13.343,25.462,10.46z M19.749,18.878c-1.494,0-2.705-1.211-2.705-2.704
			c0-1.494,1.211-2.705,2.705-2.705c1.493,0,2.704,1.211,2.704,2.705C22.453,17.667,21.242,18.878,19.749,18.878z"/>
		<circle fill="#137715" cx="19.628" cy="16.382" r="7.517"/>
		<circle fill="#FFFFFF" cx="19.628" cy="16.382" r="7.047"/>
		<polygon fill="#918F90" points="23.503,14.372 23.498,20.712 15.831,20.712 15.831,14.155 15.681,14.155 15.681,20.472 
			15.681,20.845 16.108,20.845 23.23,20.845 23.657,20.845 23.657,20.472 23.657,14.355 		"/>
		<path fill="#1DA7ED" d="M22.84,11.992c-0.022-0.045-0.068-0.073-0.119-0.073h-6.104c-0.05,0-0.097,0.028-0.119,0.073l-0.817,1.637
			v0.712c0,0.314,0.254,0.569,0.569,0.569c0.314,0,0.57-0.255,0.57-0.569v-0.712h1.139h0.001v0.712c0,0.314,0.255,0.569,0.569,0.569
			s0.57-0.255,0.57-0.569v-0.712h1.14v0.712c0,0.314,0.255,0.569,0.569,0.569s0.57-0.255,0.57-0.569v-0.712h1.14v0.712
			c0,0.314,0.255,0.569,0.569,0.569s0.569-0.255,0.569-0.569v-0.712L22.84,11.992z"/>
			<path fill="#1DA7ED" d="M17.816,20.712V19.35c0-0.603,0.394-1.09,0.881-1.09c0.486,0,0.881,0.487,0.881,1.09v1.362H17.816z"/>
			<path fill="#1DA7ED" d="M15.832,20.712V19.35c0-0.603,0.379-1.09,0.846-1.09s0.845,0.487,0.845,1.09v1.362H15.832z"/>
			<path fill="#1DA7ED" d="M19.841,20.712V19.35c0-0.603,0.377-1.09,0.841-1.09s0.84,0.487,0.84,1.09v1.362H19.841z"/>
			<path fill="#1DA7ED" d="M21.808,20.712V19.35c0-0.603,0.378-1.09,0.846-1.09c0.467,0,0.845,0.487,0.845,1.09v1.362H21.808z"/>
			<path fill="#99E7FF" d="M19.1,13.629v0.712c0,0.314,0.254,0.569,0.569,0.569c0.314,0,0.57-0.255,0.57-0.569v-0.712v-1.71H19.1
				V13.629z"/>
			<path fill="#99E7FF" d="M21.948,11.919h-0.854l0.285,1.71v0.712c0,0.314,0.255,0.569,0.569,0.569s0.57-0.255,0.57-0.569v-0.712
				L21.948,11.919z"/>
			<path fill="#99E7FF" d="M16.82,13.629v0.712c0,0.314,0.255,0.569,0.569,0.569s0.57-0.255,0.57-0.569v-0.712l0.284-1.71H17.39
				L16.82,13.629z"/>
		<path fill="#1DA7ED" d="M22.008,16.527h-4.827c-0.043,0-0.077-0.132-0.077-0.294s0.034-0.293,0.077-0.293h4.827
			c0.043,0,0.078,0.131,0.078,0.293S22.051,16.527,22.008,16.527z"/>
</svg>