<?xml version="1.0" encoding="utf-8"?>
<svg version="1.1" id="Layer_1" xmlns="http://www.w3.org/2000/svg" xmlns:xlink="http://www.w3.org/1999/xlink" x="0px" y="0px"
	 width="40px" height="40px" viewBox="0 0 40 40" enable-background="new 0 0 40 40" xml:space="preserve">
<path fill="#F1B14F" d="M35.789,0H4.21C1.885,0,0,1.836,0,4.102v31.794C0,38.162,1.885,40,4.21,40h31.579
	C38.113,40,40,38.162,40,35.896V4.102C40,1.836,38.113,0,35.789,0z"/>
	<path fill="#F5F5F5" d="M25.03,10.457L25.03,10.457c-2.959-3.276-7.759-3.276-10.72,0l0,0c-3.045,2.769-2.967,8.511-0.704,11.851
		L19.671,32l6.065-9.692C27.998,18.968,28.189,13.016,25.03,10.457z M19.745,19.076c-1.382,0-2.503-1.24-2.503-2.769
		c0-1.529,1.121-2.77,2.503-2.77c1.381,0,2.502,1.24,2.502,2.77C22.247,17.836,21.126,19.076,19.745,19.076z"/>
	<circle fill="#F1B14F" cx="19.671" cy="15.734" r="5.552"/>
	<path fill="#F5F5F5" d="M23.673,13.473c0-0.252-0.172-0.458-0.383-0.458l0,0l-6.685,0.011c-0.102,0-0.198,0.048-0.271,0.135
		c-0.072,0.087-0.111,0.202-0.111,0.324l0.004,4.508c0.001,0.123,0.041,0.238,0.113,0.325c0.072,0.085,0.167,0.133,0.27,0.133
		c0,0,0,0,0.001,0l6.686-0.011c0.21-0.001,0.381-0.207,0.381-0.459L23.673,13.473z M22.871,13.475l-2.92,2.436l-2.927-2.426
		L22.871,13.475z M21.186,16.371l1.732,1.612l-5.94,0.01l1.743-1.622c0.083-0.078,0.098-0.222,0.034-0.322
		c-0.065-0.099-0.185-0.117-0.269-0.04l-1.876,1.747l-0.005-4.063l3.237,2.685c0.033,0.026,0.07,0.041,0.108,0.041
		c0.039,0,0.077-0.015,0.109-0.042l3.231-2.695l0.005,4.072l-1.876-1.746c-0.083-0.078-0.203-0.06-0.268,0.04
		C21.087,16.149,21.103,16.293,21.186,16.371z"/>
</svg>