<svg>
<defs>
<g id="trending-up"><path d="M 16,6L 18.29,8.29L 13.41,13.17L 9.41,9.17L 2,16.59L 3.41,18L 9.41,12L 13.41,16L 19.71,9.71L 22,12L 22,6L 16,6 Z "/></g>
<g id="heart-broken"><path d="M 11.9993,21.35L 10.5503,20.0331C 5.40133,15.361 1.99933,12.274 1.99933,8.49798C 1.99933,5.41399 4.4153,2.99798 7.49933,2.99798C 8.16538,2.99798 8.82075,3.11625 9.43722,3.33386L 13,9.35011L 9,14.3501L 11.9998,21.3496L 11.9993,21.35 Z M 16.4993,2.99798C 19.5833,2.99798 21.9993,5.41399 21.9993,8.49798C 21.9993,12.274 18.5973,15.361 13.4483,20.0331L 12.0002,21.3493L 11,14.3501L 15.5,9.35012L 12.8528,4.26896C 13.8743,3.47236 15.1654,2.99798 16.4993,2.99798 Z "/></g>
</defs>
</svg>
