<?xml version="1.0" encoding="utf-8"?>
<!-- Generator: Adobe Illustrator 15.1.0, SVG Export Plug-In . SVG Version: 6.00 Build 0)  -->
<!DOCTYPE svg PUBLIC "-//W3C//DTD SVG 1.1//EN" "http://www.w3.org/Graphics/SVG/1.1/DTD/svg11.dtd">
<svg version="1.1" id="Layer_1" xmlns="http://www.w3.org/2000/svg" xmlns:xlink="http://www.w3.org/1999/xlink" x="0px" y="0px"
	 width="55px" height="55px" viewBox="0 0 55 55" enable-background="new 0 0 55 55" xml:space="preserve">
<circle fill="#23A1CC" cx="27.5" cy="27.5" r="27"/>
<path fill="#FFFFFF" d="M27.5,30.125L27.5,30.125c-2.233,0-3.938-1.704-3.938-3.938v-5.25c0-2.101,1.705-3.938,3.938-3.938l0,0
	c2.097,0,3.938,1.705,3.938,3.938v5.25C31.438,28.285,29.597,30.125,27.5,30.125z"/>
<path fill="#FFFFFF" d="M32.75,23.563v3.281c0,2.497-2.36,4.594-4.985,4.594h-0.529c-2.625,0-4.985-2.097-4.985-4.594v-3.281
	c-0.789,0-1.313,0.524-1.313,1.313v1.969c0,2.89,2.361,5.378,5.25,5.778v2.753c-3.938,0-3.281,2.625-3.281,2.625h9.188
	c0,0,0.656-2.625-3.281-2.625v-2.753c2.89-0.528,5.25-2.889,5.25-5.778v-1.969C34.063,24.086,33.534,23.563,32.75,23.563z"/>
</svg>
