<?xml version="1.0" encoding="utf-8"?>
<!-- Generator: Adobe Illustrator 15.1.0, SVG Export Plug-In . SVG Version: 6.00 Build 0)  -->
<!DOCTYPE svg PUBLIC "-//W3C//DTD SVG 1.1//EN" "http://www.w3.org/Graphics/SVG/1.1/DTD/svg11.dtd">
<svg version="1.1" id="Layer_1" xmlns="http://www.w3.org/2000/svg" xmlns:xlink="http://www.w3.org/1999/xlink" x="0px" y="0px"
	 width="55px" height="55px" viewBox="0 0 55 55" enable-background="new 0 0 55 55" xml:space="preserve">
<circle fill="#23A1CC" cx="27.5" cy="27.5" r="27"/>
<path fill="#FFFFFF" d="M27.5,30.451L27.5,30.451c-2.51,0-4.427-1.916-4.427-4.427v-5.902c0-2.362,1.917-4.427,4.427-4.427l0,0
	c2.357,0,4.427,1.917,4.427,4.427v5.902C31.927,28.382,29.857,30.451,27.5,30.451z"/>
<path fill="#FFFFFF" d="M33.402,23.074v3.688c0,2.808-2.652,5.165-5.604,5.165h-0.596c-2.951,0-5.604-2.356-5.604-5.165v-3.688
	c-0.887,0-1.476,0.589-1.476,1.476v2.214c0,3.248,2.654,6.045,5.902,6.496v3.094c-4.427,0-3.688,2.951-3.688,2.951h10.329
	c0,0,0.737-2.951-3.688-2.951V33.26c3.249-0.594,5.902-3.248,5.902-6.496V24.55C34.878,23.662,34.283,23.074,33.402,23.074z"/>
<rect x="26.704" y="13.33" transform="matrix(-0.7852 0.6193 -0.6193 -0.7852 66.7556 31.8427)" fill="#231F20" width="2.302" height="28.34"/>
</svg>
