<?xml version="1.0" encoding="utf-8"?>
<svg version="1.1" id="Layer_1" xmlns="http://www.w3.org/2000/svg" xmlns:xlink="http://www.w3.org/1999/xlink" x="0px" y="0px"
	 width="17px" height="18px" viewBox="0 0 17 18" enable-background="new 0 0 17 18" xml:space="preserve">
<g>
	<polygon fill="#430951" points="2.469,18 2.469,11.127 -0.056,11.127 8.219,2.571 11.164,5.657 11.164,4.255 14.392,4.255
			14.392,8.742 17.056,11.408 14.531,11.267 14.531,18 		"/>
		<path fill="#FFFFFF" d="M4.573,15.336c0,0,4.08,4.005,7.574,0c0,0,0.647-2.648-2.298-2.788c0,0-0.719,0.184-0.719,1.63H7.624
			c0,0,0.071-1.332-0.841-1.647C6.782,12.53,4.504,12.671,4.573,15.336z"/>
		<circle fill="#FFFFFF" cx="8.413" cy="9.583" r="2.104"/>
		<rect x="7.939" y="12.214" fill="#FFFFFF" width="0.806" height="1.964"/>
		<ellipse fill="#FFFFFF" cx="13.077" cy="3.696" rx="2.066" ry="1.875"/>
			<path id="Facebook_Places_1_" fill="#FA0771" d="M16.764,2.773c-0.04-0.149-0.12-0.307-0.181-0.446
				C15.871,0.612,14.313,0,13.055,0c-1.686,0-3.538,1.129-3.787,3.457v0.474c0,0.021,0.008,0.2,0.019,0.289
				c0.139,1.109,1.014,2.287,1.666,3.396c0.704,1.188,1.435,2.359,2.156,3.526c0.445-0.763,0.891-1.535,1.326-2.277
				c0.119-0.218,0.258-0.437,0.377-0.646c0.078-0.136,0.23-0.275,0.298-0.405c0.704-1.286,1.837-2.583,1.837-3.861V3.427
				C16.946,3.288,16.773,2.804,16.764,2.773z M13.085,5.159c-0.492,0-1.035-0.248-1.304-0.93c-0.038-0.108-0.036-0.326-0.036-0.347
				V3.577c0-0.875,0.74-1.271,1.384-1.271c0.793,0,1.404,0.634,1.404,1.427S13.878,5.159,13.085,5.159z"/>
</g></svg>
