<svg>
<defs>
<g id="arrow_back"><path d="M15 8.25H5.87l4.19-4.19L9 3 3 9l6 6 1.06-1.06-4.19-4.19H15v-1.5z"/></g>
<g id="arrow_back"><path d="M20 11H7.83l5.59-5.59L12 4l-8 8 8 8 1.41-1.41L7.83 13H20v-2z"/></g>
<g id="arrow_back"><path d="M30 16.5H11.74l8.38-8.38L18 6 6 18l12 12 2.12-2.12-8.38-8.38H30v-3z"/></g>
<g id="arrow_back"><path d="M40 22H15.66l11.17-11.17L24 8 8 24l16 16 2.83-2.83L15.66 26H40v-4z"/></g>
<g id="close"><path d="M0 0h18v18H0zm0 0h18v18H0z" fill="none"/><path d="M14.53 4.53l-1.06-1.06L9 7.94 4.53 3.47 3.47 4.53 7.94 9l-4.47 4.47 1.06 1.06L9 10.06l4.47 4.47 1.06-1.06L10.06 9z"/></g>
<g id="close"><path d="M19 6.41L17.59 5 12 10.59 6.41 5 5 6.41 10.59 12 5 17.59 6.41 19 12 13.41 17.59 19 19 17.59 13.41 12z"/><path d="M0 0h24v24H0z" fill="none"/></g>
<g id="close"><path d="M28.5 9.62L26.38 7.5 18 15.88 9.62 7.5 7.5 9.62 15.88 18 7.5 26.38l2.12 2.12L18 20.12l8.38 8.38 2.12-2.12L20.12 18z"/><path d="M0 0h36v36H0z" fill="none"/></g>
<g id="close"><path d="M38 12.83L35.17 10 24 21.17 12.83 10 10 12.83 21.17 24 10 35.17 12.83 38 24 26.83 35.17 38 38 35.17 26.83 24z"/><path d="M0 0h48v48H0z" fill="none"/></g>
</defs>
</svg>