<?xml version="1.0" encoding="utf-8"?>
<svg x="0px" y="0px" width="22px" height="18px" viewBox="0 0 22 18" enable-background="new 0 0 22 18" xml:space="preserve">
<g>
	<g>
		<path fill="#FFFFFF" d="M8.924,15.866c0-0.447-0.365-0.808-0.815-0.808H1.955c-0.45,0-0.815,0.36-0.815,0.808
			c0,0.14,0.037,0.274,0.1,0.389H0.07v1.678h9.925v-1.678h-1.17C8.888,16.141,8.924,16.006,8.924,15.866z"/>
		<path fill="#FFFFFF" d="M7.877,2.028l5.199,3.279c0.404,0.205,0.908,0.074,1.156-0.314l0.248-0.39
			c0.264-0.413,0.143-0.959-0.273-1.221L9.15,0.194c-0.415-0.262-0.965-0.14-1.229,0.272l-0.25,0.39
			C7.424,1.244,7.519,1.752,7.877,2.028z"/>
		<path fill="#FFFFFF" d="M21.928,14.557l-0.004-0.078l-0.006-0.074c-0.004-0.051-0.012-0.095-0.018-0.14
			c-0.025-0.185-0.068-0.342-0.119-0.482c-0.105-0.282-0.256-0.496-0.438-0.654c-0.047-0.041-0.096-0.076-0.143-0.112l-0.146-0.107
			c-0.096-0.073-0.195-0.144-0.293-0.214c-0.096-0.069-0.195-0.139-0.293-0.206c-0.1-0.07-0.199-0.139-0.299-0.206
			c-0.197-0.137-0.398-0.271-0.6-0.401l-0.301-0.196l-0.305-0.194c-0.203-0.13-0.406-0.258-0.611-0.382
			c-0.205-0.126-0.41-0.253-0.617-0.375l-0.621-0.37l-0.625-0.36l-0.627-0.358l-0.631-0.352l-0.635-0.348l-0.637-0.343
			c-0.213-0.113-0.426-0.226-0.641-0.337c-0.215-0.112-0.428-0.224-0.643-0.333l-0.195,0.305l-0.985-0.461l1.1-1.72l-5.2-3.28
			L4.693,7.009l5.2,3.278l1.1-1.719l0.838,0.688l-0.195,0.306c0.191,0.147,0.384,0.292,0.578,0.437
			c0.191,0.145,0.385,0.288,0.58,0.433l0.582,0.426l0.586,0.424l0.59,0.417l0.592,0.413l0.596,0.407l0.6,0.399
			c0.201,0.134,0.402,0.267,0.605,0.396c0.201,0.13,0.404,0.261,0.607,0.389l0.307,0.189l0.307,0.188
			c0.207,0.124,0.414,0.249,0.621,0.369c0.104,0.06,0.209,0.119,0.314,0.18c0.104,0.059,0.209,0.118,0.314,0.177
			c0.105,0.057,0.211,0.116,0.318,0.171l0.16,0.086c0.053,0.028,0.105,0.057,0.162,0.08c0.223,0.098,0.48,0.14,0.781,0.115
			c0.152-0.014,0.313-0.041,0.492-0.098c0.043-0.014,0.088-0.027,0.135-0.045l0.07-0.026l0.072-0.028
			c0.098-0.041,0.201-0.092,0.314-0.156C21.93,14.776,21.932,14.66,21.928,14.557z"/>
		<path fill="#FFFFFF" d="M3.083,9.683l5.056,3.188c0.416,0.263,0.965,0.141,1.229-0.271l0.25-0.391
			c0.249-0.39,0.154-0.896-0.205-1.172l-5.2-3.28C3.809,7.554,3.307,7.684,3.059,8.072l-0.25,0.39
			C2.545,8.875,2.668,9.421,3.083,9.683z"/>
	</g>
</g>
</svg>
