<?xml version="1.0" encoding="utf-8"?>
<!DOCTYPE svg PUBLIC "-//W3C//DTD SVG 1.1//EN" "http://www.w3.org/Graphics/SVG/1.1/DTD/svg11.dtd">
<svg id="usersvg" version="1.1" xmlns="http://www.w3.org/2000/svg" xmlns:xlink="http://www.w3.org/1999/xlink" x="0px" y="0px"
	 width="20px" height="20px" viewBox="0 0 24 24" enable-background="new 0 0 24 24" xml:space="preserve">
<path fill="#000000" d="M12.023,13.429c-5.01,0-9.071,2.079-9.071,4.642v3.223h18.142V18.07C21.094,15.508,17.033,13.429,12.023,13.429z
	 M18.939,19.176H5.106v-1.247c0-0.728,3.549-2.382,6.917-2.382c3.37,0,6.917,1.654,6.917,2.382V19.176z"/>
<path fill="#000000" d="M11.802,3.293c-2.51,0-4.544,2.029-4.544,4.534c0,2.503,2.034,4.533,4.544,4.533c2.509,0,4.544-2.03,4.544-4.533
	C16.346,5.322,14.311,3.293,11.802,3.293z M11.802,10.239c-1.315,0-2.381-1.08-2.381-2.414c0-1.332,1.066-2.412,2.381-2.412
	c1.313,0,2.38,1.08,2.38,2.412C14.182,9.159,13.115,10.239,11.802,10.239z"/>
</svg>
