<?xml version="1.0" encoding="utf-8"?>
<!-- Generator: Adobe Illustrator 15.1.0, SVG Export Plug-In . SVG Version: 6.00 Build 0)  -->
<!DOCTYPE svg PUBLIC "-//W3C//DTD SVG 1.1//EN" "http://www.w3.org/Graphics/SVG/1.1/DTD/svg11.dtd">
<svg version="1.1" id="Layer_1" xmlns="http://www.w3.org/2000/svg" xmlns:xlink="http://www.w3.org/1999/xlink" x="0px" y="0px"
	 width="100px" height="100px" viewBox="0 0 100 100" enable-background="new 0 0 100 100" xml:space="preserve">
<path d="M0,0v100h100V0H0z M97.504,97.5h-95v-95h95V97.5z"/>
<path d="M50.519,54.815c-22.105,0-40,9.225-40,20.627v14.302h80V75.442C90.52,64.04,72.625,54.815,50.519,54.815z M80.995,80.363
	H20.013v-5.546c0-3.273,15.661-10.618,30.506-10.618c14.848,0,30.476,7.345,30.476,10.618V80.363L80.995,80.363z"/>
<path d="M49.543,9.744c-11.058,0-20.038,9.022-20.038,20.155c0,11.131,8.98,20.154,20.038,20.154
	c11.057,0,20.038-9.023,20.038-20.154C69.581,18.767,60.6,9.744,49.543,9.744z M49.543,40.606c-5.785,0-10.506-4.804-10.506-10.708
	c0-5.934,4.722-10.738,10.506-10.738c5.814,0,10.505,4.804,10.505,10.738C60.048,35.802,55.357,40.606,49.543,40.606z"/>
</svg>
