<?xml version="1.0" encoding="utf-8"?>
<!-- Generator: Adobe Illustrator 15.1.0, SVG Export Plug-In . SVG Version: 6.00 Build 0)  -->
<!DOCTYPE svg PUBLIC "-//W3C//DTD SVG 1.1//EN" "http://www.w3.org/Graphics/SVG/1.1/DTD/svg11.dtd">
<svg version="1.1" id="Layer_1" xmlns="http://www.w3.org/2000/svg" xmlns:xlink="http://www.w3.org/1999/xlink" x="0px" y="0px"
	 width="23px" height="23px" viewBox="0 0 23 23" enable-background="new 0 0 23 23" xml:space="preserve">
<circle fill="#7B519D" cx="11.5" cy="11.5" r="10.5"/>
<g id="g4780">
	<g id="g15" transform="matrix(1.452588,0,0,1.452588,-115.17955,-97.147891)">
		<path id="path17-6" fill="#F1F2F2" d="M90.825,76.699c-0.266-0.214-0.55-0.407-0.83-0.603c-0.557-0.391-1.066-0.423-1.484,0.208
			c-0.233,0.354-0.558,0.369-0.904,0.214c-0.943-0.427-1.67-1.087-2.096-2.046c-0.19-0.424-0.188-0.804,0.255-1.104
			c0.233-0.159,0.469-0.347,0.451-0.693c-0.026-0.452-1.123-1.963-1.558-2.123c-0.177-0.065-0.357-0.062-0.54,0
			c-1.017,0.341-1.437,1.178-1.033,2.167c1.202,2.953,3.318,5.007,6.231,6.262c0.167,0.071,0.351,0.1,0.446,0.126
			c0.663,0.007,1.439-0.633,1.663-1.268C91.644,77.232,91.188,76.99,90.825,76.699L90.825,76.699z"/>
		<path id="path19-1" fill="#F1F2F2" d="M87.56,70.741c2.128,0.327,3.11,1.339,3.382,3.484c0.026,0.198-0.048,0.497,0.235,0.502
			c0.294,0.005,0.223-0.287,0.226-0.486c0.026-2.02-1.736-3.893-3.782-3.962c-0.155,0.023-0.473-0.106-0.493,0.24
			C87.113,70.752,87.382,70.714,87.56,70.741L87.56,70.741z"/>
		<path id="path21-2" fill="#F1F2F2" d="M87.976,71.329c-0.204-0.025-0.475-0.121-0.524,0.163c-0.048,0.298,0.251,0.268,0.446,0.311
			c1.315,0.294,1.772,0.773,1.99,2.077c0.031,0.191-0.034,0.487,0.292,0.438c0.239-0.037,0.153-0.29,0.173-0.439
			C90.363,72.627,89.29,71.486,87.976,71.329L87.976,71.329z"/>
		<path id="path23" fill="#F1F2F2" d="M88.097,72.353c-0.137,0.003-0.272,0.017-0.321,0.164c-0.075,0.218,0.083,0.271,0.243,0.296
			c0.542,0.088,0.826,0.405,0.881,0.943c0.013,0.147,0.105,0.264,0.246,0.248c0.196-0.023,0.214-0.197,0.208-0.364
			C89.365,73.038,88.679,72.339,88.097,72.353L88.097,72.353z"/>
	</g>
</g>
</svg>
