<?xml version="1.0" encoding="utf-8"?>
<!-- Generator: Adobe Illustrator 15.1.0, SVG Export Plug-In . SVG Version: 6.00 Build 0)  -->
<!DOCTYPE svg PUBLIC "-//W3C//DTD SVG 1.1//EN" "http://www.w3.org/Graphics/SVG/1.1/DTD/svg11.dtd">
<svg version="1.1" id="Layer_1" xmlns="http://www.w3.org/2000/svg" xmlns:xlink="http://www.w3.org/1999/xlink" x="0px" y="0px"
	 width="22px" height="22px" viewBox="0 0 22 22" enable-background="new 0 0 22 22" xml:space="preserve">
<rect x="6.391" y="6.141" fill="#FFFFFF" width="9.656" height="1.063"/>
<rect x="6.391" y="9.609" fill="#FFFFFF" width="9.656" height="1.063"/>
<rect x="6.391" y="12.953" fill="#FFFFFF" width="3.516" height="1.063"/>
<path fill="#FFFFFF" d="M17.696,1.328H4.741c-1.117,0-2.304,1.142-2.304,2.516v14c0,1.373,1.187,2.484,2.304,2.484h12.955
	c1.116,0,2.335-1.205,2.335-2.578V3.781C20.031,2.408,18.813,1.328,17.696,1.328z M4.719,16.191V5.465
	c0-1.05,0.692-1.901,1.546-1.901h9.908c0.854,0,1.546,0.852,1.546,1.901v8.608l-2.159-0.057c-1.201-0.031-2.199,0.85-2.228,1.966
	l-0.056,2.111H6.265C5.411,18.094,4.719,17.242,4.719,16.191z"/>
</svg>
