<?xml version="1.0" encoding="utf-8"?>
<!-- Generator: Adobe Illustrator 15.1.0, SVG Export Plug-In . SVG Version: 6.00 Build 0)  -->
<!DOCTYPE svg PUBLIC "-//W3C//DTD SVG 1.1//EN" "http://www.w3.org/Graphics/SVG/1.1/DTD/svg11.dtd">
<svg version="1.1" id="Layer_1" xmlns="http://www.w3.org/2000/svg" xmlns:xlink="http://www.w3.org/1999/xlink" x="0px" y="0px"
	 width="32px" height="32px" viewBox="0 0 32 32" enable-background="new 0 0 32 32" xml:space="preserve">
<circle cx="16" cy="16" r="16"/>
<g>
	<g>
		<g>
			<path fill="#FFFFFF" d="M30.08,15.69C29.859,15.375,24.633,8,16.166,8S2.473,15.375,2.252,15.69
				c-0.336,0.488-0.336,1.133,0,1.615C2.473,17.621,7.699,25,16.166,25s13.693-7.379,13.914-7.694
				C30.42,16.823,30.42,16.178,30.08,15.69z M16.166,23.58c-7.822,0-12.75-7.08-12.75-7.08s4.928-7.085,12.75-7.085
				c7.827,0,12.75,7.085,12.75,7.085S23.993,23.58,16.166,23.58z"/>
		</g>
	</g>
	<g>
		<g>
			<path fill="#FFFFFF" d="M16.166,10.835c-3.129,0-5.665,2.535-5.665,5.665c0,3.129,2.534,5.67,5.665,5.67
				c3.131,0,5.671-2.541,5.671-5.67C21.837,13.37,19.297,10.835,16.166,10.835z M16.166,20.75c-2.343,0-4.25-1.904-4.25-4.25
				c0-2.345,1.907-4.25,4.25-4.25c2.346,0,4.25,1.905,4.25,4.25C20.416,18.846,18.512,20.75,16.166,20.75z"/>
		</g>
	</g>
</g>
</svg>
