<?xml version="1.0" encoding="utf-8"?>
<!-- Generator: Adobe Illustrator 15.1.0, SVG Export Plug-In . SVG Version: 6.00 Build 0)  -->
<!DOCTYPE svg PUBLIC "-//W3C//DTD SVG 1.1//EN" "http://www.w3.org/Graphics/SVG/1.1/DTD/svg11.dtd">
<svg version="1.1" id="Layer_1" xmlns="http://www.w3.org/2000/svg" xmlns:xlink="http://www.w3.org/1999/xlink" x="0px" y="0px"
	 width="39px" height="39px" viewBox="0 0 39 39" enable-background="new 0 0 39 39" xml:space="preserve">
<g>
	<g>
		<ellipse display="none" fill="#6A00FF" cx="19.52" cy="19.5" rx="19.48" ry="19.5"/>
		<g>
			<path fill="#333333" d="M25.172,8.965c0,4.953-3.506,8.967-7.822,8.967c-4.319,0-7.819-4.014-7.819-8.967
				C9.53,2.039,13.031,0,17.35,0C21.666,0,25.172,2.64,25.172,8.965z"/>
			<path fill="#333333" d="M21.889,29.055c0-4.149,3.445-7.516,7.693-7.516c0.004,0,0.006,0.002,0.012,0.002l-6.189-3.224
				c-6.533,4.88-12.209,0-12.209,0l-6.534,3.426c-0.196,0.06-0.649,0.79-0.649,0.79l-3.694,8.222
				c-1.334,3.029,1.957,3.057,1.957,3.057h21.393C22.572,32.511,21.889,30.871,21.889,29.055z"/>
		</g>
		<g>
			<ellipse cx="29.828" cy="29.61" rx="7.307" ry="7.513"/>
			<rect x="24.348" y="28.481" fill="#F2F2F2" width="10.963" height="2.255"/>
			<rect x="28.732" y="23.972" display="none" fill="#F2F2F2" width="2.193" height="11.271"/>
		</g>
	</g>
	<path fill="#603813" d="M29.83,20.215c-5.049,0-9.139,4.204-9.139,9.393c0,5.188,4.09,9.393,9.139,9.393
		c5.047,0,9.131-4.205,9.131-9.393C38.961,24.419,34.877,20.215,29.83,20.215z M29.83,37.12c-4.039,0-7.311-3.363-7.311-7.513
		s3.271-7.515,7.311-7.515c4.035,0,7.305,3.365,7.305,7.515S33.865,37.12,29.83,37.12z"/>
</g>
</svg>
