<?xml version="1.0" encoding="utf-8"?>
<svg x="0px" y="0px" width="20px" height="18px" viewBox="0 0 20 18" enable-background="new 0 0 20 18" xml:space="preserve">
<path fill="#EFA44B" d="M17.055,7.719h-2.472c-0.06,0-0.115,0.014-0.172,0.026c-0.072-0.005-0.141-0.026-0.214-0.026H5.802
	c-0.073,0-0.142,0.021-0.214,0.026C5.533,7.732,5.477,7.719,5.417,7.719H2.943c-0.434,0-0.786,0.352-0.786,0.787v8.707
	C2.158,17.648,2.51,18,2.943,18H10c0,0,0,0,0,0h7.055c0.436,0,0.787-0.352,0.787-0.787V8.505C17.842,8.071,17.49,7.719,17.055,7.719
	z"/>
<path fill="#328BB2" d="M19.492,8.246l-2.096-5.998c-0.112-0.315-0.411-0.527-0.741-0.527h-2.443h-0.343H6.13H5.664H3.347
	c-0.334,0-0.632,0.211-0.741,0.527L0.508,8.246C0.33,8.756,0.709,9.292,1.249,9.292h4.168c0.031,0,0.054-0.018,0.083-0.021
	c0.055,0.004,0.107,0.021,0.163,0.021h8.548c0.084,0,0.163-0.023,0.245-0.032c0.044,0.007,0.08,0.032,0.126,0.032h4.167
	C19.292,9.292,19.67,8.756,19.492,8.246z"/>
<path fill="#EF6E6F" d="M14.452,1.98C13.318,0.722,11.693,0,10,0C8.305,0,6.681,0.722,5.545,1.98C4.55,3.084,4,4.511,4,6
	c0,0.683,0.225,1.595,0.684,2.788c0.541,1.402,1.4,3.171,2.557,5.263C9.389,17.936,9.505,18,10,18s0.612-0.064,2.759-3.949
	c1.157-2.091,2.019-3.86,2.556-5.263C15.776,7.596,15.998,6.684,15.998,6C15.998,4.511,15.45,3.084,14.452,1.98z"/>
<path fill="#FFFFFF" d="M10.767,9.859c0,0.436-0.344,0.789-0.768,0.789l0,0c-0.424,0-0.768-0.354-0.768-0.789V6.681
	c0-0.435,0.344-0.788,0.768-0.788l0,0c0.424,0,0.768,0.353,0.768,0.788V9.859z"/>
<path fill="#FFFFFF" d="M10.788,4.252c0,0.344-0.354,0.623-0.789,0.623l0,0c-0.436,0-0.789-0.279-0.789-0.623V3.623
	C9.21,3.279,9.563,3,9.999,3l0,0c0.436,0,0.789,0.279,0.789,0.623V4.252z"/>
</svg>
