<svg>
<defs>
<g id="movieTicket">
	<svg x="0px" y="0px" width="24px" height="24px" viewBox="0 0 24 24" enable-background="new 0 0 24 24" xml:space="preserve">
<path fill="none" d="M3,3h18v18H3V3z"/>
<path fill="#FF0000" d="M18.002,12c0-0.825,0.672-1.499,1.496-1.499V7.5c0-0.825-0.672-1.499-1.496-1.499H6.001
	c-0.826,0-1.494,0.674-1.494,1.499v3.001c0.826,0,1.494,0.674,1.494,1.499c0,0.824-0.667,1.502-1.502,1.502V16.5
	c0,0.824,0.676,1.502,1.502,1.502h12.001c0.824,0,1.496-0.678,1.496-1.502v-2.998C18.674,13.502,18.002,12.824,18.002,12z
	 M14.684,15.599L12,13.873l-2.685,1.726l0.809-3.089l-2.467-2.017l3.18-0.187L12,7.35l1.153,2.963l3.18,0.188l-2.464,2.018
	L14.684,15.599z"/>
</svg>
</g>
<g id="Taxi">
<svg x="0px" y="0px" width="24px" height="24px" viewBox="0 0 24 24" enable-background="new 0 0 24 24" xml:space="preserve">
<path fill="none" d="M3,3h18v18H3V3z"/>
<path fill="#F1C40F" d="M17.191,7.507c-0.152-0.442-0.572-0.758-1.068-0.758H14.25V5.25h-4.5v1.499H7.874
	c-0.493,0-0.906,0.316-1.064,0.758L5.25,12v6.002c0,0.409,0.338,0.748,0.751,0.748h0.748c0.413,0,0.751-0.339,0.751-0.748v-0.754h9
	v0.754c0,0.409,0.339,0.748,0.748,0.748h0.754c0.409,0,0.748-0.339,0.748-0.748V12L17.191,7.507z M7.874,14.998
	c-0.622,0-1.125-0.5-1.125-1.125c0-0.619,0.503-1.125,1.125-1.125c0.624,0,1.125,0.506,1.125,1.125
	C8.999,14.498,8.498,14.998,7.874,14.998z M16.123,14.998c-0.619,0-1.125-0.5-1.125-1.125c0-0.619,0.506-1.125,1.125-1.125
	c0.625,0,1.125,0.506,1.125,1.125C17.248,14.498,16.748,14.998,16.123,14.998z M6.749,11.249l1.125-3.375h8.249l1.125,3.375H6.749z"
	/>
</svg>
</g>
<g id="doorDelivery">
<svg  x="0px" y="0px" width="24px" height="24px" viewBox="0 0 24 24" enable-background="new 0 0 24 24" xml:space="preserve">
<path fill="#EB4924" d="M7.59,17.09c-0.938,0-1.698,0.768-1.698,1.704c0,0.938,0.759,1.706,1.698,1.706
	c0.938,0,1.705-0.768,1.705-1.706C9.295,17.857,8.527,17.09,7.59,17.09z M2.474,3.447v1.705h1.705l3.071,6.472l-1.152,2.089
	c-0.137,0.239-0.214,0.521-0.214,0.818c0,0.938,0.768,1.706,1.706,1.706h10.23v-1.706H7.948c-0.12,0-0.213-0.093-0.213-0.213
	l0.026-0.103l0.767-1.389h6.352c0.641,0,1.203-0.35,1.491-0.879l3.054-5.533c0.068-0.12,0.103-0.265,0.103-0.41
	c0-0.469-0.384-0.853-0.854-0.853H6.063L5.262,3.447H2.474z M16.116,17.09c-0.938,0-1.697,0.768-1.697,1.704
	c0,0.938,0.759,1.706,1.697,1.706s1.704-0.768,1.704-1.706C17.82,17.857,17.055,17.09,16.116,17.09z"/>
</svg>
</g>
<g id="Bus">
<svg x="0px" y="0px" width="24px" height="24px" viewBox="0 0 24 24" enable-background="new 0 0 24 24" xml:space="preserve">
<path fill="#3B5999" d="M4.421,15.763c0,0.834,0.37,1.582,0.948,2.104v1.686c0,0.521,0.426,0.947,0.947,0.947h0.947
	c0.521,0,0.947-0.427,0.947-0.947v-0.947h7.579v0.947c0,0.521,0.427,0.947,0.948,0.947h0.947c0.521,0,0.947-0.427,0.947-0.947
	v-1.686c0.577-0.522,0.947-1.271,0.947-2.104V6.29c0-3.316-3.392-3.79-7.579-3.79S4.421,2.974,4.421,6.29V15.763z M7.737,16.711
	c-0.786,0-1.421-0.635-1.421-1.422c0-0.786,0.635-1.421,1.421-1.421c0.787,0,1.421,0.635,1.421,1.421
	C9.158,16.076,8.523,16.711,7.737,16.711z M16.263,16.711c-0.786,0-1.421-0.635-1.421-1.422c0-0.786,0.635-1.421,1.421-1.421
	c0.787,0,1.422,0.635,1.422,1.421C17.685,16.076,17.05,16.711,16.263,16.711z M17.685,11.026H6.316V6.29h11.369V11.026z"/>
</svg>
</g>
<g id="Train">
<svg x="0px" y="0px" width="24px" height="24px" viewBox="0 0 24 24" enable-background="new 0 0 24 24" xml:space="preserve">
	<path fill="#34465D" d="M18.301,16.445V8.85c0-2.511-2.35-3.059-5.41-3.141l0.684-1.359H16.5V3h-9v1.35h4.275l-0.685,1.369
		C8.274,5.799,5.7,6.357,5.7,8.85v7.596c0,1.307,1.071,2.395,2.331,2.674L6.6,20.551V21h2.007l1.8-1.801h3.394L15.6,21H17.4v-0.449
		l-1.35-1.352h-0.072C17.498,19.199,18.301,17.968,18.301,16.445z M12,17.85c-0.747,0-1.35-0.603-1.35-1.35s0.603-1.35,1.35-1.35
		s1.35,0.603,1.35,1.35S12.747,17.85,12,17.85z M16.5,13.801h-9V9.3h9V13.801z"/>
	</svg>
</g>
<g id="Food">
<svg x="0px" y="0px" width="24px" height="24px" viewBox="0 0 24 24" enable-background="new 0 0 24 24" xml:space="preserve">

<path fill="#3AAF85" d="M11.1,9.3H9.3V3H7.5v6.3H5.7V3H3.9v6.3c0,1.908,1.494,3.456,3.375,3.573V21h2.25v-8.127
	C11.406,12.756,12.9,11.208,12.9,9.3V3H11.1V9.3z M15.6,6.6v7.201h2.25V21h2.25V3C17.616,3,15.6,5.017,15.6,6.6z"/>
</svg>
	</g>
</defs>
</svg>
