<?xml version="1.0" encoding="utf-8"?>
<svg x="0px" y="0px" width="18px" height="18px" viewBox="0 0 18 18" enable-background="new 0 0 18 18" xml:space="preserve">
<path fill="#4C5BA8" d="M16.716,12.597c0,0-5.101-2.344-5.329-2.433V10.16h-4.78v0.005c-0.248,0.097-5.329,2.432-5.329,2.432
	l-1.244,5.402h6.573V18h2.391h2.389h6.578L16.716,12.597z"/>
<rect x="7.133" y="7.755" fill="#F0BA7A" width="3.718" height="3.54"/>
<polygon fill="#DFDFDF" points="6.646,10.16 8.998,10.274 11.351,10.16 10.8,17.999 7.2,17.999 "/>
<polygon fill="#F1592F" points="8.446,11.945 7.781,16.415 8.998,17.999 10.216,16.415 9.551,11.945 "/>
<polygon fill="#277EC0" points="14.005,13.104 12.401,10.613 11.379,10.16 9.031,17.89 6.619,10.16 5.596,10.613 3.991,13.104
	5.512,13.613 4.157,15.198 7.2,17.999 8.998,17.999 9.066,17.999 10.8,17.999 13.841,15.198 12.484,13.613 "/>
<polygon fill="#D64331" points="9.275,10.301 8.723,10.301 7.781,11.263 8.446,11.945 9.551,11.945 10.216,11.263 "/>
<polygon fill="#F1F3F7" points="11.351,10.16 10.854,9.255 9.004,10.309 7.144,9.255 6.646,10.16 7.643,12.142 9.002,10.4
	10.355,12.142 "/>
<ellipse fill="#505666" cx="8.998" cy="4.189" rx="4.095" ry="4.189"/>
<path fill="#F7CFA2" d="M11.656,5.406V3.935c-0.997-0.425-1.357-1.472-1.357-1.472C9.081,4.273,6.205,4.104,6.205,4.104v1.302H5.845
	C6.01,7.585,7.339,9.255,8.998,9.255c1.633,0,2.988-1.698,3.156-3.849H11.656L11.656,5.406z"/>
</svg>
