<?xml version="1.0" encoding="utf-8"?>
<svg version="1.1" id="Layer_1" xmlns="http://www.w3.org/2000/svg" xmlns:xlink="http://www.w3.org/1999/xlink" x="0px" y="0px"
	 width="15px" height="15px" viewBox="0 0 15 15" enable-background="new 0 0 15 15" xml:space="preserve">
<circle fill="none" stroke="#E91E63" stroke-width="1.25" stroke-miterlimit="10" cx="7.412" cy="7.5" r="6.5"/>
<path fill="#E91E63" stroke="#E91E63" stroke-width="0.25" stroke-miterlimit="10" d="M5.896,6.175c0,0.441-0.388,0.799-0.867,0.799
	l0,0c-0.479,0-0.866-0.357-0.866-0.799V6.038c0-0.44,0.388-0.798,0.866-0.798l0,0c0.479,0,0.867,0.357,0.867,0.798V6.175z"/>
<path fill="#E91E63" stroke="#E91E63" stroke-width="0.25" stroke-miterlimit="10" d="M10.662,6.175
	c0,0.441-0.387,0.799-0.867,0.799l0,0c-0.478,0-0.865-0.357-0.865-0.799V6.038c0-0.44,0.388-0.798,0.865-0.798l0,0
	c0.48,0,0.867,0.357,0.867,0.798V6.175z"/>
<path fill="#E91E63" stroke="#E91E63" stroke-width="0.5" stroke-miterlimit="10" d="M4.446,9.868
	c0.658,0.802,1.738,1.331,2.966,1.331c1.225,0,2.307-0.529,2.966-1.331H4.446z"/>
</svg>
