<svg>
<defs>
<g id="group"><path d="M0 0h18v18H0z" fill="none"/><path d="M6 8c1.11 0 2-.9 2-2s-.89-2-2-2c-1.1 0-2 .9-2 2s.9 2 2 2zm6 0c1.11 0 2-.9 2-2s-.89-2-2-2c-1.11 0-2 .9-2 2s.9 2 2 2zM6 9.2c-1.67 0-5 .83-5 2.5V13h10v-1.3c0-1.67-3.33-2.5-5-2.5zm6 0c-.25 0-.54.02-.84.06.79.6 1.34 1.4 1.34 2.44V13H17v-1.3c0-1.67-3.33-2.5-5-2.5z"/></g>
<g id="group"><path d="M0 0h24v24H0z" fill="none"/><path d="M16 11c1.66 0 2.99-1.34 2.99-3S17.66 5 16 5c-1.66 0-3 1.34-3 3s1.34 3 3 3zm-8 0c1.66 0 2.99-1.34 2.99-3S9.66 5 8 5C6.34 5 5 6.34 5 8s1.34 3 3 3zm0 2c-2.33 0-7 1.17-7 3.5V19h14v-2.5c0-2.33-4.67-3.5-7-3.5zm8 0c-.29 0-.62.02-.97.05 1.16.84 1.97 1.97 1.97 3.45V19h6v-2.5c0-2.33-4.67-3.5-7-3.5z"/></g>
<g id="group"><path d="M0 0h48v48H0z" fill="none"/><path d="M32 22c3.31 0 5.98-2.69 5.98-6s-2.67-6-5.98-6c-3.31 0-6 2.69-6 6s2.69 6 6 6zm-16 0c3.31 0 5.98-2.69 5.98-6s-2.67-6-5.98-6c-3.31 0-6 2.69-6 6s2.69 6 6 6zm0 4c-4.67 0-14 2.34-14 7v5h28v-5c0-4.66-9.33-7-14-7zm16 0c-.58 0-1.23.04-1.93.11C32.39 27.78 34 30.03 34 33v5h12v-5c0-4.66-9.33-7-14-7z"/></g>
</defs>
</svg>