<?xml version="1.0" encoding="utf-8"?>
<!-- Generator: Adobe Illustrator 15.1.0, SVG Export Plug-In . SVG Version: 6.00 Build 0)  -->
<!DOCTYPE svg PUBLIC "-//W3C//DTD SVG 1.1//EN" "http://www.w3.org/Graphics/SVG/1.1/DTD/svg11.dtd">
<svg version="1.1" id="Layer_1" xmlns="http://www.w3.org/2000/svg" xmlns:xlink="http://www.w3.org/1999/xlink" x="0px" y="0px"
	 width="55px" height="55px" viewBox="0 0 55 55" enable-background="new 0 0 55 55" xml:space="preserve">
<circle fill="#23A1CC" cx="27.5" cy="27.5" r="27"/>
<g>
	<path fill="#FFFFFF" d="M36.181,18.979c-0.521-0.523-1.371-0.523-1.892,0c-0.525,0.523-0.525,1.371,0,1.894
		c3.654,3.654,3.654,9.602,0,13.256c-0.525,0.522-0.525,1.371,0,1.893c0.261,0.263,0.603,0.393,0.946,0.393
		c0.343,0,0.686-0.13,0.945-0.393c2.278-2.275,3.531-5.303,3.531-8.521C39.712,24.28,38.459,21.254,36.181,18.979z"/>
	<path fill="#FFFFFF" d="M26.358,15.411l-6.733,6.732h-4.463v10.711h4.463l6.733,6.733c0.716,0.717,1.303,0.475,1.303-0.539V15.951
		C27.661,14.938,27.074,14.695,26.358,15.411z"/>
	<path fill="#FFFFFF" d="M31.426,21.504c-0.523-0.523-1.371-0.523-1.895,0s-0.523,1.371,0,1.893c2.263,2.262,2.263,5.943,0,8.206
		c-0.523,0.524-0.523,1.371,0,1.896c0.261,0.26,0.604,0.392,0.945,0.392c0.345,0,0.687-0.132,0.949-0.392
		C34.731,30.189,34.731,24.811,31.426,21.504z"/>
</g>
</svg>
