<?xml version="1.0" encoding="utf-8"?>
<!-- Generator: Adobe Illustrator 15.1.0, SVG Export Plug-In . SVG Version: 6.00 Build 0)  -->
<!DOCTYPE svg PUBLIC "-//W3C//DTD SVG 1.1//EN" "http://www.w3.org/Graphics/SVG/1.1/DTD/svg11.dtd">
<svg version="1.1" id="Layer_1" xmlns="http://www.w3.org/2000/svg" xmlns:xlink="http://www.w3.org/1999/xlink" x="0px" y="0px"
	 width="55px" height="55px" viewBox="0 0 55 55" enable-background="new 0 0 55 55" xml:space="preserve">
<circle fill="#23A1CC" cx="27.5" cy="27.5" r="25.5"/>
<g>
	<path fill="#FFFFFF" d="M35.698,19.452c-0.491-0.494-1.296-0.494-1.787,0c-0.496,0.494-0.496,1.295,0,1.789
		c3.452,3.452,3.452,9.069,0,12.519c-0.496,0.492-0.496,1.295,0,1.787c0.246,0.25,0.571,0.374,0.894,0.374
		c0.325,0,0.647-0.124,0.893-0.374c2.15-2.145,3.334-5.007,3.334-8.046C39.032,24.458,37.85,21.601,35.698,19.452z"/>
	<path fill="#FFFFFF" d="M26.421,16.082l-6.358,6.358h-4.215v10.115h4.215l6.358,6.359c0.677,0.678,1.231,0.45,1.231-0.51V16.593
		C27.652,15.635,27.098,15.407,26.421,16.082z"/>
	<path fill="#FFFFFF" d="M31.209,21.836c-0.496-0.494-1.295-0.494-1.791,0c-0.496,0.495-0.495,1.295,0,1.789
		c2.139,2.136,2.139,5.611,0,7.75c-0.495,0.494-0.495,1.295,0,1.791c0.248,0.245,0.57,0.372,0.895,0.372s0.648-0.127,0.896-0.372
		C34.329,30.04,34.329,24.96,31.209,21.836z"/>
</g>
<rect x="26.433" y="12.893" transform="matrix(-0.5888 0.8083 -0.8083 -0.5888 66.4817 21.9699)" fill="#231F20" width="2.438" height="30.005"/>
</svg>
