<?xml version="1.0" encoding="utf-8"?>
<svg version="1.1" id="Layer_1" xmlns="http://www.w3.org/2000/svg" xmlns:xlink="http://www.w3.org/1999/xlink" x="0px" y="0px"
	 width="80px" height="80px" viewBox="0 0 80 80" enable-background="new 0 0 80 80" xml:space="preserve">
<circle fill="#ACCE61" cx="40" cy="40" r="39.5"/>
	<path fill="#3066EF" d="M40.989,26.886h-6.438c-1.238,0-2.256,1.004-2.256,2.259v6.151c0,1.234,1.018,2.243,2.256,2.243h6.438
		c1.245,0,2.264-1.008,2.264-2.243v-6.151C43.253,27.89,42.234,26.886,40.989,26.886 M41.586,35.616h-7.624v-6.8h2.808v3.23
		l1.004-1.008l1.002,1.008v-3.23h2.81V35.616z"/>
	<path fill="#F7699F" d="M55.586,34.684c0.216,0.252,0.34,0.571,0.34,0.905v8.286l-1.223,11.85c-0.062,0.68-0.649,1.214-1.357,1.214
		h-1.606c-0.721,0-1.315-0.534-1.368-1.255l-1.021-13.229h0.002c0.088-0.041,1.491-0.411,1.913-0.787
		c0.433-0.385,0.782-0.858,0.967-1.311c0.175-0.473,1.142-3.665,1.175-3.765l-2.995,4.073c0,0-0.433,0.083-1.062,0.247
		c-1.654,0.371-4.679,1.048-5.121,1.131c-0.606,0.165-1.718,0.247-1.995-0.868c-0.288-1.107,0.387-1.662,1.101-1.799
		c0.72-0.13,5.135-1.056,5.135-1.056l0.881-1.522l1.545-2.667c0.227-0.406,0.658-0.666,1.121-0.666h1.975
		c0.342,0,0.678,0.165,0.897,0.425L55.586,34.684z"/>
	<path fill="#6394F7" d="M22.681,34.684c-0.219,0.252-0.334,0.571-0.334,0.905v8.286l1.215,11.85c0.073,0.68,0.66,1.214,1.358,1.214
		h1.609c0.71,0,1.322-0.534,1.358-1.255l1.043-13.229h-0.025c-0.066-0.041-1.485-0.411-1.913-0.787
		c-0.419-0.385-0.775-0.858-0.959-1.311c-0.173-0.473-1.142-3.665-1.174-3.765l2.993,4.073c0,0,0.432,0.083,1.078,0.247
		c1.638,0.371,4.663,1.048,5.11,1.131c0.602,0.165,1.713,0.247,1.994-0.868c0.288-1.107-0.383-1.662-1.111-1.799
		c-0.709-0.13-5.128-1.056-5.128-1.056l-0.864-1.522l-1.555-2.667c-0.232-0.406-0.665-0.666-1.126-0.666h-1.973
		c-0.342,0-0.67,0.165-0.898,0.425L22.681,34.684z"/>
	<path fill="#737475" d="M55.926,28.774c0,1.893-1.533,3.436-3.446,3.436c-1.885,0-3.426-1.543-3.426-3.436
		c0-1.913,1.541-3.436,3.426-3.436C54.393,25.339,55.926,26.861,55.926,28.774"/>
	<path fill="#737475" d="M30.536,26.47h-2.588c-0.621-0.679-1.525-1.131-2.537-1.131c-1.9,0-3.443,1.522-3.443,3.436
		c0,1.893,1.543,3.436,3.443,3.436c1.888,0,3.428-1.543,3.428-3.436c0-0.391-0.062-0.761-0.186-1.117h1.883
		c0.313,0,0.587-0.261,0.587-0.601C31.124,26.738,30.849,26.47,30.536,26.47"/>
</svg>