<?xml version="1.0" encoding="utf-8"?>
<svg version="1.1" id="Layer_1" xmlns="http://www.w3.org/2000/svg" xmlns:xlink="http://www.w3.org/1999/xlink" x="0px" y="0px"
	 width="26px" height="25px" viewBox="0 0 26 25" enable-background="new 0 0 26 25" xml:space="preserve">
	<path fill="#C69879" d="M15.083,1.225H9.99c-0.98,0-1.785,0.794-1.785,1.786v4.868c0,0.976,0.805,1.772,1.785,1.772h5.093
		c0.984,0,1.79-0.796,1.79-1.772V3.01C16.873,2.019,16.067,1.225,15.083,1.225 M15.555,8.131H9.523V2.751h2.222v2.554l0.794-0.796
		l0.792,0.796V2.751h2.223V8.131z"/>
	<path fill="#F440A3" d="M25.631,7.393c0.171,0.2,0.269,0.452,0.269,0.718v6.553l-0.969,9.375C24.882,24.575,24.418,25,23.856,25
		h-1.27c-0.569,0-1.04-0.425-1.082-0.991L20.697,13.54h0.002c0.069-0.029,1.18-0.322,1.514-0.62
		c0.342-0.308,0.618-0.679,0.765-1.039c0.139-0.373,0.903-2.899,0.928-2.978l-2.368,3.221c0,0-0.342,0.068-0.84,0.195
		c-1.309,0.293-3.701,0.83-4.051,0.898c-0.48,0.127-1.359,0.195-1.579-0.688c-0.228-0.876,0.306-1.315,0.871-1.425
		c0.569-0.104,4.061-0.835,4.061-0.835l0.698-1.205l1.223-2.11c0.179-0.32,0.521-0.527,0.887-0.527h1.563
		c0.269,0,0.537,0.132,0.708,0.337L25.631,7.393z"/>
	<path fill="#556CF2" d="M0.391,7.393c-0.174,0.2-0.264,0.452-0.264,0.718v6.553l0.96,9.375C1.145,24.575,1.608,25,2.162,25h1.273
		c0.562,0,1.045-0.425,1.074-0.991L5.333,13.54H5.315c-0.054-0.029-1.176-0.322-1.514-0.62c-0.333-0.308-0.614-0.679-0.76-1.039
		c-0.137-0.373-0.903-2.899-0.929-2.978l2.368,3.221c0,0,0.342,0.068,0.853,0.195c1.296,0.293,3.689,0.83,4.043,0.898
		c0.476,0.127,1.355,0.195,1.578-0.688c0.227-0.876-0.302-1.315-0.879-1.425c-0.562-0.104-4.059-0.835-4.059-0.835L5.333,9.065
		l-1.23-2.11c-0.184-0.32-0.526-0.527-0.891-0.527H1.652c-0.271,0-0.532,0.132-0.711,0.337L0.391,7.393z"/>
	<path fill="#737475" d="M25.899,2.717c0,1.499-1.213,2.72-2.727,2.72c-1.489,0-2.71-1.221-2.71-2.72
		c0-1.514,1.221-2.717,2.71-2.717C24.687,0,25.899,1.204,25.899,2.717"/>
	<path fill="#737475" d="M6.812,0.896H4.765C4.273,0.359,3.559,0,2.757,0C1.254,0,0.033,1.204,0.033,2.717
		c0,1.499,1.221,2.72,2.724,2.72c1.494,0,2.712-1.221,2.712-2.72c0-0.308-0.049-0.601-0.146-0.882h1.489
		c0.248,0,0.465-0.207,0.465-0.475C7.277,1.106,7.06,0.896,6.812,0.896"/>
</svg>