<?xml version="1.0" encoding="utf-8"?>
<svg version="1.1" id="Layer_1" xmlns="http://www.w3.org/2000/svg" xmlns:xlink="http://www.w3.org/1999/xlink" x="0px" y="0px"
	 width="40px" height="40px" viewBox="0 0 40 40" enable-background="new 0 0 40 40" xml:space="preserve">
	<path fill="#0780E2" d="M35.789,0H4.21C1.885,0,0,1.836,0,4.102v31.794C0,38.162,1.885,40,4.21,40h31.579
		C38.113,40,40,38.162,40,35.896V4.102C40,1.836,38.113,0,35.789,0z"/>
	<path fill="#E3E3E5" d="M22.022,27.922c-0.045-0.01-0.264-0.068-0.247-0.103c-3.904-2.1-7.263-5.285-9.284-9.16
		c-0.066,0.025-0.396-1.603-0.474-1.66c-1.078-0.783-2.079,0.338-3.362,0c2.318,6.348,7.194,11.455,13.386,14.078
		C22.048,30.025,25.338,28.606,22.022,27.922z"/>
	<path fill="#FFFFFF" d="M12.248,17.844c0.999-1.236,2.149-2.201,3.295-2.837c0.281-0.434,0.418-1.009,0.27-1.438
		c-0.594-1.714-0.9-3.432-0.921-5.152c-0.01-0.86-0.59-1.427-1.451-1.417L8.422,7.059C7.562,7.069,6.995,7.649,7.005,8.51
		c0.05,4.297,1.442,8.847,3.441,12.354C10.854,19.854,11.458,18.82,12.248,17.844z"/>
	<path fill="#FFFFFF" d="M31.561,25.256c-1.864,0-3.585-0.287-5.162-0.86c-0.431-0.287-1.004-0.144-1.435,0.286l-3.152,3.152
		c-0.68,0.813-1.425,1.503-2.189,2.054C23.149,31.869,27.222,33,31.561,33c0.861,0,1.435-0.573,1.435-1.435v-4.876
		C32.995,25.829,32.422,25.256,31.561,25.256z"/>
<linearGradient id="SVGID_1_" gradientUnits="userSpaceOnUse" x1="12.2476" y1="17.9932" x2="31.7969" y2="17.9932">
	<stop  offset="0.0121" style="stop-color:#000000;stop-opacity:0.1"/>
	<stop  offset="1" style="stop-color:#000000;stop-opacity:0"/>
</linearGradient>
<path fill="url(#SVGID_1_)" d="M14.868,8.153c-0.04,3.175,1.005,5.535,1.005,5.535c0.05,0.547-0.176,1.24-0.33,1.319
	c0,0-1.996,1.181-3.295,2.837c0.627,2.672,5.065,7.797,9.564,9.99c0.44-0.441,0.761-0.762,1.491-1.491
	c0.729-0.802,0.879-0.88,1.661-1.661c0.506-0.506,0.927-0.65,1.435-0.286c1.68,0.886,5.398,0.886,5.398,0.886L14.868,8.153z"/>
</svg>