<?xml version="1.0" encoding="utf-8"?>
<svg version="1.1" id="Layer_1" xmlns="http://www.w3.org/2000/svg" xmlns:xlink="http://www.w3.org/1999/xlink" x="0px" y="0px"
	 width="40px" height="40px" viewBox="0 0 40 40" enable-background="new 0 0 40 40" xml:space="preserve">
<path fill="#65DCE5" d="M35.789,0H4.21C1.885,0,0,1.836,0,4.102v31.794C0,38.162,1.885,40,4.21,40h31.579
	C38.113,40,40,38.162,40,35.896V4.102C40,1.836,38.113,0,35.789,0z"/>
<path fill="#646B79" d="M23.38,9.58c1.244-1.973,5.39-2.574,7.515-0.232c2.019,1.801,2.26,5.501-0.113,7.713
	C28.488,11.229,23.38,9.58,23.38,9.58z"/>
<path fill="#646B79" d="M7.432,16.991c-1.967-1.252-2.553-5.399-0.201-7.515c1.809-2.011,5.51-2.237,7.712,0.144
	C9.102,11.89,7.432,16.991,7.432,16.991z"/>
<polygon fill="#414753" points="21,6 17,6 17,8 18,8 18,9 20,9 20,8 21,8 "/>
<path fill="#333842" d="M23.991,17.913l-1.351-1.431l-3.079,2.905c-0.167-0.048-0.344-0.074-0.526-0.074
	c-0.158,0-0.312,0.021-0.459,0.057L14.4,15.049l-1.414,1.367l4.186,4.332c-0.041,0.158-0.066,0.324-0.066,0.495
	c0,1.065,0.865,1.931,1.931,1.931s1.931-0.863,1.931-1.931c0-0.147-0.018-0.291-0.05-0.429L23.991,17.913z"/>
<path fill="#0090FF" d="M29.158,29.672l-0.95-1.251c1.582-1.96,2.53-4.446,2.53-7.153c0-6.321-5.158-11.446-11.522-11.446
	c-6.362,0-11.521,5.125-11.521,11.446c0,2.607,0.88,5.01,2.356,6.935l-1.193,1.694l0.015,0.01c-0.521,0.814-0.268,1.953,0.597,2.563
	c0.889,0.627,2.086,0.444,2.674-0.39c0.016-0.021,0.031-0.058,0.047-0.079l0.785-1.113c1.799,1.155,3.94,1.828,6.241,1.828
	c2.295,0,4.432-0.669,6.227-1.816l0.893,1.172l0.014-0.01c0.616,0.744,1.737,0.879,2.529,0.275c0.813-0.618,0.96-1.783,0.344-2.596
	C29.203,29.718,29.175,29.691,29.158,29.672z M19.136,30.919c-5.341,0-9.672-4.33-9.672-9.672c0-5.341,4.331-9.671,9.672-9.671
	c5.343,0,9.673,4.33,9.673,9.671C28.809,26.589,24.479,30.919,19.136,30.919z"/>
</svg>