<?xml version="1.0" encoding="utf-8"?>
<!DOCTYPE svg PUBLIC "-//W3C//DTD SVG 1.1//EN" "http://www.w3.org/Graphics/SVG/1.1/DTD/svg11.dtd">
<svg version="1.1" id="Layer_1" xmlns="http://www.w3.org/2000/svg" xmlns:xlink="http://www.w3.org/1999/xlink" x="0px" y="0px"
	 width="27px" height="27px" viewBox="0 0 27 27" enable-background="new 0 0 27 27" xml:space="preserve">
<g>
	<path fill="#3E4E5C" d="M13.499,6.865c5.57,0,10.111,4.573,10.111,10.01c0,5.435-4.541,9.875-10.111,9.875
		c-5.571,0-10.11-4.488-10.11-9.923C3.389,11.382,7.928,6.865,13.499,6.865z"/>
	<path fill="#EBEBEB" d="M13.499,9.214c4.252,0,7.723,3.493,7.723,7.646c0,4.155-3.471,7.542-7.723,7.542
		c-4.255,0-7.721-3.429-7.721-7.583C5.778,12.663,9.244,9.214,13.499,9.214z"/>
	<path fill="#324D5B" d="M10.134,3.559c0-1.825,1.507-3.309,3.367-3.309c1.859,0,3.367,1.484,3.367,3.31
		c0,1.544-1.077,2.828-2.537,3.194v0.95h-1.662v-0.95C11.213,6.388,10.134,5.103,10.134,3.559z M12.671,5.909V4.381h1.66v1.527
		c1-0.336,1.712-1.251,1.712-2.338c0-1.372-1.138-2.484-2.542-2.484c-1.403,0-2.543,1.112-2.543,2.484
		C10.96,4.658,11.676,5.571,12.671,5.909z"/>
	<path fill="#E2574C" d="M22.456,7.189l0.811,0.792c0.447,0.438,0.447,1.148,0,1.584L22.995,9.83c-0.444,0.437-1.17,0.437-1.614,0
		l-0.812-0.793c-0.446-0.438-0.446-1.144,0-1.584l0.263-0.264C21.281,6.75,22.009,6.75,22.456,7.189z"/>
	<path fill="#51BBA8" d="M4.532,7.189L3.729,7.98c-0.443,0.438-0.443,1.148,0,1.584L3.998,9.83c0.442,0.437,1.159,0.437,1.605,0
		l0.801-0.793c0.443-0.438,0.443-1.144,0-1.584L6.138,7.189C5.695,6.75,4.976,6.75,4.532,7.189z"/>
	<path fill="#E2574C" d="M17.712,15.986h-3.369v-4.142c0-0.457-0.379-0.828-0.844-0.828c-0.469,0-0.842,0.371-0.842,0.828v4.97
		c0,0.457,0.374,0.828,0.842,0.828h4.213c0.465,0,0.844-0.371,0.844-0.828C18.556,16.354,18.177,15.986,17.712,15.986z"/>
</g>
</svg>
