<?xml version="1.0" encoding="utf-8"?>
<svg version="1.1" id="Layer_1" xmlns="http://www.w3.org/2000/svg" xmlns:xlink="http://www.w3.org/1999/xlink" x="0px" y="0px"
	 width="18px" height="18px" viewBox="0 0 18 18" enable-background="new 0 0 18 18" xml:space="preserve">
<g>
	<path fill="#FFFFFF" d="M6.596,7.117V4c0-1.15,0.934-2.083,2.082-2.083c1.151,0,2.085,0.933,2.085,2.083v3.116
		C11.771,6.44,12.428,5.301,12.428,4c0.001-2.075-1.674-3.75-3.75-3.75C6.604,0.25,4.929,1.926,4.929,4
		C4.929,5.301,5.588,6.44,6.596,7.117z M14.799,10.975l-3.787-1.882C10.869,9.034,10.721,9,10.562,9H9.93V4
		c0-0.691-0.559-1.251-1.251-1.251c-0.692,0-1.25,0.559-1.25,1.251v8.952L4.571,12.35c-0.068-0.008-0.126-0.023-0.201-0.023
		c-0.258,0-0.49,0.109-0.658,0.273l-0.659,0.667l4.118,4.117c0.224,0.226,0.541,0.366,0.883,0.366h5.658
		c0.626,0,1.108-0.456,1.202-1.065l0.623-4.396c0.012-0.055,0.017-0.114,0.017-0.166C15.554,11.607,15.237,11.159,14.799,10.975z"/>
</g>
</svg>