<?xml version="1.0" encoding="utf-8"?>
<svg version="1.1" id="Layer_1" xmlns="http://www.w3.org/2000/svg" xmlns:xlink="http://www.w3.org/1999/xlink" x="0px" y="0px"
	 width="40px" height="40px" viewBox="0 0 40 40" enable-background="new 0 0 40 40" xml:space="preserve">
<path fill="#25B7D3" d="M35.789,0H4.21C1.885,0,0,1.836,0,4.102v31.794C0,38.162,1.885,40,4.21,40h31.579
	C38.113,40,40,38.162,40,35.896V4.102C40,1.836,38.113,0,35.789,0z"/>
	<path fill="#F7B4B4" d="M14.679,20.724c0,0,0.89,0.319,2.662,3.34c1.141,1.942,3.122,0,3.122,0s4.287-3.299,5.291-3.508
		c0.806-0.168,3.726-0.353,2.568,0.806C26.761,22.923,17.717,32,17.717,32l-4.161-3.389c0,0,1.474-3.721-0.571-6.411
		C11.122,19.751,14.562,20.27,14.679,20.724z"/>
	<polygon fill="#3E3E3F" points="9.327,31.731 17.717,32 13.556,28.611 	"/>
	<path fill="#FFFFFF" d="M31.578,19.06h-1.018c-0.124-5.208-4.146-9.45-9.263-9.916V8.34c0-0.188-0.115-0.34-0.254-0.34h-1.276
		c-0.141,0-0.255,0.152-0.255,0.34v0.798c-5.157,0.426-9.224,4.685-9.348,9.922H9.106c-0.193,0-0.35,0.152-0.35,0.34v0.827
		c0,0.188,0.157,0.341,0.35,0.341h22.472c0.191,0,0.35-0.152,0.35-0.341v-0.827C31.928,19.212,31.77,19.06,31.578,19.06z"/>
	<path fill="#E2E4E5" d="M20.341,19.09l10.219-0.03c-0.119-5.569-4.822-10.046-9.949-9.961c-0.037,0-0.27,0-0.27,0V19.09z"/>
	<polygon fill="#FBC8C8" points="14.658,29.509 17.717,32 27.433,22.285 	"/>
</svg>