<?xml version="1.0" encoding="utf-8"?>
<svg version="1.1" id="Layer_1" xmlns="http://www.w3.org/2000/svg" xmlns:xlink="http://www.w3.org/1999/xlink" x="0px" y="0px"
	 width="26px" height="22px" viewBox="0 0 26 22" enable-background="new 0 0 26 22" xml:space="preserve">
<g id="Design">
	<g>
		<g>
			<g>
				<g>
					<g>
						<path fill="#7EC5ED" d="M11.63,5.436c-0.256,0-0.466-0.208-0.466-0.463c0-0.258,0.209-0.463,0.466-0.463h1.357V3.718H2.877
							c-1.366,0-2.475,1.107-2.475,2.474v13c0,1.367,1.108,2.475,2.475,2.475h10.11V5.436H11.63z"/>
						<path fill="#5BAFDE" d="M23.098,3.718h-10.11v0.791h1.428c0.256,0,0.464,0.206,0.464,0.463c0,0.255-0.208,0.463-0.464,0.463
							h-1.428v16.23h10.11c1.367,0,2.477-1.107,2.477-2.475v-13C25.574,4.825,24.465,3.718,23.098,3.718z"/>
					</g>
					<g>
						<rect x="3.509" y="8.616" fill="#FFFFFF" width="6.9" height="8.439"/>
						<g>
							<path fill="#FACB46" d="M9.819,15.979c-0.039-0.733-2.531-0.4-2.531-2.174H6.959H6.63c0,1.588-2.493,1.44-2.533,2.174v1.373
								h5.722V15.979z"/>
						</g>
					</g>
					<g>
						<path fill="#EFEFEF" d="M2.286,6.948V19.02h10.702V6.948H2.286z M3.509,16.715V8.927h6.9v7.788H3.509z"/>
						<rect x="12.987" y="6.948" fill="#E0E0E0" width="10.719" height="12.072"/>
					</g>
					<rect x="14.313" y="8.564" fill="#51C7C0" width="8.476" height="1.896"/>
					<rect x="14.313" y="12.036" fill="#FFFFFF" width="8.476" height="0.946"/>
					<rect x="14.313" y="13.805" fill="#FFFFFF" width="8.476" height="0.947"/>
					<rect x="14.313" y="15.572" fill="#FFFFFF" width="8.476" height="0.946"/>
					<g>
						<rect x="11.781" y="0.666" fill="#9FE3E3" width="2.089" height="4.083"/>
						<rect x="13.046" y="0.666" fill="#7FCACA" width="1.267" height="4.083"/>
					</g>
				</g>
			</g>
		</g>
		<circle fill="#FACB46" cx="6.935" cy="12.482" r="1.851"/>
		<path fill="#FAAC46" d="M8.446,12.257c0.11,0,0.217-0.011,0.321-0.028c-0.124-0.901-0.895-1.597-1.831-1.597
			c-1.005,0-1.821,0.801-1.848,1.798c0.796-0.097,1.438-0.701,1.587-1.481C6.907,11.707,7.612,12.257,8.446,12.257z"/>
	</g>
</g>
</svg>
