<?xml version="1.0" encoding="utf-8"?>
<!-- Generator: Adobe Illustrator 15.1.0, SVG Export Plug-In . SVG Version: 6.00 Build 0)  -->
<!DOCTYPE svg PUBLIC "-//W3C//DTD SVG 1.1//EN" "http://www.w3.org/Graphics/SVG/1.1/DTD/svg11.dtd">
<svg version="1.1" id="Layer_1" xmlns="http://www.w3.org/2000/svg" xmlns:xlink="http://www.w3.org/1999/xlink" x="0px" y="0px"
	 width="23px" height="23px" viewBox="0 0 23 23" enable-background="new 0 0 23 23" xml:space="preserve">
<g>
	<path fill="#004860" d="M22.303,13.564c-1.14,5.965-6.899,9.877-12.866,8.738c-5.968-1.141-9.88-6.9-8.74-12.866
		s6.899-9.878,12.867-8.739C19.53,1.838,23.442,7.599,22.303,13.564"/>
	<path fill="#FF5B45" d="M11.499,15.752c-1.313,0-2.414-0.902-2.727-2.121c-2.067,1.121-3.49,3.475-3.49,6.197H11.5L11.499,15.752
		L11.499,15.752z"/>
	<path fill="#FFFFFF" d="M11.499,15.752L11.499,15.752l0.001-2.818h-0.001c-0.975,0-1.904,0.252-2.727,0.697
		C9.085,14.85,10.186,15.752,11.499,15.752"/>
	<path fill="#FFFFFF" d="M11.5,5.471L11.5,5.471c-0.536,1.361-1.931,2.335-3.57,2.335c-0.452,0-0.884-0.077-1.288-0.213
		c-0.015,0.152-0.022,0.305-0.022,0.46c0,2.696,2.188,4.88,4.88,4.88H11.5V5.471z"/>
	<path fill="#FCD07A" d="M11.499,5.471L11.499,5.471L11.5,3.172h-0.001c-2.539,0-4.624,1.941-4.857,4.42
		C7.046,7.729,7.478,7.806,7.93,7.806C9.569,7.806,10.964,6.833,11.499,5.471"/>
	<path fill="#EF3522" d="M14.228,13.631c-0.314,1.219-1.414,2.121-2.728,2.121v4.076h6.219
		C17.719,17.105,16.294,14.752,14.228,13.631"/>
	<path fill="#DCDCDC" d="M14.228,13.631c-0.822-0.445-1.748-0.697-2.728-0.697v2.818C12.813,15.752,13.913,14.85,14.228,13.631"/>
	<path fill="#DCDCDC" d="M11.5,5.471v7.462c2.692,0,4.88-2.185,4.88-4.88c0-0.155-0.008-0.309-0.022-0.46
		c-0.404,0.136-0.836,0.213-1.288,0.213C13.431,7.806,12.035,6.834,11.5,5.471"/>
	<path fill="#FFA033" d="M15.069,7.806c0.452,0,0.884-0.077,1.288-0.213c-0.233-2.479-2.318-4.42-4.857-4.42v2.299
		C12.035,6.834,13.431,7.806,15.069,7.806"/>
</g>
</svg>
