<?xml version="1.0" encoding="utf-8"?>
<svg x="0px" y="0px" width="27px" height="24px" viewBox="0 0 27 24" enable-background="new 0 0 27 24" xml:space="preserve">
<g>
	<path fill="#fff" d="M24.744,5.931h-0.14l-3.871,2.422c-0.819,0.036-1.564,0.385-2.114,0.925V7.107
		c0-1.779-1.445-3.225-3.225-3.225H3.226c-1.778,0-3.225,1.446-3.225,3.225v10.111c0,1.778,1.446,3.227,3.225,3.227h12.168
		c1.779,0,3.225-1.447,3.225-3.227v-2.062c0.55,0.541,1.295,0.891,2.114,0.929l3.871,2.421h0.14c2.257,0,2.257-2.26,2.257-3.222
		V9.159C27.001,8.192,27.001,5.931,24.744,5.931z"/>
</g>
</svg>
