<?xml version="1.0" encoding="utf-8"?>
<!-- Generator: Adobe Illustrator 15.1.0, SVG Export Plug-In . SVG Version: 6.00 Build 0)  -->
<!DOCTYPE svg PUBLIC "-//W3C//DTD SVG 1.1//EN" "http://www.w3.org/Graphics/SVG/1.1/DTD/svg11.dtd">
<svg version="1.1" id="Layer_1" xmlns="http://www.w3.org/2000/svg" xmlns:xlink="http://www.w3.org/1999/xlink" x="0px" y="0px"
	 width="55px" height="55px" viewBox="0 0 55 55" enable-background="new 0 0 55 55" xml:space="preserve">
<circle fill="#23A1CC" cx="27.5" cy="27.5" r="25.5"/>
<g>
	<path fill="#FFFFFF" d="M37.758,21.814h-0.126l-3.532,2.21c-0.749,0.032-1.428,0.351-1.93,0.844v-1.981
		c0-1.623-1.318-2.942-2.942-2.942H18.127c-1.622,0-2.942,1.319-2.942,2.942v9.225c0,1.623,1.319,2.943,2.942,2.943h11.101
		c1.624,0,2.942-1.318,2.942-2.943v-1.881c0.502,0.493,1.181,0.813,1.93,0.846l3.532,2.209h0.126c2.061,0,2.061-2.063,2.061-2.941
		v-5.587C39.818,23.877,39.818,21.814,37.758,21.814z"/>
</g>
</svg>
