<?xml version="1.0" encoding="utf-8"?>
<!-- Generator: Adobe Illustrator 15.1.0, SVG Export Plug-In . SVG Version: 6.00 Build 0)  -->
<!DOCTYPE svg PUBLIC "-//W3C//DTD SVG 1.1//EN" "http://www.w3.org/Graphics/SVG/1.1/DTD/svg11.dtd">
<svg version="1.1" id="Layer_1" xmlns="http://www.w3.org/2000/svg" xmlns:xlink="http://www.w3.org/1999/xlink" x="0px" y="0px"
	 width="55px" height="55px" viewBox="0 0 55 55" enable-background="new 0 0 55 55" xml:space="preserve">
<circle fill="#23A1CC" cx="27.5" cy="27.5" r="25.5"/>
<g>
	<path fill="#FFFFFF" d="M37.758,21.814h-0.126l-3.532,2.21c-0.748,0.032-1.428,0.351-1.93,0.844v-1.981
		c0-1.623-1.318-2.942-2.941-2.942H18.127c-1.622,0-2.942,1.319-2.942,2.942v9.224c0,1.623,1.319,2.943,2.942,2.943h11.102
		c1.623,0,2.941-1.318,2.941-2.943V30.23c0.502,0.494,1.182,0.813,1.93,0.848l3.532,2.209h0.126c2.061,0,2.061-2.063,2.061-2.939
		v-5.589C39.818,23.877,39.818,21.814,37.758,21.814z"/>
</g>
<rect x="25.704" y="13.724" transform="matrix(-0.5892 0.808 -0.808 -0.5892 65.2149 22.6312)" fill="#231F20" width="2.301" height="28.339"/>
</svg>
