<?xml version="1.0" encoding="utf-8"?>
<!-- Generator: Adobe Illustrator 15.1.0, SVG Export Plug-In . SVG Version: 6.00 Build 0)  -->
<!DOCTYPE svg PUBLIC "-//W3C//DTD SVG 1.1//EN" "http://www.w3.org/Graphics/SVG/1.1/DTD/svg11.dtd">
<svg version="1.1" id="Layer_1" xmlns="http://www.w3.org/2000/svg" xmlns:xlink="http://www.w3.org/1999/xlink" x="0px" y="0px"
	 width="230px" height="110px" viewBox="0 0 230 110" enable-background="new 0 0 230 110" xml:space="preserve">
<rect y="0.073" fill="#ACC7DD" width="230" height="109.19"/>
<rect y="76.221" fill="#D9E8E8" width="230" height="33.853"/>
<g>
	<g>
		<path fill="#C5D8D7" d="M190.988,104.832c0,2.099-33.578,3.799-75,3.799c-41.421,0-75-1.7-75-3.799c0-2.1,33.579-3.799,75-3.799
			C157.41,101.033,190.988,102.732,190.988,104.832"/>
		<path fill="#603814" d="M164.324,59.699c0.918-0.836-1.048-2.052-1.061-3.105c-0.014-1.054,2.449-1.38,1.389-3.024
			c-1.063-1.644,0.893-2.351,0.893-2.351l7.19-0.38l-0.013-0.387l8.085-0.283c0,0,2.034,0.531,1.188,2.259s1.645,1.836,1.766,2.885
			c0.122,1.049-1.674,2.429-0.656,3.18c1.019,0.752,3.966,2.499-0.125,4.312c-2.715,1.201-6.156,0.971-8.166,0.681
			c-0.312,0.106-5.642,1.888-9.813,0.487C160.701,62.531,163.41,60.535,164.324,59.699"/>
		<path fill="#FECE9A" d="M159.073,79.031l0.009,0.002l0,0l1.164-9.439l3.895-0.191l-2.521,10.152
			c0.001,0.08,0.016,0.289,0.111,0.504c0.119,0.27-0.305,1.492-0.684,1.414c-0.537-0.107-0.143-1.023-0.326-1.121
			c0,0-0.37-0.207-0.629,0.402s-0.176,0.887-0.021,1.201c0.191,0.385-0.684,0.421-1.262-0.025
			C158.029,81.328,158.567,80.05,159.073,79.031"/>
		<path fill="#FECE9A" d="M179.871,71.16c0,0,1.519,1.883,1.413,4.361c-0.104,2.477-1.928,8.451-1.955,9.518
			c-0.028,1.064,0.819,3.662,0.562,5.35c-0.26,1.689-1.871,8.313-1.522,9.269c0.351,0.956,0.965,3.4-0.193,3.628
			c-1.159,0.225-3.385,0.662-3.468,0.078c-0.084-0.582,1.063-3.799,1.01-5.377c-0.053-1.58-0.879-7.199-0.813-8.988
			c0.064-1.787,0.197-3.518-0.156-4.589c-0.352-1.071-1.691-6.987-1.592-9.638C173.156,74.771,176.112,72.355,179.871,71.16"/>
		<path fill="#55231A" d="M174.693,102.542c0.104-0.601,0.354-1.282,0.511-1.784l0,0c0.29-0.901-0.255-4.25-0.255-4.25
			c3.301-0.227,4.589,0,4.589,0c-0.36,1.127-0.69,3.782-0.69,3.782l0.063,0.458c0.141,0.491,0.555,1.42,0.619,1.963
			c0.077,0.647-0.322,0.973-0.917,1.214c-0.956,0.386-2.006,0.41-2.79,0.171C174.668,103.746,174.564,103.297,174.693,102.542"/>
		<path fill="#282B27" d="M179.494,102.506c0.016,0.072,0.027,0.143,0.035,0.205c0.077,0.647-0.322,0.973-0.917,1.214
			c-0.956,0.386-2.006,0.41-2.79,0.171c-1.154-0.35-1.258-0.799-1.129-1.554C176.514,103.92,179.125,102.691,179.494,102.506"/>
		<path fill="#FECE9A" d="M167.235,71.16c0,0-1.521,1.883-1.414,4.361c0.105,2.477,1.927,8.451,1.956,9.518
			c0.027,1.064-0.821,3.662-0.563,5.35c0.26,1.689,1.87,8.313,1.521,9.269s-0.963,3.4,0.194,3.628
			c1.161,0.225,3.386,0.662,3.47,0.078c0.082-0.582-1.066-3.799-1.014-5.377c0.055-1.58,0.881-7.199,0.814-8.988
			c-0.066-1.787-0.197-3.518,0.154-4.589c0.353-1.071,1.693-6.987,1.595-9.638C173.95,74.771,170.993,72.355,167.235,71.16"/>
		<path fill="#55231A" d="M172.409,102.542c-0.103-0.601-0.353-1.282-0.511-1.784l0,0c-0.289-0.901,0.252-4.25,0.252-4.25
			c-3.299-0.227-4.584,0-4.584,0c0.359,1.127,0.689,3.782,0.689,3.782l-0.063,0.458c-0.139,0.491-0.554,1.42-0.619,1.963
			c-0.075,0.647,0.322,0.973,0.916,1.214c0.956,0.386,2.006,0.41,2.792,0.171C172.436,103.746,172.539,103.297,172.409,102.542"/>
		<path fill="#282B27" d="M167.611,102.506c-0.016,0.072-0.029,0.143-0.037,0.205c-0.075,0.647,0.322,0.973,0.916,1.214
			c0.956,0.386,2.006,0.41,2.792,0.171c1.153-0.35,1.257-0.799,1.127-1.554C170.59,103.92,167.98,102.691,167.611,102.506"/>
		<path fill="#FECE9A" d="M179.287,77.961c0.741-0.711,2.346-1.594,2.346-1.594l3.205-7.105l3.695,0.299
			c0,0-1.359,2.962-5.332,8.027c0,0-1.288,2.604-2.633,1.998C179.227,78.977,178.549,78.672,179.287,77.961"/>
		<path fill="#FECE9A" d="M180.266,59.861c0,0-4.526-0.89-4.513-3.125c0,0-1.12,0.415-2.073,0.441
			c-0.957,0.026-2.059-0.545-2.059-0.545s-2.039,2.693-4.52,3.138c-0.33,1.96,2.971,4.669,6.563,4.669
			C176.83,64.439,180.52,61.748,180.266,59.861"/>
		<path fill="#EEB881" d="M176.83,58.561L176.83,58.561c-0.515-0.428-1.082-1.007-1.077-1.824c0,0-1.12,0.415-2.073,0.441
			c-0.738,0.02-1.561-0.314-1.9-0.47l-0.17,0.142c-0.004,0.023-0.006,0.049-0.009,0.076C171.914,57.227,174.35,59.291,176.83,58.561
			"/>
		<path fill="#F5FCFC" d="M159.529,69.633l3.123-8.438c1.582-1.451,6.174-2.101,6.174-2.101c0.898,1.819,3.416,2.104,4.309,2.1
			v-0.011c0,0,0.057,0.004,0.158,0.008c0.102-0.004,0.158-0.008,0.158-0.008v0.011c0.891,0.005,3.41-0.28,4.307-2.1
			c0,0,4.408,0.649,5.99,2.101c0,0,4.727,7.206,5.096,8.389l-4.438-0.355c-0.37-0.451-3.406-5.256-3.406-5.256
			s0.575,2.809-1.432,3.893c0,0,0.961,4.482,2.143,7.461c0,0-2.731,1.854-8.259,1.923v0.001c-0.053,0-0.105,0-0.158,0
			s-0.105,0-0.158,0v-0.001c-5.528-0.069-8.259-1.923-8.259-1.923c1.18-2.979,2.142-7.461,2.142-7.461
			c-1.911-1.033-1.482-3.631-1.438-3.873l-1.439,5.381L159.529,69.633z"/>
	</g>
	<g>
		<defs>
			<path id="SVGID_1_" d="M173.451,61.194v-0.011c0,0-0.057,0.004-0.158,0.008c-0.102-0.004-0.158-0.008-0.158-0.008v0.011
				c-0.893,0.005-3.41-0.278-4.309-2.1c0,0-4.592,0.649-6.174,2.101l-3.123,8.438l4.611-0.26l1.439-5.381
				c-0.045,0.242-0.474,2.84,1.438,3.873c0,0-0.962,4.482-2.142,7.461c0,0,2.73,1.854,8.259,1.923v0.001c0.053,0,0.105,0,0.158,0
				s0.105,0,0.158,0v-0.001c5.527-0.069,8.259-1.923,8.259-1.923c-1.182-2.979-2.143-7.461-2.143-7.461
				c2.007-1.084,1.432-3.893,1.432-3.893s3.036,4.805,3.406,5.256l4.438,0.355c-0.369-1.183-5.096-8.389-5.096-8.389
				c-1.582-1.451-5.99-2.101-5.99-2.101C176.861,60.916,174.342,61.199,173.451,61.194"/>
		</defs>
		<clipPath id="SVGID_2_">
			<use xlink:href="#SVGID_1_"  overflow="visible"/>
		</clipPath>
		<rect x="160.488" y="58.957" clip-path="url(#SVGID_2_)" fill="#FCC5D8" width="26.258" height="0.275"/>
		<rect x="160.488" y="60.285" clip-path="url(#SVGID_2_)" fill="#FCC5D8" width="26.258" height="0.275"/>
		<rect x="160.488" y="61.613" clip-path="url(#SVGID_2_)" fill="#FCC5D8" width="26.258" height="0.275"/>
		<rect x="160.488" y="62.94" clip-path="url(#SVGID_2_)" fill="#FCC5D8" width="26.258" height="0.276"/>
		<rect x="157.467" y="64.269" clip-path="url(#SVGID_2_)" fill="#FCC5D8" width="32.67" height="0.275"/>
		<rect x="157.467" y="65.598" clip-path="url(#SVGID_2_)" fill="#FCC5D8" width="32.67" height="0.275"/>
		<rect x="157.467" y="66.924" clip-path="url(#SVGID_2_)" fill="#FCC5D8" width="32.67" height="0.276"/>
		<rect x="157.467" y="68.253" clip-path="url(#SVGID_2_)" fill="#FCC5D8" width="32.67" height="0.274"/>
		<rect x="164.164" y="69.58" clip-path="url(#SVGID_2_)" fill="#FCC5D8" width="18.975" height="0.275"/>
		<rect x="164.164" y="70.908" clip-path="url(#SVGID_2_)" fill="#FCC5D8" width="18.975" height="0.275"/>
		<rect x="164.164" y="72.236" clip-path="url(#SVGID_2_)" fill="#FCC5D8" width="18.975" height="0.275"/>
		<rect x="164.164" y="73.564" clip-path="url(#SVGID_2_)" fill="#FCC5D8" width="18.975" height="0.275"/>
		<rect x="164.164" y="74.891" clip-path="url(#SVGID_2_)" fill="#FCC5D8" width="18.975" height="0.277"/>
		<rect x="164.164" y="76.221" clip-path="url(#SVGID_2_)" fill="#FCC5D8" width="18.975" height="0.275"/>
		<rect x="164.164" y="77.547" clip-path="url(#SVGID_2_)" fill="#FCC5D8" width="18.975" height="0.277"/>
		<rect x="164.164" y="78.875" clip-path="url(#SVGID_2_)" fill="#FCC5D8" width="18.975" height="0.277"/>
	</g>
	<g>
		<g opacity="0.1">
			<g>
				<defs>
					<rect id="SVGID_3_" x="166.225" y="65.833" width="13.85" height="2.274"/>
				</defs>
				<clipPath id="SVGID_4_">
					<use xlink:href="#SVGID_3_"  overflow="visible"/>
				</clipPath>
				<path clip-path="url(#SVGID_4_)" fill="#020202" d="M176.594,66.966h-3.126h-0.634h-3.128c-0.975,0-3.481-1.133-3.481-1.133
					s2.474,1.565,3.058,1.987c0.48,0.344,2.977,0.295,3.869,0.266c0.89,0.029,3.388,0.078,3.864-0.266
					c0.587-0.422,3.059-1.987,3.059-1.987S177.568,66.966,176.594,66.966"/>
			</g>
		</g>
		<path fill="#FECE9A" d="M165.039,51.568c-2.431-7.687,5.744-8.24,5.745-8.241c0.004,0,7.875-1.672,9.608,6.111
			c0,0,0.879,3.229-0.004,4.604c-1.16,1.809-3.845,3.042-5.83,3.316c-1.982,0.275-5.112-0.043-7.127-1.519
			C165.838,54.675,165.039,51.568,165.039,51.568"/>
		<path fill="#FECE9A" d="M165.41,52.197c0,0-0.654-0.604-1.061-0.077c-0.407,0.526,0.191,2.355,1.875,2.126
			C166.225,54.246,165.536,52.633,165.41,52.197"/>
		<path fill="#EEB881" d="M165.586,52.871c0,0-0.518-0.607-0.766-0.223c-0.248,0.385,0.043,0.8,0.628,1.027
			C165.448,53.675,164.9,52.513,165.586,52.871"/>
		<path fill="#FECE9A" d="M180.49,50.105c0,0,0.296-0.734,0.946-0.355c0.651,0.38,0.979,2.248-0.703,2.483
			C180.733,52.232,180.602,50.543,180.49,50.105"/>
		<path fill="#EEB881" d="M180.68,50.778c0,0,0.166-0.704,0.596-0.412c0.428,0.291,0.375,0.753-0.051,1.121
			C181.225,51.487,181.131,50.262,180.68,50.778"/>
		<g opacity="0.2">
			<g>
				<defs>
					<rect id="SVGID_5_" x="167.029" y="53.098" width="2.966" height="1.302"/>
				</defs>
				<clipPath id="SVGID_6_">
					<use xlink:href="#SVGID_5_"  overflow="visible"/>
				</clipPath>
				<path clip-path="url(#SVGID_6_)" fill="#ED7BB0" d="M167.039,53.957c0.094,0.341,0.828,0.524,1.641,0.409
					c0.814-0.115,1.4-0.485,1.305-0.826c-0.094-0.341-0.829-0.522-1.642-0.408C167.528,53.247,166.945,53.617,167.039,53.957"/>
			</g>
		</g>
		<g opacity="0.2">
			<g>
				<defs>
					<rect id="SVGID_7_" x="176.853" y="51.735" width="2.968" height="1.301"/>
				</defs>
				<clipPath id="SVGID_8_">
					<use xlink:href="#SVGID_7_"  overflow="visible"/>
				</clipPath>
				<path clip-path="url(#SVGID_8_)" fill="#ED7BB0" d="M176.861,52.594c0.094,0.341,0.829,0.525,1.645,0.409
					c0.814-0.116,1.396-0.485,1.303-0.826c-0.093-0.341-0.83-0.522-1.643-0.408C177.352,51.884,176.77,52.254,176.861,52.594"/>
			</g>
		</g>
		<path fill="#EEB881" d="M172.563,53.864c0.061,0.224,0.512,0.352,1.01,0.282c0.497-0.068,0.852-0.306,0.791-0.532
			c-0.063-0.225-0.512-0.352-1.011-0.282C172.855,53.4,172.502,53.639,172.563,53.864"/>
		<path fill="#352213" d="M168.018,52.37c0.101,0.375,0.607,0.623,1.135,0.552c0.522-0.074,0.869-0.439,0.767-0.816
			c-0.102-0.377-0.609-0.624-1.136-0.55C168.26,51.627,167.916,51.993,168.018,52.37"/>
		<path fill="#352213" d="M176.162,51.239c0.103,0.378,0.61,0.624,1.135,0.551c0.526-0.071,0.869-0.437,0.766-0.814
			c-0.099-0.376-0.608-0.624-1.132-0.551C176.404,50.499,176.063,50.863,176.162,51.239"/>
		<path fill="#603814" d="M180.377,50.39c0,0-0.984-1.612-1.459-1.864c0,0-10.79,3.862-12.693-0.709c0,0,0,1.783-0.587,2.823
			c-0.218,0.392-0.194,1.821-0.194,1.821s-0.852-0.696-1.177-0.176c0,0-1.392-1.961-0.324-5.104c1.066-3.144,3.296-4.345,6.347-4.14
			c0,0,2.232-0.918,4.693-0.17s3.526,1.76,4.556,3.002c1.029,1.243,2.253,4.055,1.898,3.875
			C180.951,49.503,180.377,50.39,180.377,50.39"/>
		<path fill="#FFFFFF" d="M173.857,54.625l2.659-0.443c0,0,0.243,1.52-2.179,1.925c-2.424,0.403-3.139-1.038-3.139-1.038
			L173.857,54.625z"/>
		<path fill="#EF6A93" d="M180.465,70.908h-7.039h-7.041l-9.648,12.35c5.449,2.518,16.689,2.994,16.689,2.994
			s11.235-0.477,16.688-2.994L180.465,70.908z"/>
		<path fill="#342828" d="M143.131,101.262c0,0,3.809,1,3.809,2.049c0,1.047-4.061,0.669-4.061,0.669s-4.189-1.261-4.252-1.444
			c-0.064-0.182,0-1.502,0-1.502h4.141L143.131,101.262z"/>
		<path fill="#342828" d="M127.811,101.262c0,0-3.807,1-3.807,2.049c0,1.047,4.058,0.669,4.058,0.669s4.188-1.261,4.251-1.444
			c0.066-0.182,0-1.502,0-1.502h-4.139L127.811,101.262z"/>
		<polygon fill="#618B8A" points="125.929,72.688 127.933,101.411 132.24,101.411 135.268,78.305 138.717,101.411 143.039,101.411 
			144.065,72.688 		"/>
		<path fill="#FECE9A" d="M148.896,74.699c0,0-0.146,0.393-0.479,0.754c-0.334,0.359-0.383,2.258,0.24,2.252
			c0.879-0.006,0.797-1.451,1.133-1.543c0,0,0.684-0.199,0.732,0.762c0.047,0.963-0.238,1.344-0.651,1.758
			c-0.507,0.508,0.805,0.807,1.942,0.317c1.532-0.659,1.435-2.675,1.242-4.3H148.896z"/>
		<path fill="#FECE9A" d="M131.48,51.179c-1.033-1.376-1.918-1.17-1.646-3.179c0,0,3.245-0.619,3.23-2.997
			c0,0,1.193,0.442,2.209,0.469c1.018,0.028,2.189-0.579,2.189-0.579s-0.266,2.565,2.6,3.106c0.352,2.086-0.348,2.287-2.044,3.358
			C136.779,52.142,132.436,52.448,131.48,51.179"/>
		<path fill="#EEB881" d="M132.094,46.962h-0.002c0.548-0.456,0.979-1.088,0.973-1.958c0,0,1.193,0.442,2.209,0.469
			c0.785,0.021,1.66-0.335,2.02-0.499l0.184,0.151c0.002,0.024,0.004,0.052,0.008,0.08
			C137.152,45.526,134.732,47.739,132.094,46.962"/>
		<path fill="#FDCC9B" d="M127.072,38.32c-0.374-8.293,8.229-7.694,8.23-7.693c0.002-0.001,8.604-0.6,8.23,7.693
			c0,0,0.01,3.462-1.283,4.757c-1.703,1.704-4.82,2.593-6.947,2.593s-5.273-0.777-6.946-2.593
			C127.035,41.646,127.072,38.32,127.072,38.32"/>
		<path fill="#FECE9A" d="M127.282,39.022c0,0-0.511-0.716-1.077-0.231c-0.567,0.486-0.455,2.464,1.35,2.467
			C127.555,41.258,127.291,39.493,127.282,39.022"/>
		<path fill="#EEB881" d="M127.273,39.746c0,0-0.365-0.704-0.729-0.341c-0.361,0.364-0.179,0.833,0.363,1.152
			C126.908,40.557,126.666,39.277,127.273,39.746"/>
		<path fill="#FECE9A" d="M143.451,39.022c0,0,0.51-0.716,1.074-0.231c0.569,0.486,0.38,2.464-1.423,2.467
			C143.103,41.258,143.442,39.493,143.451,39.022"/>
		<path fill="#EEB881" d="M143.459,39.746c0,0,0.363-0.704,0.728-0.341c0.363,0.364,0.181,0.833-0.364,1.152
			C143.822,40.557,144.069,39.277,143.459,39.746"/>
		<path fill="#EEB881" d="M134.352,41.221c0,0.245,0.439,0.444,0.981,0.444s0.983-0.199,0.983-0.444
			c0-0.247-0.441-0.447-0.983-0.447S134.352,40.974,134.352,41.221"/>
		<path fill="#FFFFFF" d="M135.303,43.637c-1.332,0-2.414-0.62-2.414-1.387h4.828C137.717,43.017,136.637,43.637,135.303,43.637"/>
		<path fill="#352213" d="M138.553,39.371c0,0.426,0.481,0.772,1.076,0.772c0.594,0,1.074-0.346,1.074-0.772
			c0-0.427-0.48-0.772-1.074-0.772C139.034,38.599,138.553,38.944,138.553,39.371"/>
		<path fill="#352213" d="M129.81,39.371c0,0.426,0.481,0.772,1.077,0.772c0.594,0,1.074-0.346,1.074-0.772
			c0-0.427-0.48-0.772-1.074-0.772C130.291,38.599,129.81,38.944,129.81,39.371"/>
		<path fill="#63453D" d="M132.349,38.075c-0.883-0.544-2.05-0.46-2.917,0.052c-0.211,0.125-0.471-0.114-0.262-0.24
			c1.004-0.594,2.406-0.688,3.435-0.055C132.812,37.958,132.557,38.204,132.349,38.075"/>
		<path fill="#63453D" d="M138.35,38.075c0.885-0.544,2.05-0.46,2.916,0.052c0.212,0.125,0.475-0.114,0.264-0.24
			c-1.006-0.594-2.405-0.688-3.436-0.055C137.888,37.958,138.143,38.204,138.35,38.075"/>
		<path fill="#491D02" d="M126.39,34.32c0.797-1.954,1.812-3.255,4.425-4.069c0.172-0.055,0.357-0.113,0.549-0.173
			c-0.455-0.399-0.381-0.97-0.381-0.97c0.531,0.54,1.594,0.478,1.594,0.478c-1.154-0.318-1.063-0.955-1.063-0.955
			c0.887,0.764,4.434,0.461,4.434,0.461s-0.012,0.007-0.032,0.018c1.755-0.1,3.447,0.257,4.544,1.683c0,0,2.826,0.307,3.77,3.191
			c0.941,2.883,0.582,5.316,0.582,5.316s-0.756-0.993-1.592,0.216c0,0-0.586-1.889-0.514-3.135c0,0-2.029-1.357-2.029-2.17
			c0,0-1.307,0.813-4.643,0.65c-3.334-0.163-4.855-0.777-5.727-0.416c-0.871,0.362-3.002,2.595-2.929,5.2
			c0,0-0.521-1.218-1.438-0.345C125.939,39.3,125.59,36.271,126.39,34.32"/>
		<path fill="#3B6969" d="M132.092,46.962c0,0-7.867,1.62-10.137,2.488c-2.271,0.871-9.337,10.384-9.337,10.384l-7.093,3.877
			l2.226,4.244l8.668-3.979l7.328-7.82c0,0-0.094,10.42,0.642,16.531h10.915h10.084c0,0,0.076-12.718,0.38-16.102l2.21,19.041
			l5.787-0.154c0,0-1.266-22.896-3.98-24.879C147.334,48.803,138.155,47,138.155,47s-0.22,1.466-3.188,1.466
			C133.287,48.466,132.623,47.872,132.092,46.962"/>
		<path fill="#1F4746" d="M138.439,47c-0.145,2.339-6.279,2.212-6.632-0.038c-0.043-0.264,0.528-0.26,0.571,0
			c0.254,1.627,5.373,1.902,5.49,0.038C137.886,46.736,138.457,46.734,138.439,47"/>
		<path fill="#1F4746" d="M145.387,72.893h-20.999c-0.366,0-0.366-0.41,0-0.41h20.999C145.756,72.482,145.756,72.893,145.387,72.893
			"/>
		<path fill="#603814" d="M104.219,53.116c0,0,0.844,1.063,5.102,1.228c0.563-0.898,0.322-6.244,0.316-7.128
			c-1.792-0.543-3.522-1.293-4.832-2.325c-0.654-0.515-1.35-1.158-1.79-1.792c-0.606,0.234-1.401-0.023-2.127-0.489
			c0,0,0.229,9.957-1.1,11.663C99.789,54.272,103.494,53.972,104.219,53.116"/>
		<path fill="#603814" d="M116.699,52.542c0,0-0.65,1.132-4.843,1.685c-0.718-0.84-1.427-6.163-1.58-7.042
			c1.68-0.702,3.262-1.604,4.378-2.749c0.558-0.571,1.134-1.271,1.458-1.94c0.64,0.176,1.384-0.151,2.021-0.68
			c0,0.001,1.545,9.896,3.164,11.467C121.298,53.282,117.569,53.324,116.699,52.542"/>
		<path fill="#FECE9A" d="M102.909,51.543c0,0,4.724-0.929,4.708-3.261c0,0,1.169,0.433,2.167,0.46
			c0.997,0.028,2.146-0.569,2.146-0.569s2.128,2.812,4.718,3.275c0.343,2.045-3.099,4.873-6.85,4.873
			C106.495,56.32,102.643,53.512,102.909,51.543"/>
		<path fill="#EEB881" d="M106.378,50.181C106.378,50.181,106.379,50.181,106.378,50.181c0.539-0.446,1.244-1.047,1.238-1.899
			c0,0,1.169,0.434,2.167,0.46c0.769,0.022,1.626-0.327,1.979-0.488l0.179,0.146c0.003,0.025,0.005,0.05,0.008,0.079
			C111.624,48.793,108.967,50.941,106.378,50.181"/>
		<path fill="#FECE9A" d="M101.71,42.317c-1.314-8.082,7.159-8,7.16-8c0.005,0,8.341-1.095,8.921,7.032c0,0,0.407,3.382-0.711,4.724
			c-1.467,1.764-4.413,2.816-6.489,2.942c-2.077,0.125-5.24-0.45-7.083-2.125C102.053,45.568,101.71,42.317,101.71,42.317"/>
		<path fill="#FECE9A" d="M101.995,42.99c0,0-0.581-0.67-1.079-0.163s-0.163,2.434,1.6,2.331
			C102.516,45.159,102.057,43.449,101.995,42.99"/>
		<path fill="#EEB881" d="M102.07,43.698c0,0-0.438-0.666-0.751-0.291c-0.314,0.375-0.08,0.824,0.487,1.104
			C101.807,44.511,101.42,43.275,102.07,43.698"/>
		<path fill="#FECE9A" d="M117.79,42.038c0,0,0.419-0.731,1.027-0.29s0.659,2.385-1.104,2.494
			C117.713,44.242,117.837,42.498,117.79,42.038"/>
		<path fill="#EEB881" d="M117.883,42.745c0,0,0.275-0.709,0.674-0.376c0.394,0.333,0.268,0.803-0.226,1.147
			C118.331,43.516,118.426,42.25,117.883,42.745"/>
		<g opacity="0.2">
			<g>
				<defs>
					<rect id="SVGID_9_" x="103.392" y="44.175" width="3.092" height="1.308"/>
				</defs>
				<clipPath id="SVGID_10_">
					<use xlink:href="#SVGID_9_"  overflow="visible"/>
				</clipPath>
				<path clip-path="url(#SVGID_10_)" fill="#ED7BB0" d="M103.395,44.925c0.044,0.358,0.772,0.604,1.622,0.55
					c0.854-0.054,1.51-0.387,1.465-0.744c-0.043-0.357-0.77-0.602-1.623-0.55C104.006,44.236,103.351,44.569,103.395,44.925"/>
			</g>
		</g>
		<g opacity="0.2">
			<g>
				<defs>
					<rect id="SVGID_11_" x="113.684" y="43.556" width="3.091" height="1.308"/>
				</defs>
				<clipPath id="SVGID_12_">
					<use xlink:href="#SVGID_11_"  overflow="visible"/>
				</clipPath>
				<path clip-path="url(#SVGID_12_)" fill="#ED7BB0" d="M113.685,44.306c0.044,0.357,0.77,0.603,1.623,0.55
					c0.853-0.054,1.507-0.387,1.466-0.743c-0.044-0.358-0.77-0.603-1.623-0.55C114.297,43.617,113.643,43.949,113.685,44.306"/>
			</g>
		</g>
		<path fill="#EEB881" d="M109.139,44.859c0.029,0.235,0.473,0.401,0.993,0.37c0.52-0.032,0.921-0.249,0.892-0.483
			c-0.026-0.237-0.471-0.402-0.992-0.371C109.512,44.407,109.112,44.623,109.139,44.859"/>
		<path fill="#FFFFFF" d="M110.134,45.943l2.72-0.164c0,0-0.065,1.53-2.542,1.678c-2.48,0.15-2.896-1.351-2.896-1.351
			L110.134,45.943z"/>
		<path fill="#352213" d="M104.642,43.375c0.046,0.396,0.529,0.689,1.08,0.655c0.549-0.034,0.959-0.38,0.912-0.776
			c-0.047-0.395-0.529-0.688-1.079-0.654C105.003,42.633,104.596,42.98,104.642,43.375"/>
		<path fill="#352213" d="M113.176,42.859c0.045,0.396,0.528,0.689,1.078,0.656c0.551-0.033,0.959-0.38,0.914-0.775
			c-0.046-0.396-0.53-0.69-1.081-0.656C113.538,42.119,113.128,42.465,113.176,42.859"/>
		<path fill="#603814" d="M117.513,42.378c0.352-0.713,1.056-0.73,1.056-0.73c-0.799-10.052-10.049-7.468-10.05-7.467
			c-0.002,0-9.975-1.199-7.69,8.891c0,0,0.882-0.754,1.648,0.446c0,0,0.008-1.42,1.394-3.266c0,0-0.372,0.695-0.429,1.909
			l12.469-0.995c-0.426-1.174-1.002-1.794-1.002-1.794C116.823,40.954,117.513,42.378,117.513,42.378"/>
		<path fill="#FECE9A" d="M115.814,63.277c0,0,1.584,2.387,1.494,5.523c-0.089,3.135-1.922,10.693-1.941,12.04
			c-0.02,1.351,0.876,4.64,0.621,6.776c-0.254,2.137-1.865,10.516-1.496,11.727c0.367,1.212,1.021,4.309-0.173,4.592
			c-1.196,0.281-3.489,0.824-3.579,0.086c-0.091-0.738,1.068-4.805,1-6.805c-0.067-1.999-0.964-9.117-0.91-11.381
			c0.054-2.263,0.176-4.453-0.198-5.812c-0.372-1.354-1.803-8.852-1.72-12.204C108.913,67.82,111.945,64.773,115.814,63.277"/>
		<path fill="#EE5132" d="M114.469,99.934c0,0-0.008,0.848,0.313,1.695c0.336,0.889,0.313,1.225-1.024,1.371
			c-1.336,0.146-2.59,0.029-2.624-0.311c-0.032-0.342,0.417-2.604,0.42-3.395c0,0-0.317,0.252-0.36,0.783
			c-0.044,0.535-0.498,1.826-0.641,2.9c-0.126,0.955-0.017,1.523,1.177,1.973c0.811,0.305,1.896,0.281,2.88-0.205
			c0.611-0.301,1.02-0.715,0.936-1.531c-0.084-0.82-0.683-2.322-0.705-2.773c-0.021-0.451-0.076-1.129-0.392-1.383
			C114.448,99.059,114.451,99.66,114.469,99.934"/>
		<path fill="#FECE9A" d="M103.917,63.229c0,0-1.554,2.375-1.425,5.513c0.128,3.136,2.057,10.708,2.093,12.058
			c0.038,1.35-0.816,4.632-0.536,6.771c0.28,2.139,1.996,10.531,1.645,11.739c-0.354,1.209-0.967,4.301,0.229,4.594
			c1.199,0.29,3.5,0.852,3.58,0.115c0.082-0.739-1.128-4.814-1.084-6.814c0.042-1.998,0.848-9.109,0.766-11.373
			c-0.083-2.264-0.232-4.457,0.124-5.811c0.356-1.352,1.692-8.836,1.567-12.191C110.876,67.828,107.806,64.758,103.917,63.229"/>
		<path fill="#EE5132" d="M105.724,99.898c0,0,0.02,0.849-0.291,1.693c-0.326,0.887-0.298,1.223,1.04,1.379
			c1.337,0.156,2.591,0.051,2.62-0.289c0.029-0.34-0.45-2.607-0.462-3.398c0,0,0.32,0.254,0.37,0.787
			c0.052,0.534,0.522,1.83,0.677,2.906c0.139,0.953,0.035,1.522-1.151,1.963c-0.81,0.299-1.894,0.264-2.884-0.229
			c-0.615-0.306-1.029-0.722-0.955-1.538c0.072-0.819,0.654-2.318,0.67-2.769c0.016-0.451,0.063-1.128,0.375-1.38
			C105.735,99.023,105.736,99.626,105.724,99.898"/>
		<path fill="#EE5132" d="M99.067,55.265c0.613-3.728,3.024-3.934,3.024-3.934c0.833-0.388,4.035-0.989,4.035-0.989
			s1.477,3.502,4.111,3.923c2.633-0.421,3.972-3.918,3.972-3.918s3.339,0.595,4.172,0.983s5.477,3.948,5.477,3.948l0.168,4.019
			l-6.713-4.861c0,1.883-1.523,2.641-1.523,2.641l0.221,6.526l-12.259-0.093l0.935-6.434c0,0-1.526-0.758-1.526-2.641
			c-1.536,3.633-2.509,16.953-2.509,16.953l-3.569-0.276C97.082,71.113,98.684,57.588,99.067,55.265"/>
		<path fill="#FECE9A" d="M100.651,71.39c0,0,0.074,0.345,0.313,0.677c0.241,0.332,0.039,1.963-0.494,1.918
			c-0.754-0.065-0.497-1.299-0.774-1.398c0,0-0.562-0.217-0.726,0.604c-0.165,0.821,0.031,1.168,0.333,1.553
			c0.37,0.466-0.793,0.637-1.707,0.142c-1.23-0.668-0.888-2.391-0.516-3.771L100.651,71.39z"/>
		<path fill="#970100" d="M115.969,63.41h-5.975h-0.21h-5.976c0,0-2.672,1.966-2.236,7.557c0.435,5.594,1.358,9.432,1.358,9.432
			h6.854h0.21h6.852c0,0,0.922-3.838,1.358-9.432C118.639,65.376,115.969,63.41,115.969,63.41"/>
		<path fill="#FECE9A" d="M46.401,79.752c0,0-0.031,0.352,0.111,0.718c0.141,0.366-0.544,1.956-1.058,1.829
			c-0.729-0.18-0.109-1.365-0.354-1.506c0,0-0.494-0.303-0.899,0.488c-0.408,0.79-0.315,1.164-0.128,1.59
			c0.228,0.52-0.978,0.512-1.737-0.118c-1.022-0.85-0.173-2.507,0.605-3.819L46.401,79.752z"/>
		<path fill="#FECE9A" d="M70.27,79.752c0,0,0.03,0.352-0.111,0.718s0.545,1.956,1.058,1.829c0.729-0.18,0.109-1.365,0.354-1.506
			c0,0,0.493-0.303,0.899,0.488c0.408,0.79,0.314,1.164,0.129,1.59c-0.228,0.52,0.977,0.512,1.735-0.118
			c1.022-0.85,0.174-2.507-0.605-3.819L70.27,79.752z"/>
		<path fill="#FFDCBE" d="M54.594,64.242c-1.09-1.452-2.373-1.463-2.085-3.58c0,0,3.773-0.426,3.755-2.934
			c0,0,1.259,0.465,2.332,0.496c1.071,0.028,2.308-0.613,2.308-0.613s0.313,2.723,3.097,3.223c0.371,2.201-0.721,2.467-2.51,3.596
			C60.183,65.256,55.601,65.578,54.594,64.242"/>
		<path fill="#F7C39C" d="M55.056,59.775C55.056,59.775,55.057,59.775,55.056,59.775c0.58-0.479,1.214-1.131,1.208-2.047
			c0,0,1.259,0.465,2.332,0.496c0.827,0.021,1.75-0.354,2.129-0.527l0.192,0.158c0.002,0.026,0.004,0.055,0.009,0.084
			C60.575,58.277,57.84,60.596,55.056,59.775"/>
		<path fill="#FFDCBE" d="M66.8,50.679c0.394-8.749-8.677-8.115-8.68-8.115c-0.003,0-9.076-0.633-8.68,8.115
			c0,0-0.013,3.652,1.353,5.018c1.796,1.796,5.085,2.735,7.327,2.735c2.241,0,5.561-0.82,7.325-2.735
			C66.84,54.186,66.8,50.679,66.8,50.679"/>
		<path fill="#C2B9AA" d="M55.863,49.82c0,0-0.902-0.086-1.444-0.14c-0.54-0.052-1.472-0.085-2.412,0.214
			c-0.939,0.299-1.107,0.41-1.247,0.441c0,0,1.535-0.425,2.219-0.382c0.683,0.044,2.119,0.138,2.51,0.121
			C55.882,50.056,55.982,49.97,55.863,49.82"/>
		<path fill="#C2B9AA" d="M60.15,49.82c0,0,0.902-0.086,1.444-0.14c0.54-0.052,1.473-0.085,2.411,0.214
			c0.939,0.299,1.107,0.41,1.247,0.441c0,0-1.534-0.425-2.218-0.382c-0.683,0.044-2.118,0.138-2.51,0.121
			C60.133,50.056,60.031,49.97,60.15,49.82"/>
		<g opacity="0.2">
			<g>
				<defs>
					<rect id="SVGID_13_" x="61.986" y="52.881" width="3.333" height="1.397"/>
				</defs>
				<clipPath id="SVGID_14_">
					<use xlink:href="#SVGID_13_"  overflow="visible"/>
				</clipPath>
				<path clip-path="url(#SVGID_14_)" fill="#F2449C" d="M65.319,53.585c0,0.385-0.749,0.695-1.669,0.693
					c-0.921-0.002-1.666-0.317-1.664-0.703c0.002-0.385,0.75-0.696,1.67-0.694C64.579,52.884,65.322,53.199,65.319,53.585"/>
			</g>
		</g>
		<path fill="#FFDCBE" d="M66.578,51.418c0,0,0.538-0.756,1.136-0.244c0.598,0.512,0.48,2.599-1.422,2.6
			C66.292,53.775,66.569,51.915,66.578,51.418"/>
		<path fill="#F7C39C" d="M66.587,52.182c0,0,0.385-0.742,0.768-0.36c0.383,0.382,0.188,0.878-0.385,1.213
			C66.971,53.036,67.23,51.687,66.587,52.182"/>
		<path fill="#FFDCBE" d="M49.526,51.418c0,0-0.539-0.756-1.137-0.244c-0.599,0.512-0.48,2.599,1.422,2.6
			C49.812,53.775,49.534,51.915,49.526,51.418"/>
		<path fill="#F7C39C" d="M49.517,52.182c0,0-0.386-0.742-0.767-0.36c-0.384,0.382-0.19,0.878,0.382,1.213
			C49.132,53.036,48.875,51.687,49.517,52.182"/>
		<path fill="#F9D0B2" d="M59.156,53.974c0,0.26-0.464,0.469-1.037,0.469s-1.038-0.209-1.038-0.469c0-0.259,0.465-0.469,1.038-0.469
			S59.156,53.715,59.156,53.974"/>
		<path fill="#F7C39C" d="M64.034,52.147l-0.01-0.1c0.021-0.001,0.534-0.027,0.843,0.211l-0.04,0.026
			C64.533,52.101,64.039,52.147,64.034,52.147"/>
		<path fill="#F7C39C" d="M63.94,52.343l0.031-0.098c0.021,0.003,0.522,0.086,0.72,0.378l-0.05,0.017
			C64.435,52.404,63.946,52.344,63.94,52.343"/>
		<path fill="#F7C39C" d="M52.055,52.147l0.01-0.1c-0.021-0.001-0.533-0.027-0.842,0.211l0.041,0.026
			C51.557,52.101,52.05,52.147,52.055,52.147"/>
		<path fill="#F7C39C" d="M52.149,52.343l-0.031-0.098c-0.021,0.003-0.521,0.086-0.719,0.378l0.05,0.017
			C51.655,52.404,52.144,52.344,52.149,52.343"/>
		<g opacity="0.2">
			<g>
				<defs>
					<rect id="SVGID_15_" x="50.876" y="52.881" width="3.334" height="1.397"/>
				</defs>
				<clipPath id="SVGID_16_">
					<use xlink:href="#SVGID_15_"  overflow="visible"/>
				</clipPath>
				<path clip-path="url(#SVGID_16_)" fill="#F2449C" d="M54.211,53.585c-0.001,0.385-0.749,0.695-1.67,0.693
					c-0.921-0.002-1.665-0.317-1.665-0.703c0.003-0.385,0.751-0.696,1.671-0.694C53.469,52.884,54.214,53.199,54.211,53.585"/>
			</g>
		</g>
		<path fill="#F7C39C" d="M62.237,55.762l-0.079-0.02c0.223-0.532-0.518-0.787-0.521-0.787l0.126-0.101
			c0.012,0.003,0.314,0.072,0.47,0.292C62.354,55.315,62.354,55.521,62.237,55.762"/>
		<path fill="#F7C39C" d="M54.001,55.762l0.079-0.02c-0.224-0.532,0.519-0.787,0.521-0.787l-0.127-0.101
			c-0.013,0.003-0.315,0.072-0.47,0.292C53.885,55.315,53.885,55.521,54.001,55.762"/>
		<path fill="#FFFFFF" d="M58.151,56.582c1.739,0,3.147-0.71,3.147-1.586h-6.296C55.003,55.872,56.413,56.582,58.151,56.582"/>
		<path fill="#282728" d="M63.269,51.965c0,0.396-0.448,0.719-1.001,0.719c-0.552,0-1-0.323-1-0.719c0-0.398,0.448-0.719,1-0.719
			C62.821,51.246,63.269,51.566,63.269,51.965"/>
		<path fill="#F8F2E5" d="M63.097,51.648c0,0.175-0.196,0.316-0.439,0.316c-0.243,0-0.44-0.142-0.44-0.316
			c0-0.174,0.197-0.315,0.44-0.315C62.9,51.333,63.097,51.475,63.097,51.648"/>
		<path fill="#282728" d="M54.764,51.965c0,0.396-0.448,0.719-1,0.719s-1-0.323-1-0.719c0-0.398,0.447-0.719,1-0.719
			S54.764,51.566,54.764,51.965"/>
		<path fill="#F8F2E5" d="M54.592,51.648c0,0.175-0.197,0.316-0.439,0.316c-0.243,0-0.44-0.142-0.44-0.316
			c0-0.174,0.197-0.315,0.44-0.315C54.396,51.333,54.592,51.475,54.592,51.648"/>
		<path fill="#3B6969" d="M64.038,52.859l-5.205,0l-0.168,0.019l-0.012,0.141c0,0.078,0.007,0.157,0.021,0.239
			c-0.377-0.077-0.836-0.043-1.13,0.017c0.017-0.085,0.025-0.172,0.025-0.255l-0.002-0.16l-5.205,0l-0.167,0.019L52.18,53.02
			c0,1.067,1.208,1.934,2.693,1.934c1.154,0,2.172-0.522,2.547-1.305c0.115-0.036,0.415-0.115,0.756-0.115
			c0.229,0,0.437,0.035,0.619,0.106c0.372,0.787,1.391,1.313,2.552,1.313c1.484,0,2.692-0.867,2.692-1.934L64.038,52.859z
			 M59.13,53.462l0.028-0.045l-0.052-0.022c-0.029-0.084-0.048-0.17-0.057-0.254h4.592c-0.085,0.851-1.095,1.534-2.295,1.534
			C60.313,54.674,59.407,54.177,59.13,53.462 M57.169,53.14c-0.009,0.094-0.03,0.19-0.063,0.286
			c-0.261,0.734-1.177,1.248-2.232,1.248c-1.217,0-2.208-0.669-2.296-1.534H57.169z"/>
		<path fill="#FECE9A" d="M52.166,80.047c0,0-1.434,1.465-1.247,3.367c0.188,1.9,2.18,6.465,2.244,7.283
			c0.061,0.818-0.685,2.822-0.375,4.115c0.311,1.293,2.117,6.359,1.807,7.098c-0.311,0.738-0.833,2.624,0.312,2.783
			c1.149,0.158,3.354,0.463,3.416,0.014c0.063-0.449-1.174-2.902-1.174-4.117c0-1.213,0.624-5.539,0.498-6.912
			c-0.123-1.371-0.311-2.699,0-3.525c0.312-0.828,1.433-5.389,1.248-7.424C58.896,82.729,55.905,80.914,52.166,80.047"/>
		<path fill="#FECE9A" d="M64.865,80.047c0,0,1.432,1.465,1.246,3.367c-0.187,1.9-2.181,6.465-2.244,7.283
			c-0.062,0.818,0.688,2.822,0.375,4.115s-2.119,6.359-1.807,7.098c0.311,0.738,0.833,2.624-0.314,2.783
			c-1.147,0.158-3.351,0.463-3.414,0.014c-0.063-0.449,1.173-2.902,1.173-4.117c0-1.213-0.624-5.539-0.498-6.912
			c0.125-1.371,0.311-2.699,0-3.525c-0.312-0.828-1.434-5.389-1.246-7.424C58.137,82.729,61.126,80.914,64.865,80.047"/>
		<path fill="#F2B579" d="M60.27,90.027c0,0,0.349,0.988,1.333,0.988c0.984,0,0.984-1.107,0.984-1.107s0.063,1.518-0.984,1.564
			C60.556,91.521,60.27,90.027,60.27,90.027"/>
		<path fill="#F2B579" d="M54.068,90.027c0,0,0.35,0.988,1.334,0.988c0.983,0,0.983-1.107,0.983-1.107s0.065,1.518-0.983,1.564
			C54.354,91.521,54.068,90.027,54.068,90.027"/>
		<path fill="#753229" d="M62.417,101.516c0,0-0.034,0.656,0.243,1.32c0.292,0.695,0.258,0.955-1.019,1.052
			c-1.28,0.097-2.473-0.009-2.493-0.276c-0.021-0.266,0.639-1.816,0.667-2.432c0,0-0.31,0.191-0.368,0.605
			c-0.06,0.414-0.691,1.209-0.863,2.043c-0.15,0.74-0.065,1.184,1.058,1.549c0.765,0.25,1.798,0.242,2.753-0.119
			c0.593-0.227,0.994-0.542,0.942-1.18c-0.054-0.637-0.575-1.814-0.582-2.164c-0.005-0.35,0.029-0.809-0.264-1.012
			C62.49,100.902,62.409,101.302,62.417,101.516"/>
		<path fill="#753229" d="M54.636,101.516c0,0,0.036,0.656-0.242,1.32c-0.292,0.695-0.258,0.955,1.021,1.052
			c1.277,0.097,2.471-0.009,2.491-0.276c0.02-0.266-0.639-1.816-0.667-2.432c0,0,0.31,0.191,0.368,0.605
			c0.061,0.414,0.692,1.209,0.864,2.043c0.152,0.74,0.065,1.184-1.059,1.549c-0.765,0.25-1.798,0.242-2.752-0.119
			c-0.593-0.227-0.995-0.542-0.943-1.18c0.054-0.637,0.577-1.814,0.583-2.164c0.004-0.35-0.03-0.809,0.264-1.012
			C54.563,100.902,54.643,101.302,54.636,101.516"/>
		<path fill="#92564B" d="M65.857,70.303c0.149,0.695,0.349,1.453,0.627,2.252c0.781,2.23,3.076,7.756,3.076,7.756l5.186-0.721
			c-1.459-2.615-2.922-6.621-3.299-7.629c-1.053-2.818-1.222-9.481-2.75-10.305c-1.525-0.821-5.769-1.32-5.769-1.32
			c-2.181,1.965-6.655,1.772-9.126,0c0,0-2.586,0.305-4.448,0.828l0.002,0.008c-0.523,0.149-1.191,0.348-1.444,0.484
			c-1.527,0.823-1.696,7.486-2.749,10.305c-0.377,1.008-1.839,5.014-3.298,7.629l5.185,0.721c0,0,2.297-5.525,3.077-7.756
			c0.216-0.621,0.385-1.219,0.521-1.781c0.069,0.271,0.154,0.543,0.256,0.805c0.715,1.842-1.934,4.492-1.791,9.045
			c0,0-0.413,10.141-0.848,16.701h10.007h10.005c-0.157-7.332-0.985-16.701-0.985-16.701c0.143-4.553-2.506-7.203-1.791-9.045
			C65.654,71.187,65.77,70.75,65.857,70.303"/>
		<path fill="#82453D" d="M61.153,69.604c-0.924-0.451-2.677-0.451-2.677-0.451s-1.755,0-2.678,0.451
			c-0.924,0.455-3.645,0.455-5.249-0.451c0,0,0.875,1.115,3.061,1.186c2.188,0.068,2.682-0.592,4.865-0.592
			c2.181,0,2.677,0.66,4.864,0.592c2.185-0.07,3.061-1.186,3.061-1.186C64.798,70.059,62.076,70.059,61.153,69.604"/>
		<path fill="#B75E53" d="M64.547,60.569c-0.926-0.151-1.618-0.233-1.618-0.233c-2.181,1.965-6.655,1.772-9.126,0
			c0,0-0.775,0.092-1.781,0.26c0.658,0.624,2.687,2.161,6.732,2.161C62.289,62.757,63.896,61.396,64.547,60.569"/>
		<path fill="#C2B9AA" d="M64.351,43.051c0.002-0.004-0.744-0.433-2.11-0.808c0.045-0.18,0.072-0.365,0.072-0.555
			c0-1.731-1.954-3.133-4.363-3.133c-2.409,0-4.363,1.402-4.363,3.133c0,0.215,0.03,0.426,0.088,0.629
			c-1.232,0.372-1.955,0.77-1.955,0.77c-5.063,2.556-3.122,8.088-3.122,8.088s0.406-0.285,1.136,0.245c0,0,0.593-1.903,1.492-2.398
			c0.898-0.497,4.421-0.231,5.458-0.29c1.036-0.058,0.661-3.055,1.159-3.193c0.499-0.14,0.566,3.2,1.706,3.193
			c1.142-0.008,5.366,0.218,5.913,0.6c0.548,0.385,1.325,2.088,1.325,2.088s0.896-0.631,1.135-0.245
			C67.923,51.175,69.17,45.589,64.351,43.051"/>
		<path fill="#FFDCBE" d="M95.843,80.211c0,0-0.13,0.357-0.437,0.688c-0.306,0.328-0.35,2.064,0.219,2.059
			c0.803-0.006,0.728-1.326,1.033-1.408c0,0,0.626-0.186,0.67,0.693c0.043,0.881-0.216,1.227-0.594,1.605
			c-0.463,0.465,0.735,0.738,1.773,0.289c1.401-0.602,1.31-2.443,1.137-3.926H95.843z"/>
		<path fill="#FFDCBE" d="M73.099,80.211c0,0,0.13,0.357,0.437,0.688c0.305,0.328,0.349,2.064-0.219,2.059
			c-0.804-0.006-0.728-1.326-1.035-1.408c0,0-0.626-0.186-0.669,0.693c-0.044,0.881,0.217,1.227,0.594,1.605
			c0.462,0.465-0.735,0.738-1.773,0.289c-1.401-0.602-1.311-2.443-1.137-3.926H73.099z"/>
		<polygon fill="#55231A" points="94.262,80.293 91.896,102.541 87.4,102.541 84.237,85.206 80.638,102.541 76.126,102.541 
			74.698,80.293 		"/>
		<path fill="#472000" d="M91.908,102.541c0,0,3.433,0.458,3.642,1.481c0.208,1.026-5.714,0.964-7.32,0.75
			c-1.607-0.214-0.833-2.231-0.833-2.231H91.908z"/>
		<path fill="#472000" d="M76.126,102.541c0,0-3.432,0.458-3.641,1.481c-0.208,1.026,5.714,0.964,7.321,0.75
			c1.605-0.214,0.832-2.231,0.832-2.231H76.126z"/>
		<path fill="#FFDCBE" d="M80.637,63.342c-1.174-1.563-2.178-1.33-1.87-3.607c0,0,3.684-0.701,3.666-3.4
			c0,0,1.353,0.501,2.507,0.533c1.153,0.031,2.484-0.659,2.484-0.659s-0.302,2.913,2.949,3.526c0.396,2.367-0.394,2.594-2.319,3.811
			C86.647,64.434,81.719,64.779,80.637,63.342"/>
		<path fill="#F7C39C" d="M81.331,58.555h-0.001c0.623-0.516,1.11-1.234,1.104-2.221c0,0,1.353,0.501,2.507,0.533
			c0.891,0.024,1.882-0.379,2.292-0.566l0.207,0.171c0.004,0.028,0.006,0.059,0.009,0.091C87.07,56.926,84.326,59.438,81.331,58.555
			"/>
		<path fill="#FFDCBE" d="M78.025,48.927c1.866-8.367,10.326-6.567,10.328-6.567c0.003,0,8.788,0.595,6.175,8.858
			c0,0-0.925,3.473-2.572,4.591c-2.166,1.471-5.533,1.929-7.664,1.632c-2.132-0.296-5.076-1.514-6.265-3.566
			C77.091,52.255,78.025,48.927,78.025,48.927"/>
		<path fill="#FFDCBE" d="M78.047,49.66c0,0-0.318-0.789-1.016-0.382c-0.701,0.408-1.123,2.406,0.685,2.66
			C77.716,51.938,77.93,50.132,78.047,49.66"/>
		<path fill="#F7C39C" d="M77.844,50.383c0,0-0.176-0.757-0.638-0.443c-0.461,0.313-0.404,0.809,0.054,1.206
			C77.26,51.146,77.36,49.829,77.844,50.383"/>
		<path fill="#FFDCBE" d="M94.256,51.91c0,0,0.705-0.647,1.142-0.082c0.438,0.565-0.209,2.534-2.019,2.285
			C93.38,54.113,94.121,52.381,94.256,51.91"/>
		<path fill="#F7C39C" d="M94.069,52.637c0,0,0.557-0.655,0.822-0.24c0.266,0.414-0.045,0.86-0.676,1.105
			C94.215,53.501,94.808,52.252,94.069,52.637"/>
		<path fill="#C2B9AA" d="M84.632,48.452c-0.014,0.103,0.021,0.81-0.063,0.85c-0.085,0.039-2.221-0.395-3.134-0.406
			c-0.914-0.01-1.412,0.128-1.412,0.128s0.795-0.924,1.335-0.983C81.896,47.98,84.632,48.452,84.632,48.452"/>
		<path fill="#C2B9AA" d="M88.653,49.011c-0.042,0.098-0.441,0.746-0.383,0.805c0.06,0.059,2.268,0.227,3.119,0.461
			c0.854,0.235,1.244,0.497,1.244,0.497s-0.258-1.069-0.728-1.27C91.436,49.305,88.653,49.011,88.653,49.011"/>
		<path fill="#F7C39C" d="M84.626,52.404c-0.066,0.247,0.322,0.508,0.866,0.584c0.544,0.075,1.039-0.063,1.105-0.309
			c0.067-0.248-0.321-0.508-0.866-0.584C85.188,52.02,84.693,52.158,84.626,52.404"/>
		<path fill="#F7C39C" d="M81.558,53.801l0.075-0.008c-0.07-0.494,0.639-0.627,0.642-0.627l-0.087-0.104
			c-0.011,0-0.292,0.025-0.482,0.199C81.563,53.394,81.512,53.576,81.558,53.801"/>
		<path fill="#F7C39C" d="M88.777,54.804l-0.065-0.028c0.322-0.439-0.269-0.751-0.271-0.752l0.135-0.074
			c0.01,0.004,0.259,0.101,0.343,0.313C88.983,54.425,88.935,54.607,88.777,54.804"/>
		<path fill="#FFFFFF" d="M84.889,55.029c-1.318-0.143-2.258-0.873-2.099-1.63l4.774,0.519
			C87.406,54.675,86.208,55.172,84.889,55.029"/>
		<path fill="#F7C39C" d="M90.519,47.859c-2.197-0.596-4.619-1.056-6.995-0.887c-0.247,0.019-0.253-0.338-0.006-0.356
			c2.415-0.173,4.865,0.282,7.098,0.887C90.841,47.564,90.748,47.922,90.519,47.859"/>
		<path fill="#F7C39C" d="M90.44,46.869c-1.942-0.56-4.091-0.983-6.216-0.778c-0.221,0.023-0.218-0.333,0.005-0.356
			c2.159-0.207,4.333,0.208,6.306,0.777C90.736,46.572,90.644,46.928,90.44,46.869"/>
		<path fill="#F7C39C" d="M80.388,50.283l0.036-0.093c-0.02-0.004-0.5-0.098-0.853,0.088l0.031,0.03
			C79.929,50.173,80.383,50.282,80.388,50.283"/>
		<path fill="#F7C39C" d="M80.427,50.482l-0.004-0.098c-0.021,0.001-0.518,0.014-0.78,0.265l0.043,0.023
			C79.942,50.474,80.423,50.482,80.427,50.482"/>
		<path fill="#F7C39C" d="M91.607,51.841l0.015-0.097c0.021,0.001,0.515,0.043,0.747,0.312l-0.046,0.021
			C92.092,51.863,91.612,51.841,91.607,51.841"/>
		<path fill="#F7C39C" d="M91.468,52.015l0.054-0.09c0.02,0.005,0.474,0.151,0.587,0.456l-0.051,0.009
			C91.921,52.138,91.472,52.017,91.468,52.015"/>
		<path fill="#2D2B29" d="M83.014,50.971c0.181-0.946-1.701-1.208-2.022-0.281c-0.052,0.149-0.379,0.104-0.328-0.046
			c0.426-1.226,2.917-0.88,2.679,0.371C83.313,51.169,82.985,51.122,83.014,50.971"/>
		<path fill="#2D2B29" d="M88.84,51.78c0.322-0.926,2.203-0.666,2.021,0.28c-0.029,0.153,0.299,0.199,0.329,0.045
			c0.24-1.252-2.252-1.599-2.677-0.371C88.458,51.883,88.788,51.929,88.84,51.78"/>
		<path fill="#C2B9AA" d="M94.256,51.91c0,0-3.316-5.448-3.152-6.447c0.162-0.998,1.737-1.803,2.8-1.126
			c1.063,0.679,2.268,3.603,1.494,7.492C95.398,51.829,95.085,51.525,94.256,51.91"/>
		<path fill="#C2B9AA" d="M78.023,49.657c0,0,5.906-4.168,6.272-5.14c0.368-0.971-0.678-2.138-2.014-1.794
			c-1.338,0.345-3.976,2.735-5.277,6.55C77.005,49.273,77.455,49.078,78.023,49.657"/>
		<path fill="#719B62" d="M69.219,80.463c0,0,0.392-6.381,0.396-8.662c0.004-2.66,2.174-9.55,3.012-10.609
			c0.837-1.062,7.354-1.801,7.354-1.801c0.905,0.939,3.668,1.11,4.656,1.13c0.987-0.02,3.657-0.22,4.563-1.159
			c0,0,6.608,0.769,7.445,1.83c0.301,0.381,3.008,8.627,3.013,10.609c0.003,2.281,0.396,8.662,0.396,8.662h-4.761
			c0,0,0.24-7.639-0.457-9.654c-0.698-2.016-1.1-4.419-1.1-4.419s0.13,8.339,0.326,12.386c0,0-1.939,1.022-9.061,1.104
			c0,0-0.244,0.003-0.365,0.003c-0.123,0-0.367-0.003-0.367-0.003c-7.12-0.081-9.187-0.902-9.187-0.902
			c0.045-5.605,0.453-12.587,0.453-12.587s-0.402,2.403-1.101,4.419c-0.697,2.016-0.454,9.654-0.454,9.654H69.219z"/>
		<path fill="#80A5CD" d="M75.537,66.39c0,0,0.415-3.775-2.293-4.925c0,0,3.581,1.119,2.345,5.372L75.537,66.39z"/>
		<path fill="#80A5CD" d="M93.724,66.418c0,0-0.416-3.777,2.292-4.926c0,0-3.579,1.117-2.345,5.371L93.724,66.418z"/>
		<path fill="#517744" d="M72.689,61.031c0,0,0.954-0.866,6.293-1.523c0,0,0.729,0.717,2.064,1.621
			c1.229,0.83,3.278,1.617,3.603,1.682c0.324-0.064,2.372-0.852,3.601-1.682c1.337-0.904,2.063-1.621,2.063-1.621
			c5.341,0.657,6.293,1.523,6.293,1.523c4.522,5.633,3.448,19.432,3.448,19.432h-4.761c0.156-8.428-1.427-12.27-1.427-12.27
			c0.436,5.205,0.452,12.082,0.452,12.082h-9.625h-0.09h-9.994c0,0,0.386-6.877,0.822-12.082c0,0-1.584,3.842-1.426,12.27h-4.764
			C69.241,80.463,68.169,66.664,72.689,61.031"/>
		<path fill="#1D171E" d="M94.318,80.275h-9.625h-0.09h-9.994c0,0,0.026-0.463,0.072-1.24h19.627
			C94.316,79.813,94.318,80.275,94.318,80.275"/>
		<rect x="95.11" y="79.035" fill="#1D171E" width="5.441" height="1.515"/>
		<rect x="68.878" y="79.035" fill="#1D171E" width="5.442" height="1.515"/>
		<polygon fill="#7AB266" points="85.168,60.498 87.354,64.553 90.313,59.508 89.201,59.361 		"/>
		<polygon fill="#7AB266" points="84.114,60.498 81.93,64.553 78.969,59.508 80.083,59.361 		"/>
		<rect x="159.586" y="95.207" fill="#FECE9A" width="2.907" height="7.48"/>
		<path fill="#A2C3CA" d="M162.493,102.688c0,0,2.763,0.33,2.914,1.074c0.15,0.742-4.138,0.695-5.3,0.54
			c-1.165-0.153-0.605-1.614-0.605-1.614H162.493z"/>
		<rect x="153.963" y="95.207" fill="#FECE9A" width="2.906" height="7.48"/>
		<path fill="#A2C3CA" d="M153.963,102.688c0,0-2.762,0.33-2.913,1.074c-0.15,0.742,4.138,0.695,5.302,0.54
			c1.162-0.153,0.602-1.614,0.602-1.614H153.963z"/>
		<path fill="#FECE9A" d="M151.539,78.654c0,0.693-0.787,1.26-1.756,1.26s-1.754-0.566-1.754-1.26c0-0.697,0.785-1.26,1.754-1.26
			S151.539,77.957,151.539,78.654"/>
		<path fill="#EEB881" d="M150.804,78.654c0,0.402-0.458,0.73-1.021,0.73s-1.02-0.328-1.02-0.73c0-0.404,0.457-0.732,1.02-0.732
			S150.804,78.25,150.804,78.654"/>
		<path fill="#FECE9A" d="M168.408,78.654c0,0.693-0.783,1.26-1.755,1.26c-0.968,0-1.753-0.566-1.753-1.26
			c0-0.697,0.785-1.26,1.753-1.26C167.625,77.395,168.408,77.957,168.408,78.654"/>
		<path fill="#EEB881" d="M167.674,78.654c0,0.402-0.455,0.73-1.021,0.73c-0.563,0-1.019-0.328-1.019-0.73
			c0-0.404,0.456-0.732,1.019-0.732C167.219,77.922,167.674,78.25,167.674,78.654"/>
		<path fill="#FECE9A" d="M166.611,79.096c0,2.693-3.068,4.896-6.822,4.896h-3.229c-3.752,0-6.82-2.203-6.82-4.896v-2.109
			c0-2.693,3.068-4.896,6.82-4.896h3.229c3.754,0,6.822,2.203,6.822,4.896V79.096z"/>
		<path fill="#EEB881" d="M159.148,80.035c0,0.234-0.42,0.426-0.938,0.426c-0.518,0-0.938-0.191-0.938-0.426
			c0-0.235,0.42-0.424,0.938-0.424C158.729,79.611,159.148,79.8,159.148,80.035"/>
		<path fill="#FFFFFF" d="M158.176,81.082h-2.101c0,0,0.185,1.58,2.101,1.58c1.914,0,2.102-1.58,2.102-1.58H158.176z"/>
		<path fill="#352213" d="M163.414,78.395c0,0.395-0.443,0.713-0.991,0.713s-0.99-0.318-0.99-0.713c0-0.393,0.442-0.711,0.99-0.711
			S163.414,78.002,163.414,78.395"/>
		<path fill="#352213" d="M154.92,78.395c0,0.395-0.443,0.713-0.99,0.713c-0.549,0-0.992-0.318-0.992-0.713
			c0-0.393,0.443-0.711,0.992-0.711C154.477,77.684,154.92,78.002,154.92,78.395"/>
		<path fill="#915D33" d="M168.067,74.93c0.53-1.443-1.083-2.201-1.083-2.201c0.218-1.906-2.656-2.4-2.656-2.4
			c-1.325-1.42-3.438-0.925-3.438-0.925c-1.01-0.47-1.951-0.569-2.698-0.532c-0.747-0.037-1.69,0.063-2.696,0.532
			c0,0-2.114-0.495-3.438,0.925c0,0-2.874,0.494-2.655,2.4c0,0-1.613,0.758-1.082,2.201c0,0-1.123,2.051,0.344,2.754
			c0,0,0.637-0.121,1.119-0.289c0.268-0.094,2.553-1.947,2.553-1.947c0.912-0.111,2.256-0.702,2.316-1.404
			c0,0,1.336,0.955,3.54,0.428c2.206,0.527,3.54-0.428,3.54-0.428c0.064,0.702,1.406,1.293,2.318,1.404c0,0,2.284,1.854,2.551,1.947
			c0.484,0.168,1.119,0.289,1.119,0.289C169.188,76.98,168.067,74.93,168.067,74.93"/>
		<path fill="#FECE9A" d="M168.926,95.934c0.012-3.887-0.227-6.129-1.453-8.31c-0.909-1.616-2.172-2.078-2.626-2.201
			c-0.595-0.353-1.354-0.565-2.181-0.565h-2.486v-1.445h-4.009v1.445h-2.485c-0.85,0-1.628,0.227-2.229,0.598
			c-0.524,0.162-1.669,0.67-2.517,2.169c-1.229,2.187-1.465,4.432-1.451,8.335c-0.1,0.639-0.168,1.434,0.619,1.692
			c0.584,0.192,1.259,0.075,0.999-0.125c-0.215-0.163-0.36-0.313-0.335-0.691c0.023-0.38,0.376-0.3,0.376-0.3
			c0.173,0.034,0.052,0.627,0.503,0.6c0.373-0.022,0.142-0.637,0.095-0.822c-0.051-0.195-0.203-0.373-0.203-0.373
			c-0.068-4.182,0.418-6.463,1.008-7.7l1.538,4.81c0,1.354,1.539,2.461,3.425,2.461h5.325c1.885,0,3.428-1.107,3.428-2.461
			l1.559-4.887c0.604,1.22,1.115,3.5,1.047,7.754h-0.002c0,0-0.151,0.177-0.203,0.371c-0.045,0.186-0.277,0.801,0.096,0.824
			c0.451,0.025,0.33-0.566,0.503-0.602c0,0,0.353-0.078,0.376,0.3c0.025,0.38-0.121,0.529-0.334,0.691
			c-0.262,0.201,0.414,0.319,0.998,0.126C169.091,97.367,169.023,96.574,168.926,95.934"/>
		<path fill="#97CD31" d="M165.188,85.398c-2.223-1.07-5.004-0.516-5.004-0.516c0,0.832-1.748,1.272-2.006,1.331
			c-0.259-0.059-2.007-0.499-2.007-1.331c0,0-2.78-0.555-5.003,0.516c-2.222,1.07-3.391,3.24-3.742,6.049l2.832,0.32l0.546-2.044
			v8.025h7.371h0.005h7.372v-8.025l0.546,2.044l2.828-0.32C168.576,88.639,167.411,86.469,165.188,85.398"/>
		<polygon fill="#7F8A8E" points="158.176,97.749 151.539,97.749 151.539,101.726 157.272,101.726 157.272,99.301 158.176,99.301 
			159.078,99.301 159.078,101.726 164.813,101.726 164.813,97.749 		"/>
		<rect x="151.168" y="101.023" fill="#9AA2A5" width="6.104" height="0.702"/>
		<rect x="159.08" y="101.023" fill="#9AA2A5" width="6.104" height="0.702"/>
	</g>
</g>
<text transform="matrix(1.0068 0 0 1 73.2803 17.4854)" fill="#ED2974" font-family="'OpenSans-Semibold'" font-size="13">FAMILY BOOK</text>
</svg>
