<?xml version="1.0" encoding="utf-8"?>
<svg version="1.1" id="Layer_1" xmlns="http://www.w3.org/2000/svg" xmlns:xlink="http://www.w3.org/1999/xlink" x="0px" y="0px"
	 width="125px" height="155px" viewBox="0 0 125 155" enable-background="new 0 0 125 155" xml:space="preserve">
<path fill="#5B8731" d="M124.539,62.5c0,34.26-27.745,62-62.039,62c-34.216,0-61.961-27.74-61.961-62s27.745-62,61.961-62
	C96.794,0.5,124.539,28.24,124.539,62.5z"/>
<path fill="#FFFFFF" d="M83.803,84.73c-0.258,0-0.504,0.03-0.758,0.059c-0.195-2.943-2.711-5.275-5.799-5.275
	c-1.854,0-3.5,0.834-4.566,2.148c-0.121-3.021-2.672-5.426-5.803-5.426c-1.083,0-2.094,0.29-2.961,0.79
	c0.236-0.14,0.393-0.211,0.393-0.211v-4.104c1.578-5.076,4.195-9.503,7.605-13.311c0.189,0.203,0.406,0.4,0.652,0.587
	c2.229,1.673,5.869,1.918,8.146,0.563c0.494-0.289,0.873-0.63,1.16-1.004l3.196-4.387l3.197-4.387l-0.035,0.004l-0.856,0.398
	c0.367-0.207,0.576-0.328,0.576-0.328c-5.563,0.644-13.347-4.295-17.041,1.148c-1.229,1.289-1.537,5.173,0.728,6.159
	c-2.81,2.212-5.252,4.735-7.324,7.673v-8.369c0.228-4.98,1.485-9.723,3.56-14.163c0.389,0.14,0.817,0.231,1.299,0.267
	c2.785,0.188,5.968-1.588,7.134-3.962c0.258-0.514,0.387-1.004,0.424-1.476l0.276-5.417l0.279-5.417l-0.361,0.388
	c-4.437,3.723-13.392,3.945-13.97,10.703c-0.452,1.85,1.213,5.487,3.711,4.81c0.184-0.095,0.354-0.195,0.523-0.3
	c-2.584,3.953-4.424,8.192-5.444,12.981c-0.206,0.914-0.353,1.51-0.353,1.51c0.041,0.024,0.086,0.056,0.129,0.081h-0.101v5.496
	c-2.931-2.316-6.063-4.095-9.446-5.468c0.052-0.54-0.008-1.134-0.205-1.776c-0.825-2.658-3.633-4.984-6.271-5.217
	c-0.571-0.053-1.077,0.003-1.53,0.139L38.8,52.325l-5.165,1.689l0.032,0.018l0.379,0.072c-0.424-0.021-0.667-0.032-0.667-0.032
	c5.166,2.688,9.488,11.938,15.413,9.002c1.386-0.394,3.091-2.742,2.909-4.824c3.639,2.082,6.924,4.685,9.718,7.873
	c0,0-0.088,12.689-0.005,13.854c-0.131,0.354-0.235,0.719-0.293,1.101c-0.731-0.318-1.537-0.515-2.396-0.515
	c-1.604,0-3.058,0.636-4.107,1.654c-1.038-0.926-2.414-1.496-3.936-1.496c-2.387,0-4.436,1.4-5.335,3.396
	c-0.782-0.379-1.663-0.598-2.601-0.598c-3.214,0-5.819,2.526-5.819,5.649c0,2.108,1.191,3.944,2.956,4.918
	c0.307,0.724,0.715,1.32,1.188,1.733v0.357c0.135,0.082,0.256,0.176,0.366,0.281h44.779c-0.01-0.053-0.028-0.1-0.039-0.15
	c0.79-0.307,1.472-1.08,1.939-2.139c0.93-0.994,1.504-2.33,1.504-3.779C89.621,87.271,87.021,84.73,83.803,84.73z M63.798,77.101
	c-0.2,0.122-0.389,0.261-0.571,0.406C63.438,77.337,63.63,77.206,63.798,77.101z M62.813,77.874c-0.083,0.08-0.164,0.16-0.241,0.246
	C62.652,78.031,62.731,77.952,62.813,77.874z M62.225,78.523c-0.047,0.063-0.088,0.129-0.133,0.192
	C62.137,78.652,62.179,78.584,62.225,78.523z"/>
<path fill="#333333" d="M29.679,149.625l-0.839,2.543h-1.08l2.758-8.084h1.248l2.758,8.084h-1.115l-0.864-2.543H29.679z
	 M32.341,148.811l-0.804-2.326c-0.18-0.528-0.3-1.008-0.419-1.477h-0.024c-0.12,0.469-0.24,0.973-0.408,1.463l-0.792,2.34H32.341z"
	/>
<path fill="#333333" d="M41.7,151.809c-0.468,0.181-1.403,0.443-2.495,0.443c-1.223,0-2.231-0.313-3.022-1.066
	c-0.696-0.672-1.127-1.752-1.127-3.012c0-2.41,1.667-4.174,4.378-4.174c0.935,0,1.679,0.204,2.026,0.372l-0.264,0.853
	c-0.432-0.205-0.971-0.349-1.787-0.349c-1.967,0-3.25,1.224-3.25,3.25c0,2.051,1.223,3.263,3.118,3.263
	c0.684,0,1.151-0.097,1.392-0.216v-2.411h-1.631v-0.84H41.7V151.809z"/>
<path fill="#333333" d="M43.287,144.191c0.528-0.096,1.296-0.168,2.003-0.168c1.115,0,1.848,0.217,2.339,0.66
	c0.396,0.359,0.636,0.912,0.636,1.547c0,1.057-0.672,1.764-1.511,2.052v0.036c0.611,0.216,0.983,0.791,1.175,1.631
	c0.264,1.127,0.456,1.906,0.624,2.219h-1.079c-0.133-0.24-0.313-0.924-0.528-1.932c-0.239-1.114-0.684-1.534-1.631-1.57h-0.983
	v3.502h-1.044L43.287,144.191L43.287,144.191z M44.331,147.874h1.067c1.115,0,1.823-0.61,1.823-1.535
	c0-1.043-0.756-1.499-1.859-1.499c-0.504,0-0.852,0.036-1.031,0.084V147.874z"/>
<path fill="#333333" d="M50.787,144.084v8.084h-1.056v-8.084H50.787z"/>
<path fill="#333333" d="M58.249,151.916c-0.372,0.191-1.151,0.384-2.135,0.384c-2.279,0-3.982-1.438-3.982-4.102
	c0-2.544,1.715-4.246,4.222-4.246c0.995,0,1.644,0.216,1.919,0.36l-0.264,0.852c-0.384-0.191-0.947-0.336-1.619-0.336
	c-1.895,0-3.154,1.211-3.154,3.334c0,1.99,1.14,3.25,3.095,3.25c0.647,0,1.295-0.133,1.715-0.336L58.249,151.916z"/>
<path fill="#333333" d="M60.614,144.084v4.798c0,1.8,0.804,2.566,1.883,2.566c1.188,0,1.967-0.791,1.967-2.566v-4.798h1.056v4.727
	c0,2.481-1.308,3.489-3.059,3.489c-1.655,0-2.902-0.936-2.902-3.454v-4.762H60.614L60.614,144.084z"/>
<path fill="#333333" d="M67.323,144.084h1.056v7.208h3.454v0.876h-4.51V144.084z"/>
<path fill="#333333" d="M73.479,144.973H71.02v-0.889h5.984v0.889h-2.471v7.195h-1.057v-7.195H73.479z"/>
<path fill="#333333" d="M78.95,144.084v4.798c0,1.8,0.804,2.566,1.883,2.566c1.188,0,1.967-0.791,1.967-2.566v-4.798h1.056v4.727
	c0,2.481-1.308,3.489-3.059,3.489c-1.654,0-2.902-0.936-2.902-3.454v-4.762H78.95L78.95,144.084z"/>
<path fill="#333333" d="M85.67,144.191c0.528-0.096,1.296-0.168,2.003-0.168c1.115,0,1.849,0.217,2.339,0.66
	c0.396,0.359,0.637,0.912,0.637,1.547c0,1.057-0.672,1.764-1.512,2.052v0.036c0.611,0.216,0.983,0.791,1.176,1.631
	c0.264,1.127,0.455,1.906,0.623,2.219h-1.078c-0.133-0.24-0.313-0.924-0.528-1.932c-0.239-1.114-0.685-1.534-1.631-1.57h-0.983
	v3.502H85.67V144.191z M86.714,147.874h1.067c1.115,0,1.822-0.61,1.822-1.535c0-1.043-0.756-1.499-1.858-1.499
	c-0.504,0-0.853,0.036-1.031,0.084V147.874z"/>
<path fill="#333333" d="M96.3,148.378h-3.13v2.914h3.502v0.876h-4.558v-8.084h4.378v0.876H93.17v2.556h3.13V148.378L96.3,148.378z"
	/>
</svg>