<?xml version="1.0" encoding="utf-8"?>
<svg version="1.1" id="Layer_1" xmlns="http://www.w3.org/2000/svg" xmlns:xlink="http://www.w3.org/1999/xlink" x="0px" y="0px"
	 width="125px" height="155px" viewBox="0 0 125 155" enable-background="new 0 0 125 155" xml:space="preserve">
<path fill="#286999" d="M124.5,62.5c0,34.259-27.745,62-62.039,62C28.245,124.5,0.5,96.76,0.5,62.5c0-34.26,27.745-62,61.961-62
	C96.755,0.5,124.5,28.241,124.5,62.5z"/>
<path fill="#FFFFFF" d="M36.164,71.5l3.234-4.414h4.346c0.519,0,1.058,0,1.617,0c0.561,0,1.047,0.021,1.461,0.052
	c-0.24-0.308-0.521-0.691-0.84-1.168c-0.319-0.471-0.626-0.91-0.918-1.32l-3.104-4.542l-8.124,11.394h-6.338l11.098-15.526
	c0.362-0.496,0.819-0.94,1.372-1.335c0.552-0.393,1.25-0.589,2.095-0.589c0.81,0,1.487,0.185,2.031,0.553
	c0.542,0.368,1.005,0.826,1.385,1.373l10.813,15.524H36.164V71.5z"/>
<path fill="#FFFFFF" d="M76.961,67.085L73.493,71.5H58.204V54.333h5.354v12.753L76.961,67.085L76.961,67.085z"/>
<path fill="#FFFFFF" d="M97.502,67.085L94.035,71.5H78.746V54.333H84.1v12.753L97.502,67.085L97.502,67.085z"/>
<path fill="#333333" d="M55.36,149.596l-0.839,2.543h-1.08l2.758-8.084h1.248l2.758,8.084H59.09l-0.864-2.543H55.36z
	 M58.023,148.779l-0.804-2.325c-0.18-0.528-0.3-1.009-0.419-1.476h-0.024c-0.12,0.467-0.24,0.972-0.408,1.463l-0.792,2.338H58.023z"
	/>
<path fill="#333333" d="M61.385,144.055h1.056v7.209h3.454v0.875h-4.51V144.055z"/>
<path fill="#333333" d="M67.049,144.055h1.057v7.209h3.453v0.875h-4.51V144.055z"/>
</svg>