<?xml version="1.0" encoding="utf-8"?>
<svg version="1.1" id="Layer_1" xmlns="http://www.w3.org/2000/svg" xmlns:xlink="http://www.w3.org/1999/xlink" x="0px" y="0px"
	 width="125px" height="155px" viewBox="0 0 125 155" enable-background="new 0 0 125 155" xml:space="preserve">
<path fill="#2BD8C3" d="M124.499,62.5c0,34.26-27.745,62-62.039,62c-34.216,0-61.961-27.74-61.961-62s27.745-62,61.961-62
	C96.754,0.5,124.499,28.24,124.499,62.5z"/>
<path fill="#FFFFFF" d="M67.33,37.492c-1.141,0-1.814,0.987-1.814,2.295c0,1.21,0.609,2.21,1.785,2.21
	c0.736,0,1.412-0.495,1.611-1.296c0.037-0.148,0.051-0.297,0.051-0.47v-1.037c0-0.136-0.014-0.322-0.051-0.456
	C68.75,38.059,68.154,37.492,67.33,37.492z"/>
<path fill="#FFFFFF" d="M81.189,68.388c-1.063,0.363-1.183,1.463-1.017,2.205l3.037-1.037C83,68.908,82.361,67.989,81.189,68.388z"
	/>
<path fill="#FFFFFF" d="M59.44,41.036c0,0.715,0.476,1.037,1.024,1.037c0.8,0,1.313-0.495,1.486-1
	c0.037-0.124,0.051-0.247,0.051-0.346V39.69C60.804,39.665,59.44,39.876,59.44,41.036z"/>
<path fill="#FFFFFF" d="M74.203,37.418c-1.123,0-1.6,1-1.688,1.752h3.209C75.738,38.493,75.439,37.418,74.203,37.418z"/>
<path fill="#FFFFFF" d="M37.66,67.375l-0.858-0.271l-0.969,3.029c0.203,0.104,0.485,0.205,0.855,0.317
	c1.072,0.333,2.186,0.258,2.556-0.896C39.584,68.481,38.79,67.729,37.66,67.375z"/>
<path fill="#FFFFFF" d="M97.832,74.798l-1.041-32.419c-0.092-3.127-1.586-5.107-3.6-5.208l-25.482-9.166
	c-2.785-1.005-7.592-0.896-10.754,0.248L31.23,37.511c-1.252,0.457-2.054,1.002-2.396,1.556c-1.11,0.87-1.755,2.498-1.664,4.648
	l1.397,32.504c0.176,4.131,3.033,8.658,6.354,10.047l24.657,10.401c0.476,0.196,0.936,0.319,1.375,0.376
	c3.262,1.059,6.734,0.797,9.701-0.75c0.018-0.007,0.031-0.014,0.051-0.021l21.982-11.254C95.658,83.514,97.953,78.934,97.832,74.798
	z M41.238,66.06c-0.249,0.779-0.988,1.285-1.917,1.316l-0.012,0.035c0.707,0.417,1.401,1.318,1.024,2.498
	c-0.219,0.684-0.663,1.125-1.2,1.371c-0.71,0.336-1.692,0.287-3.003-0.122c-0.714-0.226-1.248-0.438-1.579-0.597l2.497-7.793
	c0.485,0.035,1.235,0.191,1.951,0.416c1.037,0.322,1.648,0.709,2.008,1.262C41.329,64.884,41.438,65.435,41.238,66.06z
	 M45.845,74.116l-0.93-0.291l0.237-0.949l-0.023-0.008c-0.41,0.378-1.221,0.785-2.247,0.464c-0.905-0.28-1.828-1.126-1.19-3.116
	l1.066-3.33l1.048,0.328l-1.007,3.143c-0.346,1.083-0.238,1.932,0.704,2.227c0.703,0.221,1.346-0.109,1.688-0.521
	c0.106-0.123,0.201-0.301,0.267-0.5l1.115-3.482l1.048,0.327l-1.323,4.131C46.105,73.136,45.952,73.657,45.845,74.116z
	 M51.146,73.972c-1.376,1.718-2.206,2.549-3.121,2.947c-0.664,0.271-1.221,0.293-1.498,0.258l0.013-0.94
	c0.289,0,0.688-0.06,1.081-0.22c0.357-0.133,0.832-0.426,1.25-0.877c0.083-0.09,0.145-0.164,0.164-0.222
	c0.019-0.063,0.022-0.147,0.003-0.297l-0.44-5.914l1.145,0.356l0.173,3.756c0.022,0.422,0.022,0.914,0.008,1.285l0.024,0.007
	c0.216-0.31,0.475-0.705,0.75-1.073l2.214-2.984l1.108,0.348L51.146,73.972z M54.454,35.331H51.88v7.408h-1.1v-7.408h-2.562v-0.913
	h6.237L54.454,35.331L54.454,35.331z M57.777,37.688c-0.113-0.025-0.225-0.025-0.375-0.025c-0.776,0-1.324,0.569-1.475,1.383
	c-0.025,0.149-0.039,0.334-0.039,0.507v3.185h-1.1v-4.11c0-0.705-0.013-1.308-0.05-1.865H55.7l0.05,1.185h0.037
	c0.275-0.802,0.95-1.308,1.688-1.308c0.113,0,0.2,0.012,0.3,0.024v1.024H57.777z M62.166,42.738l-0.088-0.752h-0.039
	c-0.334,0.468-0.985,0.889-1.849,0.889c-1.226,0-1.851-0.851-1.851-1.715c0-1.445,1.3-2.236,3.638-2.225v-0.124
	c0-0.48-0.138-1.381-1.376-1.368c-0.574,0-1.161,0.159-1.586,0.443l-0.25-0.727c0.501-0.31,1.238-0.519,2-0.519
	c1.852,0,2.301,1.247,2.301,2.433v2.234c0,0.519,0.024,1.027,0.086,1.433h-0.986V42.738z M69.125,42.738l-0.049-1.036h-0.037
	c-0.322,0.667-1.051,1.173-2.033,1.173c-1.465,0-2.604-1.222-2.604-3.037c-0.012-1.989,1.252-3.198,2.716-3.198
	c0.938,0,1.549,0.433,1.821,0.903h0.023v-3.568h1.088v7.222c0,0.53,0.023,1.136,0.051,1.542L69.125,42.738L69.125,42.738z
	 M71.455,39.85c0-1.803,1.074-3.211,2.838-3.211c1.984,0,2.498,1.705,2.498,2.803c0,0.223-0.016,0.384-0.037,0.507h-4.25
	c0.025,1.467,0.961,2.074,2.074,2.074c0.785,0,1.273-0.136,1.676-0.311l0.199,0.778c-0.391,0.172-1.064,0.383-2.023,0.383
	C72.566,42.875,71.455,41.653,71.455,39.85z M76.582,75.736c-0.77,0.262-1.688,0.315-2.209,0.185l-0.027-0.945
	c0.563,0.136,1.305,0.132,2.016-0.112c1.05-0.356,1.474-1.116,1.189-1.91c-0.25-0.724-0.826-1.014-2.041-1.039
	c-1.463-0.021-2.502-0.43-2.887-1.522c-0.434-1.223,0.277-2.485,1.826-3.014c0.805-0.271,1.473-0.296,1.883-0.213l0.01,0.928
	c-0.305-0.066-0.91-0.107-1.633,0.139c-1.086,0.369-1.275,1.154-1.09,1.689c0.26,0.735,0.867,0.93,2.115,0.975
	c1.521,0.057,2.422,0.47,2.826,1.623C78.986,73.724,78.461,75.095,76.582,75.736z M83.209,73.472
	c-1.762,0.601-3.217-0.191-3.814-1.896c-0.596-1.703-0.043-3.381,1.621-3.949c1.879-0.642,2.928,0.805,3.291,1.842
	c0.07,0.211,0.111,0.365,0.133,0.491l-4.02,1.37c0.508,1.382,1.596,1.648,2.646,1.29c0.744-0.252,1.158-0.538,1.479-0.831
	l0.447,0.671C84.688,72.746,84.119,73.163,83.209,73.472z M86.688,72.144l-2.899-8.287l1.041-0.354l2.899,8.289L86.688,72.144z
	 M89.475,71.19l-2.899-8.283l1.038-0.354l2.9,8.285L89.475,71.19z"/>
<path fill="#FFFFFF" d="M38.807,63.994c-0.477-0.149-0.761-0.201-0.939-0.217l-0.821,2.565l0.94,0.293
	c1.084,0.34,1.913-0.035,2.158-0.8C40.438,64.916,39.855,64.321,38.807,63.994z"/>
<path fill="#333333" d="M39.594,144.175c0.455-0.106,1.188-0.18,1.906-0.18c1.043,0,1.715,0.18,2.207,0.588
	c0.42,0.312,0.684,0.791,0.684,1.427c0,0.792-0.527,1.477-1.367,1.775v0.035c0.768,0.181,1.667,0.815,1.667,2.016
	c0,0.695-0.276,1.234-0.696,1.619c-0.551,0.516-1.463,0.756-2.781,0.756c-0.721,0-1.271-0.048-1.619-0.097v-7.939H39.594z
	 M40.637,147.484h0.947c1.092,0,1.739-0.588,1.739-1.366c0-0.937-0.708-1.319-1.763-1.319c-0.48,0-0.756,0.036-0.924,0.072
	L40.637,147.484L40.637,147.484z M40.637,151.348c0.216,0.035,0.504,0.049,0.875,0.049c1.08,0,2.075-0.396,2.075-1.571
	c0-1.093-0.947-1.56-2.087-1.56h-0.863V151.348z"/>
<path fill="#333333" d="M47.141,144.055v4.799c0,1.799,0.803,2.565,1.883,2.565c1.188,0,1.967-0.791,1.967-2.565v-4.799h1.056v4.727
	c0,2.482-1.308,3.49-3.059,3.49c-1.655,0-2.902-0.937-2.902-3.455v-4.762H47.141z"/>
<path fill="#333333" d="M55.66,152.139v-3.43l-2.566-4.654h1.199l1.139,2.231c0.3,0.61,0.552,1.104,0.804,1.667h0.024
	c0.216-0.528,0.503-1.057,0.815-1.667l1.163-2.231h1.176l-2.699,4.643v3.441H55.66z"/>
<path fill="#333333" d="M62.151,148.518v0.768h-2.963v-0.768H62.151z"/>
<path fill="#333333" d="M63.293,150.867c0.469,0.3,1.141,0.527,1.859,0.527c1.066,0,1.69-0.563,1.69-1.379
	c0-0.744-0.433-1.188-1.522-1.596c-1.319-0.479-2.135-1.176-2.135-2.303c0-1.26,1.043-2.195,2.613-2.195
	c0.815,0,1.428,0.192,1.775,0.396l-0.288,0.852c-0.252-0.156-0.792-0.384-1.522-0.384c-1.104,0-1.523,0.659-1.523,1.211
	c0,0.756,0.492,1.127,1.607,1.56c1.366,0.527,2.051,1.188,2.051,2.375c0,1.248-0.912,2.338-2.818,2.338
	c-0.779,0-1.631-0.24-2.063-0.526L63.293,150.867z"/>
<path fill="#333333" d="M73.514,148.35h-3.13v2.914h3.503v0.875h-4.559v-8.084h4.378v0.877h-3.322v2.555h3.13V148.35z"/>
<path fill="#333333" d="M75.232,144.055h1.056v7.209h3.454v0.875h-4.51V144.055z"/>
<path fill="#333333" d="M80.896,144.055h1.056v7.209h3.454v0.875h-4.51V144.055z"/>
</svg>