<?xml version="1.0" encoding="utf-8"?>
<svg version="1.1" id="Layer_1" xmlns="http://www.w3.org/2000/svg" xmlns:xlink="http://www.w3.org/1999/xlink" x="0px" y="0px"
	 width="125px" height="155px" viewBox="0 0 125 155" enable-background="new 0 0 125 155" xml:space="preserve">
<path fill="#F29500" d="M62.5,0.5c-34.233,0-62,27.759-62,62c0,34.236,27.767,62,62,62c34.232,0,62-27.764,62-62
	C124.5,28.259,96.732,0.5,62.5,0.5z M62.5,119.54c-31.494,0-57.04-25.542-57.04-57.04c0-31.502,25.546-57.04,57.04-57.04
	s57.04,25.538,57.04,57.04C119.54,93.998,93.994,119.54,62.5,119.54z"/>
<path fill="#F29500" d="M124.5,62.5c0,34.26-27.745,62-62.039,62C28.245,124.5,0.5,96.76,0.5,62.5s27.745-62,61.961-62
	C96.755,0.5,124.5,28.24,124.5,62.5z"/>
<path fill="#FFFFFF" d="M71.834,76.777l-0.014-2.236c4.373-2.527,7.24-6.939,7.193-11.922c0.004-0.029,0.01-0.051-0.009-0.088
	c0.201,0.109,0.429,0.182,0.679,0.213c1.129,0.15,2.153-0.563,2.307-1.548l0.352-2.165c0.139-1.006-0.619-1.913-1.736-2.068
	c-0.156-0.021-0.313-0.021-0.446-0.007l-0.027-1.771l17.103-9.35l-34.747-18.06L29.026,46.102l1.954,1.015
	c-0.088,0.157-0.151,0.349-0.147,0.557l0.169,16.576c0.003,0.021,0.008,0.045,0.016,0.059c-1.939,0.513-3.332,2.15-3.248,4.027
	c0.013,0.676,0.254,1.287,0.628,1.82h-0.007l2.156,4.021l2.212,3.966l1.731-4.146l1.683-4.203h-0.005
	c0.298-0.547,0.449-1.213,0.431-1.881c-0.143-1.801-1.576-3.258-3.46-3.646c-0.002-0.016,0.004-0.021,0.004-0.035l-0.184-16.083
	l13.449,7.002l0.023,2.198c-0.197-0.021-0.396-0.017-0.585,0.017c-1.069,0.19-1.79,1.14-1.573,2.12l0.412,2.155
	c0.238,0.976,1.284,1.638,2.333,1.447c0.219-0.022,0.409-0.088,0.596-0.172c0,0.021,0,0.033,0.002,0.041
	c0.056,5.022,3.047,9.383,7.518,11.815l0.03,2.351c-12.12,2.521-20.874,9.828-20.786,18.356c0.008,0.601,0.089,1.144,0.124,1.744
	c0.083,0,0.088,0,0.181-0.002l-0.007-0.27l59.208-0.637c0.021-0.479,0.087-1.004,0.087-1.48
	C93.857,86.1,84.504,78.834,71.834,76.777z"/>
<path fill="#333333" d="M37.202,148.217h-3.13v2.914h3.502v0.876h-4.558v-8.084h4.378v0.876h-3.322v2.555h3.13V148.217z"/>
<path fill="#333333" d="M38.933,144.043c0.636-0.107,1.392-0.18,2.219-0.18c1.5,0,2.567,0.359,3.274,1.008
	c0.731,0.658,1.151,1.595,1.151,2.902c0,1.318-0.42,2.397-1.163,3.142c-0.768,0.756-2.015,1.164-3.586,1.164
	c-0.756,0-1.367-0.036-1.896-0.097L38.933,144.043L38.933,144.043z M39.977,151.191c0.264,0.035,0.647,0.048,1.056,0.048
	c2.242,0,3.441-1.247,3.441-3.431c0.013-1.906-1.067-3.119-3.273-3.119c-0.54,0-0.948,0.05-1.224,0.108V151.191z"/>
<path fill="#333333" d="M47.968,143.923v4.798c0,1.799,0.804,2.566,1.883,2.566c1.188,0,1.967-0.791,1.967-2.566v-4.798h1.056v4.726
	c0,2.482-1.308,3.49-3.059,3.49c-1.655,0-2.902-0.936-2.902-3.453v-4.763H47.968L47.968,143.923z"/>
<path fill="#333333" d="M60.325,151.755c-0.372,0.192-1.151,0.384-2.136,0.384c-2.278,0-3.981-1.438-3.981-4.102
	c0-2.543,1.715-4.246,4.222-4.246c0.995,0,1.644,0.216,1.919,0.359l-0.264,0.853c-0.384-0.192-0.947-0.336-1.619-0.336
	c-1.895,0-3.154,1.211-3.154,3.334c0,1.991,1.14,3.25,3.095,3.25c0.647,0,1.295-0.132,1.715-0.336L60.325,151.755z"/>
<path fill="#333333" d="M63.003,149.464l-0.84,2.543h-1.079l2.759-8.084h1.247l2.76,8.084h-1.117l-0.862-2.543H63.003z
	 M65.665,148.648l-0.804-2.326c-0.18-0.528-0.299-1.008-0.42-1.477h-0.023c-0.12,0.469-0.238,0.973-0.406,1.463l-0.793,2.34H65.665z
	"/>
<path fill="#333333" d="M69.65,144.811h-2.457v-0.888h5.983v0.888h-2.471v7.196H69.65V144.811L69.65,144.811z"/>
<path fill="#333333" d="M75.124,143.923v8.084h-1.056v-8.084H75.124z"/>
<path fill="#333333" d="M83.855,147.881c0,2.771-1.69,4.258-3.754,4.258c-2.146,0-3.635-1.666-3.635-4.113
	c0-2.566,1.583-4.246,3.742-4.246C82.43,143.779,83.855,145.471,83.855,147.881z M77.57,148.001c0,1.739,0.937,3.286,2.592,3.286
	c1.654,0,2.59-1.523,2.59-3.357c0-1.619-0.839-3.299-2.578-3.299C78.436,144.631,77.57,146.238,77.57,148.001z"/>
<path fill="#333333" d="M85.216,152.007v-8.084h1.151l2.578,4.091c0.589,0.947,1.068,1.799,1.439,2.627l0.035-0.013
	c-0.096-1.08-0.119-2.063-0.119-3.321v-3.384h0.983v8.084h-1.056l-2.566-4.103c-0.563-0.898-1.104-1.822-1.499-2.697l-0.036,0.012
	c0.061,1.021,0.071,1.991,0.071,3.334v3.454H85.216L85.216,152.007z"/>
</svg>