<?xml version="1.0" encoding="utf-8"?>
<svg version="1.1" id="Layer_1" xmlns="http://www.w3.org/2000/svg" xmlns:xlink="http://www.w3.org/1999/xlink" x="0px" y="0px"
	 width="125px" height="155px" viewBox="0 0 125 155" enable-background="new 0 0 125 155" xml:space="preserve">
<path fill="#607D8B" d="M62.5,0.5c-34.233,0-62,27.759-62,62c0,34.237,27.767,62,62,62c34.232,0,62-27.763,62-62
	C124.5,28.259,96.732,0.5,62.5,0.5z M62.5,119.54c-31.494,0-57.04-25.542-57.04-57.04c0-31.502,25.546-57.04,57.04-57.04
	s57.04,25.538,57.04,57.04C119.54,93.998,93.994,119.54,62.5,119.54z"/>
<path fill="#607D8B" d="M90.13,89.023v-1.624l-1.736-1.879h-9.192l-3.196,3.503H50.151l-3.2-3.503h-9.14l-1.737,1.879v1.624v4.624
	v3.125c0.142,0.135,0.331,0.317,0.519,0.505h53.031c0.188-0.188,0.377-0.376,0.514-0.565v-7.688H90.13L90.13,89.023z"/>
<path fill="#607D8B" d="M71.86,45.83c0,4.693-3.926,8.506-8.754,8.506c-4.829,0-8.756-3.814-8.756-8.506
	c0-4.718,3.927-8.531,8.756-8.531C67.935,37.299,71.86,41.113,71.86,45.83z"/>
<path fill="#607D8B" d="M85.755,85.521l-6.43-18.419l0.252-0.012c-0.016-0.049-0.033-0.102-0.049-0.145l0.059-0.042l-0.098-0.07
	c-2.104-6.084-9.037-10.394-17.094-10.056C54.222,57.119,47.6,62.121,46.188,68.47l0.248-0.011l-6.107,17.062h4.234l7.152-13.894
	v17.445h0.708h0.511h1.288h17.896h2.25v-18.28l7.275,14.729H85.755z"/>
<path fill="#607D8B" d="M79.937,44.853c0-9.461-7.535-17.13-16.832-17.13c-9.295,0-16.827,7.67-16.827,17.13
	c0,0.365,0.015,0.727,0.037,1.086h1.271c0.18,2.203,1.386,3.896,2.844,3.896c1.579,0,2.868-1.988,2.868-4.461
	c0-2.47-1.29-4.468-2.868-4.468c-0.397,0-0.774,0.125-1.119,0.353c1.572-6.266,7.152-10.902,13.796-10.902
	c6.658,0,12.248,4.656,13.806,10.941c-0.36-0.25-0.762-0.391-1.194-0.391c-1.578,0-2.867,1.997-2.867,4.468
	c0,2.472,1.289,4.461,2.867,4.461c1.51,0,2.676-1.692,2.844-3.896h1.342C79.921,45.578,79.937,45.216,79.937,44.853z"/>
	<path fill="#7C7C7C" d="M24.724,148.253h-3.13v2.914h3.502v0.876h-4.558v-8.084h4.378v0.876h-3.322v2.555h3.13V148.253z"/>
	<path fill="#7C7C7C" d="M26.454,152.043v-8.084h1.151l2.579,4.09c0.588,0.948,1.067,1.8,1.439,2.627l0.035-0.012
		c-0.096-1.08-0.119-2.063-0.119-3.322v-3.383h0.983v8.084h-1.056l-2.566-4.102c-0.563-0.899-1.104-1.823-1.499-2.698l-0.036,0.012
		c0.06,1.02,0.071,1.991,0.071,3.334v3.454H26.454z"/>
	<path fill="#7C7C7C" d="M35.885,144.847h-2.458v-0.888h5.984v0.888H36.94v7.196h-1.056V144.847z"/>
	<path fill="#7C7C7C" d="M44.487,148.253h-3.13v2.914h3.502v0.876h-4.558v-8.084h4.378v0.876h-3.322v2.555h3.13V148.253z"/>
	<path fill="#7C7C7C" d="M46.218,144.067c0.528-0.096,1.296-0.168,2.003-0.168c1.115,0,1.848,0.216,2.339,0.659
		c0.396,0.36,0.636,0.912,0.636,1.548c0,1.056-0.672,1.763-1.511,2.051v0.036c0.611,0.216,0.983,0.791,1.175,1.631
		c0.264,1.127,0.456,1.907,0.624,2.219h-1.079c-0.133-0.24-0.313-0.924-0.528-1.931c-0.239-1.115-0.684-1.535-1.631-1.571h-0.983
		v3.502h-1.044V144.067z M47.262,147.749h1.067c1.115,0,1.823-0.611,1.823-1.535c0-1.043-0.756-1.499-1.859-1.499
		c-0.504,0-0.852,0.036-1.031,0.084V147.749z"/>
	<path fill="#7C7C7C" d="M54.316,144.847h-2.458v-0.888h5.984v0.888h-2.471v7.196h-1.056V144.847z"/>
	<path fill="#7C7C7C" d="M59.152,149.5l-0.84,2.543h-1.079l2.759-8.084h1.247l2.759,8.084h-1.115l-0.864-2.543H59.152z
		 M61.814,148.685l-0.803-2.326c-0.181-0.528-0.3-1.008-0.42-1.476h-0.024c-0.12,0.468-0.239,0.972-0.407,1.463l-0.792,2.339H61.814
		z"/>
	<path fill="#7C7C7C" d="M66.233,143.959v8.084h-1.056v-8.084H66.233z"/>
	<path fill="#7C7C7C" d="M68.057,152.043v-8.084h1.151l2.579,4.09c0.588,0.948,1.067,1.8,1.439,2.627l0.035-0.012
		c-0.096-1.08-0.119-2.063-0.119-3.322v-3.383h0.983v8.084H73.07l-2.566-4.102c-0.563-0.899-1.104-1.823-1.499-2.698l-0.036,0.012
		c0.06,1.02,0.071,1.991,0.071,3.334v3.454H68.057z"/>
	<path fill="#7C7C7C" d="M82.766,148.493c-0.06-1.128-0.132-2.495-0.132-3.49h-0.024c-0.287,0.936-0.611,1.955-1.019,3.07
		l-1.428,3.922h-0.791l-1.319-3.85c-0.384-1.151-0.696-2.184-0.924-3.143h-0.024c-0.023,1.008-0.084,2.351-0.155,3.574l-0.216,3.466
		h-0.996l0.564-8.084h1.331l1.379,3.91c0.336,0.995,0.6,1.883,0.815,2.723h0.024c0.216-0.815,0.504-1.703,0.863-2.723l1.439-3.91
		h1.331l0.504,8.084h-1.031L82.766,148.493z"/>
	<path fill="#7C7C7C" d="M89.774,148.253h-3.13v2.914h3.502v0.876h-4.558v-8.084h4.378v0.876h-3.322v2.555h3.13V148.253z"/>
	<path fill="#7C7C7C" d="M91.505,152.043v-8.084h1.151l2.579,4.09c0.588,0.948,1.067,1.8,1.439,2.627l0.035-0.012
		c-0.096-1.08-0.119-2.063-0.119-3.322v-3.383h0.983v8.084h-1.056l-2.566-4.102c-0.563-0.899-1.104-1.823-1.499-2.698l-0.036,0.012
		c0.06,1.02,0.071,1.991,0.071,3.334v3.454H91.505z"/>
	<path fill="#7C7C7C" d="M100.936,144.847h-2.458v-0.888h5.984v0.888h-2.471v7.196h-1.056V144.847z"/>
</svg>