<?xml version="1.0" encoding="utf-8"?>
<svg version="1.1" id="Layer_1" xmlns="http://www.w3.org/2000/svg" xmlns:xlink="http://www.w3.org/1999/xlink" x="0px" y="0px"
	 width="125px" height="155px" viewBox="0 0 125 155" enable-background="new 0 0 125 155" xml:space="preserve">
<path fill="#607D8B" d="M124.5,62.5c0,34.26-27.745,62-62.04,62c-34.215,0-61.96-27.74-61.96-62s27.745-62,61.96-62
	C96.755,0.5,124.5,28.24,124.5,62.5z"/>
<path fill="#FFFFFF" d="M90.13,89.023v-1.625l-1.735-1.879h-9.192l-3.196,3.504H50.151l-3.2-3.504h-9.14l-1.737,1.879v1.625v4.623
	v3.125c0.142,0.136,0.331,0.317,0.519,0.506h53.031c0.188-0.188,0.377-0.377,0.515-0.565v-7.688H90.13L90.13,89.023z"/>
<path fill="#FFFFFF" d="M71.859,45.83c0,4.693-3.926,8.506-8.754,8.506c-4.829,0-8.755-3.814-8.755-8.506
	c0-4.718,3.927-8.531,8.755-8.531C67.936,37.299,71.859,41.113,71.859,45.83z"/>
<path fill="#FFFFFF" d="M85.755,85.521l-6.43-18.419l0.252-0.012c-0.017-0.049-0.033-0.102-0.05-0.145l0.06-0.042l-0.099-0.07
	c-2.104-6.084-9.036-10.394-17.093-10.056C54.222,57.119,47.6,62.121,46.188,68.47l0.248-0.011l-6.107,17.063h4.234l7.152-13.895
	v17.445h0.708h0.511h1.288h17.896h2.25v-18.28l7.274,14.729H85.755z"/>
<path fill="#FFFFFF" d="M79.938,44.853c0-9.461-7.535-17.13-16.832-17.13c-9.295,0-16.828,7.67-16.828,17.13
	c0,0.365,0.015,0.727,0.037,1.086h1.271c0.18,2.203,1.386,3.896,2.844,3.896c1.579,0,2.868-1.988,2.868-4.461
	c0-2.47-1.29-4.468-2.868-4.468c-0.397,0-0.774,0.125-1.119,0.353c1.572-6.266,7.152-10.902,13.796-10.902
	c6.658,0,12.248,4.656,13.806,10.941c-0.36-0.25-0.763-0.391-1.194-0.391c-1.578,0-2.867,1.997-2.867,4.468
	c0,2.472,1.289,4.461,2.867,4.461c1.51,0,2.676-1.692,2.844-3.896h1.342C79.921,45.578,79.938,45.216,79.938,44.853z"/>
<path fill="#333333" d="M24.724,148.253h-3.13v2.914h3.502v0.876h-4.558v-8.084h4.378v0.876h-3.322v2.556h3.13V148.253z"/>
<path fill="#333333" d="M26.454,152.043v-8.084h1.151l2.579,4.09c0.588,0.948,1.067,1.801,1.439,2.627l0.035-0.012
	c-0.096-1.08-0.119-2.063-0.119-3.322v-3.383h0.983v8.084h-1.056l-2.566-4.102c-0.563-0.899-1.104-1.823-1.499-2.698l-0.036,0.012
	c0.06,1.021,0.071,1.991,0.071,3.334v3.454H26.454L26.454,152.043z"/>
<path fill="#333333" d="M35.885,144.848h-2.458v-0.889h5.984v0.889H36.94v7.195h-1.056L35.885,144.848L35.885,144.848z"/>
<path fill="#333333" d="M44.487,148.253h-3.13v2.914h3.502v0.876h-4.558v-8.084h4.378v0.876h-3.322v2.556h3.13V148.253z"/>
<path fill="#333333" d="M46.218,144.066c0.528-0.096,1.296-0.168,2.003-0.168c1.115,0,1.848,0.217,2.339,0.66
	c0.396,0.359,0.636,0.912,0.636,1.547c0,1.057-0.672,1.764-1.511,2.052v0.036c0.611,0.216,0.983,0.791,1.175,1.631
	c0.264,1.127,0.456,1.906,0.624,2.219h-1.079c-0.133-0.24-0.313-0.924-0.528-1.932c-0.239-1.114-0.684-1.534-1.631-1.57h-0.983
	v3.502h-1.044L46.218,144.066L46.218,144.066z M47.262,147.749h1.067c1.115,0,1.823-0.61,1.823-1.535
	c0-1.043-0.756-1.499-1.859-1.499c-0.504,0-0.852,0.036-1.031,0.084V147.749z"/>
<path fill="#333333" d="M54.316,144.848h-2.458v-0.889h5.984v0.889h-2.471v7.195h-1.056L54.316,144.848L54.316,144.848z"/>
<path fill="#333333" d="M59.152,149.5l-0.84,2.543h-1.079l2.759-8.084h1.247l2.759,8.084h-1.115l-0.864-2.543H59.152z
	 M61.814,148.686l-0.803-2.326c-0.181-0.528-0.3-1.008-0.42-1.477h-0.024c-0.12,0.469-0.239,0.973-0.407,1.463l-0.792,2.34H61.814z"
	/>
<path fill="#333333" d="M66.232,143.959v8.084h-1.056v-8.084H66.232z"/>
<path fill="#333333" d="M68.057,152.043v-8.084h1.151l2.579,4.09c0.588,0.948,1.066,1.801,1.439,2.627l0.035-0.012
	c-0.097-1.08-0.119-2.063-0.119-3.322v-3.383h0.982v8.084H73.07l-2.566-4.102c-0.563-0.899-1.104-1.823-1.499-2.698l-0.036,0.012
	c0.061,1.021,0.071,1.991,0.071,3.334v3.454H68.057L68.057,152.043z"/>
<path fill="#333333" d="M82.766,148.493c-0.06-1.128-0.132-2.495-0.132-3.49h-0.024c-0.286,0.937-0.61,1.955-1.019,3.07
	l-1.428,3.922h-0.791l-1.319-3.851c-0.384-1.15-0.695-2.184-0.924-3.143h-0.023c-0.023,1.008-0.084,2.352-0.155,3.574l-0.216,3.466
	h-0.996l0.563-8.084h1.331l1.379,3.91c0.336,0.995,0.6,1.883,0.815,2.723h0.024c0.215-0.815,0.504-1.702,0.862-2.723l1.438-3.91
	h1.332l0.504,8.084h-1.031L82.766,148.493z"/>
<path fill="#333333" d="M89.773,148.253h-3.129v2.914h3.502v0.876h-4.559v-8.084h4.378v0.876h-3.321v2.556h3.129V148.253z"/>
<path fill="#333333" d="M91.505,152.043v-8.084h1.151l2.578,4.09c0.589,0.948,1.067,1.801,1.439,2.627l0.035-0.012
	c-0.096-1.08-0.119-2.063-0.119-3.322v-3.383h0.983v8.084h-1.056l-2.566-4.102c-0.563-0.899-1.104-1.823-1.499-2.698l-0.036,0.012
	c0.061,1.021,0.07,1.991,0.07,3.334v3.454H91.505L91.505,152.043z"/>
<path fill="#333333" d="M100.936,144.848h-2.457v-0.889h5.983v0.889h-2.471v7.195h-1.056V144.848L100.936,144.848z"/>
</svg>