<?xml version="1.0" encoding="utf-8"?>
<svg version="1.1" id="Layer_1" xmlns="http://www.w3.org/2000/svg" xmlns:xlink="http://www.w3.org/1999/xlink" x="0px" y="0px"
	 width="125px" height="155px" viewBox="0 0 125 155" enable-background="new 0 0 125 155" xml:space="preserve">
<path fill="#FF1D25" d="M124.5,62.5c0,34.26-27.745,62-62.039,62C28.245,124.5,0.5,96.76,0.5,62.5s27.745-62,61.961-62
	C96.755,0.5,124.5,28.24,124.5,62.5z"/>
<path fill="#FFFFFF" d="M68.313,40.039l-1.453-11.963l-35.624-0.252l-1.607,11.593l-1.673,12.112
	c-0.323,1.384-0.505,2.827-0.518,4.307c-0.077,10.45,8.207,19.111,18.921,20.286l-0.118,15.703
	c-2.133,1.551-6.351,2.581-11.174,2.545l-0.018,2.618l27.346,0.188l0.022-2.705c-4.839-0.033-9.033-1.133-11.151-2.701l0.113-15.657
	c10.537-1.187,18.739-9.646,18.811-19.967c0.019-1.47-0.145-2.9-0.446-4.285L68.313,40.039z"/>
<path fill="#FFFFFF" d="M97.561,44.373c0.008-0.647-0.063-1.29-0.215-1.909l-0.662-5.253l-0.672-5.325l-1.234-0.009
	c0.006,0.025,0.01,0.051,0.01,0.077l-0.092,12.444c0,0.127-0.034,0.25-0.103,0.355c0,0.084-0.021,0.162-0.041,0.248
	c-0.222,0.658-0.891,0.993-1.653,0.968c-0.984,0.236-2.049,0.125-3.142-0.147c-0.188-0.042-0.337-0.125-0.444-0.231
	c-0.441-0.196-0.592-0.661-0.457-1.043c-0.021-0.062-0.029-0.125-0.029-0.189l0.09-12.446c0.005-0.026,0.009-0.05,0.016-0.074
	l-2.041-0.016c0.008,0.023,0.012,0.049,0.014,0.077l-0.098,12.443c0,0.09-0.029,0.172-0.056,0.253c0,0.021,0.011,0.044,0.011,0.069
	c0.079,0.377-0.072,0.756-0.449,0.95c-0.158,0.225-0.436,0.385-0.838,0.38c-0.121,0.056-0.285,0.085-0.451,0.084
	c-0.039,0-0.063-0.002-0.104-0.005c-0.212,0.046-0.433,0.069-0.653,0.048c-0.23-0.021-0.443-0.069-0.658-0.121
	c-0.527-0.059-1.023-0.186-1.412-0.361c-0.1-0.045-0.18-0.105-0.248-0.176c-0.303-0.081-0.496-0.263-0.598-0.479
	c-0.246-0.156-0.406-0.403-0.406-0.686l0.094-12.442c0-0.027,0.008-0.051,0.008-0.077l-1.454-0.011l-0.749,5.158l-0.767,5.39
	c-0.156,0.618-0.239,1.257-0.249,1.915c-0.023,4.068,2.9,7.527,6.949,8.678l-0.938,16.332L82.68,89.453
	c-0.039,0.197-0.066,0.393-0.074,0.592c-0.017,2.08,2.106,3.787,4.744,3.807c2.614,0.021,4.758-1.656,4.782-3.737
	c-0.006-0.19-0.022-0.392-0.067-0.587l-0.836-19.991L90.539,52.94C94.568,51.837,97.529,48.427,97.561,44.373z"/>
<path fill="#333333" d="M48.024,143.895h4.354v0.875H49.08v2.688h3.046v0.863H49.08v3.658h-1.056V143.895z"/>
<path fill="#333333" d="M60.788,147.852c0,2.771-1.69,4.258-3.754,4.258c-2.146,0-3.634-1.666-3.634-4.112
	c0-2.567,1.583-4.246,3.742-4.246C59.361,143.75,60.788,145.441,60.788,147.852z M54.504,147.973c0,1.738,0.936,3.285,2.591,3.285
	c1.655,0,2.591-1.523,2.591-3.357c0-1.619-0.84-3.299-2.579-3.299C55.368,144.602,54.504,146.209,54.504,147.973z"/>
<path fill="#333333" d="M69.057,147.852c0,2.771-1.689,4.258-3.754,4.258c-2.146,0-3.634-1.666-3.634-4.112
	c0-2.567,1.583-4.246,3.742-4.246C67.63,143.75,69.057,145.441,69.057,147.852z M62.772,147.973c0,1.738,0.936,3.285,2.591,3.285
	c1.654,0,2.59-1.523,2.59-3.357c0-1.619-0.84-3.299-2.578-3.299C63.636,144.602,62.772,146.209,62.772,147.973z"/>
<path fill="#333333" d="M70.416,144.014c0.636-0.106,1.393-0.18,2.219-0.18c1.5,0,2.567,0.359,3.274,1.008
	c0.731,0.659,1.151,1.596,1.151,2.902c0,1.318-0.42,2.398-1.164,3.142c-0.768,0.757-2.015,1.164-3.586,1.164
	c-0.756,0-1.367-0.036-1.896-0.097L70.416,144.014L70.416,144.014z M71.46,151.162c0.265,0.036,0.647,0.048,1.056,0.048
	c2.242,0,3.441-1.247,3.441-3.43c0.014-1.907-1.066-3.119-3.273-3.119c-0.539,0-0.947,0.049-1.224,0.108V151.162z"/>
</svg>