<?xml version="1.0" encoding="utf-8"?>
<svg version="1.1" id="Layer_1" xmlns="http://www.w3.org/2000/svg" xmlns:xlink="http://www.w3.org/1999/xlink" x="0px" y="0px"
	 width="125px" height="155px" viewBox="0 0 125 155" enable-background="new 0 0 125 155" xml:space="preserve">
<path fill="#BF161C" d="M62.5,0.5c-34.233,0-62,27.759-62,62c0,34.236,27.767,62,62,62c34.232,0,62-27.764,62-62
	C124.5,28.259,96.732,0.5,62.5,0.5z M62.5,119.54c-31.494,0-57.04-25.542-57.04-57.04c0-31.502,25.546-57.04,57.04-57.04
	s57.04,25.538,57.04,57.04C119.54,93.998,93.994,119.54,62.5,119.54z"/>
<path fill="#BF161C" d="M124.5,62.499c0,34.26-27.745,62-62.039,62c-34.216,0-61.961-27.74-61.961-62s27.745-62,61.961-62
	C96.755,0.499,124.5,28.239,124.5,62.499z"/>
<path fill="#FFFFFF" d="M98.409,43.833l-16.9-7.94L64.432,27.87l-17.093,8.066l-16.734,7.907c-0.807,0.215-1.393,0.92-1.393,1.744
	v49.72c0,1.006,0.871,1.821,1.943,1.821h66.535c1.078,0,1.944-0.815,1.944-1.821V45.79C99.632,45.79,99.632,44.595,98.409,43.833z
	 M85.173,71.537H68.773v14.775h-8.699V71.537H43.786v-7.256h16.286V52.443h8.7V64.28h16.4L85.173,71.537L85.173,71.537z"/>
<path fill="#333333" d="M44.724,143.895v3.383h3.91v-3.383h1.055v8.084h-1.055v-3.791h-3.91v3.791h-1.056v-8.084H44.724z"/>
<path fill="#333333" d="M55.678,148.188h-3.13v2.914h3.502v0.877h-4.558v-8.084h4.378v0.875h-3.322v2.556h3.13V148.188z"/>
<path fill="#333333" d="M58.715,149.436l-0.84,2.543h-1.079l2.759-8.084h1.247l2.759,8.084h-1.116l-0.863-2.543H58.715z
	 M61.377,148.619l-0.803-2.326c-0.181-0.527-0.3-1.008-0.42-1.477H60.13c-0.12,0.469-0.239,0.973-0.407,1.463l-0.792,2.34H61.377z"
	/>
<path fill="#333333" d="M64.74,143.895h1.056v7.207h3.454v0.877h-4.51V143.895z"/>
<path fill="#333333" d="M70.895,144.781h-2.457v-0.889h5.983v0.889H71.95v7.195h-1.056V144.781L70.895,144.781z"/>
<path fill="#333333" d="M76.367,143.895v3.383h3.91v-3.383h1.055v8.084h-1.055v-3.791h-3.91v3.791h-1.057v-8.084H76.367z"/>
</svg>