<?xml version="1.0" encoding="utf-8"?>
<svg version="1.1" id="Layer_1" xmlns="http://www.w3.org/2000/svg" xmlns:xlink="http://www.w3.org/1999/xlink" x="0px" y="0px"
	 width="125px" height="155px" viewBox="0 0 125 155" enable-background="new 0 0 125 155" xml:space="preserve">
<path fill="#BA9B1C" d="M62.5,0.5c-34.233,0-62,27.759-62,62c0,34.237,27.767,62,62,62c34.232,0,62-27.763,62-62
	C124.5,28.259,96.732,0.5,62.5,0.5z M62.5,119.54c-31.494,0-57.04-25.542-57.04-57.04c0-31.502,25.546-57.04,57.04-57.04
	s57.04,25.538,57.04,57.04C119.54,93.998,93.994,119.54,62.5,119.54z"/>
<path fill="#BA9B1C" d="M99.892,87.725V85.63h-3.197v-1.215l-2.648-2.979l-2.756,2.979v1.215h-2.106V62.982h9.362L63.39,27.822
	l-35.157,35.16h8.591v22.646h-2.031v-1.215l-2.756-2.979l-2.648,2.979v1.215H26.19v2.096h3.197v3.529H26.19v2.096h3.197v3.824h5.406
	V93.35h2.03v3.824h2.271h5.404h13.379V77.891h10.396v19.287h13.313h5.402h2.196v-3.822h2.106v3.822h5.402v-3.822h3.198v-2.1h-3.198
	v-3.527h3.198v-0.002h-0.001V87.725z M36.823,91.255h-2.031v-3.53h2.031V91.255z M52.753,80.355H42.214V69.816h10.537L52.753,80.355
	L52.753,80.355z M83.794,80.355H73.253V69.816h10.541V80.355L83.794,80.355z M91.29,91.255h-2.106v-3.53h2.106V91.255L91.29,91.255z
	"/>
	<path fill="#7C7C7C" d="M48.545,144.179v3.383h3.91v-3.383h1.055v8.084h-1.055v-3.79h-3.91v3.79h-1.056v-8.084H48.545z"/>
	<path fill="#7C7C7C" d="M62.233,148.137c0,2.771-1.69,4.258-3.754,4.258c-2.146,0-3.634-1.667-3.634-4.113
		c0-2.567,1.583-4.246,3.742-4.246C60.807,144.035,62.233,145.727,62.233,148.137z M55.949,148.257c0,1.739,0.936,3.286,2.591,3.286
		s2.591-1.523,2.591-3.358c0-1.619-0.84-3.298-2.579-3.298S55.949,146.494,55.949,148.257z"/>
	<path fill="#7C7C7C" d="M70.405,148.713c-0.06-1.128-0.132-2.495-0.132-3.49h-0.024c-0.287,0.936-0.611,1.955-1.019,3.07
		l-1.428,3.922h-0.791l-1.319-3.85c-0.384-1.151-0.696-2.184-0.924-3.143h-0.024c-0.023,1.008-0.084,2.351-0.155,3.574l-0.216,3.466
		h-0.996l0.564-8.084h1.331l1.379,3.91c0.336,0.995,0.6,1.883,0.815,2.723h0.024c0.216-0.815,0.504-1.703,0.863-2.723l1.439-3.91
		h1.331l0.504,8.084h-1.031L70.405,148.713z"/>
	<path fill="#7C7C7C" d="M77.414,148.473h-3.13v2.914h3.502v0.876h-4.558v-8.084h4.378v0.876h-3.322v2.555h3.13V148.473z"/>
</svg>
