<?xml version="1.0" encoding="utf-8"?>
<svg version="1.1" id="Layer_1" xmlns="http://www.w3.org/2000/svg" xmlns:xlink="http://www.w3.org/1999/xlink" x="0px" y="0px"
	 width="125px" height="155px" viewBox="0 0 125 155" enable-background="new 0 0 125 155" xml:space="preserve">
<path fill="#BA9B1C" d="M124.5,62.5c0,34.26-27.745,62-62.039,62C28.245,124.5,0.5,96.76,0.5,62.5s27.745-62,61.961-62
	C96.755,0.5,124.5,28.24,124.5,62.5z"/>
<path fill="#FFFFFF" d="M99.893,87.725V85.63h-3.197v-1.215l-2.648-2.979l-2.756,2.979v1.215h-2.105V62.982h9.361l-35.156-35.16
	l-35.158,35.16h8.591v22.646h-2.031v-1.215l-2.756-2.979l-2.648,2.979v1.215H26.19v2.097h3.197v3.528H26.19v2.097h3.197v3.823h5.406
	V93.35h2.03v3.824h2.271h5.404h13.379V77.891h10.396v19.287h13.313h5.402h2.195v-3.822h2.106v3.822h5.401v-3.822h3.199v-2.1h-3.199
	v-3.527h3.199v-0.002h-0.002v-0.002H99.893z M36.823,91.255h-2.031v-3.53h2.031V91.255z M52.753,80.355H42.214v-10.54h10.537
	L52.753,80.355L52.753,80.355z M83.794,80.355H73.253v-10.54h10.541V80.355L83.794,80.355z M91.29,91.255h-2.106v-3.53h2.106V91.255
	L91.29,91.255z"/>
<path fill="#333333" d="M48.545,144.18v3.383h3.91v-3.383h1.055v8.084h-1.055v-3.791h-3.91v3.791h-1.056v-8.084H48.545z"/>
<path fill="#333333" d="M62.233,148.137c0,2.771-1.69,4.258-3.754,4.258c-2.146,0-3.634-1.666-3.634-4.112
	c0-2.567,1.583-4.246,3.742-4.246C60.807,144.035,62.233,145.727,62.233,148.137z M55.949,148.257c0,1.739,0.936,3.286,2.591,3.286
	c1.655,0,2.591-1.523,2.591-3.357c0-1.619-0.84-3.299-2.579-3.299C56.813,144.887,55.949,146.494,55.949,148.257z"/>
<path fill="#333333" d="M70.404,148.713c-0.059-1.128-0.131-2.495-0.131-3.49h-0.024c-0.287,0.937-0.61,1.955-1.019,3.07
	l-1.429,3.922h-0.791l-1.319-3.85c-0.383-1.151-0.695-2.184-0.924-3.143h-0.023c-0.023,1.008-0.084,2.351-0.155,3.573l-0.216,3.466
	h-0.996l0.564-8.084h1.33l1.379,3.91c0.336,0.995,0.601,1.883,0.815,2.723h0.024c0.216-0.814,0.504-1.703,0.863-2.723l1.438-3.91
	h1.331l0.504,8.084h-1.031L70.404,148.713z"/>
<path fill="#333333" d="M77.414,148.473h-3.13v2.914h3.502v0.877h-4.558v-8.084h4.377v0.875h-3.321v2.555h3.13V148.473z"/>
</svg>