<?xml version="1.0" encoding="utf-8"?>
<svg version="1.1" id="Layer_1" xmlns="http://www.w3.org/2000/svg" xmlns:xlink="http://www.w3.org/1999/xlink" x="0px" y="0px"
	 width="125px" height="155px" viewBox="0 0 125 155" enable-background="new 0 0 125 155" xml:space="preserve">
<path fill="#EDAC45" d="M62.5,0.5c-34.233,0-62,27.759-62,62c0,34.237,27.767,62,62,62c34.232,0,62-27.763,62-62
	C124.5,28.259,96.732,0.5,62.5,0.5z M62.5,119.54c-31.494,0-57.04-25.542-57.04-57.04c0-31.502,25.546-57.04,57.04-57.04
	s57.04,25.538,57.04,57.04C119.54,93.998,93.994,119.54,62.5,119.54z"/>
<path fill="#EDAC45" d="M77.418,27.166c-5.597,0-10.82,2.426-15.027,6.521c-3.987-3.373-8.688-5.324-13.729-5.324
	c-14.274,0-25.825,15.542-25.825,34.734c0,19.195,11.551,34.736,25.825,34.736c5.603,0,10.825-2.424,15.032-6.506
	c3.982,3.342,8.689,5.318,13.725,5.318c14.287,0,25.828-15.561,25.828-34.75C103.246,42.708,91.705,27.166,77.418,27.166z
	 M63.441,79.912c-3.321-4.688-5.368-11.016-5.368-18.01c0-6.403,1.728-12.274,4.571-16.813c3.316,4.687,5.367,11.031,5.367,18.011
	C68.01,69.518,66.283,75.373,63.441,79.912z M29.287,63.1c0-14.388,8.682-26.055,19.374-26.055c3.157,0,6.147,1.035,8.795,2.854
	C53.793,45.887,51.6,53.547,51.6,61.902c0,9.123,2.631,17.434,6.9,23.629c-2.895,2.293-6.238,3.623-9.839,3.623
	C37.969,89.156,29.287,77.488,29.287,63.1z M77.418,87.957c-3.152,0-6.146-1.033-8.787-2.84c3.66-5.99,5.854-13.666,5.854-22.021
	c0-9.123-2.632-17.434-6.897-23.615c2.896-2.307,6.229-3.623,9.83-3.623c10.698,0,19.383,11.652,19.383,26.043
	C96.799,76.289,88.114,87.957,77.418,87.957z"/>
	<path fill="#7C7C7C" d="M38.162,148.719c-0.06-1.128-0.132-2.495-0.132-3.49h-0.024c-0.287,0.936-0.611,1.955-1.019,3.07
		l-1.428,3.922h-0.791l-1.319-3.85c-0.384-1.151-0.696-2.184-0.924-3.143h-0.024c-0.023,1.008-0.084,2.351-0.155,3.574l-0.216,3.466
		h-0.996l0.564-8.084h1.331l1.379,3.91c0.336,0.995,0.6,1.883,0.815,2.723h0.024c0.216-0.815,0.504-1.703,0.863-2.723l1.439-3.91
		h1.331l0.504,8.084h-1.031L38.162,148.719z"/>
	<path fill="#7C7C7C" d="M42.186,149.726l-0.84,2.543h-1.079l2.759-8.084h1.247l2.759,8.084h-1.116l-0.863-2.543H42.186z
		 M44.848,148.91l-0.803-2.326c-0.181-0.528-0.3-1.008-0.42-1.476h-0.024c-0.12,0.468-0.239,0.972-0.407,1.463l-0.792,2.339H44.848z
		"/>
	<path fill="#7C7C7C" d="M48.833,145.072h-2.458v-0.888h5.984v0.888h-2.471v7.196h-1.056V145.072z"/>
	<path fill="#7C7C7C" d="M53.262,144.293c0.528-0.096,1.296-0.168,2.003-0.168c1.115,0,1.848,0.216,2.339,0.659
		c0.396,0.36,0.636,0.912,0.636,1.548c0,1.056-0.672,1.763-1.511,2.051v0.036c0.611,0.216,0.983,0.791,1.175,1.631
		c0.264,1.127,0.456,1.907,0.624,2.219h-1.079c-0.133-0.24-0.313-0.924-0.528-1.931c-0.239-1.115-0.684-1.535-1.631-1.571h-0.983
		v3.502h-1.044V144.293z M54.306,147.975h1.067c1.115,0,1.823-0.611,1.823-1.535c0-1.043-0.756-1.499-1.859-1.499
		c-0.504,0-0.852,0.036-1.031,0.084V147.975z"/>
	<path fill="#7C7C7C" d="M60.762,144.185v8.084h-1.056v-8.084H60.762z"/>
	<path fill="#7C7C7C" d="M69.397,148.719c-0.06-1.128-0.132-2.495-0.132-3.49h-0.024c-0.287,0.936-0.611,1.955-1.019,3.07
		l-1.428,3.922h-0.791l-1.319-3.85c-0.384-1.151-0.696-2.184-0.924-3.143h-0.024c-0.023,1.008-0.084,2.351-0.155,3.574l-0.216,3.466
		h-0.996l0.564-8.084h1.331l1.379,3.91c0.336,0.995,0.6,1.883,0.815,2.723h0.024c0.216-0.815,0.504-1.703,0.863-2.723l1.439-3.91
		h1.331l0.504,8.084H69.59L69.397,148.719z"/>
	<path fill="#7C7C7C" d="M79.142,148.143c0,2.771-1.69,4.258-3.754,4.258c-2.146,0-3.634-1.667-3.634-4.113
		c0-2.567,1.583-4.246,3.742-4.246C77.715,144.041,79.142,145.732,79.142,148.143z M72.857,148.263c0,1.739,0.936,3.286,2.591,3.286
		s2.59-1.523,2.59-3.358c0-1.619-0.839-3.298-2.578-3.298S72.857,146.5,72.857,148.263z"/>
	<path fill="#7C7C7C" d="M80.501,152.269v-8.084h1.151l2.579,4.09c0.588,0.948,1.067,1.8,1.439,2.627l0.035-0.012
		c-0.096-1.08-0.119-2.063-0.119-3.322v-3.383h0.983v8.084h-1.056l-2.566-4.102c-0.563-0.899-1.104-1.823-1.499-2.698l-0.036,0.012
		c0.06,1.02,0.071,1.991,0.071,3.334v3.454H80.501z"/>
	<path fill="#7C7C7C" d="M90.113,152.269v-3.43l-2.567-4.654h1.199l1.14,2.231c0.3,0.611,0.552,1.104,0.804,1.667h0.024
		c0.216-0.528,0.503-1.056,0.815-1.667l1.163-2.231h1.176l-2.699,4.642v3.442H90.113z"/>
</svg>