<?xml version="1.0" encoding="utf-8"?>
<svg version="1.1" id="Layer_1" xmlns="http://www.w3.org/2000/svg" xmlns:xlink="http://www.w3.org/1999/xlink" x="0px" y="0px"
	 width="125px" height="155px" viewBox="0 0 125 155" enable-background="new 0 0 125 155" xml:space="preserve">
<path fill="#18C6C6" d="M62.5,0.5c-34.233,0-62,27.759-62,62c0,34.237,27.767,62,62,62c34.232,0,62-27.763,62-62
	C124.5,28.259,96.732,0.5,62.5,0.5z M62.5,119.54c-31.494,0-57.04-25.542-57.04-57.04c0-31.502,25.546-57.04,57.04-57.04
	s57.04,25.538,57.04,57.04C119.54,93.998,93.994,119.54,62.5,119.54z"/>
	<path fill="#18C6C6" d="M56.814,90.223l1.937-7.371l-4.925-1.381l-0.748,7.896h0.001c-1.733,0.435-5.8,1.927-5.06,6.281
		c0,0,6.754,4.168,11.631,0C59.652,95.648,60.411,92.188,56.814,90.223z"/>
	<path fill="#18C6C6" d="M71.848,89.209l-0.01-7.914l-4.867,1.476l2.59,7.106l0.006-0.002c-1.861,0.791-4.101,2.447-3.533,5.773
		c0,0,6.756,4.166,11.635,0C77.666,95.648,78.789,90.533,71.848,89.209z"/>
	<path fill="#18C6C6" d="M94.739,48.199V32.234L90.05,27.5l-16.61,8.267c-11.729-14.83-23.211-0.01-23.219,0l-16.084-6.942
		l-3.566,3.409V47.92c-1.266,1.088-8.282,7.676,0,13.534v13.2l31.904,9.279l32.266-9.098V61.227
		C102.02,55.81,96.518,49.837,94.739,48.199z M47.313,64.426l-5.264-7.948v7.948h-1.271V54.313h1.361l5.262,7.941v-7.941h1.271
		l0.001,10.113H47.313z M58.408,64.426H50.93V54.313h7.245v1.193h-5.919v3.098H57.8v1.187h-5.544v3.442h6.153L58.408,64.426z
		 M69.468,64.426h-1.276l-2.112-7.706c-0.179-0.645-0.283-1.04-0.313-1.187c-0.104,0.464-0.203,0.86-0.295,1.187l-2.125,7.706
		h-1.354l-2.66-10.113h1.36l1.523,6.63c0.165,0.694,0.307,1.385,0.424,2.069c0.256-1.08,0.405-1.703,0.453-1.869l1.906-6.83h1.6
		l1.437,5.119c0.356,1.27,0.618,2.463,0.778,3.58c0.127-0.64,0.293-1.373,0.498-2.201l1.571-6.498h1.334L69.468,64.426z
		 M80.52,63.092c-0.307,0.476-0.744,0.847-1.314,1.109c-0.571,0.266-1.216,0.396-1.932,0.396c-0.905,0-1.668-0.137-2.28-0.399
		c-0.61-0.267-1.095-0.668-1.441-1.204c-0.35-0.536-0.528-1.143-0.55-1.818l1.25-0.109c0.063,0.507,0.196,0.922,0.415,1.247
		c0.218,0.323,0.554,0.586,1.009,0.784c0.455,0.201,0.973,0.302,1.539,0.302c0.508,0,0.952-0.073,1.342-0.229
		c0.389-0.149,0.676-0.359,0.863-0.623c0.188-0.266,0.283-0.554,0.283-0.867c0-0.316-0.092-0.594-0.271-0.83
		c-0.184-0.237-0.48-0.437-0.902-0.598c-0.27-0.105-0.862-0.271-1.784-0.492c-0.921-0.225-1.563-0.435-1.935-0.633
		c-0.479-0.253-0.834-0.566-1.068-0.941s-0.354-0.794-0.354-1.259c0-0.51,0.146-0.987,0.432-1.431
		c0.287-0.444,0.709-0.781,1.261-1.011c0.551-0.23,1.165-0.345,1.837-0.345c0.742,0,1.398,0.121,1.965,0.362
		c0.566,0.242,1.006,0.597,1.309,1.066c0.309,0.469,0.472,1,0.494,1.594l-1.271,0.097c-0.067-0.64-0.301-1.123-0.692-1.449
		c-0.396-0.327-0.978-0.49-1.748-0.49c-0.804,0-1.386,0.148-1.754,0.445c-0.365,0.297-0.55,0.654-0.55,1.073
		c0,0.363,0.129,0.662,0.39,0.896c0.256,0.233,0.924,0.475,2.002,0.721c1.076,0.246,1.814,0.462,2.217,0.646
		c0.582,0.271,1.014,0.615,1.293,1.031c0.275,0.416,0.416,0.896,0.416,1.438C80.979,62.107,80.825,62.614,80.52,63.092z"/>
	<path fill="#7C7C7C" d="M48.233,152.239v-8.084h1.151l2.579,4.09c0.588,0.948,1.067,1.8,1.439,2.627l0.035-0.012
		c-0.096-1.08-0.119-2.063-0.119-3.322v-3.383h0.983v8.084h-1.056l-2.566-4.102c-0.563-0.899-1.104-1.823-1.499-2.698l-0.036,0.012
		c0.06,1.02,0.071,1.991,0.071,3.334v3.454H48.233z"/>
	<path fill="#7C7C7C" d="M60.303,148.449h-3.13v2.914h3.502v0.876h-4.558v-8.084h4.378v0.876h-3.322v2.555h3.13V148.449z"/>
	<path fill="#7C7C7C" d="M63.46,152.239l-2.051-8.084h1.104l0.96,4.09c0.239,1.008,0.455,2.016,0.6,2.795h0.023
		c0.132-0.804,0.384-1.763,0.66-2.807l1.079-4.078h1.092l0.983,4.103c0.228,0.959,0.443,1.919,0.563,2.771h0.023
		c0.168-0.888,0.396-1.787,0.648-2.795l1.067-4.078h1.067l-2.291,8.084h-1.092l-1.02-4.21c-0.251-1.031-0.419-1.822-0.527-2.639
		h-0.023c-0.133,0.804-0.324,1.596-0.624,2.639l-1.151,4.21H63.46z"/>
	<path fill="#7C7C7C" d="M72.161,150.968c0.468,0.3,1.14,0.528,1.859,0.528c1.067,0,1.691-0.564,1.691-1.38
		c0-0.743-0.433-1.188-1.523-1.595c-1.319-0.479-2.135-1.176-2.135-2.303c0-1.26,1.043-2.195,2.614-2.195
		c0.815,0,1.428,0.192,1.775,0.396l-0.288,0.852c-0.252-0.156-0.792-0.384-1.523-0.384c-1.104,0-1.522,0.659-1.522,1.211
		c0,0.756,0.491,1.127,1.606,1.56c1.367,0.527,2.051,1.187,2.051,2.374c0,1.248-0.911,2.339-2.818,2.339
		c-0.779,0-1.631-0.24-2.063-0.527L72.161,150.968z"/>
</svg>