<?xml version="1.0" encoding="utf-8"?>
<svg version="1.1" id="Layer_1" xmlns="http://www.w3.org/2000/svg" xmlns:xlink="http://www.w3.org/1999/xlink" x="0px" y="0px"
	 width="125px" height="155px" viewBox="0 0 125 155" enable-background="new 0 0 125 155" xml:space="preserve">
<path fill="#B32480" d="M62.5,0.5c-34.233,0-62,27.759-62,62c0,34.237,27.767,62,62,62c34.232,0,62-27.763,62-62
	C124.5,28.259,96.732,0.5,62.5,0.5z M62.5,119.54c-31.494,0-57.04-25.542-57.04-57.04c0-31.502,25.546-57.04,57.04-57.04
	s57.04,25.538,57.04,57.04C119.54,93.998,93.994,119.54,62.5,119.54z"/>
<path fill="#B32480" d="M94.147,93.833l0.011-3.276l-3.015-0.002l0.008-3.28l-3.52-0.007l0.063-32.595l3.472,0.007l0.015-5.69
	l-0.068,0.002L77.11,38.442L63.113,27.824L49.004,38.386L34.967,48.877l-0.065-0.002l-0.013,5.69l3.599,0.008L38.41,87.169
	l0.96,0.002l-4.48-0.007l-0.008,3.278l-3.52-0.009l-0.006,3.273l-3.527-0.011l-0.006,3.338l69.35,0.143l0.004-3.341L94.147,93.833z
	 M78.777,87.248l0.063-32.593l3.627,0.006l-0.063,32.596l-8.721-0.02L78.777,87.248z M70.168,54.635l3.462,0.007l-0.064,32.598
	l-7.334-0.016l3.871,0.004L70.168,54.635z M63.095,37.622c2.102,0.003,3.853,1.935,3.849,4.277
	c-0.005,2.305-1.763,4.196-3.864,4.193c-2.169-0.003-3.868-1.904-3.859-4.208C59.224,39.541,60.929,37.616,63.095,37.622z
	 M41.05,54.577l6.303,0.013l-0.074,32.597l-3.656-0.007l0.079-32.596L41.05,54.577z M52.492,87.196l0.074-32.598l3.525,0.008
	L56.006,87.2l2.201,0.008L52.492,87.196z M58.495,54.61l6.463,0.014l-0.063,32.597l-3.672-0.008l0.084-32.595L58.495,54.61z"/>
	<path fill="#7C7C7C" d="M0.354,144.003c0.499-0.084,1.153-0.156,1.986-0.156c1.022,0,1.771,0.24,2.248,0.672
		c0.428,0.384,0.702,0.972,0.702,1.69c0,0.732-0.214,1.308-0.618,1.728c-0.56,0.588-1.439,0.888-2.45,0.888
		c-0.31,0-0.595-0.013-0.833-0.072v3.238H0.354V144.003z M1.388,147.9c0.226,0.061,0.511,0.084,0.856,0.084
		c1.249,0,2.01-0.624,2.01-1.715c0-1.079-0.761-1.596-1.891-1.596c-0.452,0-0.797,0.036-0.975,0.084V147.9z"/>
	<path fill="#7C7C7C" d="M13.535,147.864c0,2.771-1.677,4.258-3.723,4.258c-2.129,0-3.604-1.667-3.604-4.113
		c0-2.567,1.57-4.246,3.711-4.246C12.12,143.763,13.535,145.454,13.535,147.864z M7.303,147.984c0,1.739,0.928,3.286,2.569,3.286
		s2.569-1.523,2.569-3.358c0-1.619-0.832-3.298-2.557-3.298C8.159,144.614,7.303,146.222,7.303,147.984z"/>
	<path fill="#7C7C7C" d="M14.871,143.906h1.047v7.208h3.426v0.876h-4.473V143.906z"/>
	<path fill="#7C7C7C" d="M21.535,143.906v8.084h-1.047v-8.084H21.535z"/>
	<path fill="#7C7C7C" d="M24.867,144.794h-2.439v-0.888h5.935v0.888h-2.45v7.196h-1.046V144.794z"/>
	<path fill="#7C7C7C" d="M30.293,143.906v8.084h-1.047v-8.084H30.293z"/>
	<path fill="#7C7C7C" d="M37.692,151.738c-0.369,0.192-1.142,0.384-2.117,0.384c-2.26,0-3.949-1.439-3.949-4.102
		c0-2.543,1.701-4.246,4.187-4.246c0.987,0,1.629,0.216,1.903,0.36l-0.262,0.852c-0.38-0.192-0.94-0.336-1.605-0.336
		c-1.879,0-3.128,1.211-3.128,3.334c0,1.991,1.129,3.25,3.068,3.25c0.643,0,1.285-0.132,1.701-0.336L37.692,151.738z"/>
	<path fill="#7C7C7C" d="M40.348,149.447l-0.832,2.543h-1.071l2.735-8.084h1.237l2.736,8.084h-1.106l-0.857-2.543H40.348z
		 M42.989,148.632l-0.797-2.326c-0.178-0.528-0.297-1.008-0.416-1.476h-0.024c-0.119,0.468-0.238,0.972-0.404,1.463l-0.785,2.339
		H42.989z"/>
	<path fill="#7C7C7C" d="M46.323,143.906h1.047v7.208h3.425v0.876h-4.472V143.906z"/>
	<path fill="#7C7C7C" d="M60.587,151.631c-0.464,0.18-1.392,0.443-2.474,0.443c-1.212,0-2.212-0.312-2.997-1.067
		c-0.69-0.672-1.118-1.751-1.118-3.011c0-2.41,1.653-4.174,4.341-4.174c0.928,0,1.665,0.204,2.009,0.372l-0.261,0.852
		c-0.428-0.204-0.963-0.348-1.772-0.348c-1.95,0-3.223,1.224-3.223,3.25c0,2.051,1.213,3.263,3.092,3.263
		c0.678,0,1.142-0.097,1.38-0.216v-2.411h-1.618v-0.84h2.641V151.631z"/>
	<path fill="#7C7C7C" d="M69.012,147.864c0,2.771-1.676,4.258-3.723,4.258c-2.128,0-3.604-1.667-3.604-4.113
		c0-2.567,1.57-4.246,3.711-4.246C67.597,143.763,69.012,145.454,69.012,147.864z M62.78,147.984c0,1.739,0.928,3.286,2.569,3.286
		s2.568-1.523,2.568-3.358c0-1.619-0.832-3.298-2.557-3.298C63.636,144.614,62.78,146.222,62.78,147.984z"/>
	<path fill="#7C7C7C" d="M72.121,151.99l-2.629-8.084h1.13l1.249,3.982c0.333,1.091,0.63,2.074,0.855,3.022h0.024
		c0.226-0.936,0.547-1.955,0.916-3.011l1.356-3.994h1.105l-2.866,8.084H72.121z"/>
	<path fill="#7C7C7C" d="M81.14,148.2h-3.104v2.914h3.473v0.876h-4.52v-8.084h4.341v0.876h-3.294v2.555h3.104V148.2z"/>
	<path fill="#7C7C7C" d="M82.855,144.015c0.524-0.096,1.285-0.168,1.986-0.168c1.106,0,1.832,0.216,2.319,0.659
		c0.393,0.36,0.631,0.912,0.631,1.548c0,1.056-0.666,1.763-1.498,2.051v0.036c0.605,0.216,0.975,0.791,1.165,1.631
		c0.261,1.127,0.452,1.907,0.618,2.219h-1.069c-0.132-0.24-0.311-0.924-0.524-1.931c-0.237-1.115-0.678-1.535-1.617-1.571h-0.976
		v3.502h-1.035V144.015z M83.891,147.696h1.059c1.106,0,1.809-0.611,1.809-1.535c0-1.043-0.75-1.499-1.844-1.499
		c-0.5,0-0.845,0.036-1.023,0.084V147.696z"/>
	<path fill="#7C7C7C" d="M89.257,151.99v-8.084h1.142l2.558,4.09c0.583,0.948,1.059,1.8,1.428,2.627l0.035-0.012
		c-0.095-1.08-0.118-2.063-0.118-3.322v-3.383h0.975v8.084h-1.047l-2.545-4.102c-0.559-0.899-1.094-1.823-1.486-2.698l-0.036,0.012
		c0.06,1.02,0.071,1.991,0.071,3.334v3.454H89.257z"/>
	<path fill="#7C7C7C" d="M98.385,149.447l-0.833,2.543h-1.07l2.736-8.084h1.236l2.735,8.084h-1.105l-0.857-2.543H98.385z
		 M101.024,148.632l-0.796-2.326c-0.18-0.528-0.298-1.008-0.417-1.476h-0.023c-0.119,0.468-0.237,0.972-0.404,1.463l-0.785,2.339
		H101.024z"/>
	<path fill="#7C7C7C" d="M104.37,151.99v-8.084h1.142l2.558,4.09c0.583,0.948,1.059,1.8,1.428,2.627l0.035-0.012
		c-0.095-1.08-0.118-2.063-0.118-3.322v-3.383h0.976v8.084h-1.047l-2.546-4.102c-0.559-0.899-1.094-1.823-1.486-2.698l-0.035,0.012
		c0.059,1.02,0.07,1.991,0.07,3.334v3.454H104.37z"/>
	<path fill="#7C7C7C" d="M117.791,151.738c-0.369,0.192-1.142,0.384-2.118,0.384c-2.259,0-3.948-1.439-3.948-4.102
		c0-2.543,1.7-4.246,4.187-4.246c0.987,0,1.63,0.216,1.903,0.36l-0.262,0.852c-0.381-0.192-0.939-0.336-1.605-0.336
		c-1.879,0-3.128,1.211-3.128,3.334c0,1.991,1.13,3.25,3.068,3.25c0.643,0,1.284-0.132,1.701-0.336L117.791,151.738z"/>
	<path fill="#7C7C7C" d="M120.923,151.99v-3.43l-2.546-4.654h1.189l1.13,2.231c0.297,0.611,0.547,1.104,0.797,1.667h0.024
		c0.214-0.528,0.499-1.056,0.809-1.667l1.153-2.231h1.166l-2.677,4.642v3.442H120.923z"/>
</svg>