<?xml version="1.0" encoding="utf-8"?>
<svg version="1.1" id="Layer_1" xmlns="http://www.w3.org/2000/svg" xmlns:xlink="http://www.w3.org/1999/xlink" x="0px" y="0px"
	 width="125px" height="155px" viewBox="0 0 125 155" enable-background="new 0 0 125 155" xml:space="preserve">
<path fill="#B32480" d="M124.5,62.5c0,34.26-27.745,62-62.039,62C28.245,124.5,0.5,96.76,0.5,62.5s27.745-62,61.961-62
	C96.755,0.5,124.5,28.24,124.5,62.5z"/>
<path fill="#FFFFFF" d="M94.146,93.833l0.012-3.276l-3.016-0.002l0.008-3.279l-3.52-0.008l0.063-32.595l3.473,0.007l0.016-5.69
	l-0.068,0.002l-14.004-10.55L63.113,27.824L49.004,38.386L34.967,48.877l-0.065-0.002l-0.013,5.69l3.599,0.008L38.41,87.169
	l0.96,0.002l-4.48-0.007l-0.008,3.277l-3.52-0.008l-0.006,3.272l-3.527-0.011l-0.006,3.338l69.35,0.143l0.004-3.341L94.146,93.833z
	 M78.777,87.248l0.063-32.593l3.627,0.006l-0.063,32.596l-8.721-0.021L78.777,87.248z M70.168,54.635l3.462,0.007L73.566,87.24
	l-7.334-0.016l3.871,0.004L70.168,54.635z M63.096,37.622c2.102,0.003,3.853,1.935,3.848,4.277
	c-0.004,2.305-1.762,4.196-3.863,4.193c-2.169-0.003-3.868-1.904-3.859-4.208C59.224,39.541,60.929,37.616,63.096,37.622z
	 M41.05,54.577l6.303,0.013l-0.074,32.598l-3.656-0.008l0.079-32.596L41.05,54.577z M52.492,87.195l0.074-32.597l3.525,0.008
	L56.006,87.2l2.201,0.008L52.492,87.195z M58.495,54.61l6.463,0.014l-0.063,32.597l-3.671-0.008l0.084-32.595L58.495,54.61z"/>
<path fill="#333333" d="M0.354,144.003c0.499-0.084,1.153-0.155,1.986-0.155c1.022,0,1.771,0.239,2.248,0.672
	c0.428,0.383,0.702,0.972,0.702,1.689c0,0.732-0.214,1.309-0.618,1.729c-0.56,0.588-1.439,0.888-2.45,0.888
	c-0.31,0-0.595-0.013-0.833-0.072v3.238H0.354V144.003z M1.388,147.9c0.226,0.061,0.511,0.084,0.856,0.084
	c1.249,0,2.01-0.625,2.01-1.715c0-1.08-0.761-1.597-1.891-1.597c-0.452,0-0.797,0.036-0.975,0.084V147.9z"/>
<path fill="#333333" d="M13.535,147.864c0,2.771-1.677,4.258-3.723,4.258c-2.129,0-3.604-1.667-3.604-4.113
	c0-2.567,1.57-4.245,3.711-4.245C12.12,143.764,13.535,145.454,13.535,147.864z M7.303,147.984c0,1.738,0.928,3.285,2.569,3.285
	s2.569-1.522,2.569-3.357c0-1.619-0.832-3.299-2.557-3.299C8.159,144.614,7.303,146.223,7.303,147.984z"/>
<path fill="#333333" d="M14.871,143.906h1.047v7.208h3.426v0.876h-4.473V143.906z"/>
<path fill="#333333" d="M21.535,143.906v8.084h-1.047v-8.084H21.535z"/>
<path fill="#333333" d="M24.867,144.794h-2.439v-0.888h5.935v0.888h-2.45v7.196h-1.046V144.794z"/>
<path fill="#333333" d="M30.293,143.906v8.084h-1.047v-8.084H30.293z"/>
<path fill="#333333" d="M37.692,151.738c-0.369,0.191-1.142,0.384-2.117,0.384c-2.26,0-3.949-1.438-3.949-4.103
	c0-2.543,1.701-4.246,4.187-4.246c0.987,0,1.629,0.217,1.903,0.36l-0.262,0.853c-0.38-0.192-0.94-0.336-1.605-0.336
	c-1.879,0-3.128,1.211-3.128,3.334c0,1.99,1.129,3.25,3.068,3.25c0.643,0,1.285-0.133,1.701-0.336L37.692,151.738z"/>
<path fill="#333333" d="M40.348,149.447l-0.832,2.543h-1.071l2.735-8.084h1.237l2.736,8.084h-1.106l-0.857-2.543H40.348z
	 M42.989,148.632l-0.797-2.325c-0.178-0.529-0.297-1.009-0.416-1.477h-0.024c-0.119,0.468-0.238,0.972-0.404,1.463l-0.785,2.339
	H42.989z"/>
<path fill="#333333" d="M46.323,143.906h1.047v7.208h3.425v0.876h-4.472V143.906z"/>
<path fill="#333333" d="M60.587,151.631c-0.464,0.18-1.392,0.443-2.474,0.443c-1.212,0-2.212-0.313-2.997-1.067
	c-0.69-0.672-1.118-1.751-1.118-3.011c0-2.41,1.653-4.174,4.341-4.174c0.928,0,1.665,0.203,2.009,0.371l-0.261,0.853
	c-0.428-0.204-0.963-0.348-1.772-0.348c-1.95,0-3.223,1.224-3.223,3.25c0,2.051,1.213,3.263,3.092,3.263
	c0.678,0,1.142-0.098,1.38-0.216v-2.411h-1.618v-0.84h2.641V151.631z"/>
<path fill="#333333" d="M69.012,147.864c0,2.771-1.676,4.258-3.723,4.258c-2.128,0-3.604-1.667-3.604-4.113
	c0-2.567,1.57-4.245,3.711-4.245C67.598,143.764,69.012,145.454,69.012,147.864z M62.78,147.984c0,1.738,0.928,3.285,2.57,3.285
	c1.641,0,2.567-1.522,2.567-3.357c0-1.619-0.832-3.299-2.558-3.299C63.637,144.614,62.78,146.223,62.78,147.984z"/>
<path fill="#333333" d="M72.121,151.99l-2.629-8.084h1.13l1.249,3.982c0.333,1.09,0.63,2.073,0.855,3.021h0.023
	c0.227-0.936,0.547-1.955,0.916-3.012l1.355-3.994h1.105l-2.865,8.085L72.121,151.99L72.121,151.99z"/>
<path fill="#333333" d="M81.141,148.2h-3.104v2.914h3.473v0.876h-4.521v-8.084h4.342v0.876h-3.294v2.555h3.104V148.2z"/>
<path fill="#333333" d="M82.855,144.016c0.523-0.097,1.285-0.168,1.985-0.168c1.106,0,1.832,0.215,2.319,0.658
	c0.393,0.36,0.631,0.912,0.631,1.549c0,1.055-0.666,1.762-1.498,2.051v0.035c0.605,0.217,0.975,0.791,1.165,1.631
	c0.261,1.127,0.452,1.908,0.618,2.22h-1.069c-0.132-0.24-0.312-0.925-0.524-1.931c-0.236-1.115-0.678-1.535-1.616-1.572h-0.976
	v3.503h-1.035V144.016L82.855,144.016z M83.891,147.695h1.06c1.106,0,1.809-0.61,1.809-1.534c0-1.043-0.75-1.499-1.844-1.499
	c-0.5,0-0.845,0.036-1.022,0.084v2.949H83.891z"/>
<path fill="#333333" d="M89.257,151.99v-8.084h1.142l2.559,4.09c0.583,0.947,1.059,1.8,1.428,2.627l0.035-0.012
	c-0.095-1.08-0.118-2.063-0.118-3.322v-3.383h0.976v8.084H94.23l-2.545-4.102c-0.56-0.899-1.095-1.824-1.486-2.699l-0.036,0.013
	c0.06,1.021,0.071,1.991,0.071,3.334v3.454H89.257z"/>
<path fill="#333333" d="M98.385,149.447l-0.833,2.543h-1.069l2.735-8.084h1.236l2.735,8.084h-1.105l-0.857-2.543H98.385z
	 M101.023,148.632l-0.795-2.325c-0.181-0.529-0.299-1.009-0.418-1.477h-0.022c-0.119,0.468-0.237,0.972-0.404,1.463l-0.784,2.339
	H101.023z"/>
<path fill="#333333" d="M104.37,151.99v-8.084h1.142l2.559,4.09c0.582,0.947,1.059,1.8,1.428,2.627l0.035-0.012
	c-0.096-1.08-0.118-2.063-0.118-3.322v-3.383h0.976v8.084h-1.047l-2.546-4.102c-0.559-0.899-1.094-1.824-1.485-2.699l-0.035,0.013
	c0.059,1.021,0.07,1.991,0.07,3.334v3.454H104.37z"/>
<path fill="#333333" d="M117.791,151.738c-0.369,0.191-1.143,0.384-2.118,0.384c-2.259,0-3.948-1.438-3.948-4.103
	c0-2.543,1.7-4.246,4.188-4.246c0.986,0,1.63,0.217,1.902,0.36l-0.262,0.853c-0.381-0.192-0.939-0.336-1.604-0.336
	c-1.88,0-3.128,1.211-3.128,3.334c0,1.99,1.13,3.25,3.068,3.25c0.643,0,1.283-0.133,1.7-0.336L117.791,151.738z"/>
<path fill="#333333" d="M120.923,151.99v-3.43l-2.546-4.654h1.189l1.129,2.23c0.298,0.611,0.548,1.104,0.798,1.668h0.024
	c0.213-0.529,0.498-1.057,0.809-1.668l1.152-2.23h1.166l-2.677,4.642v3.442H120.923z"/>
</svg>