<?xml version="1.0" encoding="utf-8"?>
<svg version="1.1" id="Layer_1" xmlns="http://www.w3.org/2000/svg" xmlns:xlink="http://www.w3.org/1999/xlink" x="0px" y="0px"
	 width="125px" height="155px" viewBox="0 0 125 155" enable-background="new 0 0 125 155" xml:space="preserve">
<path fill="#1A92FF" d="M124.5,62.5c0,34.259-27.745,62-62.04,62c-34.215,0-61.96-27.74-61.96-62c0-34.26,27.745-62,61.96-62
	C96.755,0.5,124.5,28.241,124.5,62.5z"/>
<path fill="#FFFFFF" d="M91.207,52.306l6.385,3.952l0.049-7.781L65.436,28.525c-1.522-0.955-2.518-1.399-5.057-0.158
	c-1.024,0.604-2.313,1.668-3.29,2.123L27.385,48.337L27.358,56.1l6.365-3.828l-0.13,44.951l57.48,0.17L91.207,52.306z
	 M64.752,80.175c-0.036,0.021-0.229,0.031-0.229,0.269l-0.014,2.494c-0.002,0.681-0.631,1.231-1.402,1.229l-1.258-0.002
	c-0.774-0.004-1.405-0.558-1.401-1.248l0.006-2.365c0.002-0.185-0.213-0.245-0.256-0.252c-0.152-0.021-3.657-0.53-5.463-1.385
	c-0.452-0.216-0.801-0.69-0.573-1.279l0.651-1.575c0.2-0.48,0.691-0.785,1.247-0.783c0.207,0,0.404,0.045,0.593,0.125
	c0.033,0.021,2.977,1.262,5.146,1.27c2.551,0.012,4.338-1.217,4.342-2.982c0.008-1.623-1.252-2.733-4.333-3.83
	c-3.845-1.332-7.404-3.1-7.395-6.985c0.007-3.121,2.36-5.591,6.112-6.388c0.079-0.013,0.296-0.09,0.3-0.274v-2.383
	c0.002-0.679,0.637-1.235,1.41-1.233l1.21,0.003c0.777,0.003,1.412,0.56,1.412,1.241l0.002,2.266
	c-0.004,0.178,0.162,0.207,0.207,0.215c0.033,0.009,3,0.473,4.524,1.076c0.452,0.183,0.812,0.676,0.573,1.244L69.482,60.2
	c-0.201,0.459-0.678,0.748-1.223,0.744c-0.22,0-0.441-0.043-0.64-0.142c-0.013-0.012-1.908-0.894-4.373-0.899
	c-2.793-0.01-3.789,1.369-3.789,2.545c-0.01,1.463,1.072,2.283,4.797,3.646c4.896,1.756,6.983,3.953,6.976,7.358
	C71.217,76.761,68.746,79.38,64.752,80.175z"/>
<path fill="#333333" d="M32.454,143.984c0.528-0.096,1.295-0.168,2.003-0.168c1.115,0,1.847,0.216,2.338,0.658
	c0.396,0.36,0.636,0.912,0.636,1.549c0,1.056-0.672,1.763-1.511,2.051v0.035c0.612,0.217,0.984,0.791,1.175,1.632
	c0.264,1.127,0.456,1.907,0.624,2.219H36.64c-0.133-0.24-0.313-0.924-0.528-1.931c-0.24-1.115-0.684-1.535-1.631-1.571h-0.983v3.502
	h-1.043L32.454,143.984L32.454,143.984z M33.497,147.666h1.067c1.115,0,1.823-0.611,1.823-1.535c0-1.043-0.756-1.499-1.859-1.499
	c-0.504,0-0.852,0.036-1.031,0.084V147.666z"/>
<path fill="#333333" d="M43.083,148.17h-3.13v2.914h3.502v0.876h-4.558v-8.084h4.378v0.876h-3.322v2.555h3.13V148.17z"/>
<path fill="#333333" d="M46.12,149.417l-0.84,2.543h-1.079l2.759-8.084h1.247l2.759,8.084h-1.115l-0.864-2.543H46.12z
	 M48.782,148.602l-0.803-2.326c-0.181-0.527-0.3-1.008-0.42-1.476h-0.024c-0.12,0.468-0.239,0.972-0.407,1.464l-0.792,2.338H48.782z
	"/>
<path fill="#333333" d="M52.146,143.876h1.056v7.208h3.454v0.876h-4.51V143.876z"/>
<path fill="#333333" d="M61.994,148.17h-3.13v2.914h3.502v0.876h-4.558v-8.084h4.378v0.876h-3.322v2.555h3.13V148.17z"/>
<path fill="#333333" d="M63.593,150.688c0.468,0.301,1.14,0.528,1.859,0.528c1.067,0,1.69-0.563,1.69-1.38
	c0-0.743-0.433-1.188-1.522-1.595c-1.319-0.479-2.136-1.177-2.136-2.304c0-1.26,1.043-2.194,2.615-2.194
	c0.814,0,1.428,0.192,1.774,0.396l-0.288,0.853c-0.252-0.156-0.792-0.384-1.523-0.384c-1.104,0-1.522,0.658-1.522,1.211
	c0,0.756,0.492,1.127,1.606,1.56c1.367,0.526,2.052,1.187,2.052,2.374c0,1.248-0.911,2.339-2.818,2.339
	c-0.778,0-1.631-0.239-2.063-0.526L63.593,150.688z"/>
<path fill="#333333" d="M71.176,144.764h-2.458v-0.888h5.984v0.888H72.23v7.196h-1.056L71.176,144.764L71.176,144.764z"/>
<path fill="#333333" d="M76.012,149.417l-0.84,2.543h-1.079l2.759-8.084H78.1l2.758,8.084h-1.115l-0.863-2.543H76.012z
	 M78.674,148.602l-0.803-2.326c-0.182-0.527-0.301-1.008-0.42-1.476h-0.024c-0.12,0.468-0.239,0.972-0.407,1.464l-0.791,2.338
	H78.674z"/>
<path fill="#333333" d="M82.66,144.764h-2.458v-0.888h5.983v0.888h-2.471v7.196H82.66V144.764z"/>
<path fill="#333333" d="M91.264,148.17h-3.131v2.914h3.502v0.876h-4.558v-8.084h4.378v0.876h-3.322v2.555h3.131V148.17z"/>
</svg>