<?xml version="1.0" encoding="utf-8"?>
<svg version="1.1" id="Layer_1" xmlns="http://www.w3.org/2000/svg" xmlns:xlink="http://www.w3.org/1999/xlink" x="0px" y="0px"
	 width="125px" height="155px" viewBox="0 0 125 155" enable-background="new 0 0 125 155" xml:space="preserve">
<path fill="#02D34D" d="M62.5,0.5c-34.233,0-62,27.759-62,62c0,34.237,27.767,62,62,62c34.232,0,62-27.763,62-62
	C124.5,28.259,96.732,0.5,62.5,0.5z M62.5,119.54c-31.494,0-57.04-25.542-57.04-57.04c0-31.502,25.546-57.04,57.04-57.04
	s57.04,25.538,57.04,57.04C119.54,93.998,93.994,119.54,62.5,119.54z"/>
<rect x="51.514" y="68.817" fill="#02D34D" width="25.825" height="4.496"/>
<rect x="44.247" y="76.804" fill="#02D34D" width="40.358" height="4.49"/>
<rect x="29.806" y="92.597" fill="#02D34D" width="69.417" height="4.488"/>
<rect x="37.068" y="84.806" fill="#02D34D" width="54.883" height="4.488"/>
<path fill="#02D34D" d="M84.624,40.757c-1.449,0-2.804,0.304-4.087,0.839c-1.743-7.854-8.232-13.681-16.025-13.681
	c-7.773,0-14.271,5.827-16.019,13.681c-1.266-0.536-2.644-0.839-4.082-0.839c-6.277,0-11.342,5.493-11.342,12.286
	c0,6.782,5.065,12.278,11.342,12.278h14.034V54.372h0.058c0.376-2.69,2.916-4.782,6.005-4.782c3.105,0,5.643,2.092,6.016,4.782
	h0.049v10.95h15.867v-0.164c5.398-0.944,9.518-6.002,9.518-12.115C95.956,46.251,90.896,40.757,84.624,40.757z"/>
	<path fill="#7C7C7C" d="M36.492,144.128c0.528-0.096,1.296-0.168,2.003-0.168c1.115,0,1.848,0.216,2.339,0.659
		c0.396,0.36,0.636,0.912,0.636,1.548c0,1.056-0.672,1.763-1.511,2.051v0.036c0.611,0.216,0.983,0.791,1.175,1.631
		c0.264,1.127,0.456,1.907,0.624,2.219h-1.079c-0.133-0.24-0.313-0.924-0.528-1.931c-0.239-1.115-0.684-1.535-1.631-1.571h-0.983
		v3.502h-1.044V144.128z M37.536,147.81h1.067c1.115,0,1.823-0.611,1.823-1.535c0-1.043-0.756-1.499-1.859-1.499
		c-0.504,0-0.852,0.036-1.031,0.084V147.81z"/>
	<path fill="#7C7C7C" d="M47.122,148.313h-3.13v2.914h3.502v0.876h-4.558v-8.084h4.378v0.876h-3.322v2.555h3.13V148.313z"/>
	<path fill="#7C7C7C" d="M48.84,144.02h1.056v7.208h3.454v0.876h-4.51V144.02z"/>
	<path fill="#7C7C7C" d="M55.56,144.02v8.084h-1.056v-8.084H55.56z"/>
	<path fill="#7C7C7C" d="M63.549,151.744c-0.468,0.18-1.403,0.443-2.495,0.443c-1.223,0-2.23-0.312-3.021-1.067
		c-0.696-0.672-1.128-1.751-1.128-3.011c0-2.41,1.667-4.174,4.378-4.174c0.936,0,1.679,0.204,2.026,0.372l-0.264,0.852
		c-0.432-0.204-0.972-0.348-1.787-0.348c-1.967,0-3.25,1.224-3.25,3.25c0,2.051,1.224,3.263,3.118,3.263
		c0.684,0,1.151-0.097,1.392-0.216v-2.411h-1.632v-0.84h2.663V151.744z"/>
	<path fill="#7C7C7C" d="M66.18,144.02v8.084h-1.056v-8.084H66.18z"/>
	<path fill="#7C7C7C" d="M74.912,147.978c0,2.771-1.69,4.258-3.754,4.258c-2.146,0-3.634-1.667-3.634-4.113
		c0-2.567,1.583-4.246,3.742-4.246C73.485,143.876,74.912,145.567,74.912,147.978z M68.628,148.098c0,1.739,0.936,3.286,2.591,3.286
		s2.591-1.523,2.591-3.358c0-1.619-0.84-3.298-2.579-3.298S68.628,146.335,68.628,148.098z"/>
	<path fill="#7C7C7C" d="M77.315,144.02v4.798c0,1.799,0.804,2.566,1.883,2.566c1.188,0,1.967-0.791,1.967-2.566v-4.798h1.056v4.726
		c0,2.482-1.308,3.49-3.059,3.49c-1.655,0-2.902-0.936-2.902-3.454v-4.762H77.315z"/>
	<path fill="#7C7C7C" d="M83.903,150.832c0.468,0.3,1.14,0.528,1.859,0.528c1.067,0,1.691-0.564,1.691-1.38
		c0-0.743-0.433-1.188-1.523-1.595c-1.319-0.479-2.135-1.176-2.135-2.303c0-1.26,1.043-2.195,2.614-2.195
		c0.815,0,1.428,0.192,1.775,0.396l-0.288,0.852c-0.252-0.156-0.792-0.384-1.523-0.384c-1.104,0-1.523,0.659-1.523,1.211
		c0,0.756,0.492,1.127,1.607,1.56c1.367,0.527,2.051,1.187,2.051,2.374c0,1.248-0.911,2.339-2.818,2.339
		c-0.779,0-1.631-0.24-2.063-0.527L83.903,150.832z"/>
</svg>