<?xml version="1.0" encoding="utf-8"?>
<svg version="1.1" id="Layer_1" xmlns="http://www.w3.org/2000/svg" xmlns:xlink="http://www.w3.org/1999/xlink" x="0px" y="0px"
	 width="125px" height="155px" viewBox="0 0 125 155" enable-background="new 0 0 125 155" xml:space="preserve">
<path fill="#02D34D" d="M62.5,0.5c-34.233,0-62,27.759-62,62c0,34.236,27.767,62,62,62c34.232,0,62-27.764,62-62
	C124.5,28.259,96.732,0.5,62.5,0.5z M62.5,119.54c-31.494,0-57.04-25.542-57.04-57.04c0-31.502,25.546-57.04,57.04-57.04
	s57.04,25.538,57.04,57.04C119.54,93.998,93.994,119.54,62.5,119.54z"/>
<path fill="#02D34D" d="M124.5,62.5c0,34.26-27.745,62-62.039,62C28.245,124.5,0.5,96.76,0.5,62.5s27.745-62,61.961-62
	C96.755,0.5,124.5,28.24,124.5,62.5z"/>
<rect x="51.514" y="68.817" fill="#FFFFFF" width="25.825" height="4.496"/>
<rect x="44.247" y="76.804" fill="#FFFFFF" width="40.358" height="4.49"/>
<rect x="29.806" y="92.598" fill="#FFFFFF" width="69.417" height="4.487"/>
<rect x="37.068" y="84.807" fill="#FFFFFF" width="54.883" height="4.487"/>
<path fill="#FFFFFF" d="M84.624,40.757c-1.449,0-2.804,0.304-4.087,0.839c-1.743-7.854-8.232-13.681-16.025-13.681
	c-7.773,0-14.271,5.827-16.019,13.681c-1.266-0.536-2.644-0.839-4.082-0.839c-6.277,0-11.342,5.493-11.342,12.286
	c0,6.782,5.065,12.278,11.342,12.278h14.034V54.372h0.058c0.376-2.69,2.916-4.782,6.005-4.782c3.105,0,5.643,2.092,6.016,4.782h0.05
	v10.95h15.866v-0.164c5.398-0.944,9.519-6.002,9.519-12.115C95.956,46.251,90.896,40.757,84.624,40.757z"/>
<path fill="#333333" d="M36.492,144.128c0.528-0.096,1.296-0.168,2.003-0.168c1.115,0,1.848,0.216,2.339,0.659
	c0.396,0.359,0.636,0.912,0.636,1.548c0,1.056-0.672,1.763-1.511,2.051v0.036c0.611,0.217,0.983,0.791,1.175,1.631
	c0.264,1.127,0.456,1.907,0.624,2.219h-1.079c-0.133-0.24-0.313-0.924-0.528-1.931c-0.239-1.114-0.684-1.534-1.631-1.571h-0.983
	v3.502h-1.044L36.492,144.128L36.492,144.128z M37.536,147.811h1.067c1.115,0,1.823-0.611,1.823-1.535c0-1.043-0.756-1.5-1.859-1.5
	c-0.504,0-0.852,0.037-1.031,0.084V147.811L37.536,147.811z"/>
<path fill="#333333" d="M47.122,148.313h-3.13v2.914h3.502v0.877h-4.558v-8.084h4.378v0.875h-3.322v2.556h3.13V148.313z"/>
<path fill="#333333" d="M48.84,144.02h1.056v7.209h3.454v0.875h-4.51V144.02z"/>
<path fill="#333333" d="M55.56,144.02v8.084h-1.056v-8.084H55.56z"/>
<path fill="#333333" d="M63.549,151.744c-0.468,0.18-1.403,0.443-2.495,0.443c-1.223,0-2.23-0.313-3.021-1.067
	c-0.696-0.672-1.128-1.751-1.128-3.011c0-2.41,1.667-4.174,4.378-4.174c0.936,0,1.679,0.203,2.025,0.371l-0.264,0.853
	c-0.432-0.204-0.972-0.349-1.787-0.349c-1.967,0-3.25,1.225-3.25,3.25c0,2.051,1.224,3.264,3.118,3.264
	c0.684,0,1.151-0.098,1.392-0.217v-2.41h-1.632v-0.84h2.663V151.744L63.549,151.744z"/>
<path fill="#333333" d="M66.18,144.02v8.084h-1.056v-8.084H66.18z"/>
<path fill="#333333" d="M74.912,147.979c0,2.771-1.689,4.258-3.754,4.258c-2.146,0-3.635-1.668-3.635-4.113
	c0-2.566,1.584-4.246,3.742-4.246C73.484,143.876,74.912,145.566,74.912,147.979z M68.628,148.098c0,1.739,0.937,3.286,2.591,3.286
	c1.655,0,2.592-1.522,2.592-3.358c0-1.618-0.84-3.297-2.58-3.297C69.492,144.729,68.628,146.335,68.628,148.098z"/>
<path fill="#333333" d="M77.314,144.02v4.799c0,1.799,0.805,2.565,1.884,2.565c1.188,0,1.967-0.791,1.967-2.565v-4.799h1.056v4.727
	c0,2.482-1.308,3.49-3.059,3.49c-1.655,0-2.902-0.937-2.902-3.454v-4.763H77.314z"/>
<path fill="#333333" d="M83.902,150.832c0.469,0.3,1.141,0.527,1.859,0.527c1.067,0,1.691-0.563,1.691-1.379
	c0-0.744-0.434-1.188-1.523-1.596c-1.318-0.479-2.135-1.176-2.135-2.303c0-1.26,1.043-2.195,2.614-2.195
	c0.815,0,1.428,0.192,1.774,0.396l-0.287,0.852c-0.252-0.156-0.793-0.384-1.523-0.384c-1.104,0-1.523,0.659-1.523,1.211
	c0,0.756,0.492,1.127,1.607,1.56c1.367,0.527,2.051,1.188,2.051,2.375c0,1.248-0.91,2.338-2.818,2.338
	c-0.778,0-1.631-0.239-2.063-0.526L83.902,150.832z"/>
</svg>