<?xml version="1.0" encoding="utf-8"?>
<svg version="1.1" id="Layer_1" xmlns="http://www.w3.org/2000/svg" xmlns:xlink="http://www.w3.org/1999/xlink" x="0px" y="0px"
	 width="125px" height="155px" viewBox="0 0 125 155" enable-background="new 0 0 125 155" xml:space="preserve">
<path fill="#18D1BF" d="M83.572,52.591c0-0.325,0.124-0.63,0.351-0.859c1.006-1.021,1.006-2.686,0-3.707L71.188,35.121
	c0.811-1.347,1.884-4.216,0.114-8.452c-0.15-0.361-0.483-0.612-0.871-0.656c-0.039-0.005-0.078,0.003-0.117,0.003l0,0
	c-0.002,0-0.002,0-0.003,0c-0.086,0-0.167,0.008-0.246,0.028c-0.004,0.001-0.008,0.002-0.01,0.003
	c-0.076,0.02-0.147,0.043-0.224,0.081c-0.021,0.012-0.046,0.03-0.069,0.043c-0.05,0.03-0.096,0.057-0.141,0.093
	c-0.064,0.057-0.135,0.122-0.185,0.196c-1.547,2.19-4.646,4.188-8.233,6.5c-1.005,0.646-2.039,1.314-3.081,2.011
	c-0.182,0.122-0.363,0.245-0.547,0.369c-0.419,0.284-0.838,0.572-1.258,0.867c-4.463,3.146-8.836,6.975-11.44,12.378
	c-0.121,0.252-0.24,0.506-0.352,0.765c-0.199,0.45-0.382,0.911-0.555,1.384c-0.434,1.19-0.79,2.448-1.043,3.789
	c-0.011,0.059-0.019,0.118-0.029,0.178c-0.28,1.541-0.434,3.183-0.434,4.943c0,0,0,0,0,0.001l0,0c0,12.3,6.472,17.642,8.457,18.987
	c0.528,0.356,1.143,0.544,1.782,0.544h0.469c0.591,0,1.071,0.488,1.071,1.088c0,0.599-0.48,1.089-1.071,1.089H47.82
	c-0.25,0-0.494,0.09-0.686,0.252l-5.653,4.776c-0.735,0.62-1.158,1.532-1.158,2.499v5.495c0,0.6,0.478,1.086,1.072,1.086h20.348
	h20.343c0.592,0,1.069-0.482,1.069-1.086V88.88c0-0.971-0.422-1.88-1.154-2.5l-5.655-4.775c-0.188-0.167-0.429-0.257-0.68-0.257
	h-5.355c-0.592,0-1.072-0.486-1.072-1.087c0-0.602,0.479-1.087,1.072-1.087h0.956c1.112,0,2.132-0.569,2.723-1.53l2.101-3.403
	c1.803-2.926,1.434-6.716-0.899-9.235L64.836,53.851l-0.941-1.015c1.161,0.167,2.589,0.292,4.279,0.292
	c4.054,0,5.948,2.119,7.619,3.988c0.564,0.631,1.097,1.227,1.677,1.688c0.852,0.68,2.078,0.607,2.842-0.167l3.609-3.659
	c0.418-0.424,0.418-1.111,0-1.535C83.696,53.221,83.572,52.916,83.572,52.591z"/>
<path fill="#18D1BF" d="M62.5,0.5c-34.233,0-62,27.759-62,62c0,34.237,27.767,62,62,62c34.232,0,62-27.763,62-62
	C124.5,28.259,96.732,0.5,62.5,0.5z M62.5,119.54c-31.494,0-57.04-25.542-57.04-57.04c0-31.502,25.546-57.04,57.04-57.04
	s57.04,25.538,57.04,57.04C119.54,93.998,93.994,119.54,62.5,119.54z"/>
	<path fill="#7C7C7C" d="M44.125,150.735c0.459,0.3,1.118,0.528,1.824,0.528c1.047,0,1.659-0.564,1.659-1.38
		c0-0.743-0.424-1.188-1.494-1.595c-1.294-0.479-2.094-1.176-2.094-2.303c0-1.26,1.023-2.195,2.565-2.195
		c0.8,0,1.4,0.192,1.741,0.396l-0.283,0.852c-0.247-0.156-0.776-0.384-1.494-0.384c-1.082,0-1.494,0.659-1.494,1.211
		c0,0.756,0.482,1.127,1.576,1.56c1.341,0.527,2.012,1.187,2.012,2.374c0,1.247-0.894,2.339-2.765,2.339
		c-0.765,0-1.6-0.24-2.023-0.527L44.125,150.735z"/>
	<path fill="#7C7C7C" d="M50.055,144.02c0.494-0.084,1.141-0.156,1.965-0.156c1.012,0,1.753,0.24,2.223,0.672
		c0.424,0.384,0.694,0.972,0.694,1.69c0,0.732-0.212,1.308-0.612,1.728c-0.553,0.588-1.423,0.888-2.423,0.888
		c-0.306,0-0.588-0.013-0.824-0.072v3.238h-1.023V144.02z M51.078,147.917c0.224,0.06,0.506,0.084,0.847,0.084
		c1.235,0,1.988-0.624,1.988-1.715c0-1.079-0.753-1.596-1.871-1.596c-0.447,0-0.788,0.036-0.965,0.084V147.917z"/>
	<path fill="#7C7C7C" d="M63.091,147.881c0,2.771-1.659,4.258-3.682,4.258c-2.106,0-3.565-1.667-3.565-4.113
		c0-2.567,1.553-4.246,3.671-4.246C61.691,143.779,63.091,145.471,63.091,147.881z M56.926,148.001c0,1.739,0.917,3.286,2.541,3.286
		s2.541-1.523,2.541-3.358c0-1.619-0.823-3.298-2.529-3.298C57.773,144.631,56.926,146.238,56.926,148.001z"/>
	<path fill="#7C7C7C" d="M64.422,144.031c0.518-0.096,1.27-0.168,1.965-0.168c1.094,0,1.811,0.216,2.293,0.66
		c0.389,0.359,0.624,0.911,0.624,1.547c0,1.056-0.659,1.763-1.482,2.051v0.036c0.601,0.216,0.965,0.791,1.153,1.631
		c0.258,1.127,0.447,1.907,0.611,2.219h-1.059c-0.129-0.24-0.307-0.924-0.518-1.931c-0.235-1.115-0.671-1.535-1.6-1.571h-0.965
		v3.502h-1.023V144.031z M65.445,147.713h1.047c1.094,0,1.788-0.611,1.788-1.535c0-1.043-0.741-1.499-1.823-1.499
		c-0.494,0-0.836,0.036-1.012,0.084V147.713z"/>
	<path fill="#7C7C7C" d="M72.363,144.811h-2.412v-0.888h5.871v0.888h-2.424v7.196h-1.035V144.811z"/>
	<path fill="#7C7C7C" d="M76.506,150.735c0.459,0.3,1.117,0.528,1.823,0.528c1.047,0,1.659-0.564,1.659-1.38
		c0-0.743-0.424-1.188-1.494-1.595c-1.295-0.479-2.095-1.176-2.095-2.303c0-1.26,1.023-2.195,2.565-2.195
		c0.799,0,1.399,0.192,1.74,0.396l-0.282,0.852c-0.247-0.156-0.776-0.384-1.494-0.384c-1.082,0-1.493,0.659-1.493,1.211
		c0,0.756,0.481,1.127,1.576,1.56c1.341,0.527,2.012,1.187,2.012,2.374c0,1.247-0.895,2.339-2.766,2.339
		c-0.764,0-1.6-0.24-2.023-0.527L76.506,150.735z"/>
</svg>