<?xml version="1.0" encoding="utf-8"?>
<svg version="1.1" id="Layer_1" xmlns="http://www.w3.org/2000/svg" xmlns:xlink="http://www.w3.org/1999/xlink" x="0px" y="0px"
	 width="125px" height="155px" viewBox="0 0 125 155" enable-background="new 0 0 125 155" xml:space="preserve">
<path fill="#DB2ABA" d="M124.5,62.5c0,34.26-27.745,62-62.04,62c-34.215,0-61.96-27.74-61.96-62s27.745-62,61.96-62
	C96.755,0.5,124.5,28.24,124.5,62.5z"/>
<path fill="#FFFFFF" d="M98.971,61.842c-0.063-1.79-0.912-3.395-2.238-4.537l0.021-0.028l-0.188-0.115
	c-0.461-0.376-0.979-0.693-1.541-0.945L67.297,39.125l-0.43-0.557v-3.125h-0.163v-0.082l0.084-0.006
	c-0.021-2.103,1.22-3.903,3.009-4.505c0.086-0.018,0.176-0.031,0.264-0.039c2.391-0.198,4.555,1.56,5.006,3.988l2.547-0.21
	c0-0.004-0.002-0.008-0.006-0.014l0.478-0.03c-0.545-3.937-3.838-6.85-7.51-6.58c-0.519,0.034-1.007,0.132-1.482,0.288
	c-3.306,0.612-5.69,3.6-5.688,7.124h-0.105v3.127c0.002,0.074,0.002,0.112,0.006,0.165v0.003L33.929,56.501
	c-1.631,0.733-2.922,2.06-3.523,3.72c-0.539,1.146-0.694,2.398-0.353,3.63c0.358,1.324,1.224,2.434,2.411,3.256
	c0.881,0.679,1.968,1.156,3.172,1.337l0.003-0.025c0.903,0.181,1.869,0.239,2.856,0.169h2.771v28.465h46.792V68.582h2.746
	c0.436,0.039,0.866,0.039,1.301,0h0.504c0.063-0.021,0.129-0.031,0.188-0.046c1.834-0.228,3.448-1.093,4.573-2.349
	c0.02-0.021,0.035-0.036,0.052-0.063c0.025-0.021,0.045-0.053,0.073-0.08c0.57-0.668,1.021-1.449,1.259-2.316
	C98.941,63.096,99.006,62.461,98.971,61.842z M95.928,63.163c-0.41,1.485-1.664,2.576-3.178,2.979h-4.691v-3.225H41.265v3.225
	h-3.236l-0.012-0.088c-2.247,0.145-4.286-1.256-4.633-3.266c-0.297-1.638,0.623-3.208,2.151-3.989l0.015,0.023l0.177-0.108
	c0.295-0.139,0.603-0.246,0.926-0.317l-0.038-0.225l0.038-0.021c0.063-0.003,0.143-0.009,0.211-0.009l0.011-0.125L65.04,40.912
	l27.226,16.792v0.176c0.125,0.01,0.242,0.025,0.355,0.049l0.393,0.24l-0.021,0.081c0.135,0.039,0.247,0.087,0.372,0.132l0.775,0.475
	l0.037-0.055C95.645,59.767,96.398,61.472,95.928,63.163z"/>
<path fill="#333333" d="M42.652,144.975h-2.458v-0.889h5.984v0.889h-2.471v7.195h-1.056L42.652,144.975L42.652,144.975z"/>
<path fill="#333333" d="M51.255,148.38h-3.13v2.914h3.502v0.876h-4.558v-8.084h4.378v0.876h-3.322v2.556h3.13V148.38z"/>
<path fill="#333333" d="M57.411,152.17l-1.043-1.787c-0.42-0.684-0.672-1.127-0.924-1.595H55.42
	c-0.228,0.468-0.468,0.899-0.875,1.606l-0.972,1.774h-1.199l2.471-4.09l-2.375-3.994h1.212l1.067,1.896
	c0.3,0.527,0.527,0.937,0.743,1.367h0.036c0.228-0.479,0.432-0.852,0.731-1.367l1.092-1.896h1.211l-2.458,3.935l2.519,4.149
	L57.411,152.17L57.411,152.17z"/>
<path fill="#333333" d="M61.468,144.975H59.01v-0.889h5.984v0.889h-2.471v7.195h-1.056L61.468,144.975L61.468,144.975z"/>
<path fill="#333333" d="M66.939,144.086v8.084h-1.056v-8.084H66.939z"/>
<path fill="#333333" d="M68.753,144.086h1.056v7.208h3.455v0.876h-4.511V144.086z"/>
<path fill="#333333" d="M78.604,148.38h-3.131v2.914h3.502v0.876h-4.558v-8.084h4.378v0.876h-3.322v2.556h3.131V148.38z"/>
<path fill="#333333" d="M80.2,150.898c0.468,0.3,1.14,0.527,1.858,0.527c1.067,0,1.691-0.564,1.691-1.38
	c0-0.743-0.434-1.188-1.523-1.595c-1.318-0.479-2.135-1.176-2.135-2.303c0-1.26,1.043-2.195,2.614-2.195
	c0.815,0,1.428,0.191,1.774,0.396l-0.287,0.852c-0.252-0.156-0.793-0.385-1.523-0.385c-1.104,0-1.523,0.66-1.523,1.211
	c0,0.757,0.492,1.127,1.607,1.561c1.367,0.527,2.051,1.188,2.051,2.374c0,1.248-0.91,2.339-2.818,2.339
	c-0.778,0-1.631-0.24-2.063-0.527L80.2,150.898z"/>
</svg>