<?xml version="1.0" encoding="utf-8"?>
<svg version="1.1" id="Layer_1" xmlns="http://www.w3.org/2000/svg" xmlns:xlink="http://www.w3.org/1999/xlink" x="0px" y="0px"
	 width="125px" height="155px" viewBox="0 0 125 155" enable-background="new 0 0 125 155" xml:space="preserve">
<path fill="#AD7547" d="M62.5,0.5c-34.233,0-62,27.759-62,62c0,34.236,27.767,62,62,62c34.232,0,62-27.764,62-62
	C124.5,28.259,96.732,0.5,62.5,0.5z M62.5,119.54c-31.494,0-57.04-25.542-57.04-57.04c0-31.502,25.546-57.04,57.04-57.04
	s57.04,25.538,57.04,57.04C119.54,93.998,93.994,119.54,62.5,119.54z"/>
<path fill="#AD7547" d="M124.5,62.5c0,34.26-27.745,62-62.039,62C28.245,124.5,0.5,96.76,0.5,62.5s27.745-62,61.961-62
	C96.755,0.5,124.5,28.24,124.5,62.5z"/>
<path fill="#FFFFFF" d="M98.732,44.01c-0.125-0.186-0.281-0.363-0.471-0.536c-0.773-1.366-2.398-2.349-4.018-2.666l-1.038,1.009
	l0.396-1.097c-0.158-0.013-0.313-0.021-0.468-0.021c-0.373-0.002-0.733,0.023-1.082,0.08c-0.448,0.035-0.895,0.096-1.323,0.174
	c-0.433,0.078-0.843,0.179-1.215,0.289c-0.447,0.186-0.886,0.391-1.313,0.617c-0.449,0.236-0.894,0.498-1.327,0.773l-0.466,1.355
	l-0.12-0.965c-0.95,0.662-1.854,1.411-2.717,2.211c-0.047-1.272-0.248-2.507-0.565-3.711c-0.062,0.289,0.043,0.676,0.106,0.93
	c-0.67-2.018-1.721-3.932-3.094-5.492c0.066,0.257-0.024,0.418-0.088,0.709c-0.918-1.405-2.221-2.707-3.746-3.392
	c-0.258-0.105-0.521-0.193-0.799-0.262c-0.271-0.068-0.553-0.117-0.842-0.144c-0.129,0.032-0.025,0.418,0.01,0.546
	c-1.666-1.601-3.652-0.499-5.471,0.165c-0.623,0.098-1.246,0.243-1.863,0.441c1.078-0.085,2.146-0.021,3.16,0.189L70.4,35.21
	l1.797-0.125l-0.831,0.383c0.698,0.216,1.368,0.501,1.995,0.859l1.199-0.084L73.8,36.595c1.041,0.669,1.953,1.542,2.687,2.611
	c0.475,0.701,0.845,1.447,1.111,2.221l1.502,0.326l-1.341,0.193c0.312,1.096,0.429,2.242,0.354,3.393
	c-0.944-0.884-1.979-1.626-3.067-2.266c0.164,0.25,0.509,0.449,0.733,0.582c-1.899-0.955-4.002-1.564-6.073-1.698
	c0.229,0.134,0.276,0.315,0.44,0.563c-1.643-0.345-3.486-0.345-5.049,0.252c-0.256,0.104-0.508,0.231-0.748,0.377
	c-0.24,0.144-0.475,0.309-0.697,0.496c-0.065,0.114,0.275,0.314,0.392,0.383c-2.16,0.043-2.846,1.953-3.592,3.633
	c-0.434,0.57-0.824,1.187-1.164,1.844c0.154-0.184,0.314-0.357,0.48-0.531c-0.012,0.021-0.022,0.042-0.035,0.064
	c0.02-0.029,0.039-0.063,0.059-0.09c0.565-0.59,1.184-1.108,1.84-1.551l0.017-0.018l1.173-1.361L62.5,46.872
	c0.639-0.347,1.305-0.621,1.995-0.817l0.782-0.908l-0.295,0.783c1.188-0.271,2.431-0.314,3.68-0.087
	c0.813,0.147,1.584,0.405,2.309,0.753l1.273-0.836l-0.805,1.083c1.014,0.563,1.916,1.315,2.676,2.208l2.307,0.424
	c-0.986,0.756-1.986,1.416-3.063,2.133c0.106,0.151,0.254,0.351,0.385,0.488c-1.04,1.203-2.1,2.205-3.266,3.313
	c0.088,0.086,0.192,0.189,0.305,0.283c-0.814,1.157-1.668,2.176-2.602,3.291c0.114,0.092,0.267,0.205,0.397,0.297
	c-0.638,1.576-1.371,2.922-2.179,4.422c0.164,0.08,0.377,0.184,0.556,0.246c-0.608,1.455-1.304,2.729-2.062,4.134
	c0.178,0.085,0.404,0.196,0.592,0.262c0,0,0.007-0.012,0.019-0.03l0.019,0.01c-0.392,1.572-0.898,2.965-1.455,4.504
	c0.063,0.021,0.145,0.046,0.223,0.065c-0.402,1.664-0.93,3.104-1.513,4.712c0.124,0.039,0.274,0.088,0.419,0.125
	c-0.396,1.577-0.902,2.971-1.459,4.504c0.173,0.059,0.402,0.131,0.588,0.166c-0.143,0.558-0.297,1.096-0.464,1.625
	c-0.843-0.021-1.696-0.031-2.562-0.031c-0.041,0-0.08,0-0.119,0l-0.389-1.314l0.479-0.068l-1.308-4.426l0.508-0.069l-1.318-4.463
	l0.512-0.074l-1.318-4.463l0.381-0.058l-1.333-4.509l0.481-0.068l-1.31-4.598l0.252-0.038l-1.128-4.494l0.194-0.028l-1.121-4.35
	l0.338-0.051l-1.15-4.625l-0.218,0.033l1.165-0.844c0.181-0.506,0.39-0.998,0.631-1.482c0.146-0.258,0.302-0.533,0.467-0.821
	l-0.909-0.245l1.186-0.229c0.605-1.023,1.345-2.181,2.237-3.113l-1.315-0.353l2.166-0.424c1.071-0.832,2.327-1.271,3.789-0.853
	c0.354,0.204,0.589,0.487,0.756,0.815c0.503,0.986,0.413,2.381,1.185,3.242c0.019-0.059,0.039-0.115,0.062-0.172
	c-0.027-0.185,0.031-0.369,0.146-0.516c-0.356-2.051,0.895-4.348-0.809-5.97c-0.188-0.123-0.398-0.227-0.641-0.313
	c-1.238-0.961-3.118-1.242-4.734-0.912l-0.57,1.331l-0.06-1.165c-0.15,0.048-0.297,0.103-0.439,0.161
	c-0.344,0.14-0.667,0.306-0.964,0.491c-0.402,0.206-0.792,0.432-1.154,0.671c-0.365,0.237-0.705,0.485-1.012,0.736
	c-0.342,0.341-0.666,0.699-0.973,1.072c-0.325,0.394-0.632,0.802-0.922,1.226l0.095,1.429l-0.485-0.843
	c-0.391,0.613-0.748,1.252-1.083,1.906l0.15-0.844c-0.366-1.084-0.596-2.225-0.671-3.381l-0.951,0.224l0.926-0.753
	c-0.019-0.8,0.04-1.601,0.182-2.393c0.217-1.213,0.609-2.297,1.138-3.229l-0.603-0.094l0.83-0.284
	c0.333-0.521,0.712-0.991,1.127-1.401l-0.657-0.1l1.244-0.427l0.016-0.006c0.634-0.501,1.335-0.884,2.082-1.131
	c-0.469,0.004-0.927,0.057-1.374,0.154c-1.398-0.071-3.02-0.504-3.73,1.528c-0.01-0.133-0.042-0.53-0.136-0.521
	c-0.188,0.114-0.367,0.247-0.533,0.396c-0.167,0.147-0.323,0.312-0.471,0.492c-0.854,1.12-1.396,2.758-1.652,4.374
	c-0.116-0.256-0.222-0.382-0.242-0.645c-0.497,1.808-0.712,3.835-0.671,5.853c-0.008-0.008-0.018-0.014-0.025-0.021
	c-0.025-0.203-0.063-0.418-0.138-0.58c0.014,0.17,0.029,0.34,0.045,0.51c-0.747-0.578-1.532-1.086-2.351-1.533
	c0.169,0.244,0.519,0.434,0.751,0.563c-1.925-0.904-4.042-1.458-6.115-1.538c0.232,0.128,0.285,0.309,0.454,0.552
	c-1.652-0.298-3.493-0.249-5.04,0.389c-0.254,0.115-0.501,0.247-0.737,0.397c-0.237,0.153-0.466,0.323-0.683,0.514
	c-0.064,0.117,0.285,0.309,0.401,0.371c-2.308,0.109-2.874,2.305-3.64,4.079c-0.356,0.519-0.68,1.073-0.963,1.657
	c0.674-0.838,1.445-1.568,2.288-2.168l0.015-0.02l1.134-1.393l-0.298,0.867c0.627-0.362,1.288-0.657,1.97-0.875l0.758-0.928
	l-0.273,0.791c1.181-0.306,2.421-0.381,3.675-0.186c0.818,0.127,1.596,0.361,2.325,0.689l1.253-0.869l-0.774,1.103
	c1.027,0.537,1.949,1.262,2.735,2.136l1.57,0.243c-1.041,0.181-2.047,0.457-3.025,0.813c0.295,0.031,0.669-0.104,0.919-0.193
	c-1.949,0.85-3.762,2.076-5.188,3.582c0.249-0.09,0.418-0.012,0.714,0.021c-1.313,1.043-2.491,2.459-3.031,4.041
	c-0.083,0.269-0.145,0.539-0.187,0.816c-0.042,0.277-0.064,0.563-0.064,0.854c0.045,0.123,0.419-0.013,0.544-0.059
	c-1.344,1.688-0.315,3.434,0.502,5.079c0.157,0.731,0.387,1.459,0.692,2.175c-0.042-0.255-0.073-0.511-0.098-0.762
	c0.004,0.007,0.006,0.016,0.009,0.021c-0.003-0.01-0.007-0.021-0.01-0.029c-0.077-0.81-0.062-1.616,0.04-2.404l-0.004-0.023
	l-0.277-1.779l0.463,0.793c0.167-0.719,0.409-1.42,0.729-2.086l-0.186-1.188l0.424,0.725c0.606-1.109,1.436-2.116,2.485-2.957
	c0.686-0.551,1.427-0.998,2.206-1.349l0.216-1.528l0.31,1.313c1.154-0.445,2.382-0.686,3.63-0.725l1.449-1.16
	c0.262,0.18,0.521,0.357,0.78,0.542c0.163,1.213,0.158,2.39,0.163,3.661c0.113-0.01,0.238-0.021,0.367-0.029
	c0.259,1.587,0.177,3.049,0.101,4.665c0.138-0.004,0.291-0.011,0.449-0.017c0.153,1.359,0.082,2.65,0.016,4.054
	c0.139-0.004,0.294-0.009,0.455-0.015c0.27,1.61,0.188,3.088,0.108,4.726c0.103-0.004,0.215-0.009,0.331-0.013l0.001,0.074
	l0.251-0.033c0.081,0.55,0.121,1.088,0.137,1.621v1.158c-0.014,0.545-0.042,1.098-0.069,1.67c0.021-0.002,0.045-0.002,0.068-0.002
	v0.24l0.455-0.068c0.232,1.537,0.155,2.963,0.079,4.532c0.125-0.004,0.264-0.008,0.403-0.014v0.063l0.063-0.01
	c0.232,1.541,0.154,2.962,0.078,4.53c0.141-0.004,0.296-0.009,0.456-0.016c0.263,1.593,0.18,3.063,0.103,4.685
	c0.178-0.008,0.381-0.014,0.587-0.021c0.02,0.174,0.04,0.347,0.054,0.515c-4.413,0.282-8.375,0.843-11.571,1.592
	c-0.317,0.073-0.628,0.149-0.941,0.229c-0.308,0.094-0.613,0.182-0.92,0.265c-0.308,0.087-0.619,0.17-0.927,0.267
	c-2.053,0.625-4.346,1.551-5.388,4.205c-0.521,1.193-0.209,2.784,0.417,3.846c1.875,2.916,4.793,1.062,7.211,1.267
	c0.339,0.031,0.678,0.065,1.016,0.099c1.354,0.109,2.721,0.141,4.117,0.082c0.363,0.055,0.732,0.104,1.108,0.152
	c0.271,0.036,0.551,0.068,0.829,0.104c0.277,0.033,0.559,0.063,0.843,0.102c3.532-0.212,7.078-0.742,10.603-0.164
	c0.387-0.018,0.753-0.023,1.123-0.032c0.288-0.004,0.579-0.002,0.869,0.009c0.3-0.002,0.595,0.006,0.891,0.008
	c3.389-0.024,6.723-0.16,10.148-0.043c0.336-0.035,0.683-0.084,1.006-0.135c0.364-0.051,0.731-0.102,1.096-0.14
	C77.563,96.47,81,96.335,84.26,94.521c0.307-0.119,0.586-0.27,0.826-0.475c0.498-0.42,0.842-1.079,0.961-2.113
	c-0.02-0.354-0.104-0.687-0.268-1.01c-1.443-2.01-3.424-3.601-5.53-4.388c-0.342-0.111-0.702-0.224-1.073-0.328
	c-3.123-0.872-7.188-1.535-11.801-1.897l0.061-0.949l0.621,0.131l0.293-4.852l0.666,0.145l0.297-4.883l0.664,0.141l0.229-3.795
	l0.394,0.16l0.844-4.14l0.384,0.224l1.172-3.719l0.401,0.285l1.451-3.615l0.248,0.242l1.795-3.164l0.309,0.438l2.977-3.645
	l-0.033-0.046l1.644,1.505c1.11,0.019,2.19,0.233,3.198,0.651l0.354-1.296l0.097,1.501c0.676,0.332,1.31,0.761,1.886,1.29
	c0.888,0.809,1.562,1.788,2.03,2.867l0.427-0.719l-0.241,1.172c0.242,0.649,0.42,1.336,0.52,2.041l0.465-0.787l-0.356,1.756
	l-0.006,0.021c0.028,0.594,0.014,1.193-0.052,1.803c-0.086,0.197-0.166,0.396-0.229,0.594c0.082-0.176,0.152-0.35,0.229-0.527
	c-0.049,0.417-0.111,0.837-0.2,1.256c0.391-0.875,0.682-1.769,0.878-2.664c0.768-1.478,1.49-3.022,0.459-4.506
	c0.111,0.045,0.452,0.18,0.5,0.055c0.018-0.289,0.011-0.569-0.02-0.844c-0.021-0.273-0.063-0.544-0.129-0.806
	c-0.418-1.562-1.433-2.956-2.594-3.981c0.271-0.035,0.434-0.113,0.664-0.024c-1.244-1.484-2.857-2.687-4.613-3.519
	c0.228,0.088,0.563,0.221,0.838,0.187c-0.344-0.136-0.689-0.259-1.047-0.368l1.15-0.271c0.355-0.395,0.743-0.769,1.15-1.125
	c0.231-0.181,0.483-0.375,0.748-0.578l-0.748-0.574l1.184,0.242c0.955-0.709,2.081-1.491,3.266-2.008l-1.078-0.834l2.16,0.444
	c1.313-0.356,2.639-0.276,3.826,0.675c0.25,0.324,0.354,0.676,0.387,1.045c0.084,1.103-0.539,2.355-0.158,3.447
	c0.037-0.047,0.08-0.092,0.121-0.136c0.045-0.183,0.174-0.329,0.336-0.42C97.635,47.8,99.676,46.162,98.732,44.01z M70.352,34.458
	c0.492-0.031,0.99-0.022,1.484,0.021C71.346,34.441,70.852,34.433,70.352,34.458z M36.026,51.474
	c0.599-1.196,1.469-2.212,2.505-3.009C37.468,49.32,36.633,50.344,36.026,51.474z M71.771,87.365c0,1.281-5.383,2.322-12.022,2.322
	c-6.638,0-12.021-1.041-12.021-2.322c0-0.771,1.932-1.45,4.908-1.873c0.004,0.795-0.035,1.59-0.075,2.428
	c0.315-0.012,0.714-0.021,1.062-0.044v0.019l0.259-0.035l0,0l6.172-0.916l-0.56-1.897c0.085,0,0.171-0.001,0.257-0.001
	c0.604,0,1.195,0.01,1.775,0.023c-0.201,0.584-0.414,1.173-0.633,1.785c0.166,0.054,0.378,0.121,0.558,0.155l-0.01,0.032l5.69,1.182
	l0.162-2.668C70.023,85.98,71.771,86.631,71.771,87.365z M63.813,77.701l0.024,0.004l-0.058,0.16
	C63.799,77.81,63.805,77.753,63.813,77.701z M78.174,50.473l-0.021-0.025c0.011,0.008,0.019,0.018,0.021,0.023
	C78.176,50.471,78.174,50.472,78.174,50.473z"/>
<path fill="#333333" d="M20.44,145.002h-2.458v-0.888h5.984v0.888h-2.471v7.196H20.44V145.002z"/>
<path fill="#333333" d="M31.453,148.072c0,2.771-1.69,4.258-3.754,4.258c-2.146,0-3.634-1.667-3.634-4.113
	c0-2.566,1.583-4.246,3.742-4.246C30.026,143.971,31.453,145.662,31.453,148.072z M25.169,148.191c0,1.74,0.936,3.287,2.591,3.287
	c1.655,0,2.59-1.523,2.59-3.358c0-1.619-0.839-3.298-2.578-3.298C26.033,144.822,25.169,146.43,25.169,148.191z"/>
<path fill="#333333" d="M33.857,144.114v4.798c0,1.799,0.804,2.566,1.883,2.566c1.188,0,1.967-0.791,1.967-2.566v-4.798h1.056v4.726
	c0,2.482-1.308,3.49-3.059,3.49c-1.655,0-2.902-0.936-2.902-3.454v-4.762H33.857z"/>
<path fill="#333333" d="M40.577,144.223c0.528-0.096,1.296-0.168,2.003-0.168c1.115,0,1.848,0.217,2.339,0.659
	c0.396,0.36,0.636,0.912,0.636,1.548c0,1.057-0.672,1.764-1.511,2.051v0.037c0.611,0.215,0.983,0.791,1.175,1.631
	c0.264,1.127,0.456,1.906,0.624,2.219h-1.079c-0.133-0.24-0.313-0.924-0.528-1.932c-0.239-1.115-0.684-1.535-1.631-1.57h-0.983
	v3.502h-1.044L40.577,144.223L40.577,144.223z M41.621,147.904h1.067c1.115,0,1.823-0.611,1.823-1.535
	c0-1.043-0.756-1.499-1.859-1.499c-0.504,0-0.852,0.036-1.031,0.084V147.904z"/>
<path fill="#333333" d="M48.077,144.114v8.084h-1.056v-8.084H48.077z"/>
<path fill="#333333" d="M49.77,150.927c0.468,0.3,1.14,0.528,1.859,0.528c1.067,0,1.691-0.564,1.691-1.38
	c0-0.743-0.433-1.188-1.523-1.595c-1.319-0.479-2.135-1.176-2.135-2.304c0-1.26,1.043-2.194,2.614-2.194
	c0.815,0,1.428,0.191,1.775,0.396l-0.288,0.853c-0.252-0.156-0.792-0.385-1.523-0.385c-1.104,0-1.523,0.659-1.523,1.211
	c0,0.756,0.492,1.127,1.607,1.561c1.367,0.527,2.051,1.188,2.051,2.374c0,1.247-0.911,2.339-2.818,2.339
	c-0.779,0-1.631-0.24-2.063-0.527L49.77,150.927z"/>
<path fill="#333333" d="M62.63,148.648c-0.06-1.129-0.132-2.496-0.132-3.49h-0.024c-0.287,0.936-0.611,1.955-1.019,3.07
	l-1.428,3.922h-0.791l-1.319-3.851c-0.384-1.151-0.696-2.184-0.924-3.143h-0.024c-0.023,1.008-0.084,2.351-0.155,3.573l-0.216,3.467
	h-0.996l0.564-8.084h1.331l1.379,3.91c0.336,0.994,0.6,1.883,0.815,2.723h0.024c0.216-0.814,0.504-1.703,0.863-2.723l1.439-3.91
	h1.331l0.504,8.084h-1.031L62.63,148.648z"/>
<path fill="#333333" d="M67.948,148.576v0.768h-2.964v-0.768H67.948z"/>
<path fill="#333333" d="M70.266,144.114v3.383h3.909v-3.383h1.056v8.084h-1.056v-3.79h-3.909v3.79h-1.057v-8.084H70.266z"/>
<path fill="#333333" d="M83.953,148.072c0,2.771-1.689,4.258-3.754,4.258c-2.146,0-3.635-1.667-3.635-4.113
	c0-2.566,1.584-4.246,3.742-4.246C82.525,143.971,83.953,145.662,83.953,148.072z M77.669,148.191c0,1.74,0.937,3.287,2.591,3.287
	c1.655,0,2.59-1.523,2.59-3.358c0-1.619-0.838-3.298-2.578-3.298C78.533,144.822,77.669,146.43,77.669,148.191z"/>
<path fill="#333333" d="M86.548,145.002H84.09v-0.888h5.984v0.888h-2.471v7.196h-1.057L86.548,145.002L86.548,145.002z"/>
<path fill="#333333" d="M95.15,148.408H92.02v2.914h3.502v0.876h-4.558v-8.084h4.378v0.876H92.02v2.555h3.131V148.408z"/>
<path fill="#333333" d="M96.868,144.114h1.056v7.208h3.454v0.876h-4.51V144.114z"/>
<path fill="#333333" d="M102.412,150.927c0.468,0.3,1.14,0.528,1.859,0.528c1.066,0,1.69-0.564,1.69-1.38
	c0-0.743-0.433-1.188-1.522-1.595c-1.319-0.479-2.135-1.176-2.135-2.304c0-1.26,1.043-2.194,2.613-2.194
	c0.814,0,1.428,0.191,1.775,0.396l-0.289,0.853c-0.252-0.156-0.791-0.385-1.522-0.385c-1.104,0-1.522,0.659-1.522,1.211
	c0,0.756,0.492,1.127,1.606,1.561c1.367,0.527,2.052,1.188,2.052,2.374c0,1.247-0.912,2.339-2.818,2.339
	c-0.779,0-1.631-0.24-2.063-0.527L102.412,150.927z"/>
</svg>