<?xml version="1.0" encoding="utf-8"?>
<svg version="1.1" id="Layer_1" xmlns="http://www.w3.org/2000/svg" xmlns:xlink="http://www.w3.org/1999/xlink" x="0px" y="0px"
	 width="17px" height="17px" viewBox="0 0 17 17" enable-background="new 0 0 17 17" xml:space="preserve">
	<path d="M8.5,0C3.806,0,0,3.807,0,8.5C0,13.195,3.806,17,8.5,17S17,13.195,17,8.5C17,3.807,13.194,0,8.5,0z M8.5,15.773
		c-4.104,0-7.432-3.258-7.432-7.273c0-4.016,3.328-7.273,7.432-7.273c4.105,0,7.433,3.256,7.433,7.273
		C15.933,12.516,12.604,15.773,8.5,15.773z"/>
	<path d="M12.945,8.051L8.983,8.023L9.01,4.063c0.002-0.266-0.213-0.481-0.477-0.483C8.267,3.577,8.052,3.79,8.05,4.056L8.023,8.017
		L4.063,7.99c-0.265-0.002-0.48,0.211-0.483,0.477C3.577,8.732,3.79,8.947,4.056,8.949l3.961,0.029L7.99,12.938
		c-0.002,0.266,0.211,0.48,0.476,0.484c0.267,0.002,0.481-0.211,0.483-0.477l0.026-3.961l3.96,0.028
		c0.268,0,0.483-0.213,0.485-0.478C13.426,8.267,13.208,8.052,12.945,8.051z"/>
</svg>