<?xml version="1.0" encoding="utf-8"?>
<!-- Generator: Adobe Illustrator 15.1.0, SVG Export Plug-In . SVG Version: 6.00 Build 0)  -->
<!DOCTYPE svg PUBLIC "-//W3C//DTD SVG 1.1//EN" "http://www.w3.org/Graphics/SVG/1.1/DTD/svg11.dtd">
<svg version="1.1" id="Layer_1" xmlns="http://www.w3.org/2000/svg" xmlns:xlink="http://www.w3.org/1999/xlink" x="0px" y="0px"
	 width="25px" height="25px" viewBox="0 0 25 25" enable-background="new 0 0 25 25" xml:space="preserve">
<g>
	<g>
		<circle fill="#F0A30A" cx="59" cy="0" r="15"/>
		<g>
			<path fill="#FFFFFF" d="M62.084-6.626c0,2.637-1.918,4.773-4.281,4.773c-2.364,0-4.28-2.137-4.28-4.773
				c0-3.687,1.916-4.773,4.28-4.773C60.166-11.399,62.084-9.994,62.084-6.626z"/>
			<path fill="#FFFFFF" d="M60.287,4.068c0-2.208,1.886-4,4.212-4c0.002,0,0.003,0.001,0.007,0.001l-3.389-1.717
				c-3.576,2.598-6.684,0-6.684,0l-3.576,1.824c-0.107,0.031-0.355,0.42-0.355,0.42L48.48,4.974
				c-0.73,1.612,1.071,1.627,1.071,1.627h11.71C60.662,5.908,60.287,5.035,60.287,4.068z"/>
		</g>
		<g>
			<circle cx="64.634" cy="4.364" r="4"/>
			<rect x="61.633" y="3.763" fill="#F2F2F2" width="6.002" height="1.201"/>
			<rect x="64.033" y="1.362" fill="#F2F2F2" width="1.2" height="6"/>
		</g>
	</g>
	<path fill="#603813" d="M64.635-0.638c-2.764,0-5.002,2.238-5.002,5s2.238,5,5.002,5c2.762,0,4.998-2.238,4.998-5
		S67.396-0.638,64.635-0.638z M64.635,8.362c-2.211,0-4.002-1.791-4.002-4s1.791-4,4.002-4c2.209,0,3.998,1.791,3.998,4
		S66.844,8.362,64.635,8.362z"/>
</g>
</svg>
