<?xml version="1.0" encoding="utf-8"?>
<!-- Generator: Adobe Illustrator 15.1.0, SVG Export Plug-In . SVG Version: 6.00 Build 0)  -->
<!DOCTYPE svg PUBLIC "-//W3C//DTD SVG 1.1//EN" "http://www.w3.org/Graphics/SVG/1.1/DTD/svg11.dtd">
<svg version="1.1" id="Layer_1" xmlns="http://www.w3.org/2000/svg" xmlns:xlink="http://www.w3.org/1999/xlink" x="0px" y="0px"
	 width="15px" height="15px" viewBox="0 0 15 15" enable-background="new 0 0 15 15" xml:space="preserve">
<path fill="#55231A" d="M8.895,3.73C8.42,3.467,7.902,3.267,7.359,3.14C6.923,3.039,6.468,2.983,6,2.983
	c-0.458,0-0.903,0.053-1.331,0.151C4.114,3.261,3.588,3.463,3.103,3.732C1.255,4.756,0,6.728,0,8.988
	c0,2.259,1.255,4.232,3.103,5.255c0.485,0.27,1.011,0.474,1.566,0.6C5.098,14.939,5.543,14.994,6,14.994
	c0.467,0,0.922-0.058,1.358-0.16c0.543-0.124,1.061-0.323,1.536-0.589C10.744,13.221,12,11.25,12,8.988
	C12,6.728,10.744,4.754,8.895,3.73z M10.903,10.884H9.086c0.158-0.482,0.259-0.99,0.291-1.519h1.866
	c-0.038,0.521-0.15,1.021-0.328,1.49C10.91,10.865,10.905,10.875,10.903,10.884z M1.098,10.884
	c-0.004-0.009-0.008-0.019-0.012-0.028c-0.18-0.469-0.292-0.969-0.329-1.49h1.921c0.032,0.528,0.132,1.036,0.291,1.519H1.098z
	 M1.098,7.09h1.871C2.81,7.574,2.71,8.084,2.678,8.611H0.757C0.794,8.09,0.908,7.588,1.086,7.12C1.09,7.11,1.094,7.1,1.098,7.09z
	 M8.621,8.611H6.376V7.09h1.911C8.47,7.569,8.584,8.079,8.621,8.611z M6.376,6.336V4.627C7.01,5.077,7.542,5.66,7.93,6.336H6.376z
	 M5.623,6.336H4.126c0.376-0.657,0.888-1.226,1.497-1.67V6.336z M5.623,7.09v1.521H3.434C3.472,8.079,3.586,7.569,3.768,7.09H5.623z
	 M3.434,9.365h2.188v1.519H3.768C3.586,10.408,3.472,9.896,3.434,9.365z M5.623,11.64v1.67c-0.609-0.443-1.12-1.014-1.497-1.67
	H5.623z M6.376,11.64H7.93c-0.388,0.675-0.92,1.262-1.554,1.71V11.64z M6.376,10.884V9.365h2.245
	c-0.037,0.531-0.151,1.043-0.334,1.519H6.376z M9.377,8.611C9.345,8.084,9.244,7.574,9.086,7.09h1.817
	c0.002,0.01,0.007,0.02,0.012,0.029c0.178,0.468,0.29,0.97,0.328,1.492H9.377z M10.537,6.336H8.783
	C8.332,5.405,7.65,4.607,6.814,4.013c-0.135-0.095-0.273-0.185-0.415-0.27c0.329,0.026,0.65,0.08,0.959,0.163
	C8.71,4.267,9.846,5.156,10.537,6.336z M4.669,3.897c0.308-0.081,0.626-0.132,0.953-0.156v0.02C5.493,3.84,5.366,3.925,5.242,4.013
	C4.405,4.607,3.724,5.405,3.272,6.336h-1.81C2.16,5.148,3.306,4.254,4.669,3.897z M1.463,11.64h1.81
	c0.451,0.931,1.133,1.73,1.969,2.324c0.125,0.087,0.251,0.172,0.381,0.251v0.019c-0.327-0.023-0.646-0.074-0.953-0.154
	C3.306,13.722,2.159,12.829,1.463,11.64z M7.359,14.069c-0.31,0.085-0.63,0.139-0.959,0.164c0.142-0.084,0.28-0.173,0.415-0.27
	C7.65,13.37,8.332,12.57,8.783,11.64h1.754C9.846,12.822,8.71,13.708,7.359,14.069z"/>
<g>
	<path fill="#55231A" d="M11.501-0.006C9.57-0.006,8,1.545,8,3.451c0,0.776,0.547,2.096,1.624,3.923
		c0.787,1.334,1.585,2.471,1.594,2.482c0.064,0.092,0.17,0.146,0.283,0.146c0.112,0,0.219-0.054,0.283-0.146
		c0.008-0.012,0.806-1.148,1.592-2.482C14.454,5.546,15,4.227,15,3.451C15,1.545,13.431-0.006,11.501-0.006z M11.501,1.871
		c0.864,0,1.566,0.694,1.566,1.548s-0.702,1.549-1.566,1.549S9.934,4.273,9.934,3.419S10.637,1.871,11.501,1.871z"/>
	<ellipse fill="#55231A" cx="11.501" cy="3.419" rx="0.604" ry="0.596"/>
</g>
</svg>
