<?xml version="1.0" encoding="utf-8"?>
<!-- Generator: Adobe Illustrator 15.1.0, SVG Export Plug-In . SVG Version: 6.00 Build 0)  -->
<!DOCTYPE svg PUBLIC "-//W3C//DTD SVG 1.1//EN" "http://www.w3.org/Graphics/SVG/1.1/DTD/svg11.dtd">
<svg version="1.1" id="Layer_1" xmlns="http://www.w3.org/2000/svg" xmlns:xlink="http://www.w3.org/1999/xlink" x="0px" y="0px"
	 width="15px" height="15px" viewBox="0 0 15 15" enable-background="new 0 0 15 15" xml:space="preserve">
<circle fill="#56231B" cx="7.5" cy="7.5" r="7.5"/>
<path fill="#F6F6F6" d="M9.846,11.701l-0.162,0.644c-0.49,0.187-0.881,0.327-1.172,0.425c-0.289,0.098-0.628,0.146-1.014,0.146
	c-0.592,0-1.052-0.14-1.38-0.418c-0.329-0.278-0.493-0.632-0.493-1.061c0-0.166,0.012-0.337,0.037-0.511
	c0.025-0.175,0.064-0.37,0.119-0.59l0.611-2.085c0.054-0.2,0.101-0.389,0.138-0.568c0.038-0.178,0.056-0.342,0.056-0.489
	c0-0.267-0.058-0.453-0.171-0.558C6.299,6.533,6.082,6.48,5.76,6.48c-0.158,0-0.32,0.024-0.486,0.071
	C5.107,6.599,4.966,6.645,4.846,6.687L5.01,6.044c0.4-0.157,0.783-0.292,1.149-0.403C6.525,5.528,6.87,5.473,7.198,5.473
	c0.588,0,1.042,0.137,1.359,0.411c0.32,0.274,0.479,0.63,0.479,1.068c0,0.091-0.01,0.25-0.033,0.479
	C8.98,7.659,8.939,7.868,8.881,8.059l-0.609,2.078c-0.049,0.167-0.094,0.357-0.133,0.572c-0.041,0.213-0.061,0.376-0.061,0.485
	c0,0.276,0.064,0.464,0.192,0.564s0.351,0.15,0.665,0.15c0.148,0,0.316-0.026,0.504-0.075C9.625,11.783,9.762,11.74,9.846,11.701z"
	/>
<circle fill="#F6F6F6" cx="7.51" cy="3.021" r="1.75"/>
</svg>
