<?xml version="1.0" encoding="utf-8"?>
<!-- Generator: Adobe Illustrator 15.1.0, SVG Export Plug-In . SVG Version: 6.00 Build 0)  -->
<!DOCTYPE svg PUBLIC "-//W3C//DTD SVG 1.1//EN" "http://www.w3.org/Graphics/SVG/1.1/DTD/svg11.dtd">
<svg version="1.1" id="Layer_1" xmlns="http://www.w3.org/2000/svg" xmlns:xlink="http://www.w3.org/1999/xlink" x="0px" y="0px"
	 width="50px" height="50px" viewBox="0 0 50 50" enable-background="new 0 0 50 50" xml:space="preserve">
<g>
	<g>
		<path fill="#55231A" d="M47.334,6.749V6.563H47.09c-1.289-0.926-2.893-1.501-4.66-1.501H7.571C3.39,5.063,0,8.158,0,11.977v31.107
			C0,46.904,3.39,50,7.571,50H42.43c4.182,0,7.57-3.096,7.57-6.916V11.977C50,9.878,48.955,8.018,47.334,6.749z M46.235,38.859
			c0,4.053-3.333,7.332-7.438,7.332H11.365c-4.108,0-7.439-3.279-7.439-7.332V15.497c0-0.626,0.104-1.224,0.254-1.803h41.802
			c0.149,0.58,0.254,1.177,0.254,1.803V38.859z"/>
		<path fill="#55231A" d="M16.641,9.722c0,1.925-1.567,3.486-3.5,3.486l0,0c-1.934,0-3.501-1.562-3.501-3.486V3.568
			c0-1.925,1.567-3.486,3.501-3.486l0,0c1.933,0,3.5,1.561,3.5,3.486V9.722z"/>
		<path fill="#55231A" d="M28.838,9.641c0,1.924-1.564,3.486-3.499,3.486l0,0c-1.932,0-3.501-1.563-3.501-3.486V3.487
			C21.838,1.563,23.407,0,25.339,0l0,0c1.934,0,3.499,1.563,3.499,3.487V9.641z"/>
		<path fill="#55231A" d="M41.479,9.641c0,1.924-1.567,3.486-3.499,3.486l0,0c-1.931,0-3.5-1.563-3.5-3.486V3.487
			C34.48,1.563,36.05,0,37.98,0l0,0c1.932,0,3.499,1.563,3.499,3.487V9.641z"/>
	</g>
	<g>
		<g id="cake">
			<path fill="#55231A" d="M24.5,22.874c0.91,0,1.704-0.794,1.704-1.706c0-0.339-0.111-0.566-0.227-0.908l-1.477-2.5l-1.477,2.5
				c-0.113,0.228-0.227,0.569-0.227,0.908C22.795,22.079,23.591,22.874,24.5,22.874z M31.887,25.714h-6.25V24.01h-2.274v1.704h-6.25
				c-2.841,0-5.114,2.272-5.114,5.114c0,1.818,0.91,3.295,2.273,4.206v7.728h20.454v-7.728c1.365-0.911,2.273-2.5,2.273-4.206
				C37,27.986,34.727,25.714,31.887,25.714z M31.887,33.67c-0.795,0-1.477-0.342-2.045-0.797l-1.705-1.703l-1.703,1.703
				c-0.457,0.455-1.138,0.797-1.934,0.797c-0.794,0-1.477-0.342-2.044-0.797L20.75,31.17l-1.704,1.703
				c-0.454,0.455-1.136,0.797-1.932,0.797c-1.591,0-2.841-1.25-2.841-2.842s1.25-2.842,2.841-2.842h14.773
				c1.59,0,2.84,1.25,2.84,2.842S33.477,33.67,31.887,33.67z"/>
		</g>
	</g>
</g>
</svg>
