<?xml version="1.0" encoding="utf-8"?>
<svg version="1.1" id="Layer_1" xmlns="http://www.w3.org/2000/svg" xmlns:xlink="http://www.w3.org/1999/xlink" x="0px" y="0px"
	 width="18px" height="18px" viewBox="0 0 18 18" enable-background="new 0 0 18 18" xml:space="preserve">
		<path fill="#D66363" d="M13.499,13.5c-1.232,0-2.25,1.004-2.25,2.25S12.267,18,13.499,18c1.245,0,2.25-1.004,2.25-2.25
			S14.744,13.5,13.499,13.5z"/>
		<path fill="#D66363" d="M7.875,13.5c-1.24,0-2.25,1.004-2.25,2.25S6.635,18,7.875,18c1.238,0,2.249-1.004,2.249-2.25
			S9.113,13.5,7.875,13.5z"/>
		<path fill="#D66363" d="M17.789,3.841c-0.214-0.292-0.549-0.466-0.915-0.466H5.316L4.432,0.772C4.289,0.309,3.852,0,3.374,0H1.125
			C0.494,0,0,0.502,0,1.125S0.494,2.25,1.125,2.25h1.44l3.121,9.355c0.15,0.455,0.58,0.77,1.064,0.77h7.874
			c0.49,0,0.915-0.314,1.07-0.77l2.25-6.747C18.055,4.516,17.999,4.138,17.789,3.841z"/></svg>