<?xml version="1.0" encoding="utf-8"?>
<!-- Generator: Adobe Illustrator 15.1.0, SVG Export Plug-In . SVG Version: 6.00 Build 0)  -->
<!DOCTYPE svg PUBLIC "-//W3C//DTD SVG 1.1//EN" "http://www.w3.org/Graphics/SVG/1.1/DTD/svg11.dtd">
<svg version="1.1" id="Layer_1" xmlns="http://www.w3.org/2000/svg" xmlns:xlink="http://www.w3.org/1999/xlink" x="0px" y="0px"
	 width="15px" height="15px" viewBox="0 0 15 15" enable-background="new 0 0 15 15" xml:space="preserve">
<g>
	<path fill="#55231A" d="M12.944,7.579h-0.766c0-2.497-2.03-4.527-4.525-4.527l0-0.764C10.571,2.286,12.944,4.66,12.944,7.579z
		 M7.653,3.607l0,0.764c1.77,0,3.207,1.438,3.206,3.207l0.765,0C11.623,5.389,9.844,3.607,7.653,3.607z M7.5,0
		C3.364,0,0,3.364,0,7.5C0,11.636,3.364,15,7.5,15c0.256,0,0.462-0.207,0.462-0.462c0-0.257-0.207-0.464-0.462-0.464
		c-3.626,0-6.575-2.95-6.575-6.574c0-3.626,2.949-6.575,6.575-6.575s6.574,2.95,6.574,6.575c0,1.515-0.807,3.016-1.96,3.653
		c-0.42,0.23-0.874,0.345-1.359,0.349c0.291-0.173,0.544-0.407,0.73-0.702c0.037-0.055,0.086-0.104,0.109-0.164
		c0.151-0.362,0.164-0.773,0.255-1.156c0.112-0.489-2.139-1.443-2.334-0.833c-0.071,0.226-0.18,0.94-0.321,1.128
		C9.068,9.943,8.757,9.863,8.563,9.697C8.049,9.261,7.477,8.618,6.974,8.11l0.001-0.001C6.962,8.097,6.947,8.082,6.933,8.067
		C6.918,8.055,6.904,8.039,6.89,8.025v0.001C6.382,7.523,5.739,6.952,5.303,6.438C5.138,6.243,5.058,5.932,5.226,5.806
		c0.188-0.143,0.903-0.25,1.129-0.321C6.963,5.29,6.01,3.038,5.521,3.15C5.138,3.24,4.728,3.254,4.365,3.404
		C4.304,3.43,4.256,3.478,4.2,3.514C2.915,4.329,2.749,6.307,4.004,7.781c0.478,0.563,0.977,1.109,1.49,1.642L5.491,9.425
		C5.505,9.439,5.52,9.452,5.535,9.466C5.548,9.48,5.562,9.495,5.575,9.51l0.002-0.003c0.533,0.514,1.164,1.27,2.19,1.954
		c2.16,1.442,3.817,1.04,4.793,0.504C14.246,11.037,15,9.055,15,7.502C15,3.364,11.636,0,7.5,0z"/>
</g>
</svg>
