<?xml version="1.0" encoding="utf-8"?>
<!-- Generator: Adobe Illustrator 15.1.0, SVG Export Plug-In . SVG Version: 6.00 Build 0)  -->
<!DOCTYPE svg PUBLIC "-//W3C//DTD SVG 1.1//EN" "http://www.w3.org/Graphics/SVG/1.1/DTD/svg11.dtd">
<svg version="1.1" id="Layer_1" xmlns="http://www.w3.org/2000/svg" xmlns:xlink="http://www.w3.org/1999/xlink" x="0px" y="0px"
	 width="15px" height="15px" viewBox="0 0 15 15" enable-background="new 0 0 15 15" xml:space="preserve">
<path fill="#55231A" d="M5.027,9.885c0,0-0.71,1.751,2.237,3.986l0.579-0.023c0,0,2.604-1.797,2.237-3.939
	c0,0,4.447,0.875,4.92,2.211c0,0-6.973,6.544-15-0.092C0,12.027,0.79,10.807,5.027,9.885z"/>
<path fill="#55231A" d="M7.027,10L6.54,10.415c0,0,0.342,0.415,0.684,0.61l-0.658,1.439c0,0,0.368,0.542,0.987,0.818
	c0,0,0.619-0.311,1-0.795l-0.684-1.475l0.659-0.61L8.066,9.988L7.027,10z"/>
<path fill="#55231A" d="M3.671,4.598c0,0-1.302,0.225,0.079,1.935c0,0,1.401,2.972,3.75,2.903c0,0,2.289,0.277,3.769-2.903
	c0,0,1.48-1.866,0.1-1.97c0,0,1.578-4.251-3.849-4.562C7.52,0.001,2.566-0.137,3.671,4.598z"/>
<path fill="#EDEDED" d="M5.862,2.23c0,0-0.868-0.242-1.618,1.192c0,0,0.079,1.4,0.296,2.074c0,0-0.651-1.365-0.849-0.276
	c0,0,0,0.587,0.493,1.002c0,0,1.085,3.11,3.849,2.747c0,0,1.777-0.155,2.783-2.695c0,0,0.572-0.242,0.592-1.227
	c0,0-0.355-0.847-0.869,0.466c0,0,0.375-1.313,0.316-1.71C10.855,3.803,7.718,3.924,5.862,2.23z"/>
</svg>
