<?xml version="1.0" encoding="utf-8"?>
<svg version="1.1" id="Layer_1" xmlns="http://www.w3.org/2000/svg" xmlns:xlink="http://www.w3.org/1999/xlink" x="0px" y="0px"
	 width="17px" height="17px" viewBox="0 0 17 17" enable-background="new 0 0 17 17" xml:space="preserve">
	<path d="M11.954,4.008c-0.101-0.101-0.263-0.101-0.362,0l-0.851,0.85l1.73,1.73l0.85-0.849c0.1-0.101,0.1-0.263,0-0.364
		L11.954,4.008z"/>
	<path d="M4.771,10.845c-0.077,0.048-0.133,0.123-0.154,0.214l-0.359,1.612c-0.025,0.112,0.009,0.229,0.09,0.31
		c0.064,0.064,0.149,0.1,0.237,0.1c0.024,0,0.049-0.003,0.073-0.009l1.613-0.359c0.09-0.021,0.166-0.077,0.214-0.155l0.008,0.01
		l0.423-0.422l-1.73-1.731l-0.423,0.424L4.771,10.845z"/>
	<polygon points="5.186,10.413 5.842,9.758 7.572,11.486 11.815,7.245 10.084,5.515 	"/>
	<path d="M8.5,0C3.805,0,0,3.806,0,8.5S3.805,17,8.5,17c4.694,0,8.5-3.806,8.5-8.5S13.194,0,8.5,0z M8.5,15.773
		c-4.104,0-7.432-3.258-7.432-7.273c0-4.016,3.328-7.273,7.432-7.273c4.105,0,7.433,3.257,7.433,7.273
		C15.933,12.516,12.604,15.773,8.5,15.773z"/>
</svg>