<?xml version="1.0" encoding="utf-8"?>
<!-- Generator: Adobe Illustrator 15.1.0, SVG Export Plug-In . SVG Version: 6.00 Build 0)  -->
<!DOCTYPE svg PUBLIC "-//W3C//DTD SVG 1.1//EN" "http://www.w3.org/Graphics/SVG/1.1/DTD/svg11.dtd">
<svg version="1.1" id="Layer_1" xmlns="http://www.w3.org/2000/svg" xmlns:xlink="http://www.w3.org/1999/xlink" x="0px" y="0px"
	 width="15px" height="15px" viewBox="0 0 15 15" enable-background="new 0 0 15 15" xml:space="preserve">
<g>
	<path fill="#56231B" d="M4.265,2.919L7.682,3.77l3.668-0.851V3.77c0,0-3.207,1.183-7.085,0V2.919z"/>
	<polygon fill="#56231B" points="7.807,0 15,1.848 7.807,3.607 0.613,1.804 	"/>
	<g>
		<path fill="#56231B" d="M10.209,4.65c-0.006-0.008-0.015-0.019-0.025-0.027c0.003,0.008,0.011,0.018,0.014,0.027H10.209z"/>
		<path fill="#56231B" d="M10.441,5.593C10.329,6.525,9.243,7.257,7.92,7.257c-1.324,0-2.408-0.732-2.521-1.664h-0.36
			C5.031,5.64,5.018,5.685,5.018,5.732c0,1.005,1.291,1.82,2.883,1.82c1.591,0,2.881-0.815,2.881-1.82
			c0-0.047-0.012-0.092-0.019-0.139H10.441z"/>
		<path fill="#56231B" d="M5.643,4.65c0.022-0.034,0.043-0.069,0.069-0.102C5.669,4.581,5.636,4.617,5.598,4.65H5.643z"/>
	</g>
	<polygon fill="#56231B" points="2.438,8.014 7.943,15 13.361,8.014 12.35,7.663 7.898,13.262 3.507,7.663 	"/>
	<polygon fill="#56231B" points="0.775,1.945 0,4.738 1.193,4.734 	"/>
	<ellipse fill="#56231B" cx="0.736" cy="2.783" rx="0.596" ry="0.294"/>
</g>
</svg>
