<?xml version="1.0" encoding="utf-8"?>
<!-- Generator: Adobe Illustrator 15.1.0, SVG Export Plug-In . SVG Version: 6.00 Build 0)  -->
<!DOCTYPE svg PUBLIC "-//W3C//DTD SVG 1.1//EN" "http://www.w3.org/Graphics/SVG/1.1/DTD/svg11.dtd">
<svg version="1.1" id="Layer_1" xmlns="http://www.w3.org/2000/svg" xmlns:xlink="http://www.w3.org/1999/xlink" x="0px" y="0px"
	 width="50px" height="50px" viewBox="0 0 50 50" enable-background="new 0 0 50 50" xml:space="preserve">
<g>
	<g>
		<path fill="#55231A" d="M37.546,23.537c-0.559-0.819-0.796-1.846-0.627-2.88l0.334-2.062l-1.421-1.459
			c-0.021-0.022-0.041-0.046-0.063-0.068c-10.88,9.559-12.118,24.882-12,32.404c0.005,0.273,0.205,0.501,0.464,0.525
			c0.259,0.026,0.494-0.156,0.547-0.425C27.78,34.177,33.459,26.901,37.546,23.537z"/>
		<path fill="#55231A" d="M16.204,13.257l-3.284,0.774l-1.257,3.288c-0.022,0.06-0.048,0.117-0.073,0.176
			c5.125,7.634,7.794,23.223,8.861,31.075c0.025,0.184,0.182,0.317,0.357,0.306c0.176-0.015,0.314-0.166,0.315-0.352
			c0.129-16.939-2.331-28.238-4.814-35.295C16.273,13.238,16.239,13.249,16.204,13.257z"/>
		<path fill="#55231A" d="M38.662,40.681l-0.467-0.674c-0.376-0.547-0.601-1.167-0.671-1.807
			c-3.582,1.006-8.973,3.582-10.694,10.094c-0.091,0.352,0.07,0.723,0.385,0.876c0.313,0.154,0.688,0.049,0.885-0.251
			c1.878-2.871,5.257-6.658,10.291-7.428c0.005-0.01,0.005-0.017,0.008-0.026L38.662,40.681z"/>
		<path fill="#55231A" d="M13.047,34.106c-0.329,0.48-0.764,0.886-1.288,1.174l-0.702,0.384l-0.098,0.827
			c-0.029,0.249-0.082,0.491-0.154,0.723c3.008,3.577,5.225,8.492,6.563,12.02c0.09,0.237,0.334,0.364,0.568,0.293
			c0.233-0.068,0.379-0.31,0.338-0.562C17.09,41.589,15.015,36.973,13.047,34.106z"/>
		<path fill="#55231A" d="M40.757,17.399l-0.628,3.838c-0.024,0.152,0.034,0.308,0.154,0.398c0.068,0.051,0.146,0.078,0.227,0.078
			c0.063,0,0.122-0.016,0.181-0.046l3.271-1.813l3.276,1.813c0.057,0.03,0.117,0.046,0.181,0.046c0.078,0,0.159-0.027,0.225-0.078
			c0.12-0.09,0.181-0.246,0.156-0.398l-0.625-3.838l2.646-2.72c0.107-0.107,0.145-0.27,0.098-0.417
			c-0.044-0.146-0.166-0.254-0.313-0.276l-3.659-0.561l-1.636-3.493c-0.066-0.139-0.2-0.227-0.35-0.227
			c-0.146,0-0.278,0.088-0.344,0.227l-1.639,3.493l-3.659,0.561c-0.145,0.022-0.267,0.129-0.313,0.276
			c-0.044,0.147-0.008,0.31,0.098,0.417L40.757,17.399z"/>
		<path fill="#55231A" d="M15.492,9.909c0.144-0.033,0.256-0.15,0.292-0.3C15.818,9.457,15.768,9.3,15.656,9.2l-3.895-3.432
			l0.477-5.322c0.014-0.155-0.057-0.304-0.182-0.386C11.994,0.021,11.923,0,11.854,0c-0.072,0-0.143,0.021-0.205,0.062L7.345,2.902
			L2.685,0.78c-0.05-0.022-0.102-0.034-0.154-0.034c-0.089,0-0.178,0.034-0.25,0.098c-0.112,0.1-0.16,0.259-0.125,0.409l1.235,5.187
			l-3.357,4.012c-0.096,0.116-0.123,0.281-0.067,0.423c0.056,0.144,0.184,0.241,0.332,0.251l5.064,0.365l2.587,4.602
			c0.069,0.125,0.196,0.2,0.332,0.2c0.01,0,0.02,0,0.031-0.001c0.146-0.012,0.273-0.111,0.328-0.254l1.896-4.961L15.492,9.909z"/>
		<path fill="#55231A" d="M49.17,39.069c-0.022-0.153-0.122-0.28-0.264-0.329l-2.383-0.813L45.811,35.4
			c-0.042-0.149-0.159-0.262-0.306-0.286c-0.02-0.005-0.041-0.005-0.063-0.005c-0.122,0-0.239,0.062-0.313,0.166l-1.472,2.134
			l-2.503-0.065c-0.005,0-0.005,0-0.01,0c-0.142,0-0.275,0.083-0.342,0.217c-0.068,0.137-0.056,0.303,0.029,0.43l1.473,2.132
			l-0.833,2.485c-0.049,0.146-0.015,0.31,0.088,0.42c0.073,0.08,0.174,0.124,0.276,0.124c0.039,0,0.08-0.007,0.119-0.021
			l2.381-0.815l1.987,1.604c0.07,0.054,0.151,0.083,0.236,0.083c0.059,0,0.117-0.015,0.169-0.041
			c0.134-0.068,0.217-0.21,0.217-0.364v-2.637l2.061-1.496C49.128,39.375,49.191,39.221,49.17,39.069z"/>
		<path fill="#55231A" d="M10.257,32.238c0.13-0.073,0.211-0.215,0.208-0.371c-0.002-0.156-0.089-0.295-0.222-0.361l-2.269-1.115
			L7.561,27.79c-0.024-0.153-0.129-0.278-0.27-0.322c-0.037-0.012-0.075-0.017-0.111-0.017c-0.106,0-0.208,0.044-0.283,0.129
			l-1.709,1.927l-2.476-0.391c-0.02-0.005-0.039-0.005-0.057-0.005c-0.126,0-0.246,0.063-0.319,0.173
			c-0.083,0.127-0.091,0.296-0.02,0.43l1.211,2.308l-1.118,2.36c-0.064,0.137-0.051,0.303,0.038,0.428
			c0.074,0.103,0.189,0.161,0.309,0.161c0.024,0,0.049-0.003,0.073-0.008l2.458-0.5l1.785,1.848
			c0.073,0.076,0.171,0.117,0.271,0.117c0.043,0,0.085-0.007,0.127-0.024c0.139-0.049,0.238-0.181,0.256-0.332l0.308-2.617
			L10.257,32.238z"/>
		<path fill="#55231A" d="M26.688,10.17l-0.3-0.771l-0.774-0.176c-0.577-0.132-1.099-0.402-1.536-0.776
			c-1.245,3.49-2.119,8.889-1.201,17.01c0.049,0.437,0.656,0.432,0.695-0.006c0.339-3.767,1.213-9.857,3.446-14.625
			C26.889,10.622,26.778,10.403,26.688,10.17z"/>
		<path fill="#55231A" d="M27.79,0.834l0.254,2.624l-1.909,1.705c-0.113,0.1-0.161,0.259-0.125,0.41
			c0.036,0.15,0.148,0.266,0.293,0.298l2.446,0.558l0.952,2.439c0.054,0.143,0.184,0.24,0.33,0.251
			c0.01,0.001,0.02,0.001,0.026,0.001c0.137,0,0.264-0.077,0.335-0.203l1.26-2.278l2.495-0.199c0.146-0.012,0.276-0.111,0.332-0.254
			c0.054-0.144,0.027-0.309-0.07-0.424l-1.668-1.965l0.591-2.562c0.034-0.15-0.015-0.309-0.129-0.408
			c-0.071-0.063-0.159-0.095-0.247-0.095c-0.054,0-0.107,0.011-0.156,0.034L30.507,1.83l-2.131-1.384
			c-0.062-0.04-0.13-0.06-0.203-0.06c-0.07,0-0.142,0.021-0.205,0.062C27.844,0.53,27.775,0.68,27.79,0.834z"/>
	</g>
</g>
</svg>
