<?xml version="1.0" encoding="utf-8"?>
<!-- Generator: Adobe Illustrator 15.1.0, SVG Export Plug-In . SVG Version: 6.00 Build 0)  -->
<!DOCTYPE svg PUBLIC "-//W3C//DTD SVG 1.1//EN" "http://www.w3.org/Graphics/SVG/1.1/DTD/svg11.dtd">
<svg version="1.1" id="Layer_1" xmlns="http://www.w3.org/2000/svg" xmlns:xlink="http://www.w3.org/1999/xlink" x="0px" y="0px"
	 width="50px" height="50px" viewBox="0 0 50 50" enable-background="new 0 0 50 50" xml:space="preserve">
<path fill="#55231A" d="M25.053,7.426c-13.829,0-25.04,9.531-25.04,21.287c0,4.408,1.58,8.5,4.28,11.896l-4.28-0.039v4.925h9.645
	h4.544v-3.042v-9.313H9.145l0.034,5.131c-2.186-2.645-3.47-5.866-3.47-9.345c0-8.99,8.573-16.278,19.148-16.278
	s19.148,7.288,19.148,16.278c0,8.935-8.469,16.185-18.952,16.274V50c13.829,0,25.04-9.53,25.04-21.287
	C50.093,16.957,38.882,7.426,25.053,7.426z"/>
<path fill="#55231A" d="M32.564,4.508c0,0.553-0.527,1.002-1.178,1.002H18.424c-0.651,0-1.178-0.449-1.178-1.002V1.002
	C17.246,0.449,17.773,0,18.424,0h12.962c0.65,0,1.178,0.449,1.178,1.002V4.508z"/>
<path fill="#55231A" d="M37.646,20.598l-1.233-1.049c-0.606-0.515-1.603-0.504-2.226,0.025l-9.625,8.183l-7.321-6.224
	c-0.512-0.435-1.417-0.37-2.023,0.146l-1.235,1.049c-0.605,0.515-0.683,1.285-0.171,1.72l9.725,8.267
	c0.341,0.289,0.854,0.353,1.338,0.215c0.332-0.041,0.654-0.166,0.913-0.386l11.829-10.055
	C38.237,21.959,38.251,21.112,37.646,20.598z"/>
</svg>
