<?xml version="1.0" encoding="utf-8"?>
<!-- Generator: Adobe Illustrator 15.1.0, SVG Export Plug-In . SVG Version: 6.00 Build 0)  -->
<!DOCTYPE svg PUBLIC "-//W3C//DTD SVG 1.1//EN" "http://www.w3.org/Graphics/SVG/1.1/DTD/svg11.dtd">
<svg version="1.1" id="Layer_1" xmlns="http://www.w3.org/2000/svg" xmlns:xlink="http://www.w3.org/1999/xlink" x="0px" y="0px"
	 width="50px" height="50px" viewBox="0 0 50 50" enable-background="new 0 0 50 50" xml:space="preserve">
<g>
	<path fill="#55231A" d="M17.778,32.896c0,1.24-0.776,2.243-1.734,2.243H1.734C0.776,35.139,0,34.136,0,32.896V17.195
		c0-1.238,0.776-2.243,1.734-2.243h14.31c0.958,0,1.734,1.005,1.734,2.243V32.896z"/>
	<path fill="#55231A" d="M50,47.881C50,49.053,49.302,50,48.439,50H35.562c-0.864,0-1.56-0.947-1.56-2.119V33.055
		c0-1.172,0.695-2.119,1.56-2.119h12.878c0.862,0,1.561,0.947,1.561,2.119V47.881z"/>
	<path fill="#55231A" d="M50,16.946c0,1.172-0.698,2.119-1.563,2.119H35.562c-0.862,0-1.563-0.947-1.563-2.119V2.119
		c0-1.172,0.7-2.119,1.563-2.119h12.876C49.302,0,50,0.947,50,2.119V16.946z"/>
	<rect x="24.861" y="7.102" fill="#55231A" width="3.591" height="35.888"/>
	<rect x="13.778" y="21.67" fill="#55231A" width="13.036" height="6.717"/>
	<rect x="26.814" y="7.079" fill="#55231A" width="11.408" height="4.486"/>
	<rect x="27.705" y="38.504" fill="#55231A" width="14.517" height="4.463"/>
</g>
</svg>
