<?xml version="1.0" encoding="utf-8"?>
<!-- Generator: Adobe Illustrator 15.1.0, SVG Export Plug-In . SVG Version: 6.00 Build 0)  -->
<!DOCTYPE svg PUBLIC "-//W3C//DTD SVG 1.1//EN" "http://www.w3.org/Graphics/SVG/1.1/DTD/svg11.dtd">
<svg version="1.1" id="Layer_1" xmlns="http://www.w3.org/2000/svg" xmlns:xlink="http://www.w3.org/1999/xlink" x="0px" y="0px"
	 width="50px" height="50px" viewBox="0 0 50 50" enable-background="new 0 0 50 50" xml:space="preserve">
<g>
	<ellipse fill="#55231A" cx="13.896" cy="10.785" rx="10.342" ry="10.785"/>
	<ellipse fill="#55231A" cx="36.089" cy="17.91" rx="10.342" ry="10.786"/>
	<path fill="#55231A" d="M26.394,26.597c0-0.013-0.001-0.024-0.001-0.037c0,0-2.369-4.879-4.847-6.21c0,0-6.787,6.432-15.62,0
		c0,0-5.494,3.328-5.925,12.753c0,0,0.313,3.201,9.473,4.16c-0.747-1.354-1.178-2.925-1.178-4.602c0-5.086,3.931-9.207,8.78-9.207
		c3.35,0,6.458,1.836,7.86,4.78L26.394,26.597z"/>
	<path fill="#55231A" d="M28.503,27.346c0,0,7.264,6.961,15.522,0c0,0,6.318,4.944,5.96,13.445c0,0-4.739,6.284-22.622,2.886
		c0,0-1.437-5.508-3.125-6.414c0,0,1.801-1.672,1.509-7.043L28.503,27.346z"/>
	<ellipse fill="#55231A" cx="17.295" cy="32.217" rx="6.733" ry="7.097"/>
	<path fill="#55231A" d="M11.276,38.869c0,0-2.514,2.588-2.729,7.986c0,0,7.9,6.875,17.308,0.295c0,0,0.431-4.658-2.729-8.281
		C23.125,38.869,17.739,44.118,11.276,38.869z"/>
</g>
</svg>
