<?xml version="1.0" encoding="utf-8"?>
<!-- Generator: Adobe Illustrator 15.1.0, SVG Export Plug-In . SVG Version: 6.00 Build 0)  -->
<!DOCTYPE svg PUBLIC "-//W3C//DTD SVG 1.1//EN" "http://www.w3.org/Graphics/SVG/1.1/DTD/svg11.dtd">
<svg version="1.1" id="Layer_1" xmlns="http://www.w3.org/2000/svg" xmlns:xlink="http://www.w3.org/1999/xlink" x="0px" y="0px"
	 width="15px" height="15px" viewBox="0 0 15 15" enable-background="new 0 0 15 15" xml:space="preserve">
<g>
	<g>
		<g>
			<path fill="#55231A" d="M14.694,0H0.304C0.137,0,0,0.156,0,0.348v14.304C0,14.842,0.137,15,0.304,15h14.392
				C14.865,15,15,14.842,15,14.651V0.348C15,0.156,14.863,0,14.694,0z M13.864,10.963H12.95c-0.53-1.563-1.184-3.754-2.177-3.461
				c-1.163,0.34-1.745,3.461-1.745,3.461S8.437,7.44,6.794,5.554c-1.643-1.885-3.234,5.409-3.234,5.409H1.388V1.584h12.476V10.963z"
				/>
		</g>
		<g>
			<ellipse fill="#55231A" cx="3.401" cy="3.594" rx="1.018" ry="1.169"/>
		</g>
		<g>
			<path fill="#55231A" d="M10.232,4.42c0.228,0,0.44-0.029,0.631-0.073c0.222,0.108,0.494,0.176,0.785,0.176
				c0.75,0,1.358-0.421,1.358-0.939c0-0.52-0.608-0.942-1.358-0.942c-0.28,0-0.542,0.061-0.758,0.162
				c-0.09-0.099-0.209-0.162-0.341-0.162h-0.198c-0.251,0-0.45,0.219-0.479,0.5c-0.607,0.073-1.06,0.324-1.06,0.629
				C8.813,4.129,9.447,4.42,10.232,4.42z"/>
		</g>
	</g>
</g>
</svg>
