<?xml version="1.0" encoding="utf-8"?>
<svg version="1.1" id="Layer_1" xmlns="http://www.w3.org/2000/svg" xmlns:xlink="http://www.w3.org/1999/xlink" x="0px" y="0px"
	 width="18px" height="18px" viewBox="0 0 18 18" enable-background="new 0 0 18 18" xml:space="preserve">
		<path fill="#7256ED" d="M8.681,0.474H7.706C7.461,0.18,7.108,0,6.718,0c-0.72,0-1.306,0.614-1.306,1.37s0.586,1.37,1.306,1.37
			c0.722,0,1.307-0.614,1.307-1.37c0-0.157-0.028-0.302-0.076-0.442h0.732c0.118,0,0.217-0.103,0.217-0.228S8.799,0.474,8.681,0.474
			"/>
		<path fill="#7256ED" d="M16.932,12.429c-0.67-1.685-2.754-1.526-2.754-1.526l-1.874-4.591h0.602c0,0,0.44-0.05,0.434-1.001
			c-0.014-0.951-0.501-0.937-0.501-0.937s-0.149,0-0.603-0.014c-0.453-0.014-0.54,0.212-0.839,0.546
			c-0.113,0.124-0.255,0.211-0.4,0.267c0.051,0.048,0.085,0.117,0.086,0.207c0,0.281,0.013,0.562-0.005,0.841
			c0.14,0.549,0.486,1.86,0.559,2.151c0.065,0.259-0.357,0.468-0.369,0.912c-0.003,0.28,0.278,0.964,0.311,1.197
			c0.033,0.24,0.021,0.56,0.042,1.136c0.028,0.568-0.439,0.985-0.689,0.985c-0.083,0-0.235,0.005-0.44,0.017
			c-0.078,0.039-0.163,0.061-0.251,0.061H8.92c-0.054,0-0.106-0.004-0.158-0.019c0.688,0,1.311-0.023,1.727-0.042
			c0.049-0.029,0.088-0.063,0.123-0.102c0.099-0.103,0.162-0.243,0.162-0.392c0-0.312-0.245-0.561-0.536-0.561H9.684V8.262
			c0-1.125-0.92-1.16-0.92-1.16v0.001C8.747,7.102,8.729,7.102,8.71,7.102h-1.49l0.173-2.034l0.851,1.019
			c0,0,1.712,0.259,1.892,0.261c0.272,0.012,0.334-0.195,0.424-0.283c0.013-0.228,0-0.458,0-0.686
			c-0.001-0.033,0.002-0.057,0.013-0.086c-0.028,0.002-0.036,0.003-0.036,0.003s-0.033-0.234-0.331-0.284
			c-0.299-0.05-1.32-0.178-1.32-0.178S8.25,4.083,7.858,3.6C7.763,3.484,7.66,3.41,7.543,3.355c-0.39-0.19-0.92-0.104-1.438-0.104
			c-0.663,0-0.808,0.952-0.808,0.952L4.993,7.719L4.976,7.933c0.017,0.422,0.351,0.766,0.757,0.766h2.43v3.186
			c0,0.223,0.084,0.42,0.22,0.563c0.101,0.105,0.232,0.179,0.379,0.213c-1.423,0-2.062-0.288-2.062-1.02
			c0-0.724,0.488-0.957,0.488-0.957c0.358,0,0.372-0.334,0.372-0.334S7.576,9.952,7.576,9.65c0-0.301-0.321-0.337-0.321-0.337H4.44
			L3.919,9.349c-0.216,0.198-2.01,1.071-2.01,1.071c-0.853,0.405-1.07,1.569-1.109,2.129c-0.047,0.562,0.392,0.583,0.392,0.583
			h3.891c0.312,0,0.393,0.404,0.393,0.404v0.425c0,0.277,0.256,0.257,0.256,0.257h6.774c1.05-1.435,3.079-1.086,3.465-1.086
			C16.296,13.132,17.25,13.224,16.932,12.429z"/>
	<path fill="#231F20" d="M18,14.841C18,16.59,16.655,18,14.988,18c-1.66,0-3.006-1.41-3.006-3.159c0-1.742,1.346-3.151,3.006-3.151
		C16.655,11.689,18,13.099,18,14.841z"/>
	<path fill="#231F20" d="M6.017,14.732c0,1.742-1.345,3.16-3.005,3.16C1.344,17.893,0,16.475,0,14.732
		c0-1.741,1.344-3.151,3.012-3.151C4.672,11.581,6.017,12.991,6.017,14.732z"/>
	<path fill="#897A7E" d="M16.957,14.732c0,1.139-0.883,2.058-1.969,2.058c-1.079,0-1.962-0.919-1.962-2.058
		c0-1.131,0.883-2.057,1.962-2.057C16.074,12.676,16.957,13.602,16.957,14.732z"/>
	<path fill="#897A7E" d="M4.824,14.841c0,1.139-0.883,2.064-1.962,2.064c-1.085,0-1.961-0.926-1.961-2.064
		c0-1.132,0.876-2.058,1.961-2.058C3.941,12.783,4.824,13.709,4.824,14.841z"/>
	<path fill="#515151" d="M16.932,12.429c-0.67-1.685-2.754-1.526-2.754-1.526l-1.874-4.591h0.602c0,0,0.44-0.05,0.434-1.001
		c-0.014-0.951-0.501-0.937-0.501-0.937s-0.149,0-0.603-0.014c-0.453-0.014-0.54,0.212-0.839,0.546
		c-0.298,0.334-0.859,0.391-0.859,0.391s0-0.001-0.008-0.003c-0.005,0.001-0.018,0.002-0.022,0.01c0.001,0.022,0,0.045-0.011,0.075
		c-0.052,0.249-0.021,0.454-0.001,0.698c0.027-0.012,0.049-0.016,0.08-0.024c0.016-0.007,0.032-0.021,0.051-0.023
		c0.146-0.034,0.386-0.057,0.386-0.057s0.533,2.024,0.624,2.399c0.065,0.259-0.357,0.468-0.369,0.912
		c-0.003,0.28,0.278,0.964,0.311,1.197c0.033,0.24,0.021,0.56,0.042,1.136c0.028,0.568-0.439,0.985-0.689,0.985
		c-0.082,0-0.232,0.005-0.425,0.017c-0.017,0.005-0.033,0.017-0.052,0.019c-0.065,0.024-0.143,0.042-0.215,0.042h-1.17
		c-0.005,0.008-0.019,0.009-0.032,0.009c-0.006,0-0.019-0.001-0.024-0.009H8.92c-0.041,0-0.087-0.003-0.133-0.008
		C8.78,12.67,8.766,12.67,8.753,12.66c-1.416,0-2.053-0.288-2.053-1.02c0-0.724,0.488-0.957,0.488-0.957
		c0.358,0,0.372-0.334,0.372-0.334S7.576,9.952,7.576,9.65c0-0.301-0.321-0.337-0.321-0.337H4.44L3.919,9.349
		c-0.216,0.198-2.01,1.071-2.01,1.071c-0.853,0.405-1.07,1.569-1.109,2.129c-0.047,0.562,0.392,0.583,0.392,0.583h3.891
		c0.312,0,0.393,0.404,0.393,0.404v0.425c0,0.277,0.256,0.257,0.256,0.257h6.774c1.05-1.435,3.079-1.086,3.465-1.086
		C16.296,13.132,17.25,13.224,16.932,12.429z"/>
	<path fill="#916F53" d="M3.334,6.288H0.905c-0.471,0-0.854,0.395-0.854,0.889v2.437c0,0.494,0.383,0.895,0.854,0.895h2.429
		c0.47,0,0.854-0.401,0.854-0.895V7.176C4.188,6.682,3.805,6.288,3.334,6.288 M3.556,9.741H0.684V7.048h1.06v1.286l0.38-0.406
		l0.374,0.406V7.048h1.059V9.741z"/>
</svg>