<?xml version="1.0" encoding="utf-8"?>
<!-- Generator: Adobe Illustrator 15.1.0, SVG Export Plug-In . SVG Version: 6.00 Build 0)  -->
<!DOCTYPE svg PUBLIC "-//W3C//DTD SVG 1.1//EN" "http://www.w3.org/Graphics/SVG/1.1/DTD/svg11.dtd">
<svg version="1.1" id="Layer_1" xmlns="http://www.w3.org/2000/svg" xmlns:xlink="http://www.w3.org/1999/xlink" x="0px" y="0px"
	 width="15px" height="15px" viewBox="0 0 15 15" enable-background="new 0 0 15 15" xml:space="preserve">
<path fill="rgba(29, 46, 141, 0.92)" d="M14.736,5.889l-1.919-2.033V1.412c-0.128-0.741-0.818-0.852-0.818-0.852l-1.711,0.028
	C9.93,0.643,9.597,1.192,9.597,1.192l-1.38-1.043c-0.512-0.302-1.177,0-1.177,0L0.167,6.246c-0.609,0.989,0.66,1.27,0.66,1.27h1.176
	l0.026,6.612c0.179,0.825,0.792,0.888,0.792,0.888h3.324c0.767-0.102,0.919-0.86,0.919-0.86v-2.992h0.998l0.025,2.938
	c0.128,0.659,0.87,0.878,0.87,0.878c4.498,0.44,4.192-3.351,4.192-3.351V7.454h1.227C15.527,6.987,14.736,5.889,14.736,5.889z"/>
</svg>
