<?xml version="1.0" encoding="utf-8"?>
<!-- Generator: Adobe Illustrator 15.1.0, SVG Export Plug-In . SVG Version: 6.00 Build 0)  -->
<!DOCTYPE svg PUBLIC "-//W3C//DTD SVG 1.1//EN" "http://www.w3.org/Graphics/SVG/1.1/DTD/svg11.dtd">
<svg version="1.1" id="Layer_1" xmlns="http://www.w3.org/2000/svg" xmlns:xlink="http://www.w3.org/1999/xlink" x="0px" y="0px"
	 width="15px" height="15px" viewBox="0 0 15 15" enable-background="new 0 0 15 15" xml:space="preserve">
<g>
	<g>
		<rect x="6.692" y="0.019" fill="#57221C" width="1.242" height="2.252"/>
		<path fill="#57221C" d="M4.309,0.366L4.309,0.366C4.309,0.165,4.489,0,4.709,0h5.188c0.221,0,0.399,0.165,0.399,0.366l0,0
			c0,0.202-0.179,0.367-0.399,0.367H4.709C4.489,0.733,4.328,0.568,4.309,0.366z"/>
		<path fill="#57221C" d="M12.008,13.589c0,0.791,0.654,1.411,1.496,1.411C14.347,15,15,14.358,15,13.589
			c0-0.773-1.496-3.155-1.496-3.155S12.03,12.815,12.008,13.589z"/>
	</g>
	<path fill="#57221C" d="M12.182,8.699V6.464c0-0.256-0.221-0.476-0.521-0.476H0V3.443h12.421c1.403,0,2.545,1.043,2.545,2.326v2.93
		H12.182L12.182,8.699z"/>
	<path fill="#57231C" d="M4.27,2.894V6.52c0,0.385,0.339,0.714,0.779,0.714h4.508c0.421,0,0.781-0.311,0.781-0.714V2.875
		c0-0.384-0.34-0.713-0.781-0.713H5.049C4.627,2.162,4.27,2.491,4.27,2.894z"/>
</g>
</svg>
