<?xml version="1.0" encoding="utf-8"?>
<!-- Generator: Adobe Illustrator 15.1.0, SVG Export Plug-In . SVG Version: 6.00 Build 0)  -->
<!DOCTYPE svg PUBLIC "-//W3C//DTD SVG 1.1//EN" "http://www.w3.org/Graphics/SVG/1.1/DTD/svg11.dtd">
<svg version="1.1" id="Layer_1" xmlns="http://www.w3.org/2000/svg" xmlns:xlink="http://www.w3.org/1999/xlink" x="0px" y="0px"
	 width="15px" height="15px" viewBox="0 0 15 15" enable-background="new 0 0 15 15" xml:space="preserve">
<g>
	<circle fill="#FFFFFF" cx="7.502" cy="7.505" r="7.5"/>
	<path fill-rule="evenodd" clip-rule="evenodd" fill="#FBDCCC" d="M6.424,7.835C4.103,8.852,3.407,9.394,3.132,9.639
		c-0.424,0.374-0.658,1.772-0.909,2.962h5.25h5.25c-0.249-1.189-0.484-2.588-0.908-2.962c-0.274-0.245-0.945-0.773-3.267-1.791
		L6.424,7.835z"/>
	<path fill-rule="evenodd" clip-rule="evenodd" d="M6.424,7.835C4.103,8.852,3.407,9.394,3.132,9.639
		c-0.424,0.374-0.658,1.772-0.909,2.962h5.25h5.25c-0.249-1.189-0.484-2.588-0.908-2.962c-0.274-0.245-0.945-0.773-3.267-1.791
		L6.424,7.835z"/>
	<path fill-rule="evenodd" clip-rule="evenodd" fill="#FCD9B9" d="M6.346,5.807v1.723v0.85c0.62,0.733,1.634,0.758,2.254,0v-0.85
		V5.807C8.601,4.418,6.346,4.418,6.346,5.807"/>
	<path fill-rule="evenodd" clip-rule="evenodd" fill="#FCD9B9" d="M5.124,4.19c0.198-0.065,0.45,0.16,0.563,0.503
		C5.8,5.037,5.731,5.368,5.533,5.432c-0.199,0.066-0.451-0.16-0.565-0.503C4.855,4.586,4.926,4.255,5.124,4.19"/>
	<path fill-rule="evenodd" clip-rule="evenodd" fill="#FCD9B9" d="M9.813,4.19c-0.2-0.065-0.451,0.16-0.564,0.503
		C9.136,5.037,9.204,5.368,9.402,5.432c0.2,0.066,0.453-0.16,0.565-0.503C10.082,4.586,10.012,4.255,9.813,4.19"/>
	<path fill-rule="evenodd" clip-rule="evenodd" fill="#FFFFFF" d="M7.479,8.94c0,0-1.572,0.374-1.572,0.47s0.599,3.19,0.599,3.19
		h2.133l0.245-3.179L7.479,8.94z"/>
	<polygon fill-rule="evenodd" clip-rule="evenodd" fill="#61605C" points="6.346,7.869 6.346,8.379 6.835,12.601 5.995,12.601 
		5.069,10.72 5.953,10.131 4.873,9.627 5.865,8.084 	"/>
	<polygon fill-rule="evenodd" clip-rule="evenodd" fill="#61605C" points="8.601,7.872 8.601,8.379 8.106,12.601 8.947,12.601 
		9.873,10.72 8.99,10.131 10.069,9.627 9.188,8.132 	"/>
	<polygon fill-rule="evenodd" clip-rule="evenodd" fill="#C93838" points="6.989,9.461 7.261,9.885 7.685,9.885 7.958,9.461 
		7.479,8.94 	"/>
	<polygon fill-rule="evenodd" clip-rule="evenodd" fill="#C93838" points="7.261,9.885 6.874,12.601 8.074,12.601 7.685,9.885 	"/>
	<polygon fill-rule="evenodd" clip-rule="evenodd" fill="#EDEDED" points="6.346,7.529 6.249,7.913 6.524,9.907 7.479,8.94 	"/>
	<g opacity="0.2">
		<g>
			<defs>
				<rect id="SVGID_1_" x="6.346" y="7.052" width="2.254" height="0.79"/>
			</defs>
			<clipPath id="SVGID_2_">
				<use xlink:href="#SVGID_1_"  overflow="visible"/>
			</clipPath>
			<path clip-path="url(#SVGID_2_)" fill="#000100" d="M6.346,7.052v0.082c0,0,0.576,0.683,1.125,0.708
				c0.55,0.025,1.13-0.662,1.13-0.662V7.055"/>
		</g>
	</g>
	<path fill-rule="evenodd" clip-rule="evenodd" fill="#765B49" d="M9.259,1.384c0.516,0.082,0.8,0.435,0.924,0.916
		C10.5,3.549,9.834,6.257,7.531,6.29C6.342,6.307,5.486,6.005,5.175,5.043c-0.313-0.961-0.44-2.511,0.238-3.38
		C6.265,0.571,8.055,0.561,9.259,1.384"/>
	<path fill-rule="evenodd" clip-rule="evenodd" fill="#FCD9B9" d="M7.476,1.188c-3.467,0-2.138,4.748-1.913,5.112
		c0.25,0.402,1.352,1.286,1.913,1.286c0.559,0,1.661-0.884,1.911-1.286C9.612,5.937,10.941,1.188,7.476,1.188"/>
	<path fill-rule="evenodd" clip-rule="evenodd" fill="#765B49" d="M5.799,2.681C6.415,3.056,6.893,2.495,7.45,2.735
		c0.557,0.24,2.067-0.915,2.395,1.623c0.528-1.84-0.271-3.155-2.284-3.243C5.413,1.022,4.544,2.979,5.136,4.808
		C5.098,3.817,5.34,3.169,5.799,2.681"/>
	<path fill="#765B49" d="M5.744,2.516C5.758,2.835,6.297,2.882,6.527,2.9c0.216,0.016,0.425-0.022,0.63-0.081
		c0.254-0.072,0.575-0.164,0.78-0.333c0.019-0.017,0.01-0.056-0.016-0.059C7.532,2.364,7.128,2.683,6.736,2.72
		C6.429,2.748,6.024,2.706,5.781,2.5C5.768,2.488,5.741,2.495,5.744,2.516"/>
	<polygon fill-rule="evenodd" clip-rule="evenodd" fill="#EDEDED" points="8.601,7.529 8.678,7.907 8.419,9.927 7.479,8.94 	"/>
	<g opacity="0.05">
		<g>
			<defs>
				<rect id="SVGID_3_" x="6.346" y="7.495" width="2.254" height="1.445"/>
			</defs>
			<clipPath id="SVGID_4_">
				<use xlink:href="#SVGID_3_"  overflow="visible"/>
			</clipPath>
			<polygon clip-path="url(#SVGID_4_)" fill="#000100" points="6.346,7.529 7.479,8.94 8.601,7.529 8.601,7.495 7.479,8.899 
				6.346,7.495 			"/>
		</g>
	</g>
	<g opacity="0.1">
		<g>
			<defs>
				<rect id="SVGID_5_" x="7.26" y="9.885" width="0.427" height="0.01"/>
			</defs>
			<clipPath id="SVGID_6_">
				<use xlink:href="#SVGID_5_"  overflow="visible"/>
			</clipPath>
			
				<rect x="7.262" y="9.885" clip-path="url(#SVGID_6_)" fill-rule="evenodd" clip-rule="evenodd" fill="#000100" width="0.424" height="0.01"/>
		</g>
	</g>
</g>
</svg>
