<?xml version="1.0" encoding="utf-8"?>
<svg version="1.1" id="Layer_1" xmlns="http://www.w3.org/2000/svg" xmlns:xlink="http://www.w3.org/1999/xlink" x="0px" y="0px"
	 width="15px" height="15px" viewBox="0 0 15 15" enable-background="new 0 0 15 15" xml:space="preserve">
	<circle fill="#556BC9" cx="7.476" cy="7.5" r="7.5"/>
	<path fill="#1D2E8D" d="M12.696,12.568c0-0.094-0.037-0.184-0.061-0.273c-0.229-1.115-0.457-2.318-0.848-2.662
		c-0.246-0.219-0.824-0.672-2.623-1.5L9.161,8.127L8.651,7.9L8.575,7.523V7.49L8.573,7.492V7.49V7.177c0,0,0.002-0.002,0.002-0.002
		V7.05H8.573V7.048C8.929,6.786,9.241,6.486,9.36,6.294c0.057-0.09,0.178-0.448,0.279-0.935C9.763,5.273,9.876,5.123,9.94,4.924
		c0.066-0.196,0.066-0.381,0.021-0.521c0.285-0.752,0.332-1.567,0.195-2.108C10.032,1.813,9.749,1.46,9.233,1.378
		C8.028,0.556,6.239,0.565,5.387,1.658c-0.521,0.667-0.565,1.735-0.417,2.63C4.876,4.426,4.859,4.671,4.942,4.924
		c0.069,0.208,0.19,0.362,0.318,0.445c0.101,0.481,0.222,0.836,0.277,0.925c0.118,0.19,0.43,0.488,0.783,0.75v0.002v0.082V7.49
		v0.034L6.223,7.907L5.839,8.078L5.836,8.082C3.973,8.936,3.357,9.41,3.106,9.633c-0.382,0.338-0.61,1.508-0.835,2.607
		c-0.034,0.107-0.074,0.215-0.074,0.328c0,0.004,0.003,0.01,0.003,0.014c-0.001,0.006-0.002,0.01-0.003,0.014h0.006
		C2.615,13.51,4.768,15.004,7.552,15c2.89-0.006,5.375-1.928,5.138-2.404h0.006c0-0.004-0.002-0.01-0.002-0.014
		C12.694,12.576,12.696,12.572,12.696,12.568z"/>
</svg>