<?xml version="1.0" encoding="utf-8"?>
<!-- Generator: Adobe Illustrator 15.1.0, SVG Export Plug-In . SVG Version: 6.00 Build 0)  -->
<!DOCTYPE svg PUBLIC "-//W3C//DTD SVG 1.1//EN" "http://www.w3.org/Graphics/SVG/1.1/DTD/svg11.dtd">
<svg version="1.1" id="Layer_1" xmlns="http://www.w3.org/2000/svg" xmlns:xlink="http://www.w3.org/1999/xlink" x="0px" y="0px"
	 width="18px" height="18px" viewBox="0 0 18 18" enable-background="new 0 0 18 18" xml:space="preserve">
<g>
	<g>
		<path fill="#FFFFFF" d="M6.428,0H1.286C0.576,0,0,0.576,0,1.286v5.142c0,0.71,0.576,1.286,1.286,1.286h5.142
			c0.71,0,1.286-0.575,1.286-1.286V1.286C7.714,0.576,7.139,0,6.428,0z"/>
		<path fill="#FFFFFF" d="M6.428,10.286H1.286C0.576,10.286,0,10.86,0,11.57v5.144C0,17.424,0.576,18,1.286,18h5.142
			c0.71,0,1.286-0.576,1.286-1.286V11.57C7.714,10.86,7.139,10.286,6.428,10.286z"/>
		<path fill="#FFFFFF" d="M16.714,0H11.57c-0.71,0-1.284,0.576-1.284,1.286v5.142c0,0.71,0.574,1.286,1.284,1.286h5.144
			c0.71,0,1.286-0.575,1.286-1.286V1.286C18,0.576,17.424,0,16.714,0z"/>
		<path fill="#FFFFFF" d="M16.714,10.286H11.57c-0.71,0-1.284,0.574-1.284,1.284v5.144c0,0.71,0.574,1.286,1.284,1.286h5.144
			C17.424,18,18,17.424,18,16.714V11.57C18,10.86,17.424,10.286,16.714,10.286z"/>
	</g>
</g>
</svg>
