<?xml version="1.0" encoding="utf-8"?>
<!-- Generator: Adobe Illustrator 15.1.0, SVG Export Plug-In . SVG Version: 6.00 Build 0)  -->
<!DOCTYPE svg PUBLIC "-//W3C//DTD SVG 1.1//EN" "http://www.w3.org/Graphics/SVG/1.1/DTD/svg11.dtd">
<svg version="1.1" id="Layer_1" xmlns="http://www.w3.org/2000/svg" xmlns:xlink="http://www.w3.org/1999/xlink" x="0px" y="0px"
	 width="18px" height="18px" viewBox="0 0 18 18" enable-background="new 0 0 18 18" xml:space="preserve">
<g>
	<path fill="#FFFFFF" d="M9,0C4.036,0,0,4.038,0,9c0,4.962,4.036,9,9,9c4.961,0,9-4.038,9-9C18,4.038,13.961,0,9,0z M9,17.356
		c-4.609,0-8.358-3.749-8.358-8.356c0-4.608,3.749-8.358,8.358-8.358c4.609,0,8.356,3.75,8.356,8.358
		C17.356,13.607,13.609,17.356,9,17.356z"/>
	<path fill="#FFFFFF" d="M4.82,5.464h8.357c0.179,0,0.323-0.144,0.323-0.322c0-0.176-0.145-0.32-0.323-0.32H4.82
		c-0.177,0-0.32,0.144-0.32,0.32C4.5,5.32,4.643,5.464,4.82,5.464z"/>
	<path fill="#FFFFFF" d="M14.463,9.964H3.536c-0.178,0-0.322,0.144-0.322,0.321c0,0.179,0.144,0.322,0.322,0.322h10.927
		c0.18,0,0.32-0.144,0.32-0.322C14.783,10.108,14.643,9.964,14.463,9.964z"/>
	<path fill="#FFFFFF" d="M14.463,7.392H3.536c-0.178,0-0.322,0.144-0.322,0.322c0,0.177,0.144,0.321,0.322,0.321h10.927
		c0.18,0,0.32-0.144,0.32-0.321C14.783,7.536,14.643,7.392,14.463,7.392z"/>
	<path fill="#FFFFFF" d="M13.177,12.535H4.82c-0.177,0-0.32,0.145-0.32,0.322c0,0.176,0.143,0.321,0.32,0.321h8.357
		c0.179,0,0.323-0.146,0.323-0.321C13.5,12.68,13.355,12.535,13.177,12.535z"/>
</g>
</svg>
