<?xml version="1.0" encoding="utf-8"?>
<svg version="1.1" id="Layer_1" xmlns="http://www.w3.org/2000/svg" xmlns:xlink="http://www.w3.org/1999/xlink" x="0px" y="0px"
	 width="9px" height="14px" viewBox="0 0 9 14" enable-background="new 0 0 9 14" xml:space="preserve">
<g>
	<path d="M8.875,3.172c-0.059-0.06-0.135-0.09-0.229-0.09H6.947C6.834,2.532,6.621,2.055,6.311,1.65h2.316
		c0.092,0,0.168-0.029,0.229-0.089c0.059-0.06,0.09-0.136,0.09-0.229V0.318c0-0.093-0.031-0.169-0.09-0.229
		C8.795,0.03,8.719,0,8.627,0H0.354C0.261,0,0.185,0.03,0.125,0.09c-0.06,0.06-0.089,0.136-0.089,0.229v1.322
		c0,0.086,0.032,0.161,0.095,0.224s0.137,0.095,0.224,0.095h1.441c1.399,0,2.287,0.374,2.665,1.123H0.354
		c-0.093,0-0.169,0.03-0.229,0.09S0.036,3.308,0.036,3.4v1.015c0,0.093,0.03,0.169,0.089,0.229c0.06,0.06,0.136,0.089,0.229,0.089
		H4.6C4.454,5.276,4.114,5.69,3.581,5.976S2.343,6.403,1.467,6.403H0.354c-0.086,0-0.161,0.031-0.224,0.095
		C0.067,6.561,0.036,6.636,0.036,6.722v1.262c0,0.086,0.03,0.16,0.089,0.219c1.273,1.354,2.923,3.244,4.951,5.678
		c0.061,0.08,0.143,0.119,0.25,0.119h1.938c0.141,0,0.236-0.059,0.289-0.178c0.066-0.121,0.053-0.232-0.039-0.34
		c-1.936-2.373-3.458-4.148-4.564-5.328C4.076,8.021,4.99,7.656,5.693,7.06s1.131-1.372,1.283-2.327h1.67
		c0.094,0,0.17-0.029,0.229-0.089c0.061-0.06,0.09-0.136,0.09-0.229V3.4C8.965,3.308,8.936,3.231,8.875,3.172z"/>
</g></svg>