<?xml version="1.0" encoding="utf-8"?>
<!-- Generator: Adobe Illustrator 15.1.0, SVG Export Plug-In . SVG Version: 6.00 Build 0)  -->
<!DOCTYPE svg PUBLIC "-//W3C//DTD SVG 1.1//EN" "http://www.w3.org/Graphics/SVG/1.1/DTD/svg11.dtd">
<svg version="1.1" id="Layer_1" xmlns="http://www.w3.org/2000/svg" xmlns:xlink="http://www.w3.org/1999/xlink" x="0px" y="0px"
	 width="18px" height="18px" viewBox="0 0 18 18" enable-background="new 0 0 18 18" xml:space="preserve">
<g>
	<g>
		<path fill="#136AD5" d="M2.448,9.678v7.867c0,0-0.017,0.455,0.376,0.455c0.283,0,1.745-0.005,2.935-0.005V18h6.296v-0.016
			c1.121,0.004,2.473,0.005,2.82-0.005c0.5-0.018,0.477-0.566,0.477-0.566V9.678L9.092,3.395L2.448,9.678z"/>
		<path fill="#136AD5" d="M9.148,0L0,9.093c0,0,0.565,1.173,1.795,0l7.353-7.019l6.895,6.975c1.422,1.161,1.957,0,1.957,0L9.148,0z"
			/>
		<polygon fill="#136AD5" points="15.875,6.173 15.875,2.056 14.102,2.056 14.107,4.482 		"/>
	</g>
	<path fill="#FFFFFF" d="M12.098,14.768c0.002-0.035,0.016-0.068,0.016-0.103c0-1.177-1.465-2.129-3.27-2.129
		c-1.806,0-3.27,0.954-3.27,2.129c0,0.034,0.014,0.067,0.016,0.103H5.574v3.175h6.545v-3.175H12.098z"/>
	<circle fill="#FFFFFF" cx="8.874" cy="9.846" r="1.8"/>
</g>
</svg>
