<?xml version="1.0" encoding="utf-8"?>
<!-- Generator: Adobe Illustrator 15.1.0, SVG Export Plug-In . SVG Version: 6.00 Build 0)  -->
<!DOCTYPE svg PUBLIC "-//W3C//DTD SVG 1.1//EN" "http://www.w3.org/Graphics/SVG/1.1/DTD/svg11.dtd">
<svg version="1.1" id="Layer_1" xmlns="http://www.w3.org/2000/svg" xmlns:xlink="http://www.w3.org/1999/xlink" x="0px" y="0px"
	 width="18px" height="18px" viewBox="0 0 18 18" enable-background="new 0 0 18 18" xml:space="preserve">
<g>
	<circle fill="#136AD5" cx="9" cy="9" r="9"/>
	<g>
		<g>
			<g>
				<path fill="#FFFFFF" d="M9.631,12.354c-0.209,0.115-0.444,0.177-0.684,0.177c-0.239,0-0.475-0.062-0.683-0.177L2.196,8.965v4.98
					c0,0.259,0.208,0.469,0.47,0.469H15.23c0.259,0,0.466-0.208,0.466-0.469v-4.98L9.631,12.354z"/>
			</g>
		</g>
		<g>
			<g>
				<path fill="#FFFFFF" d="M15.23,5.322h-3.901c0-0.321,0-1.277,0-1.419c0-0.258-0.208-0.466-0.467-0.466H7.031
					c-0.257,0-0.467,0.208-0.467,0.466c0,0.142,0,1.098,0,1.419H2.663c-0.259,0-0.467,0.208-0.467,0.466v1.834
					c0,0.169,0.092,0.325,0.241,0.407l5.669,3.167v-1.053c0-0.153,0.125-0.276,0.277-0.276H9.51c0.153,0,0.277,0.123,0.277,0.276
					v1.053l5.672-3.167c0.146-0.082,0.237-0.238,0.237-0.407V5.788C15.696,5.53,15.489,5.322,15.23,5.322z M10.394,5.322H7.5V4.388
					h2.894V5.322L10.394,5.322z"/>
			</g>
		</g>
	</g>
</g>
</svg>
