<?xml version="1.0" encoding="utf-8"?>
<!-- Generator: Adobe Illustrator 15.1.0, SVG Export Plug-In . SVG Version: 6.00 Build 0)  -->
<!DOCTYPE svg PUBLIC "-//W3C//DTD SVG 1.1//EN" "http://www.w3.org/Graphics/SVG/1.1/DTD/svg11.dtd">
<svg version="1.1" id="Layer_1" xmlns="http://www.w3.org/2000/svg" xmlns:xlink="http://www.w3.org/1999/xlink" x="0px" y="0px"
	 width="18px" height="18px" viewBox="0 0 18 18" enable-background="new 0 0 18 18" xml:space="preserve">
<g>
	<g>
		<polygon fill="#136AD5" points="2.676,18 2.676,11.061 0.021,11.061 8.725,2.421 11.824,5.537 11.824,4.122 15.219,4.122 
			15.219,8.653 18.021,11.346 15.364,11.201 15.364,18 		"/>
		<path fill="#FFFFFF" d="M4.891,15.309c0,0,4.292,4.045,7.968,0c0,0,0.681-2.674-2.418-2.814c0,0-0.755,0.188-0.755,1.646H8.1
			c0,0,0.074-1.346-0.885-1.664C7.215,12.477,4.818,12.619,4.891,15.309z"/>
		<ellipse fill="#FFFFFF" cx="8.93" cy="9.502" rx="2.214" ry="2.125"/>
		<rect x="8.431" y="12.158" fill="#FFFFFF" width="0.848" height="1.982"/>
	</g>
	<g>
		<ellipse fill="#FFFFFF" cx="13.841" cy="3.618" rx="1.936" ry="1.834"/>
		<g>
			<path id="Facebook_Places_1_" fill="#E72273" d="M17.296,2.714c-0.038-0.146-0.113-0.301-0.171-0.437
				C16.461,0.6,15.001,0,13.817,0c-1.579,0-3.316,1.106-3.551,3.382v0.463c0,0.02,0.008,0.196,0.018,0.283
				c0.131,1.085,0.952,2.24,1.563,3.325c0.66,1.162,1.344,2.308,2.021,3.45c0.418-0.745,0.835-1.502,1.243-2.228
				c0.111-0.212,0.242-0.427,0.354-0.633c0.073-0.133,0.214-0.27,0.279-0.397c0.661-1.259,1.722-2.528,1.722-3.779V3.352
				C17.467,3.218,17.306,2.743,17.296,2.714z M13.847,5.048c-0.462,0-0.971-0.244-1.222-0.909C12.587,4.032,12.59,3.819,12.59,3.8
				V3.499c0-0.855,0.694-1.242,1.298-1.242c0.744,0,1.317,0.621,1.317,1.395C15.205,4.429,14.59,5.048,13.847,5.048z"/>
		</g>
	</g>
</g>
</svg>
