<?xml version="1.0" encoding="utf-8"?>
<!-- Generator: Adobe Illustrator 15.1.0, SVG Export Plug-In . SVG Version: 6.00 Build 0)  -->
<!DOCTYPE svg PUBLIC "-//W3C//DTD SVG 1.1//EN" "http://www.w3.org/Graphics/SVG/1.1/DTD/svg11.dtd">
<svg version="1.1" id="Layer_1" xmlns="http://www.w3.org/2000/svg" xmlns:xlink="http://www.w3.org/1999/xlink" x="0px" y="0px"
	 width="20px" height="20px" viewBox="0 0 20 20" enable-background="new 0 0 20 20" xml:space="preserve">
<path fill="#3C3C3B" d="M0.22,8.309l9.164-8.129c0,0,0.886-0.403,1.568,0l1.84,1.392c0,0,0.443-0.732,0.921-0.806l2.283-0.037
	c0,0,0.921,0.146,1.091,1.135v3.259l2.557,2.71c0,0,1.057,1.465-0.478,2.087h-1.636v5.565c0,0,0.409,5.054-5.59,4.468
	c0,0-0.989-0.293-1.16-1.172l-0.034-3.918H9.418v3.991c0,0-0.205,1.01-1.227,1.146H3.76c0,0-0.818-0.084-1.057-1.183L2.669,10H1.101
	C1.101,10-0.592,9.626,0.22,8.309z"/>
<path fill="#F2F2F2" d="M1.213,8.601l8.352-7.36c0,0,0.409-0.439,0.954,0l2.59,1.977c0,0,0.342,0.256,0.375-0.146V2.193
	c0,0,0.137-0.549,0.443-0.549h1.603c0,0,0.478,0.037,0.511,0.512v2.856c0,0,0,0.439,0.443,0.989l2.046,2.197
	c0,0,0.852,0.696,0,0.696l-1.603,0.146c0,0-0.512-0.037-0.512,0.366v6.225c0,0,0.478,3.516-4.465,3.296c0,0-0.375-0.037-0.409-0.513
	v-4.211c0,0-0.068-0.293-0.443-0.293l-2.25-0.073c0,0-0.443,0.146-0.443,0.402l-0.034,4.211c0,0-0.17,0.459-0.409,0.486H3.974
	c0,0-0.443,0.137-0.477-0.449V9.407c0,0-0.034-0.476-0.545-0.476L1.213,9.004C1.213,9.004,0.937,8.845,1.213,8.601z"/>
</svg>
