<?xml version="1.0" encoding="utf-8"?>
<!-- Generator: Adobe Illustrator 15.1.0, SVG Export Plug-In . SVG Version: 6.00 Build 0)  -->
<!DOCTYPE svg PUBLIC "-//W3C//DTD SVG 1.1//EN" "http://www.w3.org/Graphics/SVG/1.1/DTD/svg11.dtd">
<svg version="1.1" id="Layer_1" xmlns="http://www.w3.org/2000/svg" xmlns:xlink="http://www.w3.org/1999/xlink" x="0px" y="0px"
	 width="20px" height="20px" viewBox="0 0 20 20" enable-background="new 0 0 20 20" xml:space="preserve">
<g>
	<g>
		<polygon fill="#F2F2F2" points="2.95,20 2.95,12.29 0,12.29 9.671,2.692 13.114,6.153 13.114,4.58 16.886,4.58 16.886,9.615 
			20,12.605 17.048,12.446 17.048,20 		"/>
		<path fill="#808081" d="M5.411,17.011c0,0,4.768,4.493,8.853,0c0,0,0.756-2.972-2.688-3.128c0,0-0.838,0.207-0.838,1.83H8.975
			c0,0,0.083-1.496-0.983-1.85C7.992,13.863,5.329,14.021,5.411,17.011z"/>
		<ellipse fill="#808081" cx="9.898" cy="10.559" rx="2.459" ry="2.361"/>
		<rect x="9.344" y="13.51" fill="#808081" width="0.942" height="2.203"/>
	</g>
	<g>
		<ellipse fill="#FFFFFF" cx="15.354" cy="4.02" rx="2.152" ry="2.038"/>
		<g>
			<path id="Facebook_Places_1_" fill="#E72273" d="M19.193,3.015c-0.041-0.162-0.125-0.333-0.188-0.485
				C18.265,0.667,16.642,0,15.329,0c-1.755,0-3.687,1.228-3.945,3.759v0.515c0,0.022,0.008,0.217,0.02,0.313
				c0.145,1.206,1.057,2.488,1.736,3.694c0.734,1.291,1.493,2.564,2.247,3.834c0.464-0.829,0.927-1.669,1.381-2.477
				c0.125-0.236,0.269-0.474,0.393-0.703c0.082-0.148,0.24-0.299,0.311-0.44c0.733-1.399,1.913-2.809,1.913-4.2v-0.57
				C19.384,3.575,19.205,3.049,19.193,3.015z M15.362,5.61c-0.515,0-1.079-0.271-1.359-1.011c-0.04-0.119-0.037-0.355-0.037-0.377
				V3.889c0-0.951,0.771-1.38,1.441-1.38c0.825,0,1.464,0.689,1.464,1.55C16.871,4.922,16.188,5.61,15.362,5.61z"/>
		</g>
	</g>
</g>
</svg>
