<?xml version="1.0" encoding="utf-8"?>
<!-- Generator: Adobe Illustrator 15.1.0, SVG Export Plug-In . SVG Version: 6.00 Build 0)  -->
<!DOCTYPE svg PUBLIC "-//W3C//DTD SVG 1.1//EN" "http://www.w3.org/Graphics/SVG/1.1/DTD/svg11.dtd">
<svg version="1.1" id="Layer_1" xmlns="http://www.w3.org/2000/svg" xmlns:xlink="http://www.w3.org/1999/xlink" x="0px" y="0px"
	 width="20px" height="20px" viewBox="0 0 20 20" enable-background="new 0 0 20 20" xml:space="preserve">
<path fill="#F6F6F6" d="M10,0C7.407,0,4.949,0.988,3.078,2.783C2.842,3.01,2.834,3.385,3.061,3.621
	c0.227,0.236,0.602,0.244,0.838,0.018C5.547,2.056,7.714,1.185,10,1.185c4.86,0,8.815,3.955,8.815,8.815
	c0,1.832-0.571,3.594-1.615,5.072c-0.27-0.719-0.676-1.36-1.068-1.863c-0.021-0.044-0.046-0.086-0.078-0.124
	c-0.701-0.853-1.581-1.51-2.562-1.938c-0.574-0.261-0.972-0.35-0.972-0.35c-0.002,0-0.004,0-0.006-0.001
	c0.779-0.694,1.271-1.704,1.271-2.827c0-2.088-1.698-3.786-3.786-3.786c-2.087,0-3.786,1.698-3.786,3.786
	c0,1.126,0.495,2.139,1.279,2.833c-0.02,0.006-0.039,0.01-0.059,0.016c-0.082,0.022-0.162,0.047-0.242,0.072
	c-0.01,0.002-0.02,0.005-0.029,0.008c-0.09,0.029-0.179,0.061-0.267,0.092c-0.027,0.01-0.054,0.021-0.082,0.031
	c-0.061,0.023-0.121,0.047-0.181,0.072C6.6,11.106,6.567,11.12,6.535,11.135c-0.053,0.022-0.106,0.046-0.159,0.07
	c-0.034,0.017-0.068,0.032-0.103,0.049c-0.051,0.024-0.101,0.05-0.151,0.075c-0.033,0.018-0.067,0.035-0.101,0.053
	c-0.05,0.027-0.1,0.055-0.149,0.082c-0.032,0.019-0.064,0.036-0.096,0.055c-0.052,0.031-0.103,0.063-0.154,0.094
	c-0.028,0.018-0.056,0.035-0.084,0.053c-0.063,0.041-0.126,0.083-0.188,0.126c-0.014,0.01-0.029,0.019-0.043,0.029
	c-0.076,0.053-0.15,0.108-0.224,0.164c-0.021,0.017-0.042,0.033-0.063,0.05c-0.052,0.041-0.104,0.082-0.154,0.123
	c-0.026,0.023-0.053,0.046-0.08,0.068c-0.044,0.038-0.088,0.076-0.131,0.115c-0.028,0.024-0.055,0.05-0.083,0.076
	c-0.041,0.037-0.082,0.076-0.122,0.115c-0.027,0.026-0.054,0.053-0.081,0.08c-0.04,0.04-0.079,0.08-0.117,0.121
	c-0.026,0.027-0.051,0.055-0.076,0.082c-0.04,0.043-0.079,0.088-0.118,0.133c-0.022,0.025-0.045,0.051-0.066,0.076
	c-0.046,0.055-0.091,0.11-0.135,0.166c-0.014,0.018-0.028,0.034-0.041,0.052c-0.057,0.073-0.113,0.148-0.167,0.224
	c-0.014,0.021-0.027,0.041-0.042,0.062c-0.039,0.057-0.078,0.113-0.115,0.171c-0.019,0.029-0.037,0.059-0.056,0.088
	c-0.032,0.051-0.063,0.101-0.093,0.151c-0.02,0.032-0.038,0.065-0.057,0.099c-0.028,0.049-0.056,0.099-0.083,0.148
	c-0.018,0.034-0.036,0.068-0.054,0.103c-0.026,0.051-0.051,0.102-0.077,0.152c-0.017,0.034-0.033,0.069-0.05,0.104
	c-0.025,0.054-0.049,0.108-0.073,0.163c-0.014,0.033-0.029,0.065-0.042,0.099c-0.027,0.063-0.052,0.128-0.077,0.192
	c-0.009,0.025-0.02,0.049-0.029,0.074c-0.001,0.003-0.003,0.007-0.004,0.01C1.751,13.603,1.185,11.834,1.185,10
	c0-0.327-0.265-0.592-0.593-0.592C0.265,9.408,0,9.673,0,10c0,2.508,0.933,4.907,2.627,6.755C4.518,18.817,7.205,20,10,20
	s5.481-1.183,7.372-3.245h0.001C19.067,14.906,20,12.508,20,10C20,4.486,15.515,0,10,0z"/>
</svg>
