<?xml version="1.0" encoding="utf-8"?>
<!-- Generator: Adobe Illustrator 15.1.0, SVG Export Plug-In . SVG Version: 6.00 Build 0)  -->
<!DOCTYPE svg PUBLIC "-//W3C//DTD SVG 1.1//EN" "http://www.w3.org/Graphics/SVG/1.1/DTD/svg11.dtd">
<svg version="1.1" id="Layer_1" xmlns="http://www.w3.org/2000/svg" xmlns:xlink="http://www.w3.org/1999/xlink" x="0px" y="0px"
	 width="300px" height="150px" viewBox="0 0 300 150" enable-background="new 0 0 300 150" xml:space="preserve">
<path fill="#878787" d="M160.845,17.162c4.623,3.447,7.865,9.277,8.457,16.042c1.889,1.048,3.979,1.65,6.198,1.65
	c8.099,0,14.668-7.803,14.668-17.428C190.168,7.803,183.599,0,175.5,0C167.479,0.003,160.969,7.666,160.845,17.162z M151.239,52.849
	c8.102,0,14.664-7.803,14.664-17.432c0-9.622-6.568-17.425-14.664-17.425c-8.103,0-14.671,7.806-14.671,17.428
	C136.568,45.045,143.137,52.849,151.239,52.849z M157.46,54.03h-12.445c-10.355,0-18.779,10.02-18.779,22.317V94.44l0.039,0.273
	l1.048,0.396c9.883,3.666,18.467,4.89,25.531,4.89c13.806,0,21.8-4.675,22.295-4.974l0.977-0.586h0.11V76.348
	C176.235,64.05,167.812,54.03,157.46,54.03z M181.724,36.045h-12.35c-0.131,5.869-2.24,11.156-5.58,14.958
	c9.206,3.255,15.938,13.392,15.938,25.371v5.579c12.194-0.534,19.219-4.642,19.682-4.915l0.982-0.593h0.104V58.353
	C200.5,46.055,192.075,36.045,181.724,36.045z M125.503,34.857c2.868,0,5.537-0.996,7.799-2.689
	c0.719-5.573,3.232-10.439,6.823-13.76c0.017-0.326,0.042-0.645,0.042-0.98c0-9.622-6.569-17.425-14.665-17.425
	c-8.103,0-14.665,7.803-14.665,17.425C110.838,27.054,117.401,34.857,125.503,34.857z M138.674,51.003
	c-3.32-3.783-5.42-9.04-5.573-14.876c-0.459-0.039-0.912-0.082-1.38-0.082h-12.441c-10.355,0-18.779,10.01-18.779,22.308v18.093
	l0.039,0.273l1.048,0.397c7.926,2.942,15,4.297,21.146,4.72v-5.462C122.736,64.395,129.468,54.258,138.674,51.003z"/>
<text transform="matrix(1 0 0 1 0 141.8018)" fill="#878787" font-family="'OpenSans-Semibold'" font-size="29.5">No Root Users Found</text>
</svg>
