<?xml version="1.0" encoding="utf-8"?>
<!-- Generator: Adobe Illustrator 15.1.0, SVG Export Plug-In . SVG Version: 6.00 Build 0)  -->
<!DOCTYPE svg PUBLIC "-//W3C//DTD SVG 1.1//EN" "http://www.w3.org/Graphics/SVG/1.1/DTD/svg11.dtd">
<svg version="1.1" id="Layer_1" xmlns="http://www.w3.org/2000/svg" xmlns:xlink="http://www.w3.org/1999/xlink" x="0px" y="0px"
	 width="15px" height="15px" viewBox="0 0 15 15" enable-background="new 0 0 15 15" xml:space="preserve">
<g>
	<g>
		<g>
			<path fill="#55231A" d="M8.234,9.196V8.791c0-0.494-0.33-0.895-0.734-0.895c-0.406,0-0.736,0.4-0.736,0.895v0.405
				c0,0.494,0.33,0.896,0.736,0.896C7.905,10.093,8.234,9.692,8.234,9.196z"/>
			<path fill="#55231A" d="M8.739,9.692C8.576,10.342,8.086,10.82,7.5,10.82s-1.078-0.479-1.239-1.128H1.195
				c-0.32,0-0.623-0.091-0.893-0.249v4.099C0.302,14.346,0.838,15,1.495,15h12.01c0.654,0,1.193-0.654,1.193-1.458V9.443
				c-0.271,0.158-0.573,0.249-0.893,0.249H8.739L8.739,9.692z"/>
			<path fill="#55231A" d="M13.757,2.331H10.89C10.718,1.011,9.777,0,8.648,0H6.352c-1.13,0-2.068,1.011-2.243,2.331H1.244
				C0.56,2.331,0,2.985,0,3.787v3.359c0,0.804,0.534,1.456,1.194,1.456h5.009C6.219,8.184,6.368,7.809,6.6,7.535
				C6.607,7.524,6.615,7.52,6.624,7.512c0.051-0.06,0.105-0.114,0.163-0.158c0.022-0.021,0.045-0.032,0.069-0.047
				C6.901,7.272,6.95,7.239,7.001,7.212C7.043,7.191,7.086,7.177,7.13,7.163c0.038-0.016,0.075-0.03,0.113-0.039
				C7.324,7.102,7.411,7.089,7.5,7.089c0.087,0,0.174,0.014,0.258,0.035c0.038,0.009,0.073,0.023,0.111,0.039
				c0.043,0.014,0.085,0.028,0.127,0.049c0.053,0.026,0.1,0.06,0.149,0.095c0.02,0.018,0.045,0.026,0.066,0.047
				C8.27,7.398,8.322,7.453,8.377,7.512C8.384,7.52,8.391,7.524,8.398,7.535c0.234,0.273,0.381,0.648,0.397,1.066h5.01
				C14.465,8.602,15,7.949,15,7.146V3.789C15,2.985,14.44,2.331,13.757,2.331z M5.259,2.331c0.152-0.559,0.583-0.969,1.092-0.969
				h2.297c0.511,0,0.938,0.411,1.091,0.969H5.259z"/>
		</g>
	</g>
</g>
</svg>
