<?xml version="1.0" encoding="utf-8"?>
<!-- Generator: Adobe Illustrator 15.1.0, SVG Export Plug-In . SVG Version: 6.00 Build 0)  -->
<!DOCTYPE svg PUBLIC "-//W3C//DTD SVG 1.1//EN" "http://www.w3.org/Graphics/SVG/1.1/DTD/svg11.dtd">
<svg version="1.1" id="Layer_1" xmlns="http://www.w3.org/2000/svg" xmlns:xlink="http://www.w3.org/1999/xlink" x="0px" y="0px"
	 width="15px" height="15px" viewBox="0 0 15 15" enable-background="new 0 0 15 15" xml:space="preserve">
<g>
	<path fill="#55231A" d="M6,5.143C6,5.617,5.653,6,5.226,6H0.774C0.347,6,0,5.617,0,5.143V0.857C0,0.383,0.347,0,0.774,0h4.451
		C5.653,0,6,0.383,6,0.857V5.143z"/>
	<path fill="#55231A" d="M6,14.143C6,14.616,5.654,15,5.227,15H0.774C0.347,15,0,14.616,0,14.143V9.857C0,9.384,0.347,9,0.774,9
		h4.452C5.654,9,6,9.384,6,9.857V14.143z"/>
	<path fill="#55231A" d="M15,14.143C15,14.616,14.654,15,14.227,15H9.773C9.346,15,9,14.616,9,14.143V9.857C9,9.384,9.346,9,9.773,9
		h4.453C14.654,9,15,9.384,15,9.857V14.143z"/>
	<path fill="#55231A" d="M14.708,2.917h-2.479c-0.088,0-0.146-0.058-0.146-0.146V0.292C12.083,0.117,11.967,0,11.792,0h-0.584
		c-0.175,0-0.291,0.117-0.291,0.292v2.479c0,0.087-0.059,0.146-0.146,0.146H8.292C8.116,2.917,8,3.033,8,3.208v0.583
		c0,0.175,0.116,0.292,0.292,0.292h2.479c0.088,0,0.146,0.058,0.146,0.146v2.479C10.917,6.884,11.033,7,11.208,7h0.584
		c0.175,0,0.291-0.116,0.291-0.292V4.229c0-0.087,0.059-0.146,0.146-0.146h2.479C14.884,4.083,15,3.966,15,3.792V3.208
		C15,3.033,14.884,2.917,14.708,2.917z"/>
</g>
</svg>
