<?xml version="1.0" encoding="utf-8"?>
<!-- Generator: Adobe Illustrator 15.1.0, SVG Export Plug-In . SVG Version: 6.00 Build 0)  -->
<!DOCTYPE svg PUBLIC "-//W3C//DTD SVG 1.1//EN" "http://www.w3.org/Graphics/SVG/1.1/DTD/svg11.dtd">
<svg version="1.1" id="Layer_1" xmlns="http://www.w3.org/2000/svg" xmlns:xlink="http://www.w3.org/1999/xlink" x="0px" y="0px"
	 width="15px" height="15px" viewBox="0 0 15 15" enable-background="new 0 0 15 15" xml:space="preserve">
<path fill="#57231C" d="M9.052,2.571c0.693,0.517,1.18,1.392,1.269,2.406c0.283,0.157,0.597,0.248,0.93,0.248
	c1.215,0,2.2-1.17,2.2-2.614c0-1.443-0.985-2.614-2.2-2.614C10.047-0.002,9.07,1.147,9.052,2.571z M7.611,7.924
	c1.215,0,2.2-1.17,2.2-2.615c0-1.443-0.985-2.614-2.2-2.614c-1.215,0-2.201,1.171-2.201,2.614C5.41,6.754,6.396,7.924,7.611,7.924z
	 M8.544,8.102H6.677c-1.553,0-2.817,1.503-2.817,3.348v2.714l0.006,0.041l0.157,0.06c1.482,0.55,2.77,0.733,3.83,0.733
	c2.071,0,3.27-0.701,3.344-0.746l0.146-0.088h0.017v-2.714C11.36,9.604,10.097,8.102,8.544,8.102z M12.184,5.404h-1.853
	c-0.02,0.88-0.336,1.673-0.837,2.244c1.381,0.488,2.391,2.009,2.391,3.806v0.837c1.829-0.08,2.883-0.696,2.952-0.737l0.147-0.089H15
	V8.75C15,6.905,13.736,5.404,12.184,5.404z M3.75,5.226c0.43,0,0.831-0.149,1.17-0.403c0.108-0.836,0.485-1.566,1.023-2.064
	C5.946,2.709,5.95,2.662,5.95,2.611c0-1.443-0.985-2.614-2.2-2.614c-1.215,0-2.2,1.17-2.2,2.614C1.551,4.055,2.535,5.226,3.75,5.226
	z M5.726,7.647C5.228,7.08,4.913,6.292,4.89,5.416C4.821,5.41,4.753,5.404,4.683,5.404H2.817C1.264,5.404,0,6.905,0,8.75v2.714
	l0.006,0.041l0.157,0.06c1.189,0.441,2.25,0.645,3.172,0.708v-0.819C3.335,9.656,4.345,8.136,5.726,7.647z"/>
</svg>
