<?xml version="1.0" encoding="utf-8"?>
<!-- Generator: Adobe Illustrator 15.1.0, SVG Export Plug-In . SVG Version: 6.00 Build 0)  -->
<!DOCTYPE svg PUBLIC "-//W3C//DTD SVG 1.1//EN" "http://www.w3.org/Graphics/SVG/1.1/DTD/svg11.dtd">
<svg version="1.1" id="Layer_1" xmlns="http://www.w3.org/2000/svg" xmlns:xlink="http://www.w3.org/1999/xlink" x="0px" y="0px"
	 width="18px" height="18px" viewBox="0 0 18 18" enable-background="new 0 0 18 18" xml:space="preserve">
<path fill="#FFFFFF" d="M17.996,6.01V5.933h-0.084l-6.299-5.875V0H2.062v0.102v1.316v5.986h1.52V1.417h6.75v4.252v1.397v0.021h6.145
	V18h1.52V6.018L18,6.014L17.996,6.01z M11.852,2.285l3.629,3.385h-3.629V2.285z"/>
<g>
	<path fill="#FFFFFF" d="M0.248,11.097c-0.581,0.726-0.105,1.32,1.056,1.32h2.782v4.55c0,0.56,0.61,1.013,1.362,1.013h4.085
		c0.751,0,1.363-0.453,1.363-1.013v-4.55h2.781c1.16,0,1.635-0.594,1.055-1.32L8.545,6.389c-0.842-0.624-1.303-0.601-2.112,0
		L0.248,11.097z"/>
</g>
</svg>
