<?xml version="1.0" encoding="utf-8"?>
<!-- Generator: Adobe Illustrator 15.1.0, SVG Export Plug-In . SVG Version: 6.00 Build 0)  -->
<!DOCTYPE svg PUBLIC "-//W3C//DTD SVG 1.1//EN" "http://www.w3.org/Graphics/SVG/1.1/DTD/svg11.dtd">
<svg version="1.1" id="Layer_1" xmlns="http://www.w3.org/2000/svg" xmlns:xlink="http://www.w3.org/1999/xlink" x="0px" y="0px"
	 width="10px" height="15px" viewBox="0 0 10 15" enable-background="new 0 0 10 15" xml:space="preserve">
<g>
	<path fill="#57221C" d="M10,4.286c0,2.143-2.5,4.252-2.5,6.428h-5C2.5,8.604,0,6.429,0,4.286C0,1.919,2.238,0,5,0
		S10,1.919,10,4.286z M6.875,12.857h-3.75c-0.346,0-0.625,0.239-0.625,0.535c0,0.297,0.279,0.536,0.625,0.536H3.24
		C3.497,14.552,4.185,15,5,15s1.503-0.448,1.76-1.071h0.115c0.346,0,0.625-0.239,0.625-0.536C7.5,13.097,7.221,12.857,6.875,12.857z
		 M6.875,11.25h-3.75c-0.346,0-0.625,0.239-0.625,0.536c0,0.296,0.279,0.535,0.625,0.535h3.75c0.346,0,0.625-0.239,0.625-0.535
		C7.5,11.489,7.221,11.25,6.875,11.25z"/>
</g>
<text transform="matrix(1.4149 0 0 1 3.1035 9.0967)" fill="#F6F6F6" font-family="'MaiandraGD-Regular'" font-size="11">i</text>
</svg>
