<?xml version="1.0" encoding="utf-8"?>
<svg version="1.1" id="Layer_1" xmlns="http://www.w3.org/2000/svg" xmlns:xlink="http://www.w3.org/1999/xlink" x="0px" y="0px"
	 width="15px" height="15px" viewBox="0 0 15 15" enable-background="new 0 0 15 15" xml:space="preserve">
		<polygon fill="#556BC9" points="2.212,15 2.212,9.213 0,9.213 7.251,2.021 9.829,4.614 9.829,4.234 12.671,4.25 12.671,7.214 
			15,9.455 12.788,9.33 12.788,15 		"/>
			<path id="Facebook_Places_1_" fill="#1E3991" d="M14.398,2.263c-0.028-0.125-0.103-0.249-0.146-0.366
				C13.695,0.498,12.48,0,11.499,0C10.182,0,8.73,0.923,8.54,2.82v0.388c0,0.015,0,0.161,0.015,0.234
				c0.104,0.901,0.791,1.86,1.305,2.769c0.541,0.967,1.113,1.926,1.685,2.879c0.353-0.623,0.688-1.253,1.024-1.861
				c0.104-0.176,0.205-0.359,0.309-0.527c0.059-0.11,0.176-0.227,0.221-0.33c0.557-1.047,1.436-2.109,1.436-3.149V2.798
				C14.531,2.681,14.398,2.285,14.398,2.263z M11.527,4.204c-0.396,0-0.819-0.198-1.024-0.754c-0.028-0.088-0.028-0.264-0.028-0.286
				V2.915c0-0.71,0.586-1.033,1.084-1.033c0.614,0,1.099,0.513,1.099,1.165C12.656,3.691,12.145,4.204,11.527,4.204z"/>
			<path fill="#1E3991" d="M8.688,10.414c0,0-0.631,0.154-0.631,1.371H7.72v-1.656H7.002v1.656H6.738c0,0,0.059-1.121-0.747-1.385
				c0,0-1.992,0.117-1.933,2.357c0,0,3.574,3.369,6.635,0C10.693,12.758,11.266,10.531,8.688,10.414z"/>
			<path fill="#1E3991" d="M9.271,7.917c0,0.981-0.834,1.772-1.846,1.772c-1.025,0-1.846-0.791-1.846-1.772
				c0-0.974,0.82-1.765,1.846-1.765C8.438,6.152,9.271,6.943,9.271,7.917z"/>
</svg>