<?xml version="1.0" encoding="utf-8"?>
<!-- Generator: Adobe Illustrator 15.1.0, SVG Export Plug-In . SVG Version: 6.00 Build 0)  -->
<!DOCTYPE svg PUBLIC "-//W3C//DTD SVG 1.1//EN" "http://www.w3.org/Graphics/SVG/1.1/DTD/svg11.dtd">
<svg version="1.1" id="Layer_1" xmlns="http://www.w3.org/2000/svg" xmlns:xlink="http://www.w3.org/1999/xlink" x="0px" y="0px"
	 width="15px" height="15px" viewBox="0 0 15 15" enable-background="new 0 0 15 15" xml:space="preserve">
<g>
	<g>
		<polygon fill="#FFFFFF" points="2.212,15 2.212,9.213 0,9.213 7.251,2.021 9.829,4.614 9.829,3.435 12.671,3.435 12.671,7.214 
			15,9.455 12.788,9.33 12.788,15 		"/>
		<path fill="#999999" d="M4.058,12.758c0,0,3.574,3.369,6.636,0c0,0,0.571-2.227-2.007-2.344c0,0-0.63,0.154-0.63,1.371H6.738
			c0,0,0.059-1.121-0.747-1.385C5.991,10.4,3.999,10.518,4.058,12.758z"/>
		<path fill="#999999" d="M9.272,7.917c0,0.981-0.835,1.772-1.846,1.772c-1.025,0-1.846-0.791-1.846-1.772
			c0-0.974,0.82-1.765,1.846-1.765C8.438,6.152,9.272,6.943,9.272,7.917z"/>
		<rect x="7.002" y="10.129" fill="#999999" width="0.718" height="1.656"/>
	</g>
	<g>
		<path fill="#FFFFFF" d="M13.125,3.018c0,0.842-0.718,1.523-1.611,1.523S9.902,3.86,9.902,3.018c0-0.85,0.718-1.531,1.611-1.531
			S13.125,2.168,13.125,3.018z"/>
		<g>
			<path id="Facebook_Places_1_" fill="#E62273" d="M14.399,2.263c-0.029-0.125-0.103-0.249-0.146-0.366
				C13.696,0.498,12.48,0,11.499,0C10.181,0,8.73,0.923,8.54,2.82v0.388c0,0.015,0,0.161,0.015,0.234
				c0.103,0.901,0.791,1.86,1.304,2.769c0.542,0.967,1.113,1.926,1.685,2.879c0.352-0.623,0.688-1.253,1.025-1.861
				c0.103-0.176,0.205-0.359,0.308-0.527c0.059-0.11,0.176-0.227,0.22-0.33c0.557-1.047,1.436-2.109,1.436-3.149V2.798
				C14.531,2.681,14.399,2.285,14.399,2.263z M11.528,4.204c-0.396,0-0.82-0.198-1.025-0.754c-0.029-0.088-0.029-0.264-0.029-0.286
				V2.915c0-0.71,0.586-1.033,1.084-1.033c0.615,0,1.099,0.513,1.099,1.165C12.656,3.691,12.144,4.204,11.528,4.204z"/>
		</g>
	</g>
</g>
</svg>
