<?xml version="1.0" encoding="utf-8"?>
<!-- Generator: Adobe Illustrator 15.1.0, SVG Export Plug-In . SVG Version: 6.00 Build 0)  -->
<!DOCTYPE svg PUBLIC "-//W3C//DTD SVG 1.1//EN" "http://www.w3.org/Graphics/SVG/1.1/DTD/svg11.dtd">
<svg version="1.1" id="Layer_1" xmlns="http://www.w3.org/2000/svg" xmlns:xlink="http://www.w3.org/1999/xlink" x="0px" y="0px"
	 width="15px" height="15px" viewBox="0 0 15 15" enable-background="new 0 0 15 15" xml:space="preserve">
<g>
	<g>
		<ellipse id="XMLID_3_" fill="#57211D" cx="10.685" cy="7.603" rx="0.849" ry="1.189"/>
		<ellipse id="XMLID_2_" fill="#57211D" cx="7.5" cy="7.603" rx="0.85" ry="1.189"/>
		<ellipse id="XMLID_1_" fill="#57211D" cx="4.315" cy="7.603" rx="0.849" ry="1.189"/>
		<path fill="#57211D" d="M13.872,0c-0.622,0-1.128,0.709-1.128,1.581c0,0.727,0.353,1.34,0.83,1.521V4.3h-2.62V3.115
			c0.493-0.169,0.861-0.791,0.861-1.534C11.815,0.709,11.31,0,10.688,0S9.56,0.709,9.56,1.581c0,0.729,0.358,1.348,0.84,1.525v2.968
			C9.918,6.255,9.56,6.868,9.56,7.599c0,0.731,0.358,1.349,0.84,1.525v1.03h-2.62V9.132c0.486-0.176,0.849-0.794,0.849-1.528
			c0-0.873-0.506-1.582-1.128-1.582S6.372,6.73,6.372,7.604c0,0.738,0.362,1.356,0.849,1.528v1.031h-2.62V9.132
			c0.481-0.18,0.84-0.794,0.84-1.524s-0.358-1.349-0.84-1.525V5.086H7.5c0.153,0,0.279-0.176,0.279-0.392V3.115
			c0.486-0.177,0.849-0.796,0.849-1.53c0-0.872-0.506-1.581-1.128-1.581S6.372,0.713,6.372,1.585c0,0.739,0.362,1.357,0.849,1.53
			v1.189h-2.62V3.109c0.481-0.181,0.84-0.794,0.84-1.524c0-0.872-0.506-1.581-1.128-1.581S3.185,0.713,3.185,1.585
			c0,0.743,0.368,1.366,0.861,1.533v1.187h-2.62V3.106c0.478-0.186,0.83-0.796,0.83-1.521c0-0.872-0.506-1.581-1.128-1.581
			S0,0.713,0,1.585c0,0.747,0.371,1.374,0.871,1.538v1.571c0,0.216,0.125,0.392,0.278,0.392h2.896v0.992
			c-0.493,0.168-0.861,0.79-0.861,1.533s0.368,1.366,0.861,1.534v1.404c0,0.215,0.126,0.391,0.278,0.391h2.896v0.949
			c-0.486,0.176-0.849,0.795-0.849,1.529C6.372,14.291,6.878,15,7.5,15s1.128-0.709,1.128-1.581c0-0.738-0.362-1.357-0.849-1.529
			V10.94h2.896c0.152,0,0.278-0.176,0.278-0.391V9.137c0.493-0.167,0.861-0.79,0.861-1.533s-0.368-1.365-0.861-1.534V5.077h2.896
			c0.153,0,0.278-0.176,0.278-0.391V3.118C14.626,2.956,15,2.328,15,1.581C15,0.709,14.494,0,13.872,0z M6.927,7.604
			C6.927,7.161,7.184,6.8,7.5,6.8s0.573,0.361,0.573,0.804c0,0.441-0.257,0.803-0.573,0.803S6.927,8.045,6.927,7.604z M6.927,1.581
			c0-0.442,0.257-0.804,0.573-0.804s0.573,0.361,0.573,0.804c0,0.441-0.257,0.803-0.573,0.803S6.927,2.022,6.927,1.581z
			 M0.558,1.581c0-0.442,0.258-0.804,0.573-0.804c0.316,0,0.573,0.361,0.573,0.804c0,0.441-0.257,0.803-0.573,0.803
			C0.813,2.384,0.558,2.022,0.558,1.581z M3.742,1.581c0-0.442,0.258-0.804,0.573-0.804s0.573,0.361,0.573,0.804
			c0,0.441-0.258,0.803-0.573,0.803S3.742,2.022,3.742,1.581z M3.742,7.604C3.742,7.161,4,6.8,4.315,6.8s0.573,0.361,0.573,0.804
			c0,0.441-0.258,0.803-0.573,0.803S3.742,8.045,3.742,7.604z M8.073,13.419c0,0.442-0.257,0.804-0.573,0.804
			s-0.573-0.361-0.573-0.804s0.257-0.803,0.573-0.803S8.073,12.977,8.073,13.419z M10.114,1.581c0-0.442,0.258-0.804,0.573-0.804
			c0.316,0,0.573,0.361,0.573,0.804c0,0.441-0.257,0.803-0.573,0.803C10.372,2.384,10.114,2.022,10.114,1.581z M11.258,7.604
			c0,0.441-0.258,0.803-0.573,0.803s-0.573-0.361-0.573-0.803c0-0.443,0.258-0.804,0.573-0.804C11,6.804,11.258,7.161,11.258,7.604z
			 M13.872,2.384c-0.315,0-0.573-0.361-0.573-0.803c0-0.442,0.258-0.804,0.573-0.804s0.573,0.361,0.573,0.804
			C14.442,2.022,14.188,2.384,13.872,2.384z"/>
	</g>
</g>
</svg>
