<?xml version="1.0" encoding="utf-8"?>
<!-- Generator: Adobe Illustrator 15.1.0, SVG Export Plug-In . SVG Version: 6.00 Build 0)  -->
<!DOCTYPE svg PUBLIC "-//W3C//DTD SVG 1.1//EN" "http://www.w3.org/Graphics/SVG/1.1/DTD/svg11.dtd">
<svg version="1.1" id="Layer_1" xmlns="http://www.w3.org/2000/svg" xmlns:xlink="http://www.w3.org/1999/xlink" x="0px" y="0px"
	 width="11px" height="15px" viewBox="0 0 11 15" enable-background="new 0 0 11 15" xml:space="preserve">
<g>
	<path fill="#56231B" d="M10.89,3.396C10.816,3.332,10.724,3.3,10.608,3.3H8.514C8.375,2.71,8.114,2.199,7.729,1.766h2.855
		c0.113,0,0.208-0.032,0.28-0.096c0.074-0.064,0.11-0.146,0.11-0.245V0.338c0-0.1-0.035-0.181-0.11-0.245
		c-0.073-0.063-0.167-0.096-0.28-0.096H0.393c-0.115,0-0.209,0.032-0.282,0.096C0.037,0.157,0,0.239,0,0.338v1.417
		c0,0.092,0.039,0.172,0.116,0.24c0.078,0.067,0.169,0.101,0.276,0.101h1.775c1.724,0,2.818,0.401,3.283,1.204H0.393
		c-0.115,0-0.209,0.032-0.282,0.096C0.037,3.459,0,3.541,0,3.641v1.086c0,0.099,0.037,0.181,0.11,0.245
		c0.073,0.063,0.167,0.096,0.282,0.096h5.23C5.443,5.651,5.024,6.095,4.367,6.4C3.709,6.706,2.842,6.858,1.764,6.858H0.393
		c-0.107,0-0.199,0.033-0.276,0.101C0.039,7.027,0,7.107,0,7.199v1.354c0,0.092,0.037,0.17,0.11,0.233
		c1.568,1.449,3.602,3.478,6.101,6.084c0.073,0.085,0.176,0.128,0.306,0.128h2.389c0.172,0,0.291-0.064,0.355-0.192
		c0.082-0.128,0.066-0.248-0.049-0.362C6.827,11.9,4.954,9.997,3.589,8.733C4.978,8.591,6.105,8.2,6.97,7.562
		c0.866-0.639,1.394-1.47,1.581-2.493h2.058c0.115,0,0.208-0.032,0.281-0.096C10.964,4.909,11,4.827,11,4.728V3.641
		C11,3.542,10.964,3.46,10.89,3.396z"/>
</g>
</svg>
