<?xml version="1.0" encoding="utf-8"?>
<!-- Generator: Adobe Illustrator 15.1.0, SVG Export Plug-In . SVG Version: 6.00 Build 0)  -->
<!DOCTYPE svg PUBLIC "-//W3C//DTD SVG 1.1//EN" "http://www.w3.org/Graphics/SVG/1.1/DTD/svg11.dtd">
<svg version="1.1" id="Layer_1" xmlns="http://www.w3.org/2000/svg" xmlns:xlink="http://www.w3.org/1999/xlink" x="0px" y="0px"
	 width="15px" height="15px" viewBox="0 0 15 15" enable-background="new 0 0 15 15" xml:space="preserve">
<g>
	<g>
		<path fill="rgba(29, 46, 141, 0.92)" d="M15,7.484c0-4.131-3.357-7.48-7.5-7.48c-4.142,0-7.5,3.35-7.5,7.48c0,3.455,2.353,6.354,5.545,7.213
			c1.187,0.365,2.593,0.47,4.133-0.057C12.758,13.709,15,10.859,15,7.484z M7.494,0.938c3.645,0,6.6,2.947,6.6,6.582
			c0,1.647-0.61,3.148-1.614,4.305C11.531,9.947,9.66,8.668,7.5,8.668c-2.164,0-4.039,1.281-4.986,3.163
			c-1.006-1.156-1.619-2.66-1.619-4.312C0.895,3.885,3.849,0.938,7.494,0.938z"/>
		<ellipse fill="rgba(29, 46, 141, 0.92)" cx="7.523" cy="5.604" rx="2.999" ry="2.97"/>
	</g>
</g>
</svg>
