<?xml version="1.0" encoding="utf-8"?>
<svg version="1.1" id="Layer_1" xmlns="http://www.w3.org/2000/svg" xmlns:xlink="http://www.w3.org/1999/xlink" x="0px" y="0px"
	 width="18px" height="18px" viewBox="0 0 18 18" enable-background="new 0 0 18 18" xml:space="preserve">
	<path fill="#3066EF" d="M10.082,0.881H6.67c-0.657,0-1.196,0.572-1.196,1.287v3.504c0,0.703,0.539,1.277,1.196,1.277h3.412
		c0.66,0,1.2-0.574,1.2-1.277V2.168C11.282,1.453,10.742,0.881,10.082,0.881 M10.398,5.854H6.357V1.98h1.488v1.84l0.533-0.574
		L8.909,3.82V1.98h1.489V5.854z"/>
	<path fill="#F7699F" d="M17.819,5.323C17.934,5.467,18,5.648,18,5.839v4.72l-0.648,6.75C17.318,17.695,17.007,18,16.632,18H15.78
		c-0.382,0-0.696-0.305-0.726-0.715l-0.54-7.535h0.001c0.046-0.023,0.79-0.234,1.014-0.448c0.229-0.22,0.415-0.489,0.513-0.747
		c0.093-0.27,0.605-2.088,0.622-2.145l-1.587,2.32c0,0-0.229,0.047-0.563,0.141c-0.877,0.211-2.48,0.598-2.715,0.645
		c-0.321,0.094-0.91,0.141-1.058-0.494c-0.152-0.631,0.204-0.947,0.583-1.025c0.382-0.074,2.722-0.602,2.722-0.602l0.468-0.867
		l0.818-1.52c0.12-0.231,0.35-0.379,0.595-0.379h1.047c0.181,0,0.358,0.094,0.475,0.242L17.819,5.323z"/>
	<path fill="#6394F7" d="M0.377,5.323C0.261,5.467,0.2,5.648,0.2,5.839v4.72l0.644,6.75C0.883,17.695,1.194,18,1.564,18h0.853
		c0.376,0,0.701-0.305,0.72-0.715L3.689,9.75H3.676C3.641,9.727,2.889,9.516,2.662,9.302c-0.223-0.22-0.411-0.489-0.509-0.747
		C2.062,8.285,1.548,6.467,1.531,6.41l1.587,2.32c0,0,0.229,0.047,0.571,0.141c0.868,0.211,2.472,0.598,2.708,0.645
		c0.319,0.094,0.908,0.141,1.057-0.494c0.153-0.631-0.203-0.947-0.589-1.025C6.49,7.922,4.147,7.395,4.147,7.395L3.689,6.527
		l-0.825-1.52C2.742,4.776,2.513,4.629,2.268,4.629H1.222c-0.182,0-0.355,0.094-0.476,0.242L0.377,5.323z"/>
	<path fill="#737475" d="M18,1.957c0,1.078-0.813,1.957-1.827,1.957c-0.999,0-1.815-0.879-1.815-1.957
		c0-1.09,0.816-1.957,1.815-1.957C17.188,0,18,0.867,18,1.957"/>
	<path fill="#737475" d="M4.541,0.645H3.169C2.84,0.258,2.36,0,1.825,0C0.817,0,0,0.867,0,1.957c0,1.078,0.818,1.957,1.825,1.957
		c1,0,1.817-0.879,1.817-1.957c0-0.223-0.033-0.434-0.098-0.636h0.998c0.166,0,0.312-0.149,0.312-0.342
		C4.853,0.797,4.707,0.645,4.541,0.645"/>
</svg>