<?xml version="1.0" encoding="utf-8"?>
<!-- Generator: Adobe Illustrator 15.1.0, SVG Export Plug-In . SVG Version: 6.00 Build 0)  -->
<!DOCTYPE svg PUBLIC "-//W3C//DTD SVG 1.1//EN" "http://www.w3.org/Graphics/SVG/1.1/DTD/svg11.dtd">
<svg version="1.1" id="Layer_1" xmlns="http://www.w3.org/2000/svg" xmlns:xlink="http://www.w3.org/1999/xlink" x="0px" y="0px"
	 width="15px" height="15px" viewBox="0 0 15 15" enable-background="new 0 0 15 15" xml:space="preserve">
<path fill="#57231C" d="M2.473,8.623c0,0,1.622-1.604,4.764,0.261c0,0,0.953,0.557,1.776,0.721c0,0,1.185-0.197,1.571,0.033
	c0,0,0.515,0.227,0.669,0.227c0,0,1.056,0.198,0.154,0.918c0,0-3.244,0.784-3.656,0.816c0,0-0.249,0.076,0.077,0.13
	c0,0,1.297,0.284,1.571,0.601l0.669-0.076c0,0,2.061-0.687,2.678-0.884c0,0,1.391-1.209,1.571-1.405c0,0,0.798-0.948,0.669-0.032
	c0,0-0.721,2.026-2.601,3.662c0,0-1.441,0.981-4.558,1.406c0,0-4.893-2.061-5.149-2.552L0,11.927l0.31-3.631L2.473,8.623z"/>
<circle fill="#57231C" cx="7.898" cy="1.75" r="1.75"/>
<circle fill="#57231C" cx="12.773" cy="5.75" r="1.75"/>
<polygon fill="#57231C" points="7.438,6.798 7.855,7.031 13.896,0.386 13.479,0.153 "/>
</svg>
