<?xml version="1.0" encoding="utf-8"?>
<!-- Generator: Adobe Illustrator 15.1.0, SVG Export Plug-In . SVG Version: 6.00 Build 0)  -->
<!DOCTYPE svg PUBLIC "-//W3C//DTD SVG 1.1//EN" "http://www.w3.org/Graphics/SVG/1.1/DTD/svg11.dtd">
<svg version="1.1" id="Layer_1" xmlns="http://www.w3.org/2000/svg" xmlns:xlink="http://www.w3.org/1999/xlink" x="0px" y="0px"
	 width="15px" height="15px" viewBox="0 0 15 15" enable-background="new 0 0 15 15" xml:space="preserve">
<circle fill="#55231A" cx="7.5" cy="7.496" r="7.5"/>
<g>
	<path fill="#F2F2F2" d="M11.41,10.787c0.177,0.176,0.177,0.462,0,0.638c-0.176,0.176-0.462,0.177-0.638,0L7.58,8.232
		C7.556,8.234,7.534,8.239,7.51,8.239c-0.405,0-0.733-0.329-0.733-0.733c0-0.234,0.111-0.439,0.282-0.574V3.411
		c0-0.249,0.202-0.451,0.451-0.451c0.25,0,0.452,0.202,0.452,0.451v3.521c0.17,0.134,0.282,0.34,0.282,0.574
		c0,0.035-0.006,0.069-0.01,0.103L11.41,10.787z"/>
</g>
</svg>
