<?xml version="1.0" encoding="utf-8"?>
<!-- Generator: Adobe Illustrator 15.1.0, SVG Export Plug-In . SVG Version: 6.00 Build 0)  -->
<!DOCTYPE svg PUBLIC "-//W3C//DTD SVG 1.1//EN" "http://www.w3.org/Graphics/SVG/1.1/DTD/svg11.dtd">
<svg version="1.1" id="Layer_1" xmlns="http://www.w3.org/2000/svg" xmlns:xlink="http://www.w3.org/1999/xlink" x="0px" y="0px"
	 width="100px" height="100px" viewBox="0 0 100 100" enable-background="new 0 0 100 100" xml:space="preserve">
<g>
	<path id="back" fill="#C0BCB5" d="M99.459,49.999c0,27.318-22.143,49.461-49.462,49.461c-27.315,0-49.458-22.144-49.458-49.461
		c0-27.315,22.143-49.458,49.458-49.458C77.316,0.541,99.459,22.684,99.459,49.999z"/>
	<path id="shadow" fill="#ECEAE8" d="M98.408,51.288c-0.197-0.205-0.397-0.405-0.6-0.602c-0.197-0.202-0.395-0.401-0.598-0.597
		c-0.198-0.207-0.401-0.408-0.608-0.606c-0.194-0.203-0.393-0.4-0.593-0.594c-0.199-0.205-0.396-0.406-0.603-0.604
		c-0.198-0.205-0.398-0.406-0.605-0.603c-0.194-0.203-0.394-0.401-0.595-0.596c-0.197-0.205-0.397-0.405-0.603-0.602
		c-0.196-0.205-0.396-0.405-0.603-0.602c-0.195-0.205-0.396-0.404-0.599-0.602c-0.198-0.203-0.397-0.404-0.602-0.6
		c-0.196-0.205-0.397-0.403-0.6-0.601c-0.196-0.203-0.396-0.401-0.6-0.598c-0.196-0.205-0.397-0.406-0.604-0.604
		c-0.196-0.205-0.395-0.404-0.6-0.6c-0.195-0.203-0.395-0.402-0.596-0.598c-0.197-0.205-0.398-0.406-0.603-0.602
		c-0.199-0.206-0.397-0.405-0.603-0.603c-0.195-0.204-0.395-0.401-0.6-0.598c-0.196-0.206-0.396-0.406-0.602-0.602
		C86.2,39.072,86,38.872,85.795,38.675c-0.196-0.205-0.396-0.403-0.6-0.601c-0.195-0.202-0.395-0.4-0.598-0.596
		c-0.195-0.203-0.395-0.403-0.6-0.601c-0.199-0.206-0.398-0.407-0.604-0.604c-0.196-0.204-0.397-0.403-0.6-0.6
		c-0.196-0.204-0.396-0.404-0.602-0.601c-0.196-0.204-0.396-0.403-0.6-0.602c-0.199-0.204-0.399-0.403-0.602-0.602
		c-0.197-0.202-0.397-0.401-0.601-0.598c-0.196-0.204-0.396-0.403-0.599-0.6c-0.199-0.206-0.4-0.406-0.604-0.603
		c-0.194-0.202-0.392-0.401-0.598-0.598c-0.196-0.203-0.395-0.403-0.597-0.599c-0.199-0.206-0.399-0.406-0.604-0.605
		c-0.199-0.204-0.397-0.403-0.603-0.6c-0.196-0.205-0.397-0.405-0.603-0.602c-0.195-0.204-0.395-0.403-0.598-0.599
		c-0.197-0.206-0.398-0.405-0.603-0.602c-0.195-0.203-0.395-0.4-0.597-0.598c-0.199-0.205-0.399-0.406-0.604-0.604
		c-0.197-0.203-0.395-0.401-0.598-0.596c-0.197-0.205-0.398-0.407-0.604-0.603c-0.196-0.205-0.396-0.406-0.602-0.602
		c-0.196-0.205-0.395-0.404-0.599-0.599c-0.196-0.206-0.397-0.406-0.604-0.604c-0.195-0.202-0.396-0.402-0.599-0.598
		c-0.196-0.205-0.395-0.402-0.599-0.599c-0.198-0.206-0.398-0.406-0.604-0.604c-0.195-0.203-0.394-0.401-0.597-0.598
		c-0.196-0.203-0.396-0.403-0.601-0.6c-0.196-0.204-0.396-0.404-0.601-0.601c-0.198-0.205-0.398-0.406-0.603-0.602
		c-0.197-0.204-0.396-0.404-0.6-0.599c-4.117-4.276-9.885-6.948-16.274-6.948c-12.475,0-22.625,10.147-22.625,22.621v4.728
		c-0.995,1.054-1.55,2.511-1.368,4.064l0.375,3.215c0.154,1.329,0.818,2.456,1.764,3.254c0.184,0.217,0.384,0.418,0.601,0.602
		c0.184,0.216,0.384,0.416,0.6,0.599c0.184,0.217,0.383,0.417,0.6,0.6c0.184,0.219,0.385,0.419,0.603,0.603
		c0.183,0.217,0.382,0.416,0.6,0.6c0.184,0.217,0.383,0.416,0.599,0.601c0.184,0.218,0.386,0.417,0.603,0.601
		c0.184,0.218,0.384,0.418,0.601,0.601c0.184,0.218,0.383,0.417,0.601,0.601c0.184,0.218,0.383,0.417,0.6,0.601
		c0.128,0.151,0.258,0.304,0.404,0.44c1.403,3.284,3.4,6.133,5.737,8.301c-0.107,0.596-0.234,1.19-0.379,1.78
		c-0.46,1.876-1.12,3.696-2.042,5.267l-0.408-0.357l-6.659,3.525l0.295,0.494c-6.529,1.273-13.638,4.264-13.638,4.264
		s-1.449,1.593-3.279,4.051c0.565,0.604,1.148,1.191,1.742,1.766c0.201,0.199,0.397,0.402,0.601,0.601
		c0.2,0.2,0.398,0.404,0.603,0.602c0.198,0.198,0.392,0.399,0.593,0.594c0.188,0.188,0.375,0.378,0.564,0.564
		c8.627,7.335,19.798,11.771,32.009,11.771c26.552,0,48.21-20.922,49.403-47.18c-0.129-0.131-0.258-0.264-0.391-0.391
		C98.813,51.685,98.613,51.484,98.408,51.288z"/>
	<g id="icon">
		<g id="avatar">
			<g>
				<path fill="#FDDAB5" d="M70.176,39.01c-1.025-0.599-2.694-0.109-2.792,9.284l-1.128-0.121l-0.162-0.017
					c0,0,0.145-1.252,0.193-3.009c0.086-3.086-0.133-7.731-1.973-9.926c-0.231-0.276-0.484-0.517-0.77-0.707
					c0.636-1.037,1.07-1.987,1.28-2.88c0.341-1.457,0.074-2.759-0.946-4.017c-1.096-1.35-2.234-1.826-3.44-1.832
					c-2.655,0.002-5.629,2.27-9.146,2.516c0,0-2.27,0-2.297,0c-3.489-0.246-6.461-2.513-9.12-2.516
					c-1.206,0.006-2.345,0.482-3.439,1.832c-1.021,1.258-1.288,2.56-0.946,4.018c0.21,0.892,0.645,1.843,1.28,2.879
					c-0.285,0.19-0.539,0.431-0.769,0.707c-1.841,2.194-2.059,6.837-1.975,9.925c0.049,1.757,0.196,3.01,0.196,3.01l-0.162,0.017
					l-1.127,0.121c-0.115-10.975-2.375-9.796-3.246-8.927c-0.724,1.291-0.827,3.053-0.827,4.893c0,0.208,0.028,0.408,0.045,0.611
					c0.221,2.617,1.801,4.791,3.604,5.586c0.998,5.749,3.861,10.72,7.486,14.083c-0.107,0.596-0.234,1.19-0.379,1.78
					c-0.46,1.876-1.12,3.696-2.042,5.267l3.585,3.124l7.799,6.801L47.5,83.297h0.108l1.336-1.621h1.962l1.34,1.621h0.188
					l-1.459-1.785l8.094-6.801l4.393-3.689c-0.881-1.482-1.688-3.183-2.367-5.005c-0.194-0.523-0.383-1.053-0.555-1.594
					c3.602-3.395,6.43-8.379,7.391-14.132c1.662-0.91,3.064-2.979,3.267-5.438c0.016-0.197,0.04-0.391,0.04-0.593
					C71.236,42.244,71.111,40.319,70.176,39.01z"/>
			</g>
			<path fill="#EEC7A6" d="M50.207,71.258c3.563,0,7.232-1.749,10.332-4.672c0.19-0.18,0.369-0.382,0.555-0.569
				c-0.194-0.523-0.383-1.053-0.555-1.594c-3.1,2.924-6.769,4.674-10.332,4.674c-3.517,0-7.136-1.703-10.211-4.557
				c-0.107,0.596-0.234,1.19-0.379,1.78c0.128,0.125,0.249,0.262,0.379,0.383C43.071,69.556,46.69,71.258,50.207,71.258z"/>
			<path fill="#865A36" d="M68.938,28.438l-0.016-0.226c-3.635-11.039-14.016-13.019-17.971-13.371v-0.074c0,0-0.027,0-0.068,0
				c-0.088,0-0.338,0-0.726,0.018c-0.387-0.018-0.639-0.018-0.724-0.018c-0.043,0-0.069,0-0.069,0v0.074
				c-3.953,0.353-14.335,2.332-17.968,13.371l-0.017,0.226l-2.03,11.33c0,0,0.13-0.191,0.339-0.401
				c0.871-0.869,1.797-2.047,1.912,8.927l2.461-0.121l0.162-0.017c0,0-0.146-1.253-0.196-3.01c-0.084-3.087,0.134-7.73,1.975-9.925
				c0.229-0.276,0.483-0.517,0.769-0.707c-0.636-1.036-1.07-1.987-1.28-2.879c-0.342-1.458-0.074-2.76,0.946-4.018
				c1.094-1.35,2.233-1.826,3.439-1.832c2.659,0.002,5.631,2.27,9.12,2.516c0.027,0,2.297,0,2.297,0
				c3.517-0.246,6.49-2.513,9.146-2.516c1.206,0.006,2.345,0.482,3.44,1.832c1.021,1.258,1.287,2.56,0.946,4.017
				c-0.21,0.893-0.645,1.843-1.28,2.88c0.285,0.19,0.538,0.431,0.77,0.707c1.84,2.194,2.059,6.84,1.973,9.926
				c-0.049,1.757-0.193,3.009-0.193,3.009l0.162,0.017l1.795,0.121c0.098-9.394,1.1-9.883,2.125-9.284
				c0.461,0.269,0.791,0.758,0.791,0.758L68.938,28.438z"/>
			<g>
				<g>
					<path fill="#636567" d="M44.759,87.328l-0.116-0.437l2.258-2.738l0.707-0.856H47.5l-0.672,0.821l-4.937,6.041l4.498,8.146
						l1.401-7.098c-1.746-1.848-2.913-3.646-2.963-3.724L44.759,87.328z"/>
					<path fill="#636567" d="M52.927,83.901l-0.493-0.604h-0.188l0.553,0.671l2.357,2.855L55.11,87.37l-0.071,0.113
						c-0.049,0.075-1.164,1.799-2.859,3.598l1.654,8.379l4.272-9.222L52.927,83.901z"/>
				</g>
				<path fill="#EB5E49" d="M55.039,87.483l0.071-0.113l0.046-0.547l-2.357-2.855l-0.553-0.671l-1.34-1.621h-1.962l-1.336,1.621
					l-0.707,0.856l-2.258,2.738l0.116,0.437l0.068,0.156c0.051,0.078,1.217,1.876,2.963,3.724l-1.401,7.098l0.458,0.829
					c1.043,0.066,2.09,0.11,3.149,0.11c1.269,0,2.521-0.063,3.765-0.156l-1.582-8.008C53.875,89.282,54.99,87.559,55.039,87.483z"/>
				<g>
					<path fill="#514E4C" d="M41.892,90.159l-1.278,1.564l-9.811-16.475c-6.529,1.273-13.638,4.264-13.638,4.264
						s-1.449,1.593-3.279,4.051c8.355,8.929,19.976,14.754,32.962,15.571l-0.458-0.829L41.892,90.159z"/>
					<path fill="#514E4C" d="M70.375,74.95L59.32,91.724l-1.214-1.485l-4.093,8.831c12.881-1.037,24.371-6.992,32.573-16.004
						c-1.717-2.426-3.077-3.958-3.077-3.958S76.504,75.859,70.375,74.95z"/>
				</g>
				<g>
					<polygon fill="#FFFFFD" points="31.659,76.688 40.613,91.724 41.892,90.159 46.828,84.118 47.5,83.297 48.959,81.512 
						41.16,74.711 37.575,71.587 37.167,71.229 30.507,74.755 30.802,75.249 31.416,76.28 					"/>
					<polygon fill="#FFFFFD" points="50.975,81.512 52.434,83.297 52.927,83.901 58.106,90.238 59.32,91.724 70.375,74.95 
						70.504,74.755 63.846,70.697 63.461,71.021 59.068,74.711 					"/>
				</g>
			</g>
		</g>
	</g>
	<path id="border" fill="#FDFDFA" d="M49.997,100C22.428,100,0,77.569,0,49.999C0,22.43,22.428,0,49.997,0
		C77.569,0,100,22.43,100,49.999C100,77.569,77.569,100,49.997,100L49.997,100z M49.997,1.082C23.025,1.082,1.08,23.026,1.08,49.999
		c0,26.975,21.945,48.92,48.917,48.92c26.977,0,48.922-21.945,48.922-48.92C98.919,23.026,76.974,1.082,49.997,1.082L49.997,1.082z"
		/>
</g>
</svg>
