<?xml version="1.0" encoding="utf-8"?>
<svg version="1.1" id="Layer_1" xmlns="http://www.w3.org/2000/svg" xmlns:xlink="http://www.w3.org/1999/xlink" x="0px" y="0px"
	 width="128px" height="128px" viewBox="0 0 128 128" enable-background="new 0 0 128 128" xml:space="preserve">
<path fill="#286999" stroke="#286999" stroke-width="0.985" stroke-miterlimit="10" d="M64.083,1C29.241,1,1,29.204,1,64
	c0,34.797,28.241,63,63.083,63c34.843,0,63.083-28.203,63.083-63C127.167,29.204,98.927,1,64.083,1z M64.083,124.264
	C30.758,124.264,3.746,97.281,3.746,64c0-33.282,27.012-60.258,60.337-60.258c33.321,0,60.344,26.976,60.344,60.258
	C124.428,97.281,97.404,124.264,64.083,124.264z"/>
<path fill="none" stroke="#286999" stroke-width="2" stroke-miterlimit="10" d="M38.907,72.463l3.234-4.449h4.346
	c0.518,0,1.057,0,1.617,0s1.048,0.019,1.461,0.053c-0.241-0.311-0.521-0.702-0.84-1.178c-0.319-0.475-0.626-0.918-0.919-1.332
	l-3.104-4.579l-8.123,11.485h-6.338l11.098-15.65c0.362-0.5,0.819-0.948,1.371-1.346c0.552-0.396,1.25-0.595,2.095-0.595
	c0.81,0,1.487,0.186,2.031,0.557c0.543,0.371,1.005,0.832,1.384,1.384l10.813,15.65H38.907L38.907,72.463z"/>
<path fill="none" stroke="#286999" stroke-width="2" stroke-miterlimit="10" d="M79.702,68.014l-3.468,4.449H60.947V55.158h5.354
	v12.855H79.702z"/>
<path fill="none" stroke="#286999" stroke-width="2" stroke-miterlimit="10" d="M100.241,68.014l-3.466,4.449H81.486V55.158h5.354
	v12.855H100.241z"/>
</svg>