<?xml version="1.0" encoding="utf-8"?>
<svg version="1.1" id="Layer_1" xmlns="http://www.w3.org/2000/svg" xmlns:xlink="http://www.w3.org/1999/xlink" x="0px" y="0px"
	 width="128px" height="128px" viewBox="0 0 128 128" enable-background="new 0 0 128 128" xml:space="preserve">
<path fill="none" stroke="#FFAB00" stroke-width="1.888" stroke-miterlimit="10" d="M73.186,78.545l-0.012-2.253
	c4.373-2.548,7.241-6.994,7.192-12.019c0.004-0.028,0.011-0.05-0.007-0.089c0.203,0.112,0.429,0.185,0.679,0.216
	c1.128,0.153,2.153-0.567,2.305-1.56l0.351-2.183c0.137-1.015-0.621-1.928-1.741-2.085c-0.155-0.019-0.312-0.019-0.446-0.007
	l-0.033-1.785l17.104-9.425L63.84,29.152L30.374,47.625l1.954,1.024C32.24,48.806,32.177,49,32.18,49.21l0.17,16.708
	c0.003,0.021,0.009,0.045,0.015,0.061c-1.939,0.512-3.333,2.166-3.249,4.055c0.013,0.681,0.254,1.3,0.628,1.836h-0.007l2.156,4.054
	l2.213,3.996l1.731-4.178l1.683-4.236h-0.005c0.298-0.552,0.449-1.222,0.432-1.897c-0.143-1.816-1.577-3.284-3.461-3.674
	c-0.002-0.013,0.004-0.023,0.004-0.035l-0.183-16.212l13.451,7.058l0.023,2.215c-0.197-0.021-0.395-0.017-0.585,0.017
	c-1.069,0.192-1.79,1.148-1.573,2.136l0.411,2.171c0.238,0.986,1.285,1.654,2.334,1.461c0.219-0.024,0.409-0.09,0.596-0.174
	c0,0.02,0,0.035,0.002,0.041c0.055,5.064,3.047,9.457,7.518,11.91l0.03,2.369c-12.12,2.543-20.875,9.911-20.787,18.506
	c0.008,0.607,0.089,1.155,0.123,1.758c0.083,0,0.089,0,0.181-0.002l-0.007-0.271l59.214-0.642c0.02-0.479,0.086-1.013,0.086-1.49
	C95.213,87.943,85.855,80.62,73.186,78.545z"/>
<path fill="#FFAB00" stroke="#FFAB00" stroke-width="0.985" stroke-miterlimit="10" d="M64.083,0.833
	C29.241,0.833,1,29.037,1,63.833c0,34.797,28.241,63,63.083,63c34.843,0,63.083-28.203,63.083-63
	C127.167,29.037,98.927,0.833,64.083,0.833z M64.083,124.098c-33.326,0-60.337-26.984-60.337-60.265
	c0-33.282,27.012-60.257,60.337-60.257c33.321,0,60.344,26.975,60.344,60.257C124.428,97.113,97.404,124.098,64.083,124.098z"/>
</svg>