<?xml version="1.0" encoding="utf-8"?>
<svg version="1.1" id="Layer_1" xmlns="http://www.w3.org/2000/svg" xmlns:xlink="http://www.w3.org/1999/xlink" x="0px" y="0px"
	 width="128px" height="128px" viewBox="0 0 128 128" enable-background="new 0 0 128 128" xml:space="preserve">
<path fill="#607D8B" stroke="#607D8B" stroke-width="0.987" stroke-miterlimit="10" d="M64,0.833
	C29.111,0.833,0.833,29.111,0.833,64c0,34.89,28.278,63.167,63.167,63.167S127.167,98.89,127.167,64
	C127.167,29.111,98.89,0.833,64,0.833z M64,124.425C30.63,124.425,3.583,97.368,3.583,64C3.583,30.63,30.63,3.583,64,3.583
	c33.364,0,60.424,27.047,60.424,60.417C124.425,97.368,97.364,124.425,64,124.425z"/>
<path fill="none" stroke="#607D8B" stroke-width="2" stroke-miterlimit="10" d="M90.313,89.589V87.9l-1.756-1.955h-9.291
	l-3.234,3.644H49.907l-3.234-3.644h-9.239L35.678,87.9v1.688v4.81v3.25c0.143,0.14,0.334,0.332,0.524,0.528H89.8
	c0.19-0.196,0.382-0.393,0.521-0.587v-8.001H90.313z"/>
<path fill="none" stroke="#607D8B" stroke-width="2" stroke-miterlimit="10" d="M71.848,44.659c0,4.882-3.967,8.849-8.848,8.849
	s-8.849-3.967-8.849-8.849c0-4.906,3.968-8.874,8.849-8.874S71.848,39.753,71.848,44.659z"/>
<path fill="none" stroke="#607D8B" stroke-width="2" stroke-miterlimit="10" d="M85.889,85.945l-6.498-19.16l0.256-0.012
	c-0.016-0.051-0.035-0.102-0.051-0.152l0.059-0.042l-0.098-0.075c-2.125-6.328-9.133-10.811-17.277-10.459
	c-8.26,0.357-14.954,5.559-16.381,12.163l0.251-0.011l-6.171,17.748h4.279l7.229-14.452v18.147h0.716h0.516h1.302h18.086h2.277
	V70.625l7.35,15.32H85.889z"/>
<path fill="none" stroke="#607D8B" stroke-width="2" stroke-miterlimit="10" d="M80.008,43.643c0-9.841-7.613-17.819-17.008-17.819
	c-9.395,0-17.008,7.979-17.008,17.819c0,0.38,0.015,0.756,0.036,1.129h1.285c0.181,2.292,1.4,4.052,2.874,4.052
	c1.596,0,2.899-2.067,2.899-4.64c0-2.569-1.304-4.646-2.899-4.646c-0.401,0-0.783,0.129-1.131,0.367
	C50.645,33.387,56.285,28.564,63,28.564c6.729,0,12.377,4.842,13.952,11.381c-0.364-0.261-0.771-0.407-1.208-0.407
	c-1.596,0-2.898,2.076-2.898,4.646c0,2.572,1.303,4.64,2.898,4.64c1.525,0,2.703-1.76,2.875-4.052h1.354
	C79.994,44.398,80.008,44.022,80.008,43.643z"/>
</svg>