<?xml version="1.0" encoding="utf-8"?>
<svg version="1.1" id="Layer_1" xmlns="http://www.w3.org/2000/svg" xmlns:xlink="http://www.w3.org/1999/xlink" x="0px" y="0px"
	 width="128px" height="128px" viewBox="0 0 128 128" enable-background="new 0 0 128 128" xml:space="preserve">
<path fill="#FF1D25" stroke="#FF1D25" stroke-width="0.9844" stroke-miterlimit="10" d="M64.083,1
	C29.333,1,1.167,29.241,1.167,64.083c0,34.843,28.166,63.083,62.917,63.083c34.751,0,62.917-28.24,62.917-63.083
	C127,29.241,98.834,1,64.083,1z M64.083,124.428c-33.237,0-60.178-27.02-60.178-60.344c0-33.326,26.94-60.337,60.178-60.337
	c33.233,0,60.185,27.012,60.185,60.337C124.268,97.408,97.316,124.428,64.083,124.428z"/>
<path fill="none" stroke="#FF1D25" stroke-width="2" stroke-miterlimit="10" d="M69.919,42.105l-1.448-12.074L32.98,29.776
	l-1.602,11.701l-1.667,12.225c-0.322,1.397-0.504,2.853-0.516,4.347c-0.077,10.547,8.176,19.29,18.851,20.475l-0.118,15.848
	c-2.125,1.563-6.327,2.609-11.132,2.572l-0.018,2.639l27.244,0.193l0.022-2.733c-4.821-0.035-8.999-1.14-11.11-2.731l0.113-15.801
	c10.498-1.199,18.67-9.738,18.741-20.152c0.017-1.484-0.144-2.928-0.446-4.325L69.919,42.105z"/>
<path fill="none" stroke="#FF1D25" stroke-width="2" stroke-miterlimit="10" d="M99.057,46.48c0.008-0.653-0.065-1.302-0.213-1.926
	l-0.66-5.303l-0.67-5.374l-1.229-0.009c0.003,0.025,0.007,0.051,0.007,0.078l-0.09,12.56c0,0.129-0.035,0.252-0.1,0.359
	c0,0.085-0.02,0.163-0.041,0.25c-0.218,0.664-0.885,1.002-1.646,0.977c-0.986,0.238-2.043,0.126-3.131-0.148
	c-0.186-0.043-0.335-0.127-0.443-0.234c-0.443-0.198-0.59-0.667-0.456-1.053c-0.022-0.062-0.032-0.126-0.032-0.191l0.09-12.562
	c0.004-0.026,0.007-0.051,0.014-0.075l-2.036-0.016c0.007,0.024,0.011,0.05,0.013,0.078L88.34,46.45
	c0,0.091-0.029,0.174-0.055,0.255c0,0.022,0.01,0.045,0.01,0.07c0.08,0.381-0.072,0.763-0.447,0.959
	c-0.158,0.227-0.434,0.388-0.836,0.384c-0.121,0.056-0.283,0.086-0.449,0.085c-0.039,0-0.066-0.002-0.107-0.005
	c-0.211,0.046-0.426,0.07-0.654,0.048c-0.229-0.021-0.443-0.069-0.656-0.122c-0.526-0.059-1.02-0.187-1.408-0.364
	c-0.098-0.046-0.178-0.106-0.248-0.178c-0.301-0.082-0.494-0.265-0.594-0.483c-0.246-0.157-0.405-0.407-0.405-0.692l0.093-12.559
	c0-0.027,0.007-0.051,0.007-0.077l-1.448-0.011l-0.746,5.206l-0.764,5.44c-0.156,0.624-0.238,1.269-0.249,1.932
	c-0.024,4.106,2.892,7.597,6.925,8.759l-0.933,16.485L84.227,91.98c-0.039,0.199-0.07,0.396-0.074,0.598
	c-0.016,2.1,2.097,3.822,4.723,3.842c2.609,0.02,4.741-1.672,4.762-3.773c-0.004-0.198-0.022-0.396-0.068-0.592l-0.825-20.178
	l-0.688-16.75C96.077,54.013,99.027,50.572,99.057,46.48z"/>
</svg>