<?xml version="1.0" encoding="utf-8"?>
<svg version="1.1" id="Layer_1" xmlns="http://www.w3.org/2000/svg" xmlns:xlink="http://www.w3.org/1999/xlink" x="0px" y="0px"
	 width="128px" height="128px" viewBox="0 0 128 128" enable-background="new 0 0 128 128" xml:space="preserve">
<path fill="#BF161C" stroke="#BF161C" stroke-width="0.987" stroke-miterlimit="10" d="M64,0.833
	C29.111,0.833,0.833,29.111,0.833,64c0,34.89,28.278,63.167,63.167,63.167S127.167,98.89,127.167,64
	C127.167,29.111,98.89,0.833,64,0.833z M64,124.425C30.63,124.425,3.583,97.368,3.583,64C3.583,30.63,30.63,3.583,64,3.583
	c33.364,0,60.424,27.047,60.424,60.417C124.425,97.368,97.364,124.425,64,124.425z"/>
<path fill="none" stroke="#BF161C" stroke-width="2" stroke-miterlimit="10" d="M97.895,45.024l-16.799-8.025l-16.977-8.108
	l-16.99,8.153l-16.635,7.989c-0.802,0.219-1.385,0.93-1.385,1.764V97.05c0,1.013,0.866,1.841,1.932,1.841h66.137
	c1.071,0,1.934-0.828,1.934-1.841V47C99.109,47,99.109,45.792,97.895,45.024z M84.736,73.021H68.436v14.936h-8.65V73.021H43.596
	v-7.334h16.188V53.724h8.649v11.963h16.303V73.021z"/>
</svg>