<?xml version="1.0" encoding="utf-8"?>
<svg version="1.1" id="Layer_1" xmlns="http://www.w3.org/2000/svg" xmlns:xlink="http://www.w3.org/1999/xlink" x="0px" y="0px"
	 width="128px" height="128px" viewBox="0 0 128 128" enable-background="new 0 0 128 128" xml:space="preserve">
<path fill="#FFB839" stroke="#FFB839" stroke-width="0.9863" stroke-miterlimit="10" d="M64,1C29.111,1,0.833,29.241,0.833,64.083
	c0,34.843,28.278,63.083,63.167,63.083s63.167-28.24,63.167-63.083C127.167,29.241,98.89,1,64,1z M64,124.428
	c-33.37,0-60.417-27.02-60.417-60.344C3.583,30.758,30.63,3.746,64,3.746c33.364,0,60.424,27.012,60.424,60.337
	C124.425,97.408,97.364,124.428,64,124.428z"/>
<path fill="none" stroke="#FFB839" stroke-width="3.0989" stroke-miterlimit="10" d="M78.171,28.357
	c-5.676,0-10.972,2.425-15.237,6.521c-4.044-3.372-8.81-5.324-13.923-5.324c-14.475,0-26.186,15.542-26.186,34.735
	c0,19.195,11.711,34.736,26.186,34.736c5.682,0,10.977-2.424,15.243-6.506c4.038,3.342,8.811,5.323,13.917,5.323
	c14.486,0,26.19-15.558,26.19-34.75C104.361,43.899,92.657,28.357,78.171,28.357z M63.998,81.104
	c-3.367-4.688-5.443-11.017-5.443-18.01c0-6.404,1.751-12.275,4.635-16.814c3.362,4.687,5.443,11.031,5.443,18.01
	C68.633,70.709,66.881,76.564,63.998,81.104z M29.366,64.291c0-14.388,8.804-26.055,19.645-26.055c3.202,0,6.233,1.035,8.918,2.854
	c-3.714,5.988-5.938,13.648-5.938,22.004c0,9.123,2.667,17.434,6.996,23.629c-2.935,2.293-6.325,3.623-9.976,3.623
	C38.17,90.348,29.366,78.68,29.366,64.291z M78.171,89.148c-3.196,0-6.233-1.034-8.912-2.84c3.714-5.988,5.938-13.664,5.938-22.019
	c0-9.124-2.668-17.434-6.995-23.615c2.935-2.307,6.317-3.623,9.97-3.623c10.848,0,19.651,11.652,19.651,26.042
	C97.822,77.48,89.018,89.148,78.171,89.148z"/>
</svg>