<?xml version="1.0" encoding="utf-8"?>
<svg version="1.1" id="Layer_1" xmlns="http://www.w3.org/2000/svg" xmlns:xlink="http://www.w3.org/1999/xlink" x="0px" y="0px"
	 width="128px" height="128px" viewBox="0 0 128 128" enable-background="new 0 0 128 128" xml:space="preserve">
<path fill="#1A92FF" stroke="#1A92FF" stroke-width="0.9897" stroke-miterlimit="10" d="M63.567,0.688
	C28.563,0.688,0.192,29.031,0.192,64c0,34.97,28.371,63.313,63.375,63.313c35.005,0,63.375-28.343,63.375-63.313
	C126.942,29.031,98.572,0.688,63.567,0.688z M63.567,124.563c-33.48,0-60.616-27.118-60.616-60.563
	c0-33.447,27.136-60.556,60.616-60.556c33.475,0,60.623,27.109,60.623,60.556C124.19,97.445,97.042,124.563,63.567,124.563z"/>
<path fill="none" stroke="#1A92FF" stroke-width="2" stroke-miterlimit="10" d="M92.678,53.14l6.475,4.003L99.2,49.26L66.544,29.051
	c-1.544-0.968-2.552-1.418-5.127-0.161c-1.038,0.614-2.345,1.69-3.335,2.151l-30.12,18.078l-0.027,7.864l6.454-3.877l-0.132,45.535
	l58.288,0.172L92.678,53.14z M65.854,81.371c-0.037,0.02-0.237,0.031-0.237,0.271l-0.009,2.529c-0.002,0.689-0.641,1.25-1.428,1.247
	l-1.275-0.002c-0.785-0.003-1.424-0.567-1.421-1.263l0.006-2.398c0.002-0.183-0.216-0.25-0.26-0.256
	c-0.154-0.023-3.707-0.537-5.539-1.404c-0.458-0.215-0.813-0.701-0.58-1.294l0.66-1.598c0.202-0.487,0.701-0.794,1.263-0.792
	c0.21,0.001,0.411,0.046,0.601,0.125c0.034,0.018,3.018,1.281,5.219,1.288c2.588,0.012,4.397-1.234,4.402-3.021
	c0.006-1.645-1.267-2.771-4.394-3.881c-3.898-1.349-7.508-3.141-7.499-7.078c0.007-3.161,2.393-5.663,6.198-6.469
	c0.08-0.013,0.301-0.092,0.303-0.279v-2.415c0.003-0.688,0.647-1.251,1.432-1.249l1.23,0.004c0.787,0.002,1.428,0.568,1.428,1.257
	l0.002,2.294c-0.005,0.181,0.164,0.211,0.21,0.218c0.034,0.009,3.044,0.478,4.588,1.09c0.459,0.185,0.82,0.686,0.583,1.261
	l-0.693,1.577c-0.203,0.466-0.688,0.757-1.24,0.754c-0.219-0.001-0.447-0.044-0.647-0.143c-0.012-0.013-1.937-0.905-4.435-0.911
	c-2.83-0.01-3.84,1.387-3.84,2.578c-0.01,1.483,1.086,2.313,4.864,3.694c4.965,1.779,7.082,4.004,7.072,7.453
	C72.406,77.912,69.902,80.566,65.854,81.371z"/>
</svg>