<?xml version="1.0" encoding="utf-8"?>
<svg version="1.1" id="Layer_1" xmlns="http://www.w3.org/2000/svg" xmlns:xlink="http://www.w3.org/1999/xlink" x="0px" y="0px"
	 width="128px" height="128px" viewBox="0 0 128 128" enable-background="new 0 0 128 128" xml:space="preserve">
<path fill="#FF1DD4" stroke="#FF1DD4" stroke-width="0.9893" stroke-miterlimit="10" d="M63.938,0.75
	c-34.97,0-63.313,28.343-63.313,63.313s28.343,63.313,63.313,63.313s63.313-28.343,63.313-63.313S98.907,0.75,63.938,0.75z
	 M63.938,124.626c-33.447,0-60.556-27.118-60.556-60.563c0-33.447,27.109-60.556,60.556-60.556
	c33.441,0,60.563,27.109,60.563,60.556C124.501,97.508,97.379,124.626,63.938,124.626z"/>
<path fill="none" stroke="#FF1DD4" stroke-width="2" stroke-miterlimit="10" d="M97.934,63.332
	c-0.063-1.812-0.926-3.439-2.267-4.596l0.022-0.029l-0.192-0.116c-0.466-0.381-0.992-0.703-1.56-0.957L65.848,40.32l-0.436-0.564
	v-3.165h-0.165v-0.083l0.084-0.006c-0.021-2.13,1.235-3.954,3.049-4.564c0.087-0.018,0.177-0.032,0.267-0.039
	c2.42-0.201,4.612,1.58,5.069,4.04l2.581-0.213c0-0.004-0.003-0.008-0.006-0.014l0.482-0.03c-0.553-3.988-3.887-6.939-7.607-6.666
	c-0.521,0.035-1.018,0.134-1.5,0.292c-3.35,0.62-5.767,3.647-5.764,7.217h-0.109v3.168c0.003,0.075,0.003,0.113,0.006,0.167v0.003
	L32.045,57.921c-1.653,0.743-2.959,2.087-3.569,3.769c-0.546,1.159-0.703,2.428-0.358,3.677c0.364,1.341,1.24,2.465,2.442,3.298
	c0.893,0.688,1.994,1.171,3.214,1.353l0.003-0.028c0.914,0.183,1.894,0.245,2.894,0.171h2.807V99H86.88V70.159h2.781
	c0.44,0.04,0.878,0.04,1.317,0h0.512c0.061-0.021,0.13-0.032,0.191-0.046c1.86-0.227,3.496-1.107,4.633-2.379
	c0.018-0.021,0.035-0.037,0.052-0.062c0.026-0.022,0.047-0.053,0.075-0.081c0.578-0.677,1.031-1.468,1.277-2.347
	C97.904,64.602,97.968,63.959,97.934,63.332z M94.852,64.67c-0.416,1.505-1.689,2.609-3.22,3.018H86.88v-3.267H39.477v3.267h-3.278
	l-0.012-0.09c-2.277,0.146-4.341-1.271-4.694-3.307c-0.301-1.659,0.63-3.249,2.179-4.041l0.015,0.023l0.179-0.11
	c0.3-0.139,0.61-0.249,0.939-0.321l-0.038-0.228l0.038-0.021c0.063-0.003,0.145-0.009,0.214-0.009l0.011-0.127l28.53-17.329
	l27.581,17.01v0.179c0.125,0.009,0.246,0.026,0.361,0.049l0.396,0.243l-0.021,0.083c0.134,0.038,0.251,0.087,0.379,0.133
	l0.786,0.482l0.037-0.055C94.564,61.231,95.329,62.957,94.852,64.67z"/>
</svg>